<?xml version="1.0" encoding="UTF-8"?>
<svg id="Capa_2" data-name="Capa 2" xmlns="http://www.w3.org/2000/svg" width="406.951" height="504.147" viewBox="0 0 265.92 371.05">
  <defs>
    <style>
      .cls-1 {
        fill: #049ae7;
      }
    </style>
  </defs>
  <g id="Capa_1-2" data-name="Capa 1">
    <path class="cls-1" d="m21.34,300.39c7.34,29.24,24.71,51.27,49.09,68.22,4.36,3.03,9.15,3.19,13.84.69,4.76-2.54,6.82-6.76,6.82-12.05.01-21.51-.09-43.03.05-64.54.1-15.52,10.92-28.5,25.68-31.23,19.78-3.65,37.68,10.8,37.89,30.95.22,21.08.13,42.17.01,63.25-.03,5.91,1.51,10.79,6.97,13.71,5.62,3,10.66,1.56,15.6-2,39.07-28.21,54.74-66.66,50.14-114.05-.17-1.71-.32-3.43-.49-5.14-.28-2.92-2.32-6.64-.49-8.54.12-.12.24-.22.37-.32l5.61-16.24s.03-.1.05-.15l.06-.17-.06.17c.11-.31.26-.67.45-1.07,11.76-24.19,15.14-49.67,11.34-76.21-2.17-15.11-6.52-29.35-16.17-41.54-9.55-12.05-21.86-18.12-37.39-17.44-14.78.65-27.85,6.36-40.18,13.86-8.19,4.98-17.06,6.26-27.06,6.97.71-1.23.93-1.73,1.26-2.15,19.56-24.26,43.52-43.07,71.14-57.35,1.87-.97,3.04-.55,4.61.53,5.39,3.71,11.36,4.8,17.61,2.73,11.55-3.82,23.12-7.64,34.53-11.85,10.54-3.89,15.7-15.17,12.18-25.61-3.47-10.29-14.63-16.23-25.29-12.89-11.75,3.68-23.41,7.66-34.95,11.96-7.77,2.9-12.35,8.94-12.71,17.29-.15,3.58-1.42,5.18-4.4,6.73-30.07,15.64-55.74,36.64-76.55,63.46-4.26,5.49-5.41,5.77-11.58,2.46-1.51-.81-2.95-1.77-4.43-2.64-7.95-4.64-16.17-8.65-25.08-11.1-19.52-5.36-36.98-2.69-50.79,13.45-6.13,7.16-10.75,15.33-13.31,24.36-9.15,32.21-7.69,63.77,6.89,94.26l6.98,18.91c-2.96,19.16-3.01,41.36,1.74,60.31ZM210.06,25.65c11.06-3.9,22.15-7.7,33.3-11.33,4.52-1.47,8.69,1.69,8.64,6.57-.25,2.54-1.68,4.72-4.55,5.71-11.09,3.81-22.17,7.64-33.31,11.29-3.7,1.21-7.22-.7-8.33-4.02-1.13-3.4.44-6.87,4.25-8.22ZM17.95,134.5c1.2-4.92,3.18-9.5,5.57-13.92,9.78-18.08,23.94-23.88,43.58-17.84,7.85,2.41,15.15,6.05,22.19,10.22.99.58,2.08,1.07,2.91,1.83,1.75,1.6,5.51.98,5.69,3.53.13,1.89-2.04,3.95-3.2,5.92-14.5,24.48-24.53,50.74-31.11,78.36-.35,1.48-.78,2.93-1.39,5.19-4.57-8.03-7.06-16-8.95-24.2-.87-3.8-1.21-7.65-.95-11.53.39-5.95,2.91-8.14,8.92-7.69,1.71.13,3.4.7,5.1.68,3.75-.05,6.31-1.93,6.96-5.71.65-3.79-1.06-6.75-4.66-7.69-16.37-4.29-29.36,2.93-30.16,19.89-.72,15.4,4.13,29.56,11.43,42.65,6.19,11.11,7.31,22.58,5.28,34.5-3.54,20.77-5.65,41.5-1.07,62.35.89,4.04,2.07,8.05,3.47,11.95,1.48,4.14,5.19,5.88,8.87,4.59,3.66-1.29,5.49-4.97,4.06-9.13-7.36-21.49-5.89-43.2-1.92-65.01.31-1.68,1.12-2.89,2.09-4.12,25.87-32.64,78.71-32.53,104.71.15,1.96,2.46,2.14,5.25,2.6,8.01,3.49,20.73,4.25,41.33-2.77,61.61-1.29,3.73.9,7.45,4.44,8.56,3.57,1.12,7.16-.58,8.63-4.46,3.9-10.28,5.58-21.03,6.05-31.96.62-14.26-1.31-28.3-3.6-42.34-1.97-12.1-.93-23.66,5.36-34.9,7.17-12.82,11.85-26.74,11.37-41.82-.38-11.92-6.82-19.95-17.16-21.46-4.15-.61-8.3-.19-12.39.7-23.4,5.11-47.06,6.83-70.96,5.26-1.57-.1-3.15-.17-4.73-.15-4.36.04-7.39,2.7-7.55,6.58-.16,3.77,2.76,6.87,7.03,7.19,9.59.71,19.19,1.12,28.8.75,16.93-.65,33.75-2.26,50.31-6.01,1.39-.32,2.82-.59,4.24-.66,5.8-.3,8.25,1.81,8.54,7.63.55,11.06-3.19,21.13-7.37,31.08-2.05,4.89-5.37,9.14-7.07,14.21-1.37,4.09-2.14,8.31-2.99,12.78-33.72-24.81-67.97-25.81-103.15-2.65-.28-4.08,1.02-7.85,1.81-11.63,6.79-32.37,17.99-63.01,35.85-91.05,1.79-2.81,3.45-3.97,7.11-3.76,14.38.81,28.21-1.1,40.82-9.07,8.25-5.22,17.24-8.99,26.99-10.75,13.66-2.47,24.52,1.87,32.74,13.01,7.46,10.11,10.55,21.78,12.26,33.98,3.83,27.22-.7,52.88-14.82,76.53-4.59,7.68-4.15,15.4-2.96,23.65,3.12,21.48,2.19,42.63-6.36,62.95-7.84,18.63-20.78,33-37.85,45.26,0-21.97.11-42.9-.03-63.83-.15-21.53-14.24-39.25-35.02-44.43-27.7-6.9-55.66,14.23-56.15,42.77-.34,19.93-.09,39.88-.11,59.81,0,1.54,0,3.08,0,4.72-2.08.02-3.09-1.33-4.28-2.23-32.35-24.64-44.66-57.71-40.9-97.49.36-3.85.65-7.74,1.46-11.51,1.6-7.48-.23-14.04-3.98-20.53-16.27-28.11-19.26-58.02-11.63-89.3Z"/>
  </g>
</svg>