<?xml version="1.0" encoding="UTF-8"?>
<svg id="Capa_2" data-name="Capa 2" xmlns="http://www.w3.org/2000/svg" width="406.951" height="504.147" viewBox="0 0 384 380.46">
  <defs>
    <style>
      .cls-1 {
        fill: #049ae7;
      }
    </style>
  </defs>
  <g id="Capa_1-2" data-name="Capa 1">
    <g>
      <path class="cls-1" d="m0,327.19C0,231.38,0,135.56,0,39.75c.17-.17.43-.31.5-.51,4.75-13.77,12.29-19.19,26.74-19.19,16.87,0,33.75-.05,50.62.05,2.48.01,3.42-.69,3.83-3.2C83.3,6.84,91.27.07,101.51.05c25.75-.06,51.49-.07,77.24,0,10.15.03,18.33,6.95,19.8,16.91.4,2.69,1.36,3.14,3.74,3.13,17.12-.08,34.24-.05,51.37-.04,2.62,0,5.25-.03,7.82.62,11.63,2.92,18.71,12.54,18.72,25.61.02,54.88,0,109.77,0,164.65,0,1.12.07,2.25,0,3.37-.11,1.67.61,2.46,2.26,2.79,7.98,1.63,14.49,5.8,20.08,11.62,4.2,4.38,6.2,4.32,10.56-.13,4.25-4.35,9.05-7.81,14.8-9.9,20.81-7.57,43.7,3.51,52.34,25.26,1.76,4.42,2.46,9.1,3.77,13.63v35.18c-1.74,5.42-2.78,11.03-4.93,16.35-5.26,13.05-9.96,26.32-14.32,39.7-2.08,6.39-3.28,13.08-6.32,19.13-4.62,9.17-13.95,13.97-23.16,12.13-9.89-1.98-17.09-10.15-18.04-20.33-.75-8.07-1.56-16.13-2.46-24.18-.56-4.98-3.18-7.66-7.13-7.58-3.98.07-6.42,2.89-6.89,7.82-.77,7.94-1.57,15.88-2.39,23.81-.54,5.21-2.26,9.93-5.98,13.8-11.68,12.17-30.18,7.97-36.58-8.42-1.58-4.05-2.91-8.24-3.85-12.48-.9-4.03-2.63-5.4-7.03-5.33-20.49.31-40.99.14-61.48.14-1,0-2,.04-3-.03-4.74-.31-8.03-3.58-7.86-7.8.16-4.18,3.34-7.11,8.03-7.12,20.25-.04,40.49-.07,60.74.03,2.98.01,4.01-.35,2.66-3.59-2.64-6.32-5.07-12.73-7.23-19.23-1.05-3.18-2.7-3.99-5.95-3.98-61.99.11-123.97.08-185.96.07-1.5,0-3.01.05-4.49-.1-3.62-.36-6.21-2.93-6.58-6.53-.15-1.48-.08-2.99-.08-4.49,0-84.82,0-169.63,0-254.45,0-1.12,0-2.25-.02-3.37,0-.8-.25-1.33-1.13-1.66-9.28-3.46-17.55,2.12-17.55,11.88,0,91.05,0,182.11,0,273.16,0,9.15,3.12,12.22,12.44,12.22,28.49,0,56.99,0,85.48.01,5.31,0,8.52,2.79,8.58,7.29.06,4.42-3.27,7.63-8.37,7.64-29.74.05-59.49.15-89.23-.07-11.42-.08-20.12-7.36-23.18-18.35-.16-.58-.48-1.11-.72-1.67Zm231.6-164.32c0-9.23,0-18.46,0-27.69,0-32.06-.02-64.12.03-96.17,0-2.5,0-4.18-3.45-4.08-8.87.26-17.75.11-26.62.07-1.71,0-2.57.28-2.89,2.35-1.79,11.69-9.51,18.2-21.34,18.21-25,.02-49.99.03-74.99,0-11.14-.01-18.92-6.57-20.7-17.62-.39-2.44-1.38-2.99-3.63-2.97-8.37.1-16.75.22-25.12-.04-3.49-.11-4.27.98-4.27,4.35.09,82.45.09,164.9,0,247.36,0,3.22.68,4.16,4.06,4.16,58.24-.12,116.48-.12,174.73,0,3.58,0,4.26-1.13,4.25-4.42-.11-41.16-.07-82.33-.07-123.49Zm15.03,112.21c-.34,9.89-.12,19.57,3.88,29,7.2,16.98,12.95,34.51,18.15,52.2.67,2.27,1.36,4.55,2.9,6.44,3.28,4.03,9.3,3.13,11.18-1.72.4-1.03.58-2.17.7-3.28.82-7.94,1.61-15.88,2.39-23.82,1.18-12.08,10.02-20.71,21.44-20.93,11.64-.22,20.59,7.69,22.2,19.95,1.13,8.65,1.87,17.35,2.8,26.03.38,3.6,2.58,5.6,5.98,6.26,3.19.61,5.24-1.22,6.63-3.79.76-1.41,1.28-2.97,1.74-4.52,5.03-16.97,10.8-33.68,17.25-50.16,1.77-4.53,3.84-9.01,4.39-13.86,1.35-11.79,1.21-23.64.1-35.43-.59-6.22-3.53-11.59-7.26-16.57-7.42-9.91-26-14.53-37.15-1.89-3.19,3.61-7.18,6.22-11.96,7.32-8.38,1.94-14.88-1.65-20.44-7.4-4.35-4.5-9.39-7.37-15.74-7.6-13.64-.51-25,9.17-28.32,24.01-1.46,6.55-.57,13.18-.85,19.76Zm-.03-48.1c4.88-4.07,9.44-7.14,14.79-8.52,3.2-.82,3.9-2.41,3.89-5.48-.09-55.23-.06-110.47-.07-165.7,0-1.25.03-2.5-.11-3.74-.56-5-3.84-8.15-8.85-8.48-1.74-.11-3.53.15-5.24-.11-3.67-.54-4.51.9-4.5,4.48.12,60.97.08,121.94.08,182.91v4.63ZM140.08,14.99c-12.48,0-24.96-.02-37.44.01-4.46.01-6.25,1.66-6.36,5.96-.11,4.61-.12,9.22,0,13.82.11,3.91,1.97,5.77,5.81,5.78,25.33.04,50.66.04,76,0,3.85,0,5.64-1.9,5.71-5.8.08-4.36.04-8.72.02-13.08-.03-5.11-1.58-6.68-6.69-6.69-12.35-.02-24.71,0-37.06,0Z"/>
      <path class="cls-1" d="m154.57,339.98c-.12,4.08-3.58,7.4-7.52,7.22-3.97-.18-7.44-3.71-7.39-7.54.05-4.13,3.65-7.47,7.86-7.3,4.11.17,7.17,3.47,7.05,7.62Z"/>
      <path class="cls-1" d="m172.5,161.35c10.25,0,20.5-.05,30.74.02,5.19.04,8.29,2.68,8.56,6.98.24,3.86-2.28,7.07-6.11,7.74-.86.15-1.74.2-2.61.2-20.37.01-40.74.04-61.11-.01-5.56-.01-8.8-2.92-8.76-7.53.04-4.58,3.31-7.36,8.91-7.39,10.12-.05,20.25-.02,30.37-.01Z"/>
      <path class="cls-1" d="m172.5,228.82c10.25,0,20.5.01,30.75,0,3.52,0,6.43,1.09,7.96,4.47,1.94,4.29-.51,9.14-5.15,10.19-1.44.32-2.97.37-4.46.37-19.37.02-38.75.02-58.12,0-1.37,0-2.76-.03-4.1-.28-3.96-.74-6.34-3.81-6.13-7.71.2-3.7,2.77-6.63,6.65-6.84,5.36-.29,10.74-.18,16.11-.2,5.5-.02,11,0,16.5,0Z"/>
      <path class="cls-1" d="m172.12,109.55c-10,0-20,.02-30,0-5.6-.02-8.87-2.76-8.91-7.34-.04-4.61,3.25-7.58,8.76-7.59,20.37-.05,40.75-.05,61.12,0,5.47.01,8.81,3.04,8.75,7.62-.06,4.55-3.38,7.3-8.97,7.31-10.25.03-20.5,0-30.75,0Z"/>
      <path class="cls-1" d="m74.91,178.57c-.13-3.46,2.43-5.48,4.72-7.53,1.76-1.58,2.09-2.75.06-4.31-1.17-.9-2.2-2.04-3.13-3.21-2.42-3.03-2.22-7.22.37-9.88,2.68-2.76,6.72-3.14,9.86-.72,1.95,1.5,3.7,4.53,5.56,4.55,1.83.01,3.59-3.03,5.53-4.53,3.13-2.42,7.18-2.06,9.86.69,2.59,2.66,2.81,6.87.38,9.88-1.48,1.83-4.2,3.38-4.43,5.29-.25,2.06,2.92,3.37,4.35,5.22,2.4,3.09,2.35,7.19-.18,9.91-2.66,2.87-6.86,3.13-10.18.72-1.98-1.44-3.21-4.78-5.53-4.47-1.91.25-3.4,3.05-5.25,4.51-2.47,1.94-5.29,2.23-8.08.74-2.62-1.4-4.01-3.67-3.9-6.86Z"/>
      <path class="cls-1" d="m87.88,119.89c-2.29.1-4.11-.9-5.67-2.45-3.72-3.69-7.5-7.33-11.13-11.11-3.41-3.56-3.45-7.94-.31-11,3.11-3.03,7.35-2.77,11.06.54,2.11,1.88,3.8,5.65,6.27,5.29,2.3-.33,4.18-3.63,6.22-5.64,2.93-2.89,5.79-5.87,8.77-8.7,3.38-3.21,7.71-3.35,10.74-.47,3.19,3.03,3.25,7.49-.16,10.97-6.64,6.78-13.4,13.43-20.12,20.12-1.56,1.55-3.39,2.54-5.67,2.44Z"/>
      <path class="cls-1" d="m87.74,254.02c-2.33.04-4.12-.97-5.68-2.54-3.61-3.63-7.28-7.19-10.85-10.86-3.46-3.57-3.63-7.86-.58-10.99,2.97-3.04,7.46-2.84,11.06.3,2.18,1.9,3.76,5.79,6.55,5.31,2.33-.41,4.17-3.68,6.2-5.69,2.84-2.81,5.61-5.68,8.5-8.44,3.46-3.31,8.03-3.45,11.03-.46,3.09,3.09,3.02,7.45-.45,10.98-6.56,6.68-13.23,13.24-19.85,19.86-1.66,1.66-3.57,2.69-5.94,2.55Z"/>
    </g>
  </g>
</svg>