<svg xmlns="http://www.w3.org/2000/svg" xmlns:xlink="http://www.w3.org/1999/xlink" id="Capa_2" width="406.951" height="504.147" data-name="Capa 2" viewBox="0 0 486.38 485"><defs><style>.cls-1{fill:#049ae7}.cls-2{clip-path:url(#clippath)}.cls-3{fill:none}</style><clipPath id="clippath"><rect width="486.38" height="485" class="cls-3"/></clipPath></defs><g id="Capa_1-2" data-name="Capa 1"><g class="cls-2"><g id="Grupo_1329" data-name="Grupo 1329"><path id="Trazado_585" d="m80.93,154.19c-3.94.13-7.87-.48-11.6-1.79-9.72-3.35-16.42-12.27-16.93-22.54-1.02-10.24,4.42-20.04,13.66-24.58,2.43-1.37,3.85-2.35,3.53-5.61-2.54-32.91,21.3-61.99,54.07-65.95,2.67-.27,5.18-1.38,7.19-3.15,16.47-14.27,36.28-24.15,57.59-28.72,23.33-5.19,47.76.04,66.91,14.33,26.98,19.75,44.64,45.48,47.94,79.66.05.36.08.72.07,1.08-.57,6.33,1.26,12.65,5.14,17.69,11.13,15.76-.32,37.69-19.71,39.35-1.5.01-2.99.13-4.47.35,8.34,2.56,15.04,8.81,18.18,16.95,4.94,13.21-1.76,27.91-14.97,32.85-1.36.51-2.77.9-4.19,1.17-4.55.91-5.63,2.95-6.17,6.84-3.03,21.55-10.49,42.24-21.9,60.77-3.25,5.66-7.29,10.82-12,15.33-2.84,2.49-4.66,5.94-5.13,9.69-1.34,8.94-2.83,17.85-4.48,26.73-.67,3.56.25,5,3.94,5.87,9.19,2.19,9.14,2.42,12.16-6.66,21.69-63.16,90.48-96.78,153.65-75.09,63.16,21.69,96.78,90.48,75.09,153.65-21.69,63.16-90.48,96.78-153.65,75.09-51.2-17.59-84.48-67.06-81.46-121.11.08-1.88,1.09-3.95-.6-5.67-3.01-3.07-6.31-2.24-7.79,2.02-14.25,40.55-28.48,81.11-42.7,121.67-.54,1.53-1.03,3.08-1.63,4.59-1.12,3.59-4.46,6.02-8.22,5.98-3.77.1-7.15-2.31-8.26-5.92-2.73-7.08-5.35-14.2-8.03-21.29-13.58-35.99-27.21-71.96-40.64-108-.65-3.2-3.72-5.31-6.94-4.76-15.83.61-14.03-2.63-14.2,14.11-.12,11.56.11,23.16-.11,34.73-.38,3.02,1.34,5.91,4.17,7.02,11.31,6.12,16.24,19.75,11.47,31.69-5.1,13.4-20.11,20.13-33.51,15.03-10.45-3.98-17.18-14.21-16.7-25.38.17-9.29,5.56-17.7,13.93-21.74,2.34-.93,3.75-3.32,3.42-5.82-.13-13.75-.22-27.5.05-41.25.08-4.23-1.13-4.45-4.58-3.15-35.73,13.35-57.26,38.7-63.83,76.25-2.73,15.57-.81,31.42-1.14,47.14.48,4.08-1.76,7.99-5.51,9.66-4.09,1.93-8.96.17-10.89-3.92-.43-.91-.68-1.89-.76-2.89-.07-26.3-2.93-52.9,7.99-78.12,15.32-35.38,41.51-57.98,78.89-67.49,2.99-.48,5.55-2.42,6.82-5.17,5.92-11.95,15.69-21.55,27.73-27.26,4.88-2.42,5.9-5.96,2.32-9.99-19.97-22.42-29.45-49.34-33.91-78.43-.35-2.38-.76-3.76-3.77-4.03-14.04-1.28-23.54-9.89-25.34-22.48-1.73-12.17,5.08-22.9,17.95-28.32.3-.13.58-.33,1.84-1.05m54.32-.14c-8.5,0-16.99.13-25.48-.07-3.23-.08-4.41.74-4.33,4.2.26,11.21-.13,22.42.27,33.63.69,25.79,8.21,50.94,21.79,72.87,19,31.07,59.58,40.85,90.64,21.85,8.65-5.29,15.96-12.5,21.37-21.07,8.91-14.07,15.35-29.56,19.06-45.8,4.71-19.79,3.24-39.89,3.42-59.91,0-1.87,1.4-4.99-1.56-5.45-3.08-.48-6.26-1.15-8.97,2.66-21.97,30.92-63.79,30.97-85.64.21-1.27-2.16-3.67-3.38-6.16-3.15-8.13.16-16.27.06-24.4.06m333.86,208.49c.03-57.55-46.6-104.24-104.15-104.27s-104.24,46.6-104.27,104.15c-.03,57.55,46.59,104.23,104.14,104.27,57.52-.05,104.16-46.63,104.28-104.15M269.4,101.95h3.8c14.76,0,15.01-.06,11.48-14.78-5.62-23.1-19.58-43.29-39.21-56.71-13.93-10.43-31.44-14.88-48.66-12.36-17.45,2.51-33.92,9.57-47.77,20.47-8.8,6.73-16.95,14.04-28.99,13.44-.18,0-.36.04-.53.09-19.67,5.14-35.52,26.25-32.96,44.24.27,1.9-.96,5.25,2.74,5.55,3.22.26,5.87.32,7.88-3.63,6.15-12.26,16.57-21.84,29.3-26.93,7.93-3.3,10.86-2.28,14.97,5.13,4.52,8.27,10.5,15.66,17.65,21.79,3.25,2.78,4.95,3.02,7.81-.9,15.89-22.84,47.28-28.47,70.12-12.58,3.29,2.29,6.29,4.96,8.95,7.96,6.72,7.67,13.06,10.55,22.35,9.23.36-.02.72-.02,1.09,0m-87.25,349.02l37.09-105.77c-13.4-.51-25.66,3.7-38.35,3.12-12.69-.58-25.14-4.8-38.51-2.78l39.77,105.44m61.12-323.13c-.09-19.18-15.71-34.65-34.88-34.56-19.18.09-34.65,15.71-34.56,34.88.09,19.12,15.62,34.57,34.73,34.56,19.21-.06,34.75-15.67,34.71-34.88m-126.86-8.52h-37.4c-3.73-.26-7.21,1.89-8.64,5.35-1.35,2.86-.9,6.25,1.17,8.65,2.15,2.51,5.42,3.79,8.71,3.4,24.03-.05,48.07-.13,72.1.07,4.18.04,5.29-.94,4.38-5.09-.56-2.85-.52-5.78.11-8.61.74-3.5-.68-3.85-3.56-3.81-12.29.11-24.58.05-36.86.05m102.84,186.19c-23.46,10.93-50.64,10.51-73.75-1.14.95,6.04,1.84,10.99,2.47,15.98.21,2.73,2.23,4.97,4.92,5.45,16.54,5.54,34.27,6.51,51.31,2.8q11.56-2.5,13.66-13.92c.48-2.64.81-5.3,1.4-9.17m55.78-186.16v-.04c-3.25,0-6.51.16-9.74-.04-3.75-.24-6.18.03-4.94,5.04.51,3.03.46,6.13-.15,9.14-.31,2.28-.12,3.31,2.5,3.27,8.12-.12,16.24.12,24.35-.14,4.57-.08,8.24-3.79,8.29-8.36.14-4.72-3.58-8.67-8.3-8.81-.04,0-.07,0-.11,0-3.96-.23-7.94-.05-11.91-.05M95.48,431.92c4.77.11,8.73-3.68,8.84-8.45.11-4.77-3.68-8.73-8.45-8.84-4.77-.11-8.73,3.68-8.84,8.45,0,0,0,0,0,0-.04,4.75,3.7,8.67,8.45,8.84m20.48-330.27h21.12c-8.13-13.82-12.21-13.94-21.05-.91-.08.12-.03.32-.07.91m-2.84,226.09c5.96,0,10.8.04,15.62-.03,1.1,0,2.91.49,2.66-1.57-.41-3.37-1.02-6.72-1.7-10.04-.39-1.92-1.65-1.38-2.85-.7-5.46,3.01-10.16,7.23-13.73,12.34m-24.92-147.77c.07-.72.06-1.44-.02-2.16-.48-2.1,1.51-5.4-1.38-6.1-3.19-.45-6.26,1.38-7.38,4.4-2.12,3.6-1.16,8.23,2.23,10.68,1.36,1.54,3.45,2.21,5.45,1.75,2.22-.84.83-3.15,1.08-4.78.11-1.26.12-2.53.02-3.79m191.21.1c-.07.54-.06,1.08.02,1.62.61,2.01-1.67,5.53,1.57,5.86,3.12.32,4.73-2.88,5.52-5.79.51-1.96.16-4.05-.96-5.73-1.17-1.89-2.73-4.04-5.01-3.45-2.16.55-.86,3.12-1.13,4.79-.08.9-.09,1.81-.02,2.71" class="cls-1" data-name="Trazado 585"/><path id="Trazado_586" d="m365.38,415.82c-2.36,5.96-3.09,12.22-5.86,17.91-4.38,9.98-15.1,15.59-25.8,13.5-6.47-1.43-11.9-5.78-14.71-11.78-4.32-8.95-7.92-18.22-10.79-27.74-7.04-19.92-15.28-39.44-20.78-59.86-6.92-25.75,7.11-50.8,31.86-57.47,14.36-4.05,29.79-1.14,41.69,7.87,2.12,2.16,5.59,2.2,7.75.09.02-.02.04-.04.06-.06,29.25-20.97,68.31-5.96,74.83,28.64,1.43,9.36.35,18.93-3.14,27.74-8.65,24.72-17.58,49.33-26.49,73.95-1.05,2.88-2.4,5.65-4.01,8.27-4.03,7.37-12.05,11.65-20.42,10.89-9.01-.19-16.88-6.15-19.52-14.77-1.94-5.58-3.14-11.43-4.67-17.17m-16.82-103.82c-.42-1.73-1.61-1.99-2.51-2.45-10.65-5.77-23.74-4.42-32.98,3.42-9.66,7.74-13.16,20.85-8.64,32.37,9.35,26.56,18.92,53.04,28.38,79.57,1.1,3.09,2.49,5.86,6.31,5.53s4.68-3.24,5.39-6.46c2.8-12.69,5.78-25.35,8.68-38.02,1.21-5.28,3.62-9.49,9.46-10.58,6.91-1.3,12.02,2.45,13.89,10.38,3.02,12.83,5.97,25.67,8.82,38.54.73,3.28,1.82,6.07,5.61,6.19,3.45.11,4.87-2.38,5.92-5.33,9.5-26.7,19.18-53.33,28.56-80.07,4.55-11.94.55-25.44-9.76-32.98-10.11-8.05-24.34-8.41-34.84-.86-5.86,3.91-11.54,8.1-17.43,11.97-10.02,6.6-20.42,12.31-32.66,13.66-6.19.7-10.68-2.07-11.39-7.2-.7-5.03,2.45-8.85,8.48-9.78,7.41-1.04,14.5-3.73,20.74-7.86" class="cls-1" data-name="Trazado 586"/><path id="Trazado_587" d="m208.37,101.97c14.38-.11,26.13,11.45,26.24,25.83.11,14.38-11.45,26.13-25.83,26.24-14.38.11-26.13-11.45-26.24-25.83,0-.09,0-.19,0-.28.09-14.25,11.58-25.8,25.83-25.96m8.84,26.1c.03-4.77-3.81-8.67-8.58-8.7s-8.67,3.81-8.7,8.58c-.03,4.77,3.81,8.66,8.58,8.7,4.75-.03,8.61-3.83,8.71-8.58" class="cls-1" data-name="Trazado 587"/></g></g></g></svg>