<svg xmlns="http://www.w3.org/2000/svg" id="Capa_2" width="406.951" height="504.147" data-name="Capa 2" viewBox="0 0 383.25 362.8"><defs><style>.cls-1{fill:#049ae7}</style></defs><g id="Capa_1-2" data-name="Capa 1"><g><path d="m0,219.52c1.63-3.2,4.37-4.9,7.71-5.96,6.21-1.98,12.54-3.31,19.03-3.7,2.4-.14,3.14-.82,3.11-3.29-.14-10.23-.32-20.47.01-30.69.64-19.59,8.13-35.91,24.71-47.05,18.57-12.47,42.06-9.81,57.85,6.03.88.88,1.75,1.78,2.68,2.61,4.17,3.7,7.42,3.74,11.57.14.75-.65,1.5-1.33,2.17-2.06,20.55-22.24,56.74-17.58,73.31,7.81,6.95,10.65,10.06,22.41,10.03,35.07-.02,9.36-.02,18.71-.01,28.07,0,1.42-.57,3.16,1.86,3.23,11.66.37,22.9,3.42,34.31,5.36,15.65,2.67,31.45,3.64,47.32,3.65,25.82.02,51.65,0,77.47,0,7.75,0,10.13,2.34,10.13,9.95,0,41.42,0,82.84,0,124.26,0,7.28-2.4,9.78-9.55,9.78-49.15.02-98.31.01-147.46,0-5.15,0-8.14-1.88-9.06-5.52-1.05-4.14,1.38-8.21,5.62-9.09,1.69-.35,3.47-.33,5.21-.33,45.29-.02,90.57-.06,135.86.07,3.56.01,4.53-.81,4.52-4.47-.15-35.18-.15-70.36,0-105.54.01-3.53-1.04-4.23-4.33-4.21-23.95.14-47.91.16-71.86.04-21.01-.1-41.8-2.28-62.32-6.93-5.96-1.35-12.05-1.9-18.17-2.21-1.98-.1-2.81.56-3.49,2.36-9.03,23.62-17.67,47.36-24.78,71.65-2.76,9.43-8.75,16.29-18.49,18.92-14.65,3.95-29.21-7.03-30.84-22.98-1.04-10.17-2.05-20.34-3.1-30.51-.59-5.75-4.69-9.71-9.97-9.73-5.18-.02-9.51,3.99-10.12,9.65-1.12,10.29-2.15,20.58-3.13,30.89-1.47,15.63-16.53,26.84-31.05,22.76-9.43-2.65-15.36-9.47-18.07-18.48-7.28-24.23-15.61-48.08-24.76-71.66-.91-2.35-1.9-3-4.28-2.8-3.74.32-7.41.98-11.1,1.51-2.74.39-3.62,1.46-3.61,4.32.11,37.8.13,75.6-.02,113.4-.01,3.51,1.13,4,4.22,4,45.41-.09,90.82-.07,136.23-.04,1.73,0,3.52.04,5.19.43,3.41.8,5.73,4.14,5.49,7.51-.25,3.52-2.81,6.33-6.33,6.84-1.23.17-2.49.17-3.73.17-48.65,0-97.31-.03-145.96.07-4.59,0-8.04-1.19-9.98-5.55v-137.73Zm44.81-28.5c-.74,12.83.16,25.32,5.25,37.41,8.61,20.45,15.43,41.55,21.75,62.8.68,2.27,1.37,4.53,2.62,6.57,2.56,4.15,6.16,6.06,9.84,5.21,5.21-1.2,8-4.31,8.54-9.52,1.04-10.17,2.06-20.34,3.09-30.51,1.39-13.56,11.97-23.63,24.94-23.74,12.68-.11,23.25,9.29,24.95,22.32.69,5.31,1.11,10.66,1.65,16,.54,5.33,1,10.68,1.61,16,.6,5.18,3.96,8.66,9.05,9.58,3.7.67,7.42-1.61,9.78-6.08.63-1.2,1.16-2.49,1.53-3.8,6.77-23.61,15.16-46.65,24.04-69.53,2.27-5.84,3.79-11.85,3.75-18.2-.05-9.23-.02-18.46-.01-27.69,0-9.08-2.35-17.48-7.13-25.2-7.85-12.67-22.22-18.87-35.92-15.51-6.02,1.48-10.74,4.92-15,9.34-11.26,11.68-25.08,11.62-36.43.05-.87-.89-1.7-1.83-2.62-2.67-6.4-5.9-13.9-8.69-22.6-7.68-15.26,1.77-26.6,12.3-31.09,28.46-2.42,8.72-1.36,17.6-1.59,26.4Z" class="cls-1"/><path d="m295.29,175.45c-2.36.08-4.11-1.01-5.66-2.56-2.64-2.65-5.41-5.19-7.89-7.97-1.62-1.81-2.56-1.48-4.12.09-11.14,11.26-22.37,22.43-33.57,33.63-.71.71-1.39,1.43-2.13,2.11-3.55,3.25-8.07,3.44-11.05.48-3.04-3.02-2.89-7.48.44-11.01,1.71-1.81,3.52-3.54,5.28-5.3,9.96-9.96,19.85-20.01,29.95-29.83,2.34-2.27,2.19-3.53-.13-5.47-2.29-1.91-4.28-4.18-6.38-6.31-4.82-4.88-4.8-8.49.12-13.43,6.16-6.19,12.31-12.38,18.54-18.5,1.3-1.28,2.13-2.68,2.57-4.42,3.59-14.25,10.74-26.47,21.09-36.83,22.29-22.33,44.61-44.63,66.93-66.93,3.82-3.82,8.37-4.21,11.54-1.11,3.39,3.31,3.02,7.65-1.1,11.8-7.38,7.43-14.76,14.87-22.25,22.19-1.6,1.56-1.85,2.46-.06,4.04,2.61,2.31,5.03,4.84,7.42,7.38,3.41,3.63,3.51,7.88.39,10.99-3.11,3.1-7.36,2.97-11-.45-2.54-2.39-5.03-4.85-7.39-7.42-1.37-1.49-2.24-1.75-3.81-.11-5,5.22-10.1,10.36-15.34,15.35-1.82,1.73-1.37,2.7.19,4.13,2.39,2.19,4.64,4.53,6.89,6.86,3.6,3.72,3.9,8.15.84,11.26-3.13,3.19-7.77,2.86-11.57-.85-2.32-2.26-4.66-4.51-6.86-6.9-1.34-1.45-2.24-1.8-3.85-.17-8.13,8.23-13.99,17.75-17.26,28.89-.63,2.15-.12,3.43,1.37,4.9,7.2,7.08,14.37,14.21,21.41,21.45,1.67,1.72,3.12,1.84,5.25,1.12,9.99-3.37,18.68-8.77,26.13-16.19,6.36-6.33,12.69-12.71,19.06-19.04,3.84-3.81,8.36-4.23,11.54-1.15,3.33,3.22,3.16,7.69-.82,11.5-10.16,9.73-19.14,20.73-30.78,28.88-7.73,5.42-16.21,9.26-25.35,11.58-1.79.45-3.16,1.28-4.42,2.56-5.88,5.94-11.81,11.82-17.71,17.74-1.81,1.82-3.79,3.27-6.48,3.05Zm12.14-30.25c-.41-.48-.7-.88-1.04-1.22-6.08-6.09-12.21-12.13-18.22-18.28-1.38-1.41-2.07-.58-2.98.34-2.99,3-5.96,6.03-9.02,8.97-1.21,1.16-1.5,1.89-.1,3.25,5.99,5.82,11.9,11.73,17.73,17.71,1.28,1.31,2.02,1.29,3.24,0,2.91-3.08,5.98-6.02,8.96-9.03.51-.52.93-1.13,1.43-1.73Z" class="cls-1"/><path d="m239.84,139.06c0,4.36.1,8.73-.03,13.08-.14,4.74-3.05,7.82-7.22,7.94-4.27.13-7.56-3.05-7.64-7.91-.15-9.1-.15-18.2.01-27.29.08-4.63,3.31-7.78,7.41-7.79,4.13-.01,7.26,3.12,7.41,7.76.16,4.73.03,9.47.03,14.21,0,0,0,0,.01,0Z" class="cls-1"/><path d="m295.74,204.96c-4.24,0-8.47.09-12.7-.02-5.3-.14-8.42-2.99-8.44-7.47-.01-4.52,3.12-7.39,8.4-7.44,8.72-.08,17.44-.08,26.16,0,5.04.05,8.16,2.88,8.26,7.21.11,4.49-3.03,7.52-8.22,7.68-4.48.14-8.97.03-13.45.03Z" class="cls-1"/><path d="m191.48,362.67c-4.08-.07-7.35-3.38-7.32-7.41.03-4.06,3.7-7.51,7.83-7.37,3.99.14,7.22,3.63,7.08,7.66-.13,4.04-3.49,7.19-7.6,7.12Z" class="cls-1"/></g></g></svg>