<?xml version="1.0" encoding="UTF-8"?>
<svg id="Capa_2" data-name="Capa 2" xmlns="http://www.w3.org/2000/svg" width="406.951" height="504.147" viewBox="0 0 384 252.23">
  <defs>
    <style>
      .cls-1 {
        fill: #049ae7;
      }
    </style>
  </defs>
  <g id="Capa_1-2" data-name="Capa 1">
    <g>
      <path class="cls-1" d="m384,246.61c-1.84,4.19-5.11,5.62-9.59,5.61-49.37-.07-98.74-.05-148.11-.06-1.12,0-2.26-.04-3.36-.22-3.52-.6-6.02-3.49-6.14-6.99-.13-3.62,2.36-6.8,6.03-7.46,1.58-.28,3.23-.27,4.85-.27,45.62-.01,91.24-.05,136.86.07,3.53,0,4.58-.75,4.56-4.45-.19-30.81-.14-61.62-.16-92.44,0-1.18,0-2.37-.83-3.62-.69,6.37-1.37,12.75-2.06,19.12-.46,4.21-.72,8.46-1.43,12.63-1.8,10.51-8.38,16.76-18.48,19.27-9.63,2.39-17.07-1.44-22.9-9-2.47-3.2-4.04-6.85-5.22-10.69-6.28-20.36-12.96-40.57-20.86-60.37-3.27-8.18-5.31-16.66-4.62-25.54.24-3.14-1.23-4.31-3.88-4.72-1.6-.24-3.23-.52-4.83-.43-6.94.4-7.81,1.28-7.75,8.09.08,7.99-1.78,15.58-4.73,22.92-7.9,19.66-14.95,39.61-20.84,59.97-1.19,4.11-2.82,7.99-5.54,11.34-6.04,7.45-13.64,10.78-23.19,8.31-9.86-2.55-16.27-8.72-17.82-18.92-1.33-8.74-1.97-17.59-2.92-26.39-.17-1.61-.3-3.23-.59-4.82-.85-4.64-4.15-7.44-8.52-7.32-4.29.11-7.67,3.19-8.18,7.74-1.04,9.17-2.07,18.34-2.9,27.52-1.05,11.56-8.95,20.86-19.49,22.65-10.91,1.85-21.15-3.79-25.62-15.03-3.49-8.78-6.01-17.94-8.98-26.92-4.22-12.77-8.6-25.49-13.74-37.93-3.42-8.29-5.3-16.9-4.82-25.88.18-3.24-1.24-4.55-4.1-4.93-1.48-.2-2.98-.49-4.46-.42-7.03.32-8,1.31-8,8.28,0,7.86-1.83,15.35-4.69,22.56-7.9,19.93-14.68,40.24-20.99,60.72-1.69,5.47-4.33,10.35-8.62,14.22-6.57,5.92-14.12,7.14-22.31,4.12-8.49-3.13-14.14-9.05-15.47-18.11-1.36-9.24-2.05-18.58-3.06-27.88-.14-1.32.12-2.76-1.33-4.38,0,1.35,0,2.23,0,3.11,0,30.94.07,61.87-.09,92.81-.02,3.7.79,4.83,4.69,4.81,45-.15,89.99-.1,134.99-.08,1.74,0,3.52,0,5.22.32,3.49.67,5.84,3.76,5.79,7.26-.05,3.52-2.5,6.48-5.99,7.11-1.22.22-2.49.25-3.73.25-48.62.01-97.24-.03-145.86.07C5.19,252.24,1.69,250.68,0,245.86v-125.01c3.59-5.54,6.52-6.65,13.22-5,9.17,2.26,16.35,9.89,17.58,19.28,1.23,9.39,2.07,18.83,3.01,28.26.6,5.98,3.12,9.24,7.83,9.91,4.25.6,7.5-2.08,9.48-7.82.08-.24.18-.47.25-.7,6.05-20.83,13.52-41.16,21.26-61.41,2.36-6.18,4.13-12.52,4.02-19.27-.03-2.2-.49-3.05-2.9-3-7.74.15-15.5.16-23.24,0-2.38-.05-2.83.86-3.05,2.98-1.14,10.96-8.42,17.56-19.43,17.72-5.87.09-11.76-.18-17.62.08C5.91,102.08,2.43,100.74,0,96.9,0,90.66,0,84.42,0,78.18c.31-.35.67-.67.93-1.06,2.09-3.16,4.95-4.57,8.66-3.48,3.72,1.09,5.34,3.84,5.4,7.6.02,1,.09,2-.01,2.99-.2,1.91.5,2.7,2.5,2.63,3.37-.12,6.74-.07,10.11-.02,3.43.06,5.06-1.55,5.04-4.98-.04-5.23.03-10.47-.02-15.7-.04-4.66-1.13-5.77-5.73-5.81-5.74-.04-11.5-.22-17.23.05C5.12,60.64,1.95,59.05,0,54.98v-4.49c2.43-4.08,6.07-5.38,10.71-5.16,5.23.25,10.48.04,15.73.06,12.61.04,19.44,5.97,21.1,18.42.21,1.61.54,2.43,2.41,2.41,8.11-.09,16.23-.08,24.34,0,1.81.02,2.39-.63,2.35-2.38-.1-4.48.02-8.97-.09-13.45-.24-9.57-3.7-17.89-9.76-25.28-8.37-10.2-28.89-15.32-41.42-1.34-3.29,3.67-7.32,6.41-12.08,7.88C6.52,33.74,3.41,32.5,0,26.54v-2.99c1.47-2.43,2.76-5.39,5.94-5.64,4.16-.32,6.74-2.77,9.45-5.41,18.15-17.68,47.33-15.97,63.44,3.64,9.66,11.76,13.4,25.35,12.82,40.38-.24,6.25-.04,6.26,5.96,5.64.87-.09,1.75-.06,2.62-.19,2.6-.39,6.06,2.02,7.55-.22,1.27-1.92.35-5.32.33-8.06-.12-15.09,4.53-28.44,14.75-39.68,16.16-17.76,43.84-18.65,61.08-2,1.08,1.04,2.09,2.15,3.22,3.14,3.65,3.21,6.3,3.2,9.88,0,1.12-1,2.14-2.1,3.22-3.14,7.39-7.13,16.19-11.22,26.47-11.65,21.59-.9,39.21,11.88,46.32,33.14,2.91,8.69,3.21,17.61,2.95,26.61-.06,2.17.22,3.08,2.8,2.49,3.28-.76,6.71-1.03,10.05-.23,3.14.76,3.77-.53,3.66-3.39-.3-7.87.04-15.67,2.24-23.35,10.63-37.08,53.6-47.11,76.06-21.1,1.32,1.53,2.96,2.86,5.07,2.94,4.18.16,6.62,2.45,8.14,6.07v3.74c-4.08,5.55-7,6.45-13.79,4.17-4.73-1.59-8.53-4.54-11.93-8.13-5.85-6.18-13.01-9.01-21.57-8.19-13,1.24-23.7,11.1-27.73,25.4-2.11,7.48-1.26,15.09-1.58,22.66-.11,2.59.9,3.08,3.22,3.04,7.62-.12,15.24-.11,22.86,0,2.13.03,3.01-.4,3.19-2.8.82-10.79,8.25-17.72,19.16-18,5.87-.15,11.75.14,17.61-.09,4.87-.19,8.48,1.35,10.55,5.9v3.74c-2.24,4.16-5.63,5.74-10.4,5.46-5.72-.34-11.47-.09-17.21-.07-3.15.01-4.88,1.45-4.84,4.78.05,5.6.07,11.21,0,16.81-.05,3.52,1.69,4.97,5.06,4.9,2.37-.05,4.74,0,7.11,0q5.15,0,5.24-5.12c.1-5.57,3.72-9.04,8.57-8.35,3.4.48,4.98,2.95,6.49,5.55v17.22c-2.03,4.39-5.52,5.91-10.26,5.72-5.86-.24-11.73,0-17.6-.07-11.18-.15-18.55-6.91-19.49-18-.18-2.12-.85-2.71-2.91-2.68-7.86.1-15.73.11-23.59,0-2.12-.03-2.7.61-2.77,2.73-.19,6.37,1.31,12.34,3.62,18.18,8.05,20.37,15.31,41.02,21.44,62.05.63,2.15,1.46,4.24,2.89,6.02,1.93,2.4,4.28,3.87,7.47,3.14,3.24-.74,5.74-2.49,6.7-5.81.41-1.42.56-2.93.72-4.41,1-9.28,1.84-18.59,3-27.85,1.19-9.49,8.98-17.59,18.29-19.45,6.6-1.32,9.11-.28,12.48,5.15v125.75ZM137.67,81.15c-3.87,0-7.75.11-11.62-.04-2.26-.09-3.01.56-3.01,2.92.02,6.73,1.44,13.11,4.12,19.23,6.46,14.74,11.79,29.89,16.43,45.29,1.83,6.08,3.52,12.21,5.66,18.19,1.75,4.92,5.06,7.08,8.83,6.58,4.57-.61,7.2-3.72,7.75-9.09.97-9.43,1.91-18.86,2.97-28.27,1.31-11.69,11.48-20.69,23.29-20.73,11.67-.04,21.72,8.72,23.2,20.32.6,4.7,1.02,9.42,1.51,14.13.54,5.21,1,10.43,1.62,15.63.55,4.6,3.31,7.41,7.59,8.02,3.55.5,6.6-1.38,8.53-5.36.54-1.12.97-2.3,1.32-3.49,6.15-21.32,13.7-42.16,21.75-62.83,2.18-5.6,3.65-11.37,3.48-17.48-.06-2.13-.37-3.09-2.84-3.04-7.87.16-15.75.11-23.62.02-2-.02-2.75.44-2.9,2.63-.74,10.77-8.25,17.9-19.13,18.02-13.75.15-27.5.15-41.25,0-10.92-.12-18.32-7.13-19.13-18-.16-2.18-.9-2.72-2.92-2.66-3.87.13-7.75.04-11.62.04Zm108.64-14.97c2,0,4,0,5.99,0,8.73,0,8.59,0,8.77-8.65.17-8.58-.59-16.9-4.64-24.67-7.02-13.46-20.69-20.25-34.1-16.82-5.25,1.34-9.38,4.38-13.11,8.23-10.58,10.94-23.5,10.91-34.17.1-.96-.98-1.89-2-2.92-2.9-3.94-3.45-8.44-5.71-13.72-6.28-14.08-1.52-26.56,6.83-32.38,21.47-3.57,8.99-2.85,18.36-2.93,27.68-.02,1.9,1.17,1.85,2.49,1.85,7.99,0,15.99-.06,23.98.03,1.95.02,2.47-.65,2.63-2.56.94-11.26,8.42-18.16,19.71-18.21,13.36-.06,26.73-.06,40.09,0,11.29.05,18.94,7.05,19.73,18.19.16,2.29,1.05,2.62,2.97,2.57,3.87-.1,7.74-.03,11.61-.03Zm-54.22-5.78c-6.37,0-12.75-.02-19.12,0-4.9.02-5.83.98-5.85,5.97-.02,3.62,0,7.24,0,10.85,0,9.6,0,9.65,9.7,9.58,2.47-.02,5.43,1.01,7.27-.56,1.45-1.23.26-4.04.54-6.12.54-3.93,3.48-6.72,7.23-6.86,3.74-.13,6.97,2.65,7.66,6.36.44,2.34-1.29,5.59,1.08,6.86,1.96,1.05,4.88.31,7.38.35,1.37.02,2.75,0,4.12,0,3.23,0,4.79-1.54,4.74-4.85-.08-5.49.01-10.98-.03-16.47-.03-3.88-1.23-5.07-5.21-5.1-6.5-.06-13-.01-19.5-.02Z"/>
      <path class="cls-1" d="m191.77,252.07c-4.07-.09-7.3-3.44-7.24-7.5.06-4.01,3.44-7.32,7.47-7.31,4.05.01,7.46,3.35,7.46,7.32,0,4.14-3.53,7.58-7.7,7.49Z"/>
    </g>
  </g>
</svg>