<svg xmlns="http://www.w3.org/2000/svg" id="Capa_2" width="406.951" height="504.147" data-name="Capa 2" viewBox="0 0 223.44 383.26"><defs><style>.cls-1{fill:#049ae7}</style></defs><g id="Capa_1-2" data-name="Capa 1"><g><path d="m53.22,0c4.95,1.58,10.07,2.53,14.79,4.92,18.26,9.23,28.48,28.65,25.59,49.03-2.74,19.29-17.96,35.18-37.49,38.93-2.73.52-3.56,1.56-3.53,4.35.13,18.09.1,36.17.03,54.26,0,2.34.24,3.58,3.12,3.63,3.84.06,6.55,2.36,7.79,6,3.21,9.43,6.28,18.9,9.44,28.35.53,1.59.48,3.19.48,4.81,0,58,0,116,0,174.01,0,9.87-5.11,14.96-15.01,14.97-7.87.01-15.75.03-23.62,0-8.7-.05-13.97-5.27-13.97-14.03-.03-58.63-.01-117.25-.03-175.88,0-2.03.36-3.95,1-5.86,2.78-8.26,5.59-16.51,8.26-24.81,1.49-4.63,4.21-7.63,9.34-7.65,1.8,0,2-.9,2-2.32-.02-18.96-.06-37.92.04-56.88.01-2.68-1.74-2.55-3.39-2.91-16.32-3.5-27.85-12.92-34.42-28.2C-.49,55.11-1,45.15,1.58,35.04c1.22-4.77,3.87-6.78,7.53-5.81,3.36.88,4.57,3.92,3.43,8.57-5,20.39,7.14,39.84,27.57,44.15,19.06,4.03,38.05-8.64,42.1-28.08,3.93-18.88-8.93-38.21-27.83-41.89-9.65-1.88-18.6-.18-26.89,5.09-3.98,2.53-7.25,2.2-9.16-.84-1.91-3.05-.76-6,3.16-8.67C27.47,3.48,34.34,1.74,41.22,0h12Zm8.97,325.99c0-14.34-.03-28.69.04-43.03.01-2.08-.26-3.14-2.79-3.09-8.25.16-16.5.13-24.74.01-2.24-.03-2.67.83-2.67,2.84.05,28.56.06,57.13,0,85.69,0,2.78.96,3.71,3.72,3.66,7.37-.14,14.75-.22,22.12.03,3.6.12,4.43-1.24,4.4-4.57-.15-13.84-.06-27.69-.06-41.54Zm-15.16-119.34c4.24,0,8.48.02,12.72-.01,1.06,0,2.47.32,2.4-1.46-.16-4.59.85-9.29-.46-13.74-2.29-7.74-5.09-15.33-7.58-23.02-.49-1.51-1.14-2.16-2.83-2.27-10.23-.65-10.23-.7-13.42,8.78-.87,2.59-1.59,5.24-2.64,7.76-2.68,6.44-3.44,13.09-3.31,20.04.06,3.47,1.13,4.2,4.26,3.98,3.6-.26,7.23-.06,10.85-.06Zm.27,11.23c-2.99,0-5.98,0-8.97,0-6.4,0-6.27,0-6.33,6.27-.03,2.64.82,3.39,3.4,3.33,6.72-.16,13.45-.05,20.18-.05,6.99,0,6.91,0,6.66-7.05-.07-1.97-.69-2.58-2.61-2.52-4.11.11-8.22.03-12.33.03Zm-.47,50.82c2.99,0,5.98,0,8.97,0,6.55,0,6.41,0,6.46-6.47.02-2.55-.87-3.14-3.22-3.09-6.85.12-13.7-.04-20.55.06-7.32.11-6.22-1.49-6.48,6.51-.08,2.59.93,3.12,3.24,3.03,3.85-.15,7.72-.04,11.58-.04Zm.33-20.74c2.99,0,5.98,0,8.96,0,6.16,0,6.02,0,6.14-6.08.05-2.67-.82-3.35-3.38-3.29-6.84.16-13.69.05-20.54.05-6.58,0-6.48,0-6.33,6.63.05,2.15.76,2.78,2.82,2.72,4.11-.12,8.22-.04,12.33-.03Z" class="cls-1"/><path d="m165.72,281.29c0-28.81.02-57.63-.02-86.44,0-2.78.41-5.41,1.32-8.05,2.81-8.12,5.55-16.27,8.16-24.45,1.4-4.4,4.06-7.14,8.79-7.3,1.89-.07,2.3-.83,2.26-2.49-.11-3.99-.16-8.01.77-11.92,2.04-8.61,7.16-14.81,14.79-19.31,9.45-5.57,12.86-16.38,8.55-25.85-4.1-9.03-14.07-13.76-23.66-11.2-.72.19-1.43.45-2.15.64-3.4.92-6.36-.4-7.38-3.28-1.1-3.11.38-6.18,3.94-7.35,11.57-3.8,22.29-2.15,31.53,5.93,16.13,14.09,13.94,39.57-4.58,50.4-9.07,5.31-11.16,13.05-10.59,22.48.09,1.49.73,1.88,2.09,1.89,5.31,0,8.2,3.03,9.57,7.85.07.24.1.5.2.72,7.74,17.7,9.51,36.16,9.25,55.4-.68,49.51-.22,99.04-.23,148.56,0,11.04-4.67,15.73-15.67,15.73-7.62,0-15.25.03-22.87,0-8.68-.05-14.04-5.36-14.04-14.02-.03-29.31-.01-58.63-.01-87.94Zm41.35,44.45c0-14.22-.05-28.44.05-42.66.02-2.35-.51-3.26-3.07-3.2-8,.16-16,.15-24,0-2.43-.04-3.15.63-3.14,3.1.08,28.44.09,56.88,0,85.33,0,3.07,1.19,3.82,4.01,3.77,7.37-.14,14.75-.17,22.12.01,3.12.08,4.12-.96,4.09-4.06-.13-14.1-.06-28.19-.06-42.29Zm-15.16-98.31c2.87,0,5.75.06,8.62-.01,7.52-.2,6.4,1.67,6.55-6.8.03-1.62-.07-2.67-2.26-2.93-2.93-.34-4.61-2.43-4.59-5.46.02-3.05,1.81-4.97,4.71-5.4,1.86-.27,2.13-1.03,2.16-2.64.12-6.87.08-13.63-2.75-20.16-1.87-4.33-3.33-8.88-4.48-13.46-.89-3.53-2.59-4.6-6.19-4.46-7.95.29-8.02.07-10.5,7.77-3.11,9.66-7.62,19.03-6.26,29.66.23,1.81-.09,3.25,2.64,3.23,3.32-.03,5.3,2.08,5.55,5.41.23,3.03-2.08,5.4-5.7,5.62-2,.12-2.63.75-2.47,2.64.13,1.49.13,3,0,4.49-.17,2,.68,2.59,2.6,2.53,4.12-.11,8.25-.03,12.37-.03Zm-.32,41.28c3.11,0,6.23,0,9.34,0,6.28,0,6.17,0,6.19-6.37,0-2.41-.64-3.26-3.14-3.2-6.85.15-13.7.05-20.55.05-6.72,0-6.63,0-6.53,6.81.03,2.08.56,2.84,2.72,2.76,3.98-.16,7.97-.04,11.96-.04Zm.25-20.74c2.99,0,5.98,0,8.97,0,6.41,0,6.28,0,6.33-6.27.02-2.51-.82-3.14-3.2-3.09-6.85.14-13.7.05-20.55.05-6.61,0-6.49,0-6.48,6.44,0,2.32.73,3,2.98,2.91,3.98-.15,7.97-.04,11.96-.04Z" class="cls-1"/><path d="m93.43,244.7c0-16.46.03-32.93-.02-49.39,0-3.16.44-6.16,1.48-9.15,2.7-7.76,5.32-15.56,7.8-23.39,1.47-4.65,4.14-7.7,9.26-7.73,2.16-.01,2.01-1.24,2-2.66-.02-6.11.09-12.23-.04-18.33-.09-4.53,1.29-8.41,4.71-11.34,2.97-2.55,2.61-4.55-.15-6.99-3.08-2.72-5.91-5.74-8.77-8.7-2.61-2.71-2.73-6.04-.46-8.32,2.24-2.24,5.7-2.15,8.36.41,3.6,3.46,7.14,6.98,10.6,10.59,5.44,5.68,5.58,13.5.03,19.11-2.33,2.35-3.22,4.71-3.09,7.91.21,5.23.12,10.48.02,15.71-.03,1.84.36,2.63,2.43,2.64,4.54.03,7.4,2.51,8.81,6.76,2.95,8.86,5.93,17.72,8.88,26.58.64,1.91.83,3.87.83,5.89-.02,58-.01,116-.02,174,0,9.85-5.16,14.97-15.02,14.98-7.87.01-15.75.03-23.62,0-8.57-.04-13.93-5.14-14-13.64-.11-14.72-.06-29.44-.02-44.15.01-4.46,2.08-6.95,5.54-6.96,3.46-.01,5.65,2.51,5.66,6.91.05,13.97.15,27.94-.06,41.91-.06,3.86,1.2,4.94,4.95,4.8,7.11-.27,14.25-.18,21.37-.03,2.87.06,4.01-.83,4.01-3.83-.08-28.44-.08-56.88.01-85.31,0-2.58-.91-3.09-3.25-3.05-7.87.12-15.75.2-23.62-.03-3-.09-3.55,1.03-3.43,3.66.19,4.23.09,8.48.04,12.72-.06,4.75-2.09,7.2-5.78,7.12-3.54-.07-5.43-2.42-5.44-7.01-.03-17.21-.01-34.43-.02-51.64Zm26.36-38.04c4.24,0,8.48-.06,12.72.03,1.78.04,2.38-.6,2.38-2.37.02-6.46.3-12.9-2.45-19.05-1.41-3.16-2.29-6.57-3.39-9.87-3.16-9.49-3.16-9.42-13.1-9.25-1.98.04-2.85.71-3.41,2.5-1.4,4.51-2.75,9.05-4.5,13.43-2.83,7.07-3.9,14.32-3.44,21.89.13,2.11.73,2.8,2.83,2.73,4.11-.14,8.23-.04,12.35-.04Zm-.03,20.77c2.99,0,5.98.05,8.96-.01,7.03-.15,5.96,1.35,6.19-6.42.07-2.43-.67-3.22-3.14-3.16-6.97.15-13.94-.03-20.91.08-6.89.11-6.03-1.58-6.22,6.37-.06,2.41.68,3.31,3.17,3.2,3.98-.18,7.97-.05,11.95-.05Zm-.15,41.28c2.99,0,5.97,0,8.96,0,6.4,0,6.27,0,6.35-6.23.03-2.63-.79-3.4-3.39-3.34-6.84.16-13.69-.02-20.54.08-6.99.1-6.2-1.57-6.37,6.66-.05,2.35.82,2.97,3.03,2.89,3.98-.15,7.96-.04,11.95-.04Zm.11-30.05c-2.99,0-5.97-.06-8.96.01-6.85.16-5.88-1.39-6.14,6.08-.09,2.73.94,3.32,3.44,3.26,6.84-.15,13.69.04,20.53-.07,7.12-.11,6.11,1.59,6.31-6.65.05-2.25-.88-2.72-2.87-2.67-4.1.1-8.21.03-12.32.03Z" class="cls-1"/><path d="m45.6,20.81c4.29-.15,6.72,1.59,6.98,4.99.26,3.48-1.82,5.62-6,6.17-9.08,1.19-13.34,5.49-14.51,14.68-.5,3.89-2.64,5.97-5.98,5.81-3.33-.16-5.24-2.5-5.22-6.42.06-13.21,11.39-24.76,24.74-25.23Z" class="cls-1"/></g></g></svg>