<svg xmlns="http://www.w3.org/2000/svg" xmlns:xlink="http://www.w3.org/1999/xlink" id="Grupo_1236" width="36.951" height="24.147" data-name="Grupo 1236" viewBox="0 0 67.459 67.459"><defs><clipPath id="clip-path"><rect id="Rectángulo_238" width="67.459" height="67.459" fill="#565658" data-name="Rectángulo 238"/></clipPath></defs><g id="Grupo_473" clip-path="url(#clip-path)" data-name="Grupo 473"><path id="Trazado_134" fill="#565658" d="M136.707,506.746h23.611a3.373,3.373,0,1,0,0-6.746H136.707a3.373,3.373,0,0,0,0,6.746" data-name="Trazado 134" transform="translate(-119.842 -449.406)"/><path id="Trazado_135" fill="#565658" d="M213.493,406.746a3.373,3.373,0,0,0,0-6.746H203.374a3.373,3.373,0,0,0,0,6.746Z" data-name="Trazado 135" transform="translate(-179.763 -359.524)"/><path id="Trazado_136" fill="#565658" d="M64.087,60.714h-5.92A26.985,26.985,0,0,0,40.476,17.075V10.12A3.373,3.373,0,0,0,37.1,6.747h-.74L35.316,2.556A3.373,3.373,0,0,0,32.044,0H25.3a3.373,3.373,0,0,0-3.272,2.555l3.272.818-3.272-.818L20.978,6.747h-.739a3.373,3.373,0,0,0-3.373,3.373V33.731A3.373,3.373,0,0,0,20.239,37.1H37.1a3.373,3.373,0,0,0,3.373-3.373V23.893a20.241,20.241,0,0,1,7.818,36.821H3.374a3.373,3.373,0,0,0,0,6.746H64.087a3.373,3.373,0,1,0,0-6.746M23.612,13.493a3.373,3.373,0,0,0,3.272-2.555l1.048-4.191h1.479l1.048,4.191a3.372,3.372,0,0,0,3.272,2.555V30.358H23.612Z" data-name="Trazado 136" transform="translate(-0.001 -0.001)"/></g></svg>