<svg xmlns="http://www.w3.org/2000/svg" xmlns:xlink="http://www.w3.org/1999/xlink" id="Grupo_1234" width="36.951" height="24.147" data-name="Grupo 1234" viewBox="0 0 76.951 54.147"><defs><clipPath id="clip-path"><rect id="Rectángulo_241" width="76.951" height="54.147" fill="#565658" data-name="Rectángulo 241"/></clipPath></defs><g id="Grupo_475" clip-path="url(#clip-path)" data-name="Grupo 475"><path id="Trazado_137" fill="#565658" d="M151.788,34.807a2.219,2.219,0,0,1-2.229-2.209V4.417h-51.3V32.6a2.23,2.23,0,0,1-4.459,0V2.208A2.219,2.219,0,0,1,96.024,0h55.763a2.219,2.219,0,0,1,2.229,2.209V32.6a2.219,2.219,0,0,1-2.229,2.209" data-name="Trazado 137" transform="translate(-85.431 0.001)"/><path id="Trazado_138" fill="#565658" d="M74.722,453.18H2.23a2.234,2.234,0,0,1-1.9-1.048,2.192,2.192,0,0,1-.1-2.149l5.576-11.051a2.232,2.232,0,0,1,1.994-1.221h61.34a2.232,2.232,0,0,1,1.994,1.221l5.576,11.051a2.192,2.192,0,0,1-.1,2.149,2.234,2.234,0,0,1-1.9,1.048M5.837,448.762H71.115l-3.347-6.633H9.184Z" data-name="Trazado 138" transform="translate(0 -399.033)"/><path id="Trazado_139" fill="#565658" d="M408.676,146.055a2.219,2.219,0,0,1-2.229-2.209V127.269a2.23,2.23,0,0,1,4.459,0v16.576a2.219,2.219,0,0,1-2.229,2.209" data-name="Trazado 139" transform="translate(-370.201 -114.009)"/><path id="Trazado_140" fill="#565658" d="M331.609,223.273H314.88a2.209,2.209,0,1,1,0-4.418h16.729a2.209,2.209,0,1,1,0,4.418" data-name="Trazado 140" transform="translate(-284.769 -199.516)"/></g></svg>