<svg xmlns="http://www.w3.org/2000/svg" xmlns:xlink="http://www.w3.org/1999/xlink" width="36.951" height="24.147" viewBox="0 0 63.696 63.696"><defs><clipPath id="clip-path"><path id="Trazado_129" fill="#565658" d="M269.572,293.012v8.968a2.7,2.7,0,0,0,5.406,0v-8.968a2.7,2.7,0,0,0-5.406,0" data-name="Trazado 129" transform="translate(-269.572 -290.309)"/></clipPath><clipPath id="clip-path-2"><path id="Trazado_130" fill="#565658" d="M230.8,331.781a2.7,2.7,0,1,0,0,5.406h8.968a2.7,2.7,0,1,0,0-5.406Z" data-name="Trazado 130" transform="translate(-228.1 -331.781)"/></clipPath><clipPath id="clip-path-3"><path id="Trazado_131" fill="#565658" d="M5.406,162.992v-26.9a6.272,6.272,0,0,1,6.265-6.265H52.025a6.272,6.272,0,0,1,6.265,6.265v26.9a6.272,6.272,0,0,1-6.265,6.265H11.671a6.272,6.272,0,0,1-6.265-6.265m6.265-38.574A11.684,11.684,0,0,0,0,136.089v26.9a11.684,11.684,0,0,0,11.671,11.671H52.025A11.684,11.684,0,0,0,63.7,162.992v-26.9a11.684,11.684,0,0,0-11.671-11.671Z" data-name="Trazado 131" transform="translate(0 -124.418)"/></clipPath><clipPath id="clip-path-4"><path id="Trazado_132" fill="#565658" d="M150.561,223.517a10.749,10.749,0,1,1,10.749,10.749,10.761,10.761,0,0,1-10.749-10.749m-5.406,0a16.154,16.154,0,1,0,16.154-16.154,16.173,16.173,0,0,0-16.154,16.154" data-name="Trazado 132" transform="translate(-145.155 -207.363)"/></clipPath><clipPath id="clip-path-5"><path id="Trazado_133" fill="#565658" d="M171.3,11.671a6.272,6.272,0,0,1,6.265-6.265h4.484a6.272,6.272,0,0,1,6.265,6.265v1.781H171.3ZM177.562,0a11.684,11.684,0,0,0-11.671,11.671v4.484a2.7,2.7,0,0,0,2.7,2.7h22.419a2.7,2.7,0,0,0,2.7-2.7V11.671A11.684,11.684,0,0,0,182.045,0Z" data-name="Trazado 133" transform="translate(-165.891)"/></clipPath></defs><g id="Grupo_1235" data-name="Grupo 1235" transform="translate(0)"><g id="Grupo_462" data-name="Grupo 462" transform="translate(29.145 31.387)"><g id="Grupo_461" clip-path="url(#clip-path)" data-name="Grupo 461"><rect id="Rectángulo_231" width="5.406" height="14.373" fill="#565658" data-name="Rectángulo 231"/></g></g><g id="Grupo_464" data-name="Grupo 464" transform="translate(24.661 35.871)"><g id="Grupo_463" clip-path="url(#clip-path-2)" data-name="Grupo 463"><rect id="Rectángulo_232" width="14.373" height="5.406" fill="#565658" data-name="Rectángulo 232" transform="translate(0 0)"/></g></g><g id="Grupo_466" data-name="Grupo 466" transform="translate(0 13.452)"><g id="Grupo_465" clip-path="url(#clip-path-3)" data-name="Grupo 465" transform="translate(0)"><rect id="Rectángulo_233" width="63.696" height="50.244" fill="#565658" data-name="Rectángulo 233" transform="translate(0 0)"/></g></g><g id="Grupo_468" data-name="Grupo 468" transform="translate(15.694 22.419)"><g id="Grupo_467" clip-path="url(#clip-path-4)" data-name="Grupo 467"><rect id="Rectángulo_234" width="32.309" height="32.309" fill="#565658" data-name="Rectángulo 234" transform="translate(0 0)"/></g></g><g id="Grupo_470" data-name="Grupo 470" transform="translate(17.935)"><g id="Grupo_469" clip-path="url(#clip-path-5)" data-name="Grupo 469"><rect id="Rectángulo_235" width="27.825" height="18.857" fill="#565658" data-name="Rectángulo 235" transform="translate(0 0)"/></g></g></g></svg>