<svg xmlns="http://www.w3.org/2000/svg" xmlns:xlink="http://www.w3.org/1999/xlink" id="Grupo_1239" width="36.951" height="24.147" data-name="Grupo 1239" viewBox="0 0 120.27 66.628"><defs><clipPath id="clip-path"><rect id="Rectángulo_489" width="120.27" height="66.628" fill="#565658" data-name="Rectángulo 489"/></clipPath></defs><g id="Grupo_1239-2" clip-path="url(#clip-path)" data-name="Grupo 1239"><path id="Trazado_370" fill="#565658" d="M.147,24.476c0-2.712-.034-5.424.008-8.135.06-3.923,1.348-5.482,4.876-5.631,2.956-.125,5.925-.116,8.879.033,1.883.095,2.56-.52,2.539-2.775C16.4,2.221,18.406.016,23.5.012q36.364-.03,72.727.013c4.406,0,6.806,2.565,6.67,7.518-.076,2.76.806,3.346,3.01,3.211,3.137-.193,6.292-.155,9.435-.045,3.467.121,4.821,1.726,4.862,5.655.054,5.214-.094,10.434.061,15.643.11,3.7-1.107,6.33-4.152,7.629-2.444,1.043-3.388,2.738-3.691,5.749-1.187,11.79-11.026,21.224-21.755,21.244-10.967.021-20.648-9.336-22.108-21.245a27.725,27.725,0,0,1,1.151-12.6c.566-1.638.392-2.619-.9-3.64a53.014,53.014,0,0,1-4.023-3.836c-.416-.409-1.128-.881-1.125-1.318.032-4.148-2.634-2.846-4.6-3.034-1.451-.139-2.05.276-2.178,2.148-.147,2.155-2.115,3.069-3.474,4.17-2.514,2.038-3.285,3.879-2.255,7.686C54.87,48.694,46.6,63.521,34.3,66.065,21.1,68.792,9.113,58.945,7.684,44.094c-.164-1.706-.389-3.006-2-3.6C1.2,38.843-.457,35.279.106,30.1a52.523,52.523,0,0,0,.032-5.627Zm28.337-7.822c-6.929,0-13.858.054-20.785-.038-1.741-.023-2.512.447-2.378,2.584a36.022,36.022,0,0,1-.026,7.483c-.8,5.377.947,8.682,5.57,10.15,1.835.583,2.178,1.949,2.044,4.042a18.92,18.92,0,0,0,3.769,12.71c5.743,7.772,15.4,9.316,22.693,3.694,7.393-5.7,9.6-16.536,5.022-25.4-.971-1.879-1.082-2.95.614-4.305,2.026-1.618,3.783-3.654,5.716-5.428,1.423-1.305,1.169-3.039.867-4.6-.307-1.587-1.7-.854-2.6-.863-6.836-.062-13.672-.034-20.508-.033m63.253,0c-6.842,0-13.688.134-20.525-.072-2.413-.073-2.725,1.048-2.612,3.26a3.489,3.489,0,0,0,1.3,2.575c1.559,1.47,3,3.122,4.658,4.428,2.056,1.619,2.5,2.944,1.078,5.725a20.191,20.191,0,0,0,2.322,21.746,15.691,15.691,0,0,0,18.494,5.1c6.777-2.9,11.222-9.975,10.962-18.119-.085-2.667.678-4.018,2.734-4.883,1.031-.434,1.949-1.209,2.979-1.653,1.436-.619,1.85-1.69,1.809-3.371-.1-4.062-.131-8.133.007-12.192.073-2.142-.674-2.6-2.4-2.577-6.934.087-13.87.036-20.8.035M59.463,6.006v.01c-11.751,0-23.5.034-35.252-.037-1.791-.011-2.7.3-2.64,2.68.058,2.409,1.423,2.041,2.65,2.043,10.085.021,20.17-.007,30.255.031.83,0,2.427-.5,2.343.77-.315,4.789,2.668,3.192,4.745,3.428,1.251.142,2-.333,1.794-1.893-.329-2.478,1.115-2.342,2.579-2.34,9.715.018,19.43-.006,29.145.019,1.515,0,2.617-.01,2.588-2.414-.03-2.445-1.217-2.311-2.68-2.309q-17.765.032-35.53.012" data-name="Trazado 370" transform="translate(0 0)"/><path id="Trazado_371" fill="#565658" d="M80.882,97.064c8.05.019,14.426,7.248,14.391,16.317-.034,8.817-6.5,16.045-14.374,16.065-7.939.02-14.474-7.4-14.412-16.365.062-8.857,6.514-16.036,14.395-16.018m.056,24.013c3.888-.022,7.1-3.672,7.01-7.97s-3.391-7.854-7.233-7.777c-3.716.075-6.811,3.638-6.832,7.864-.021,4.365,3.148,7.905,7.055,7.883" data-name="Trazado 371" transform="translate(-51.093 -71.731)"/><path id="Trazado_372" fill="#565658" d="M42.207,82.553c-2.251-.028-4.235-2.312-4.168-4.8a4.383,4.383,0,0,1,4.34-4.542c2.294.088,3.919,1.972,3.952,4.581.034,2.674-1.8,4.786-4.124,4.757" data-name="Trazado 372" transform="translate(-29.23 -54.104)"/><path id="Trazado_373" fill="#565658" d="M186.38,70.922c-.265,2.056-1.267,3.441-3.2,3.439-1.815,0-2.951-1.336-3.025-3.3-.081-2.13,1.022-3.6,2.982-3.638,1.928-.042,2.975,1.315,3.248,3.5" data-name="Trazado 373" transform="translate(-138.435 -49.824)"/><path id="Trazado_374" fill="#565658" d="M357.656,113.6c-.148,8.9-6.693,16.066-14.488,15.867-7.952-.2-14.266-7.442-14.18-16.26.09-9.276,6.552-16.31,14.8-16.1,7.865.2,14.022,7.518,13.873,16.5m-14.237-8.25c-3.85-.063-7.053,3.514-7.059,7.883-.006,4.411,3.086,7.864,7.04,7.859,3.8,0,6.855-3.39,6.922-7.673.068-4.376-3.038-8.007-6.9-8.07" data-name="Trazado 374" transform="translate(-252.813 -71.759)"/><path id="Trazado_375" fill="#565658" d="M449.631,73.175a4.3,4.3,0,0,1,4.13,4.412c.106,2.655-1.654,4.841-3.984,4.948-2.206.1-4.286-2.125-4.324-4.629a4.43,4.43,0,0,1,4.178-4.731" data-name="Trazado 375" transform="translate(-342.312 -54.077)"/><path id="Trazado_376" fill="#565658" d="M312.844,71.109c.1-2.413,1.232-3.717,3.1-3.746,1.732-.027,2.971,1.167,3.069,3.248.1,2.208-1,3.613-2.909,3.721-1.925.11-2.983-1.26-3.262-3.223" data-name="Trazado 376" transform="translate(-240.408 -49.781)"/></g></svg>