<svg xmlns="http://www.w3.org/2000/svg" xmlns:xlink="http://www.w3.org/1999/xlink" width="36.951" height="24.147" viewBox="0 0 66.648 66.628"><defs><clipPath id="clip-path"><path id="Trazado_124" fill="#565658" d="M203.518,270v16.657a13.341,13.341,0,0,1-13.326,13.326h-3.331a13.341,13.341,0,0,1-13.326-13.326V273.331a3.331,3.331,0,1,0-6.663,0v13.326a20.011,20.011,0,0,0,19.988,19.988h3.331a20.011,20.011,0,0,0,19.988-19.988V270a3.331,3.331,0,0,0-6.663,0" data-name="Trazado 124" transform="translate(-166.873 -266.668)"/></clipPath><clipPath id="clip-path-2"><path id="Trazado_125" fill="#565658" d="M473.536,143.328a3.331,3.331,0,1,1,3.331,3.331,3.335,3.335,0,0,1-3.331-3.331m-6.663,0a9.994,9.994,0,1,0,9.994-9.994,10.005,10.005,0,0,0-9.994,9.994" data-name="Trazado 125" transform="translate(-466.873 -133.334)"/></clipPath><clipPath id="clip-path-3"><path id="Trazado_126" fill="#565658" d="M6.649,0A6.664,6.664,0,0,0,0,6.65v.012A6.724,6.724,0,0,0,.041,7.4l0,.016,1.5,12.959v.013A18.433,18.433,0,0,0,19.865,36.646h.288A18.434,18.434,0,0,0,38.475,20.385v-.013l1.5-12.959,0-.015A6.663,6.663,0,0,0,33.314,0H30a3.331,3.331,0,1,0,0,6.663h3.352L31.858,19.6A11.778,11.778,0,0,1,20.152,29.983h-.174A11.779,11.779,0,0,1,8.159,19.6L6.663,6.663h3.352a3.331,3.331,0,0,0,0-6.663H6.649Z" data-name="Trazado 126"/></clipPath></defs><g id="Grupo_1230" data-name="Grupo 1230" transform="translate(-183.176 -818.187)"><g id="Grupo_448" clip-path="url(#clip-path)" data-name="Grupo 448" transform="translate(199.854 844.838)"><rect id="Rectángulo_220" width="43.308" height="39.977" fill="#565658" data-name="Rectángulo 220" transform="translate(0 0)"/></g><g id="Grupo_450" clip-path="url(#clip-path-2)" data-name="Grupo 450" transform="translate(229.836 831.512)"><rect id="Rectángulo_221" width="19.988" height="19.988" fill="#565658" data-name="Rectángulo 221" transform="translate(0 0)"/></g><g id="Grupo_452" clip-path="url(#clip-path-3)" data-name="Grupo 452" transform="translate(183.176 818.187)"><rect id="Rectángulo_222" width="40.019" height="36.654" fill="#565658" data-name="Rectángulo 222" transform="translate(0 -0.007)"/></g></g></svg>