<svg xmlns="http://www.w3.org/2000/svg" xmlns:xlink="http://www.w3.org/1999/xlink" xmlns:xodm="http://www.corel.com/coreldraw/odm/2003" width="163.839" height="163.839" version="1.1" viewBox="0 0 1706.66 1706.66" xml:space="preserve" style="shape-rendering:geometricPrecision;text-rendering:geometricPrecision;image-rendering:optimizeQuality;fill-rule:evenodd;clip-rule:evenodd"><defs><style type="text/css">.fil0{fill:url(#id0)}</style><linearGradient id="id0" x1="46.13" x2="1660.54" y1="853.34" y2="853.34" gradientUnits="userSpaceOnUse"><stop style="stop-opacity:1;stop-color:#49d0eb" id="id_112" offset="0"/><stop style="stop-opacity:1;stop-color:#007e79" id="id_113" offset="1"/></linearGradient></defs><g id="Layer_x0020_1"><metadata id="CorelCorpID_0Corel-Layer"/><path id="id_111" d="M1085.2 562.37l-97.2 -0.02 -496.37 0c-84.35,0 -84.35,128.33 0,128.33l723.4 0c84.33,0 84.33,-128.33 0,-128.33l-129.83 0.02zm361.64 808.94c-67.21,0 -121.89,-54.74 -121.89,-122.03 0,-67.28 54.67,-122.01 121.89,-122.01 67.21,0 121.89,54.73 121.89,122.01 0,67.29 -54.67,122.03 -121.89,122.03zm0 -204.02c-107.83,0 -107.82,164.01 0,164.01 107.83,0 107.82,-164.01 0,-164.01zm238.85 488.57l-476.56 0c-27.64,0 -19.98,-40.1 -19.98,-76.68 0,-97.75 69.82,-181.14 166.03,-198.26 29.17,-5.11 25.47,51.53 92.24,51.53 66.75,0 63.08,-56.62 92.24,-51.53 96.21,17.12 166.03,100.51 166.03,198.26 0,36.57 7.66,76.68 -20,76.68zm-456.57 -40l436.59 0 0 -36.68c0,-73.97 -49.9,-137.67 -120.38,-156.1 -48.75,65.73 -147.08,65.72 -195.85,0 -70.48,18.43 -120.38,82.13 -120.38,156.1l0 36.68 0.02 0zm-376.38 -244.55c-67.2,0 -121.87,-54.74 -121.87,-122.03 0,-67.28 54.67,-122.01 121.87,-122.01 67.2,0 121.9,54.73 121.9,122.01 0,67.29 -54.69,122.03 -121.9,122.03zm0 -204.02c-107.83,0 -107.81,164.01 0,164.01 107.82,0 107.85,-164.01 0,-164.01zm238.86 488.57l-476.54 0c-27.64,0 -19.98,-40.1 -19.98,-76.68 0,-97.75 69.82,-181.14 166.02,-198.26 29.13,-5.13 25.47,51.53 92.23,51.53 66.73,0 63.1,-56.62 92.24,-51.53 96.21,17.12 166.03,100.51 166.03,198.26 0,36.58 7.66,76.68 -19.99,76.68zm-456.57 -40l436.59 0 0 -36.68c0,-73.97 -49.9,-137.67 -120.37,-156.1 -48.77,65.7 -147.09,65.75 -195.84,0 -70.47,18.43 -120.37,82.13 -120.37,156.1l0 36.68zm-376.38 -244.55c-67.2,0 -121.89,-54.74 -121.89,-122.03 0,-67.28 54.67,-122.01 121.89,-122.01 67.21,0 121.88,54.73 121.88,122.01 0,67.29 -54.67,122.03 -121.88,122.03zm0 -204.02c-107.84,0 -107.83,164.01 0,164.01 107.83,0 107.84,-164.01 0,-164.01zm238.85 488.57l-476.55 0c-27.64,0 -19.98,-40.1 -19.98,-76.68 0,-97.75 69.82,-181.14 166.02,-198.26 29.11,-5.14 25.48,51.53 92.23,51.53 66.77,0 63.1,-56.66 92.24,-51.53 96.19,17.12 166.02,100.51 166.02,198.26 0,36.59 7.66,76.68 -19.98,76.68zm-456.57 -40l436.59 0 0 -36.68c0,-73.97 -49.9,-137.67 -120.38,-156.1 -48.74,65.72 -147.1,65.74 -195.84,0 -70.48,18.43 -120.38,82.13 -120.38,156.1l0 36.68zm429.35 -1091.28l0 -101.72c0,-7.72 4.44,-14.75 11.41,-18.07l96.47 -45.87c23.74,-11.29 40.9,24.82 17.13,36.12l-85.06 40.46 0 86.87 90.55 0c0.17,-8 0.65,-16.37 0.65,-24.3 0,-133.36 126.22,-180.39 176.24,-177.8 3.24,-3.88 4.37,-9.93 5.25,-16.43 -51.98,-37.17 -35.77,-92.07 -39,-146.5 -1.14,-8.02 -1.07,-18.8 0.05,-33.02 2.06,-23.75 23.82,-69.31 95.26,-65.85 11.45,-1.56 34.94,-12.77 69.15,-4.88 32.41,7.47 64.22,38.49 62.06,56.18 -2.93,23.99 14.52,10.56 22.63,27.98 7.22,15.5 -8.38,33.54 -31.24,42.28 1.03,44.94 1.27,92.69 -38.16,122.43 0.95,7.52 2.07,14.57 6.01,18.59 96.87,0.73 175.47,79.86 175.47,177.01 0,7.93 0.48,16.31 0.65,24.31l90.59 0 0 -86.88 -85.06 -40.46c-23.74,-11.28 -6.64,-47.41 17.15,-36.12l96.46 45.87c6.96,3.32 11.4,10.35 11.4,18.07l0 101.72c47.18,9.87 82.72,51.84 82.72,101.96 0,57.44 -46.69,104.16 -104.06,104.16l-27.93 0 0 510.44c0.02,11.05 -8.94,20 -19.98,20l-155.17 0c-26.3,0 -26.29,-40 0,-40l135.19 0 0 -490.44 -587.64 0 0 490.44 134.48 0c26.29,0 26.3,40 0.02,40l-154.48 0c-11.03,0 -19.98,-8.97 -19.98,-20l0 -510.44 -27.91 0c-57.37,0 -104.05,-46.72 -104.05,-104.17 0,-50.12 35.53,-92.07 82.7,-101.96zm594.3 -2.2c0.17,-8 0.65,-16.39 0.65,-24.32 0,-75.29 -60.98,-136.6 -136.09,-137.01l-31.13 18.61c11.06,89.06 16.83,64.32 -29.13,121.44 -20.77,25.82 -45.72,-18.17 -63.47,-40.21 -8.19,-10.17 -1.07,-52.13 3.01,-80.65l-31.07 -19.18c-75.04,0.5 -135.94,61.76 -135.94,137.01 0,7.93 0.48,16.3 0.65,24.3l55.91 0 0 -54.37c0,-26.33 39.95,-26.33 39.95,0l0 54.37 230.83 0 0 -54.37c0,-26.32 39.95,-26.32 39.95,0l0 54.37 55.88 0zm-204.3 -120.33c-4.44,1.96 -9.43,2.24 -14.01,0.81l-4.52 39.43 11.57 14.37 11.56 -14.36 -4.6 -40.26zm-20.16 -49.21l12.21 7.54c11.9,-7.12 26.37,-16.99 40.12,-25.07 -2.73,-5.13 -5.01,-10.66 -6.72,-16.24 -16.61,2.94 -48.09,2.91 -64.81,0.32 -1.81,5.9 -4.28,11.75 -7.26,17.11l26.45 16.33zm-56.24 -179.01c0,45.91 -9.19,80.12 31.8,102.81 11.16,6.18 63.95,5.91 74.84,-0.65 38.77,-23.32 29.26,-53.15 29.24,-91.39 -32.59,-3.12 -69.89,-16 -84.06,-26.26 -21.31,6.02 -38.4,11.89 -51.81,15.48zm153.57 -28.69c0.5,-0.07 1.01,-0.12 1.53,-0.16 -6.05,-9.78 -8.52,-21.43 -8.6,-31.78 -2.44,-6.79 -22.47,-22.21 -46.1,-22.21 -32.44,0 -17.72,7.31 -52.93,7.31 -43.36,0 -47.46,25.13 -47.46,33.16l56.88 -15.3c20.81,0 1.76,17.53 85.84,28.67 3.96,0.52 7.61,0.6 10.83,0.33z" class="fil0"/></g></svg>