<svg xmlns="http://www.w3.org/2000/svg" xmlns:xlink="http://www.w3.org/1999/xlink" id="Capa_2" width="406.951" height="504.147" data-name="Capa 2" viewBox="0 0 462.97 434.83"><defs><style>.cls-1{fill:#049ae7}.cls-2{clip-path:url(#clippath)}.cls-3{fill:none}</style><clipPath id="clippath"><rect width="462.97" height="434.83" x="0" class="cls-3"/></clipPath></defs><g id="Capa_1-2" data-name="Capa 1"><g id="Grupo_1352" data-name="Grupo 1352"><g class="cls-2"><g id="Grupo_1351" data-name="Grupo 1351"><path id="Trazado_612" d="m0,312.55c2.01,3.25,5.72,5.04,9.51,4.59,17.31-.18,34.62-.13,51.93-.05,9.06.37,17.68-3.9,22.87-11.34,3.12-4.25,6.81-8.05,10.98-11.29,4.29-3.34,5.05-7.07,2.41-10.44-2.56-3.27-6.61-3.33-10.76-.19-5.08,3.79-9.54,8.35-13.22,13.5-2.83,4.19-7.67,6.57-12.72,6.24-17.16-.14-34.32.05-51.48-.12-3.79-.45-7.5,1.34-9.51,4.59v4.51Z" class="cls-1" data-name="Trazado 612"/><path id="Trazado_613" d="m0,430.08c1.7,3.27,5.24,5.16,8.9,4.74,20.45-.15,40.89-.05,61.33-.08,5.49,0,8.37-2.28,8.45-6.53.08-4.4-2.95-6.98-8.59-6.98-20.45-.04-40.89.03-61.33-.06-3.48-.12-6.77,1.54-8.76,4.4v4.52Z" class="cls-1" data-name="Trazado 613"/><path id="Trazado_614" d="m231.34,50.3c-6.24-11.31-14.72-21.23-24.92-29.15C176.51-1.28,143.66-6.24,109.26,8.04c-34.1,14.16-53.98,40.63-58.71,77.4-4.04,31.43,6.02,58.52,28.26,80.99,31.16,31.48,62.39,62.89,93.7,94.23,12.86,12.93,25.71,25.86,38.55,38.79,1.04,1.05,2.04,2.15,3.55,3.76-9.11,0-17.6.3-26.05-.13-4.15-.21-6.56-3.8-9.04-6.93-12.98-17.15-33.55-26.84-55.04-25.92-1.2,0-2.41.12-3.59.34-3.48.39-6.04,3.45-5.8,6.95.07,3.55,3.01,6.36,6.55,6.29.12,0,.24,0,.35-.02,5.87-.3,11.75.2,17.49,1.5,11.6,2.57,21.88,9.25,28.95,18.8,5.95,8.76,16.08,13.73,26.65,13.08,20.33-.35,40.68-.17,61.02-.06,8.61-.09,16.16,5.73,18.27,14.07,1.84,7.72-1.5,15.75-8.28,19.88-3.57,2-7.64,2.93-11.72,2.7-25.31-.02-50.62-.02-75.94,0-7.23,0-10.21,1.92-10.32,6.58-.12,4.82,3.06,6.97,10.41,6.97,51.38,0,102.76.02,154.13.07,4.21.2,8.29-1.49,11.14-4.6,24.1-24.69,48.31-49.28,72.62-73.76,6.89-6.97,15.8-8.47,23.43-4.12,8.93,4.93,12.17,16.18,7.24,25.11-.87,1.57-1.96,3.01-3.25,4.27-14.95,15.93-30.12,31.65-45.2,47.46-11.75,12.31-23.6,24.54-35.25,36.96-13.42,14.84-32.65,23.09-52.65,22.6-67.65-.21-135.3-.08-202.95-.07-2.1-.21-4.23-.03-6.26.54-3.05.86-4.99,3.83-4.55,6.97.14,3.17,2.65,5.73,5.81,5.93,1.35.11,2.71.15,4.06.1h205.66c22.01.46,43.19-8.41,58.31-24.41,27.64-28.6,55.02-57.45,82.45-86.25,8.8-9.24,11.92-20.16,8.08-32.47-3.12-11.37-12.53-19.92-24.14-21.95-11-2.5-22.49,1.11-30.08,9.45-20.51,20.83-41.5,41.21-61.33,62.66-8.37,9.05-16.79,13.47-29.21,12.2-10.84-1.11-21.89-.23-33.55-.23,7.13-12.75,7.69-24.98-.57-36.57-8.15-11.44-19.99-14.8-33.79-13.47.38-2.17,1.87-3.02,2.93-4.09,29.3-29.51,58.61-59.01,87.94-88.49.9-.81,1.73-1.69,2.49-2.62,2.34-2.86,1.92-7.08-.94-9.43-2.47-2.02-6.02-2.02-8.49,0-1.16.96-2.25,2-3.26,3.12-31.56,31.72-63.1,63.47-94.61,95.24-2.64,2.67-3.99,2.67-6.64,0-46.35-46.77-92.54-93.68-139.31-140.03-42.7-42.32-29.68-112.5,23.74-136.19,41.92-18.81,91.16-.07,109.96,41.86.6,1.33,1.16,2.68,1.69,4.04.56,2.2,1.82,4.16,3.58,5.59,4.13,2.69,8.51.7,10.73-5.09,5.87-15.62,16.34-29.1,30.03-38.65,51.01-35.95,122.8-4.21,130.36,57.71,3.54,25.06-4.86,50.33-22.7,68.29-6.84,7.22-13.97,14.17-20.98,21.2-2.74,2.12-3.5,5.95-1.78,8.96,1.49,3.09,5.21,4.39,8.31,2.89.49-.24.95-.54,1.36-.9,17.39-17.02,35.92-33.05,44.53-57.12C429.98,67.53,383.99.9,317.67.54c-36.33-.18-64.21,15.71-83.96,46.07-.65,1-1.28,2-2.37,3.69" class="cls-1" data-name="Trazado 614"/><path id="Trazado_615" d="m163.51,164.12v16.71c.01,7.77,1.88,9.67,9.5,9.68,8.89,0,17.79.23,26.66-.1,4.21-.15,5.76.75,5.55,5.32-.4,9.02-.13,18.08-.11,27.12.01,7.17,2.03,9.23,9.01,9.24,11.6.02,23.2.02,34.81,0,6.5-.01,8.73-2.2,8.77-8.59.04-9.19.23-18.39-.09-27.57-.15-4.2.73-5.74,5.31-5.54,9.02.41,18.08.13,27.12.12,7.27,0,9.26-2.04,9.26-9.46.01-11.15.01-22.3,0-33.45,0-7.89-1.85-9.7-9.91-9.71-8.89,0-17.79-.27-26.66.11-4.38.18-5.21-1.38-5.1-5.34.26-9.33.11-18.68.07-28.02-.03-5.95-2.27-8.29-8.1-8.32-12.05-.06-24.11-.06-36.17,0-6.13.03-8.29,2.27-8.32,8.55-.04,9.34-.19,18.69.08,28.02.11,3.84-.74,5.26-4.9,5.1-9.33-.34-18.68-.13-28.02-.09-6.55.03-8.71,2.16-8.75,8.58-.04,5.88,0,11.75,0,17.63m80.64,36.02c0,5.12-.1,10.25.04,15.37.07,2.34-.65,3.16-3.06,3.1-6.32-.15-12.66-.19-18.98.01-2.8.09-3.6-.77-3.56-3.55.15-9.79.09-19.58.04-29.37-.03-6.35-2.41-8.69-8.79-8.72-9.64-.04-19.28-.15-28.92.07-3.27.07-4.06-1.02-3.94-4.09.22-6.02.21-12.06,0-18.07-.1-2.9,1.01-3.51,3.66-3.48,9.48.13,18.98.06,28.47.04,7.28-.01,9.51-2.21,9.52-9.38.02-9.64.08-19.28-.04-28.92-.03-2.57.79-3.39,3.34-3.32,6.32.15,12.66.16,18.98,0,2.63-.07,3.3.89,3.27,3.38-.12,9.19-.05,18.38-.05,27.57,0,8.86,1.79,10.68,10.48,10.69,9.19,0,18.38.09,27.57-.05,2.68-.04,3.73.61,3.63,3.49-.22,6.02-.23,12.06,0,18.07.12,3.09-.69,4.15-3.95,4.07-9.94-.21-19.89-.13-29.83-.05-5.24.04-7.75,2.57-7.86,7.78-.1,5.12-.02,10.24-.03,15.37" class="cls-1" data-name="Trazado 615"/></g></g></g></g></svg>