<svg xmlns="http://www.w3.org/2000/svg" xmlns:xlink="http://www.w3.org/1999/xlink" id="Capa_2" width="406.951" height="504.147" data-name="Capa 2" viewBox="0 0 308.75 479.77"><defs><style>.cls-1{fill:#049ae7}.cls-2{clip-path:url(#clippath)}.cls-3{fill:none}</style><clipPath id="clippath"><rect width="308.75" height="479.77" class="cls-3"/></clipPath></defs><g id="Capa_1-2" data-name="Capa 1"><g id="Grupo_1356" data-name="Grupo 1356"><g class="cls-2"><g id="Grupo_1356-2" data-name="Grupo 1356-2"><path id="Trazado_616" d="m72.33,152.82c-5.1,2.46-10.48,4.28-16.02,5.42-25.98,4.33-51.26-13.28-55.58-38.85-4.6-27.26,12.8-52.2,39.72-56.44,3.98-.63,4.97-2.35,5.5-5.86C50.24,28.39,69.21,7.4,96.07,1.46c4.6-1,9.29-1.49,13.99-1.46,14.42.04,28.84-.04,43.26.02,34.84-.3,63.33,27.7,63.64,62.55.03,2.99-.16,5.98-.56,8.95-.74,6.06-1.51,12.12-2.16,18.2-.86,7.72,1.21,15.48,5.8,21.75,1.62,2.31,3.24,4.62,4.74,7.01,5.01,7.98,2.47,16.6-6.34,19.99-3.59,1.02-6.08,4.3-6.08,8.04-1.77,15.58-9.07,30-20.58,40.65-8.4,8.05-18.45,10.08-29.6,7.42-1.94-.46-3.91-.83-6.71-1.42,3.4,5.85,7.55,11.23,12.33,16.01,7.72,8.04,16.39,15.1,25.82,21.03,23.62,15.06,38.77,36.03,44.63,63.54.33,1.37.56,2.76.68,4.17.1,2.82,1.99,5.26,4.7,6.05,10.79,4.83,17.3,15.99,16.21,27.76-.31,3.08.9,4.09,3.12,5.32,23.38,12.94,38.73,32.25,43.79,58.59,5.85,30.49-1.08,57.84-22.93,80.67-4.3,4.5-9.54,4.54-12.5.33-2.49-3.12-1.99-7.67,1.11-10.18,16.48-16.57,22.72-36.86,20.77-59.65-2.16-25.1-14.94-43.63-36.68-56.23-3.15-1.83-3.89-.09-5.27,1.92-7.08,10.24-16.81,14.84-29.17,12.6-12.75-2.3-21.1-9.75-24.22-22.53-1.33-4.73-1.1-9.77.64-14.36,4.56-10.97,11.32-20.25,22.69-25.08,2.56-1.08,3.2-2.08,2.68-4.75-3.85-21.24-15.98-40.07-33.73-52.34-.95-.83-2.17-1.28-3.43-1.25-16.47,1.04-32.98-1.37-48.48-7.07-.24-.08-.57.1-1.06.2v30.94c0,22.73.09,45.46-.03,68.19-.29,18.19,5.95,35.88,17.58,49.87,21.04,25.92,42.01,51.88,62.92,77.91,1.17,1.27,2.17,2.68,2.98,4.2,1.72,3.21.71,7.19-2.32,9.19-2.66,2.23-6.57,2.11-9.07-.29-1.27-1.16-2.43-2.45-3.44-3.84-20.59-25.47-41.02-51.08-61.78-76.41-14.58-17.29-22.38-39.3-21.94-61.92.27-30.88.1-61.76.04-92.64.25-12.43-9.62-22.72-22.06-22.97-6.81-.14-13.32,2.82-17.7,8.03-3.45,3.93-5.34,8.99-5.33,14.22,0,26.65-.65,53.32.24,79.95.82,32.49,13.5,63.55,35.65,87.32,17,18.64,34.71,36.63,52.1,54.93,1.15,1.07,2.18,2.25,3.08,3.53,2.14,2.94,1.69,7.03-1.04,9.42-2.45,2.7-6.59,3.01-9.42.71-1.12-.85-2.15-1.82-3.08-2.88-17.1-17.92-34.19-35.84-51.28-53.77-.73-.77-1.57-1.45-2.62-2.41-1.59,5.57-2.97,10.83-4.6,16.01-4.87,15.51-13.53,28.84-23.98,41.1-3.36,3.93-7.73,4.5-11.15,1.63s-3.76-7.24-.35-11.26c10.15-11.38,17.75-24.78,22.32-39.32,2.17-7.69,3.54-15.58,4.11-23.55.12-2.03-.47-4.05-1.65-5.7-15.61-25-23.73-53.95-23.4-83.42.06-23.51.06-47.03-.02-70.54-.11-6.13,1.19-12.2,3.81-17.74.67-1.24,1.08-2.6,1.18-4.01.78-22.4,2.45-44.74,5.43-66.96.04-.85.04-1.71,0-2.56m124.96-109.83c-9.21,12.95-24.29,20.42-40.17,19.9-2.54,0-3.18,1.23-3.77,3.12-3.83,11.64-10.01,22.37-18.15,31.52-6.51,7.6-12.83,8.69-21.59,3.82-4.7-2.61-8.83-1.6-11.45,3.11-2.62,4.45-2.35,10.04.7,14.21,4.02,5.94,10.54,9.71,17.69,10.21,4.14.17,7.35,3.66,7.18,7.8,0,.15-.02.31-.03.46-.47,4.18-4.24,7.18-8.42,6.71-.25-.03-.5-.07-.75-.12-3.24-.42-7.02-.52-9.49-2.28-7.12-5.06-12.91-3.2-18.77,1.89-1.1.95-1.99,1.51-2.16,3.19-1.27,13.4-2.79,26.78-4.06,40.17-.69,7.23-1.05,14.48-1.61,22.36,13.63-5.94,26.32-5.63,37.88,2.42,10.92,7.34,23.08,12.65,35.88,15.69,2.89,1.09,5.99,1.52,9.07,1.26-.53-1.81-1.88-2.46-2.86-3.39-9.65-8.76-17.71-19.14-23.81-30.66-2.11-4.14-4.5-6.56-9.22-7.27-5.36-.81-8.08-4.87-7.01-9.19,1.08-4.43,5.05-6.48,10.39-5.32,11.32,2.46,22.64,4.88,33.92,7.46,5.74,1.51,11.85-.35,15.77-4.81,9.29-9.51,14.86-22.04,15.7-35.31.53-6.41,3.44-11.06,9.55-13.2,3.39-1.19,3.07-2.54,1.26-4.94-7.7-9.9-11.16-22.44-9.62-34.88.42-3.73.93-7.46,1.51-11.17,1.73-10.97,1.9-21.77-3.54-32.76m-63.33-27.92c-9.97,0-17.82-.3-25.63.06-19.93.92-34.49,10.41-42.83,28.58-6.55,14.28-7.22,29.28-4.03,44.58,3.06,14.67,11.98,26.36,19.36,38.85.86,1.45,1.52,3.98,4.09,2.01,1.91-1.46,5.11-2.12,3.17-5.95-2.11-4.41-3-9.3-2.59-14.17,1.01-18.1,19.3-30.39,34.58-21.28,2.2,1.31,3.2.7,4.59-.99,6.2-7.3,11-15.67,14.19-24.69,3.91-11.67,7.01-13.87,19.37-14.15,10.88.2,21.11-5.18,27.1-14.26,2.16-3.15,2.28-5.26-1.03-7.74-6.42-5.05-13.96-8.48-21.99-10.01-10.12-1.75-20.33-.35-28.35-.83M14.91,110.51c.05,18.47,15.06,33.4,33.53,33.35,5.67-.02,11.24-1.47,16.19-4.23,3.24-1.82,5-3.4,1.99-7-1.71-2.43-3.29-4.95-4.73-7.55-9.11-13.78-15.65-28.52-16.87-45.21-.22-2.83-1.73-2.27-3.52-1.97-14.79,2.43-26.59,16.89-26.59,32.62m197.38,226.06c-.04,5.99,3.86,11.3,9.59,13.05,6.5,2.19,12.64.57,16.3-4.69,2.13-3.09,4-6.35,5.58-9.75,2.23-4.48,1.6-9.86-1.61-13.7-2.91-4.07-7.89-6.1-12.82-5.22-7.35,1.08-17.09,12.82-17.05,20.31" class="cls-1" data-name="Trazado 616"/></g></g></g></g></svg>