<svg xmlns="http://www.w3.org/2000/svg" xmlns:xlink="http://www.w3.org/1999/xlink" id="Capa_2" width="406.951" height="504.147" data-name="Capa 2" viewBox="0 0 336.7 452.6"><defs><style>.cls-1{fill:#049ae7}.cls-2{clip-path:url(#clippath)}.cls-3{fill:none}</style><clipPath id="clippath"><rect width="336.7" height="452.6" class="cls-3"/></clipPath></defs><g id="Capa_1-2" data-name="Capa 1"><g id="Grupo_1336" data-name="Grupo 1336"><g id="Grupo_1338" data-name="Grupo 1338"><g class="cls-2"><g id="Grupo_1337" data-name="Grupo 1337"><path id="Trazado_607" d="m6.31,452.6c-4.43-2.28-6.95-7.09-6.31-12.02.32-10.45.04-20.92.11-31.38-.45-14.63,11.05-26.86,25.68-27.31.58-.02,1.15-.02,1.73,0,11.66-.06,23.32-.12,34.98.05,3.14.05,4.41-.54,4.29-4.04-.28-8.24-.28-16.49,0-24.74.11-3.46-1.08-4.19-4.27-4.06-6.05.24-12.1.15-18.14.05-14.63-.1-26.41-12.03-26.31-26.66.1-14.42,11.7-26.11,26.12-26.31,10.04-.15,20.08-.08,30.11-.02,6,.04,9.99,3.72,9.91,8.94s-4.05,8.67-10.16,8.71c-9.15.05-18.3,0-27.45.02-6.89,0-10.96,3.25-11.03,8.72s4.03,8.95,10.8,8.95c46.05.01,92.1.01,138.15,0,6.02,0,9.89-3.07,10.37-8.03.36-4.45-2.64-8.48-7-9.41-1.31-.21-2.64-.28-3.97-.22-9.15-.02-18.3.03-27.45-.02-6.14-.04-10.09-3.45-10.19-8.66-.1-5.38,3.95-8.85,10.3-9.01,13.12-.34,26.28.98,39.35-.84,31.12-4.33,55.02-34.79,52.05-66.05-.32-3.28-1.58-4.14-4.84-5.14-6.18-1.88-9.15-.14-12.47,5.2-4.93,7.67-13.76,11.89-22.83,10.92-2.17-.39-4.32.79-5.16,2.84-2.35,4.41-4.91,8.72-7.52,12.99-4.49,8.54-15.06,11.82-23.6,7.33-.41-.22-.81-.45-1.21-.7-17.69-10.03-35.31-20.17-52.87-30.43-8.53-4.47-11.82-15.01-7.35-23.54.22-.42.46-.83.71-1.23,1.06-1.94,2.12-3.89,3.34-5.73,3.89-5.82,6.52-10.96,1.77-18.39-4.16-6.51-2.97-14.67.99-21.57,16.47-28.72,32.98-57.45,49.77-86.02,4.83-8.47,14.23-13.27,23.93-12.22,2.19.43,4.37-.78,5.17-2.86,1.26-2.5,2.65-4.93,4.18-7.27,2.84-4.46,5.43-8.63,2.9-14.48-1.2-4.05-.44-8.42,2.07-11.82,4.17-7.28,8.33-14.57,12.62-21.78,1.91-4.48,7.08-6.57,11.56-4.66.69.29,1.33.67,1.93,1.13,27.48,15.76,54.94,31.57,82.37,47.43,5.85,3.39,7,7.9,3.67,13.78-4.06,7.18-8.25,14.28-12.37,21.42-2.62,4.91-7.44,8.26-12.96,9.01-1.89.18-3.54,1.36-4.31,3.09-2.41,4.39-4.91,8.72-7.52,13-1.21,1.49-1.22,3.62-.02,5.12,6.2,8.65,6.44,20.22.61,29.13-1.65,1.95-1.4,4.87.55,6.52.07.06.15.12.23.18,9.55,9.77,13.79,23.55,11.39,37-.24,1.88.01,3.8.73,5.56,16.29,46.8,7.17,87.99-27.37,123.58-2.23,2.31-2.37,3.41-.34,5.93,10.52,13.12,15.92,29.61,15.22,46.41-.09,4.2-1.93,9.81.84,12.23,2.38,2.08,7.85.67,11.96.71,5.61.05,11.22-.08,16.83.04,14.27.18,25.82,11.68,26.05,25.95.2,11.63-.04,23.27.1,34.91,0,4.2-2.43,8.03-6.24,9.81H6.31Zm162.08-17.68h17.27c42.8,0,85.61-.06,128.41.11,4.16.02,5.16-1.19,4.98-5.11-.32-6.76-.04-13.55-.11-20.32-.07-6.64-3.45-10.01-10.19-10.01-93.58-.02-187.17-.02-280.75,0-6.74,0-10.12,3.37-10.19,10.01-.07,6.78.21,13.56-.11,20.32-.18,3.91.79,5.13,4.97,5.12,48.56-.17,97.12-.11,145.68-.11m36.44-253.01c-.55-24.56,18.91-44.91,43.47-45.46,3.83-.09,7.65.32,11.37,1.22,1.4.29,2.84,1.45,4.37-.41,3.89-3.87,3.9-10.16.02-14.04-.71-.72-1.53-1.32-2.43-1.79-22.31-12.94-44.66-25.81-67.05-38.59-5.82-3.33-10.42-2.03-13.79,3.78-15.81,27.25-31.58,54.52-47.32,81.81-3.48,6.05-2.21,10.5,3.92,14.04,22.07,12.77,44.15,25.51,66.25,38.21,6.27,3.6,10.64,2.23,14.44-3.99,1.37-1.55,1.23-3.92-.32-5.29-.11-.09-.22-.18-.33-.26-7.78-7.77-12.29-18.23-12.6-29.22m7.66,145.53c48.84-12.41,81.49-66.12,68.01-115.55-3.75,3.58-8.07,6.51-12.78,8.67-1.97.52-3.15,2.55-2.63,4.52.02.06.03.12.05.18,2.64,20.25-2.95,40.72-15.5,56.82-9.25,12.35-21.91,21.73-36.41,26.99-1.37.51-4.05.22-2.71,3.21,1.95,4.79,2.63,10.01,1.97,15.14m63.16-146.67c.19-14.66-11.54-26.71-26.2-26.9-14.66-.19-26.71,11.54-26.9,26.2-.19,14.66,11.54,26.71,26.2,26.9.09,0,.19,0,.28,0,14.55.03,26.42-11.65,26.62-26.2m-79.78,201.12c9.29,0,18.6-.17,27.89.09,3.44.1,4.28-1,4.07-4.21-.28-4.11.02-8.24-.1-12.37,0-8.87-7.14-16.08-16-16.15-14.75-.18-29.51.02-44.26-.13-2.95-.03-3.37,1.16-3.34,3.65.11,8.39.17,16.79-.02,25.18-.07,3.01.68,4.09,3.89,4.02,9.29-.21,18.59-.07,27.88-.07m-80.21,0c9.15,0,18.3-.06,27.45.04,2.35.03,3.44-.44,3.39-3.11-.15-8.84-.15-17.67,0-26.52.04-2.58-.9-3.18-3.33-3.18-18.45.08-36.9.08-55.35,0-2.81-.02-3.47.95-3.42,3.57.14,8.54.18,17.09,0,25.63-.07,3.02,1.02,3.68,3.82,3.63,9.15-.16,18.3-.06,27.45-.06M297.4,61.82c.35-1.73-.91-1.97-1.72-2.44-21.4-12.37-42.84-24.68-64.22-37.1-2.14-1.24-2.99-.7-4.02,1.23-1.8,3.37-3.72,6.67-5.78,9.91-1.27,2.02-1.18,3.15,1.09,4.46,21.34,12.18,42.62,24.49,63.93,36.74.83.48,2.02,1.66,2.7.6,2.86-4.46,5.46-9.06,8.01-13.37m-109.5,171.57c-.04-2.15-1.82-2.34-2.98-3.02-12.73-7.39-25.45-14.78-38.25-22.03-3.91-2.23-8.24-7.08-11.68-5.82-3.34,1.23-4.93,7.18-7.29,11.06-.13.27-.27.52-.43.77-1.34,1.67-.9,2.72.94,3.77,16.35,9.35,32.65,18.78,48.99,28.14.77.44,1.91,1.76,2.65.61,2.85-4.46,5.44-9.06,8.05-13.49m31.73-176.91c-1.41.07-1.69,1.22-2.18,2.05-1.73,2.91-3.18,6.01-5.14,8.75-2.05,2.88-1.91,4.35,1.48,6.23,12.9,7.13,25.56,14.68,38.38,21.96,3.79,2.15,7.99,6.84,11.37,5.58,3.25-1.21,4.68-7.04,7.14-10.68,1.66-2.45,1.59-3.82-1.24-5.41-15.92-9-31.7-18.19-47.54-27.31-.76-.44-1.56-.81-2.26-1.17m43.52,314.02c.94-13.06-2.88-26.02-10.77-36.48-2.01-2.69-3.64-4.14-6.98-1.49-2.85,2.1-5.96,3.82-9.26,5.09-2.99,1.27-2.55,2.17-.58,4.12,5.09,4.99,8.4,11.52,9.4,18.58.58,6.16.72,12.34.42,18.52.02,2.18.46,3.37,2.91,3.07,1.16-.14,2.36.04,3.54-.04,3.64-.25,8.36,1.59,10.63-.74s.37-7,.69-10.63" class="cls-1" data-name="Trazado 607"/><path id="Trazado_608" d="m124.06,305.02c-.01,4.87-3.98,8.81-8.85,8.79-4.87-.01-8.81-3.98-8.79-8.85.01-4.87,3.98-8.81,8.85-8.79.08,0,.15,0,.23,0,4.76.19,8.53,4.08,8.56,8.84" class="cls-1" data-name="Trazado 608"/></g></g></g></g></g></svg>