<?xml version="1.0" encoding="UTF-8"?>
<svg id="Capa_2" data-name="Capa 2" xmlns="http://www.w3.org/2000/svg" width="406.951" height="504.147" viewBox="0 0 438.26 472">
  <defs>
    <style>
      .cls-1 {
        fill: #049ae7;
      }
    </style>
  </defs>
  <g id="Capa_1-2" data-name="Capa 1">
    <g id="Grupo_1346" data-name="Grupo 1346">
      <path id="Trazado_591" data-name="Trazado 591" class="cls-1" d="m190.52.03c7.84,7.56,14.92,15.87,21.11,24.83,14.44,18.76,26.13,39.48,34.72,61.54.93,2.45,1.96,2.84,4.36,2.21,16.9-4.88,34.78-5.3,51.89-1.2,2.56.66,3.54-.76,4.76-2.44,15.13-21.44,37.76-36.43,63.41-41.99,5.98-1.42,12.08-2.23,18.22-2.42,12.81-.27,22.43,7.98,22.81,19.56.41,12.08-8.44,21.18-21.22,21.89-17.26.76-33.47,8.46-44.97,21.35-.52.56-.94,1.23-1.51,1.74-2.09,1.88-1.39,3.05.66,4.54,13.17,9.42,29.66,12.98,45.54,9.81,6.64-1.25,13.16-3.03,19.51-5.34,10.73-3.93,22.61,1.59,26.53,12.31,3.93,10.73-1.59,22.6-12.31,26.53-12.57,5.01-25.86,7.97-39.37,8.77-4.84.25-7.84-2-8.23-6.07-.54-3.59,1.94-6.94,5.53-7.47.42-.06.85-.08,1.27-.06,11.33-.87,22.5-3.25,33.2-7.08,1.32-.41,2.59-.95,3.81-1.6,3.25-1.53,4.65-5.41,3.12-8.66-1.11-3.29-4.67-5.05-7.96-3.94-.12.04-.24.08-.36.13-7.38,2.59-14.94,4.64-22.61,6.14-21.63,4.13-43.96-1.74-60.76-15.98-4.88-3.38-6.11-10.07-2.73-14.96.23-.33.48-.65.75-.96,13.53-19.31,35.1-31.44,58.64-32.97.76-.07,1.54-.02,2.31-.1,4.69-.45,7.46-3.18,7.32-7.23-.14-3.8-3.34-6.76-7.13-6.61-.24,0-.49.03-.73.07-10.15.26-20.18,2.32-29.62,6.07-17.49,6.68-32.5,18.59-42.98,34.1-5.45,7.9-8.06,8.83-17.46,6.35-14.86-3.55-30.37-3.28-45.1.78-2.47.6-3.39,1.74-2.39,4.17,1.28,3.11.33,7.84,2.98,9.28,2.15,1.17,6.03-.91,9.17-1.43,2.72-.46,5.46-.92,8.21-1.11,8.36-.59,13.2,3.69,13.43,11.99.67,22.88,3.51,45.64,8.47,67.98,1.62,7.33,3.44,14.64,5.64,21.82,1.55,4.13.09,8.78-3.55,11.27-24.95,20.89-42.13,49.57-48.77,81.42-.33,1.34-.51,2.71-.53,4.09-.3,3.4,2.1,6.44,5.47,6.94,3.35.89,6.79-1.12,7.68-4.47.03-.12.06-.25.09-.37,1.13-3.97,1.8-8.08,2.91-12.07,5.6-19.89,15.87-38.16,29.96-53.27,6.61-7.21,15.65-5.67,19.47,3.46,8.23,19.85,18.13,38.97,29.6,57.15.75,1.34,1.64,2.59,2.66,3.74,2.09,2.47,5.71,2.97,8.39,1.16,2.86-1.51,4.12-4.94,2.89-7.94-.59-1.58-1.37-3.08-2.31-4.47-6.74-10.63-12.9-21.61-18.44-32.92-3.99-8.18-1.59-14.34,7.01-17.46,22.33-8.53,47.34-6.29,67.8,6.06.93.53,1.81,1.16,2.76,1.65,3.23,2.13,7.58,1.27,9.76-1.93,2.03-3.23,1.06-7.49-2.17-9.51-.07-.05-.15-.09-.22-.13-6.25-4.19-13.04-7.52-20.19-9.9-21.54-7.55-45.12-6.78-66.13,2.15-8.02,3.26-10.58,2.18-13.52-5.85-11.54-31.62-18.43-64.74-20.46-98.34-.59-4.41,1.56-8.73,5.44-10.91,3.8-2.32,8.63-2.06,12.15.66,6.82,5.24,14,9.99,21.49,14.22,3.86,1.88,7.81,3.55,11.85,5.02,5.44,2.04,7.79,5.29,6.46,9.37-1.37,4.19-5.2,5.52-10.7,3.79-9.78-3.24-18.99-8-27.28-14.11-1.42-1.37-3.16-2.37-5.06-2.91.48,8.74,1.46,17.44,2.93,26.07,2.96,18.64,7.46,37.01,13.45,54.91,1.1,3.29,2.2,3.64,5.4,2.61,30.12-10.36,63.32-6.43,90.19,10.66,11.02,6.7,14.44,19.24,8.27,29.33-6.17,10.09-18.9,12.68-29.87,5.99-15.53-9.83-34.49-12.65-52.21-7.78-3.69.95-3.97,2.21-2.25,5.42,5.34,10.03,11.17,19.76,17.02,29.5,4.45,6.77,4.34,15.56-.28,22.22-3.94,6.51-11.32,10.11-18.87,9.21-6.88-.5-13.06-4.38-16.5-10.35-10.74-16.82-20.18-34.43-28.24-52.69l-2.07-4.69c-1.91.51-2.6,2.15-3.58,3.38-11.8,14.27-19.76,31.31-23.15,49.51-3.31,18.82-22.75,23.38-33.37,14.55-6.62-5.15-9.6-13.71-7.6-21.85,6.56-33.42,23.78-63.82,49.07-86.63,2.33-1.72,3.21-4.79,2.15-7.48-7.31-26.51-11.56-53.77-12.67-81.25-.17-3.67-1.11-4.13-4.5-3.53-10.85,1.91-10.97,1.76-10.54,12.29,1.03,30.6-7.34,60.79-23.97,86.49-8.96,14.49-18.81,28.44-26.51,43.67-16.84,33.4-18.56,68.24-9.92,104.04,7.22,27.81,18.67,54.35,33.94,78.69,1.42,2.37,2.92,4.69,4.36,7.05,3.18,5.2,2.8,9.31-1.07,11.64-3.8,2.29-7.38.89-10.55-4.15-6.45-10.27-12.56-20.74-18.01-31.58-12.72-24.22-21.42-50.36-25.74-77.37-6.05-38.65,2.44-78.17,23.83-110.93,6.67-10.49,13.31-21,19.74-31.64,25.53-42.28,25.79-85.97,6.97-130.6-10.54-23.92-24.56-46.15-41.61-65.98-1.47-1.77-2.98-3.51-4.46-5.29-4.83-5.78-4.57-8.69,1.19-13.36h4.58Z"/>
      <path id="Trazado_592" data-name="Trazado 592" class="cls-1" d="m142.59.03c10.87,9.73,20.91,20.33,30.04,31.71,18.48,22.19,34.28,46.03,43.41,73.73,12.31,34.62,7.51,73.03-12.95,103.55-10.39,16.29-21.35,32.26-29.59,49.84-11.66,24.84-17.23,52.1-16.25,79.52.06,1.98.16,3.99.13,5.99.41,3.78-2.32,7.18-6.1,7.59-3.78.41-7.18-2.32-7.59-6.1-.04-.34-.05-.68-.03-1.02-.48-9.36-.37-18.74.33-28.08,2.19-26.23,9.87-51.71,22.56-74.77.33-.64.56-1.36,1.07-2.65-8.24,1.03-16.05,4.26-22.6,9.36-4.73,3.92-9.15,8.2-13.23,12.8-6.06,6.75-13.03,12.63-20.7,17.48-2.91,1.71-2.31,3.89-2.22,6.28,2.13,35.72-7.87,71.11-28.39,100.43-4.49,7.31-13.09,11.02-21.49,9.28-8.2-1.18-14.75-7.41-16.34-15.54-1.48-5.92-.18-12.18,3.54-17.02,13.15-18.7,20.59-40.82,21.43-63.67.22-4.01-.81-4.94-4.69-4.54-11.34.97-22.77.26-33.9-2.11-11.21-2.07-18.62-12.83-16.56-24.04,2.03-11,12.45-18.38,23.5-16.65,14.58,2.17,29.02,2.91,43.15-2.46,4.59-1.76,8.93-4.11,12.89-7.01,1.56-1.13,1.92-1.93.25-3.45-18.6-17.72-42.43-28.96-67.94-32.03-2.29-.26-4.59-.43-6.86-.79-11.21-1.7-18.93-12.17-17.22-23.39,1.47-9.68,9.58-16.98,19.36-17.43,12.61.03,25.14,2.1,37.09,6.11,24.45,7.55,46.79,20.73,65.22,38.49,1.78,1.68,2.94,2.79,5.72,1.07,17.87-10.85,38.8-15.53,59.59-13.33,4.18.91,8.4-1.38,9.92-5.38,16.92-32.1,14.46-64.17.33-96.25-10.76-24.43-26.55-45.53-44.31-65.25-5.13-5.7-10.53-11.18-15.87-16.7-5.29-5.47-5.14-8.81.7-13.6l4.6.03Zm42.22,210.95c-.92-.17-1.85-.3-2.79-.37-17.6-.92-35.05,3.72-49.87,13.27-8.01,5.33-10.01,5.13-16.99-1.72-20.28-20.57-46.09-34.81-74.31-41-6.43-1.51-12.99-2.36-19.59-2.56-3.7-.16-6.91,2.54-7.38,6.22-.25,3.7,2.48,6.94,6.17,7.31,1.06.2,2.12.34,3.19.42,33.13,3.01,60.54,17.73,83.71,41.03,4.63,4.63,4.39,9.43-.39,14.03-6.42,6.2-14.03,11.04-22.37,14.22-15.83,6.07-32.07,6.05-48.54,3.5-5.51-.85-8.85,1.2-9.43,5.43s1.98,7.27,7.38,8.18c11.96,2.17,24.18,2.45,36.22.83,7.09-1.03,11.34,2.31,11.55,9.46.32,11.06-.67,22.11-2.93,32.94-3.49,17.03-10.44,33.17-20.41,47.41-3.24,4.63-2.65,8.84,1.29,11.12,3.5,2.03,7.21.84,10.17-3.4,9.38-13.33,16.33-28.2,20.53-43.95,4.61-17.08,6.2-34.84,4.69-52.46-.37-4.21,0-8.24,4.08-10.46,11.57-6.28,20.41-15.63,29.28-25.01,10.38-10.98,22.9-18.85,37.94-19.66,10.29-.57,14.83-5.93,18.7-13.69.07-.36.1-.72.09-1.08"/>
      <path id="Trazado_593" data-name="Trazado 593" class="cls-1" d="m197.09,463.89c-.21,4.53-1.89,6.81-4.98,7.72-3.22,1.11-6.76-.44-8.11-3.57-3.81-7.01-7.68-13.98-11.22-21.12-10.69-21.08-18.75-43.39-24-66.43-1.15-5.22.61-8.89,4.78-9.82,4.03-.9,7.36,1.42,8.48,6.35,6.94,28.97,18.06,56.78,33,82.55.96,1.3,1.65,2.77,2.05,4.33"/>
    </g>
  </g>
</svg>