<?xml version="1.0" encoding="UTF-8"?>
<svg id="Capa_2" data-name="Capa 2" xmlns="http://www.w3.org/2000/svg" width="406.951" height="504.147" viewBox="0 0 289.15 428.53">
  <defs>
    <style>
      .cls-1 {
        fill: #049ae7;
      }
    </style>
  </defs>
  <g id="Capa_1-2" data-name="Capa 1">
    <g id="Grupo_1335" data-name="Grupo 1335">
      <path id="Trazado_588-2" data-name="Trazado 588-2" class="cls-1" d="m119.46.02c-4.27,1.75-6.83,6.14-6.25,10.71.18,13.39.04,26.79.07,40.18.02,7.82,2.78,10.54,10.59,10.6q10.03.08,10.03,9.98v64.62c-24.39-14.32-49.54-17.56-75.77-8.56-18.03,6.14-33.45,18.19-43.76,34.19-21.55,32.55-18.63,75.5,7.14,104.83,28.26,32.09,75.55,39.11,111.91,16.6.52,1.39.67,2.9.45,4.37.02,24.7-.1,49.39.05,74.09.23,37.17,30.55,67.13,67.72,66.9,36.71-.22,66.47-29.83,66.9-66.54.23-26.09.05-52.18.05-78.27,0-72.41-.03-144.83-.09-217.25,0-4.05,1-5.52,5.08-5.04,2.65.25,5.31.22,7.95-.07,4.15,0,7.52-3.37,7.52-7.53h0c.17-15.35.1-30.69.05-46.04,0-4.06-2.85-6.1-6.05-7.8L119.46.02Zm40.73,162.36c.74-.34.97-.54,1.21-.54,29.22-.03,58.43-.06,87.64-.09,2.32,0,2.82,1,2.79,3.03-.07,5.99-.18,11.99.04,17.98.11,3.06-.69,4.07-3.92,4.03-13.42-.19-26.83-.11-40.25-.07-6.66.02-9.91,3.08-9.97,9.63-.1,11.16-.1,22.32,0,33.48.05,5.76,3.5,9.53,8.38,9.56s8.28-3.71,8.34-9.48c.07-7.67.13-15.35-.03-23.02-.06-2.77.83-3.55,3.57-3.51,10.2.15,20.41.15,30.61,0,2.64-.03,3.27.88,3.27,3.37-.07,36.55-.07,73.11,0,109.66,0,2.62-.6,3.67-3.48,3.62-10.06-.17-20.13-.17-30.19,0-2.91.05-4.07-.79-3.76-3.75.12-1.95.13-3.9.04-5.86,0-.98.02-1.96,0-2.93-.17-5.44-3.51-9.14-8.28-9.15-4.63-.01-8.4,3.73-8.41,8.37,0,.1,0,.19,0,.29-.22,6.55-.13,13.11-.06,19.67.07,7.14,3.09,10.03,10.36,10.04,13.28.02,26.55.11,39.84-.07,3.19-.04,4.06.92,3.97,4.01-.22,7.25.04,14.51-.1,21.76-.11,27.91-22.81,50.44-50.72,50.34-27.91-.11-50.44-22.81-50.34-50.72h0c-.23-30.13-.03-60.27-.1-90.41,0-2.08.8-4.07,2.23-5.58,17.41-19.83,24.65-46.61,19.61-72.51-2.07-11.08-6.24-21.66-12.3-31.16M16.83,209.68c-.15-38.77,31.15-70.32,69.92-70.48,38.77-.15,70.32,31.15,70.48,69.92.15,38.67-31,70.18-69.66,70.47-38.77.29-70.44-30.9-70.73-69.67,0-.08,0-.16,0-.25M201.25,61.52c15.51,0,31.02.07,46.53-.06,3.01-.03,4.14.68,4.09,3.93-.18,13.25-.16,26.5,0,39.75.03,3.01-.65,4.11-3.92,4.1-31.16-.12-62.33-.12-93.49,0-3.33,0-3.89-1.21-3.86-4.15.13-13.11.19-26.22-.03-39.33-.06-3.67,1.25-4.34,4.57-4.31,15.37.15,30.74.07,46.12.07m.01-44.75c22.49,0,44.97.05,67.46-.06,2.9-.01,3.86.74,3.77,3.71-.21,6.68-.27,13.39.02,20.07.15,3.57-1.08,4.38-4.48,4.37-26.81-.13-53.63-.07-80.45-.07-17.88,0-35.76-.07-53.63.07-3.14.03-4.09-.91-4-4.02.22-6.55.33-13.11-.03-19.65-.22-3.91,1.22-4.51,4.72-4.48,22.21.15,44.41.08,66.62.08m.41,128.27c-15.65,0-31.3-.1-46.95.08-3.4.04-4.35-1.04-4.13-4.26.25-3.76.25-7.53,0-11.29-.19-3.04,1.02-3.87,3.86-3.71,3.76.2,7.54.05,11.31.05,26.97,0,53.93.11,80.9-.11,4.41-.04,5.62,1.28,5.2,5.4-.32,3.19-.32,6.41,0,9.61.36,3.66-1.16,4.35-4.5,4.31-15.23-.17-30.46-.07-45.68-.07"/>
      <path id="Trazado_590-2" data-name="Trazado 590-2" class="cls-1" d="m46.13,219.65c.06,22.52,18.36,40.74,40.88,40.68,21.83-.05,39.75-17.3,40.65-39.11.05-9.81-2.58-19.46-7.61-27.89-7.08-12.85-16.1-24.53-26.73-34.64-2.77-3.53-7.88-4.14-11.41-1.37-.44.34-.84.73-1.2,1.16-13.08,12.94-24.55,27.06-31.3,44.45-2.14,5.31-3.25,10.99-3.27,16.71m16.71.04c.06-1.77.25-3.54.57-5.28,3.67-14.5,12.73-25.8,22.17-36.87,1.01-1.19,1.77-.93,2.67.12,9.04,10.49,17.69,21.28,21.58,34.87,3.11,9.17.09,19.29-7.52,25.27-6.91,6.35-17.04,7.75-25.41,3.51-8.61-3.72-14.16-12.24-14.08-21.62"/>
    </g>
  </g>
</svg>