<svg xmlns="http://www.w3.org/2000/svg" id="Capa_2" width="406.951" height="504.147" data-name="Capa 2" viewBox="0 0 425.53 477.03"><defs><style>.cls-1{fill:#049ae7}</style></defs><g id="Capa_1-2" data-name="Capa 1"><path id="Trazado_609" d="m64.63,382.09c17.16,0,34.32-.04,51.48,0,14.17.04,21.21,7.13,21.35,21.37.21,40.44,32.88,73.21,73.33,73.53,17.34.27,34.34-.47,49.72-9.78,23.47-14.21,36.35-34.88,37.05-62.43.5-19.95.24-39.91.03-59.87-.04-4.27,1.04-5.9,5.48-6.95,37.78-8.97,71.77-25.49,95.44-57.07,31.9-42.55,35.68-89.04,10.69-136.07-21.75-40.2-47.15-78.32-75.9-113.86-27.06-34.9-77.29-41.25-112.19-14.19-5.54,4.3-10.49,9.3-14.72,14.89-27.39,34.93-52.14,71.84-74.06,110.44-34.8,60.99-14.41,134.66,47.22,172.2,18.14,11.49,38.2,19.62,59.22,23.99,2.24.03,4.03,1.86,4,4.1,0,.23-.02.45-.07.67-.14,19.95.03,39.92-.12,59.87.26,10.13-7.75,18.55-17.88,18.81-.11,0-.23,0-.34,0-3.72.21-7.46.08-11.19.05-12.99-.12-20.56-7.45-20.6-20.49.36-20.63-8.14-40.42-23.34-54.38-13.14-12.78-30.75-19.92-49.08-19.89-36.18-.23-72.37-.08-108.54-.06-8.28,0-11.49,3.23-11.56,11.55-.08,10.44-.05,20.89,0,31.33.04,9.14,2.99,12.15,12,12.17,17.53.04,35.06,0,52.6,0m178-88.56c0,7.46-.2,14.93.08,22.38.15,4.02-1,4.46-4.74,3.58-21.24-5.22-41.24-14.56-58.89-27.49-44.61-30.99-58.5-90.73-32.15-138.23,21.81-39.31,46.85-76.74,74.87-111.9,20.86-26.7,59.41-31.43,86.1-10.57,3.82,2.98,7.27,6.41,10.29,10.21,28.78,35.28,54.09,73.26,75.59,113.39,21.29,40.41,17.43,80.38-10.81,116.34-20.67,26.32-49.82,40.15-81.73,48.5-3.59.95-3.6-.81-3.59-3.37.04-14.74.09-29.48-.03-44.21-.35-2.58,1.11-5.06,3.53-6.01,9.06-4.23,14.71-13.47,14.35-23.46.02-4.1.22-8.22-.05-12.31-.3-3.14,1.16-6.18,3.79-7.92,23.68-19.45,33.79-44.66,29.41-74.89-5.05-34.75-32.09-60.62-67.88-66.35-32.27-5.17-66.28,12.79-81.59,43.09-15.4,30.48-9.92,68.32,15.16,91.62,7.81,6.37,11.83,16.29,10.65,26.3-.85,10.23,4.9,19.87,14.31,23.98,2.28.81,3.69,3.09,3.41,5.49-.18,7.27-.06,14.55-.06,21.82m18.2,46.89v-57.61c0-14.52,0-14.42,14.7-13.81,3.28.13,4.03,1.29,4.03,4.33-.09,43.82.41,87.64-.32,131.45-.38,22.84-12.25,39.36-33,49.17-10.08,4.77-20.91,4.83-31.77,4.77-34.49-.16-57.64-22.52-58.78-56.87-.77-23.4-15.75-37.92-39.27-37.95-28.34-.04-56.68-.04-85.02,0-13.01,0-12.8,0-12.98-13.17-.06-4.56,1.46-5.56,5.73-5.54,30.76.16,61.53.04,92.31.15,4.66-.04,9.31.41,13.88,1.33,26.53,5.75,43.57,27.46,44.01,55.75.3,19.21,12.27,33.95,30.68,37.08,5.37.64,10.78.82,16.17.56,24.58,0,39.59-15.05,39.64-39.76.04-19.95.04-39.89,0-59.84m36.49-130.98c0,10.44.05,20.88-.02,31.32-.05,7.28-2.62,9.83-9.73,9.84-11.56.03-23.13.03-34.7,0-7.2,0-9.76-2.44-9.78-9.77-.08-20.88-.21-41.76.03-62.63.19-16.64,11.35-27.41,27.57-27.22,15.71.18,26.46,11.32,26.6,27.69.09,10.26.02,20.52.02,30.78m-72.54-9.04c-23.45-24.55-19.92-65.63,6.56-87.56,26.16-21.45,64.76-17.63,86.22,8.53.79.96,1.55,1.95,2.27,2.95,20.05,27.64,10.48,63.45-4.33,75.12,0-7.45.07-14.71,0-21.96-.07-25.04-20.43-45.29-45.47-45.22-24.99.07-45.21,20.34-45.22,45.32-.09,7.24,0,14.47,0,22.82" class="cls-1" data-name="Trazado 609"/></g></svg>