<?xml version="1.0" encoding="UTF-8"?>
<svg id="Capa_2" data-name="Capa 2" xmlns="http://www.w3.org/2000/svg" viewBox="0 0 311.98 426.26" width="406.951" height="504.147">
  <defs>
    <style>
      .cls-1 {
        fill: #049ae7;
      }
    </style>
  </defs>
  <g id="Capa_1-2" data-name="Capa 1">
    <path id="Trazado_610" data-name="Trazado 610" class="cls-1" d="m15.29,426.26c-2.31-.89-4.55-1.95-6.7-3.17-5.64-3.58-8.91-9.91-8.56-16.58.05-19.28,0-38.56.03-57.85,0-5.18,2.38-8.13,6.28-8.05s6.16,3.03,6.17,8.28c.03,18.73,0,37.45.02,56.18,0,6.71,2,8.71,8.63,8.71,34.54,0,69.09,0,103.63,0,15.73,0,25.98-10.28,26-26.13.05-34.54-.02-69.09.08-103.63,0-3.19-.73-4.24-4.11-4.23-41.89.12-83.79.07-125.68.09-6.43,0-8.5,2.05-8.54,8.42-.04,8.32,0,16.65-.02,24.97.05,1.25-.02,2.49-.21,3.73-.26,3.16-3.03,5.51-6.19,5.26-.07,0-.13-.01-.2-.02-3.06.13-5.64-2.24-5.77-5.3,0-.19,0-.38,0-.57-.09-10.82-.35-21.65.18-32.45.47-9.58,9.06-16.49,19.6-16.51,26.22-.05,52.44-.06,78.65-.02,5.24,0,5.26,0,5.24-5.42-.07-18.72-.07-37.45-.29-56.18-.07-5.94-.33-5.94-6.03-5.94-18.59,0-37.18.27-55.77-.11-12.8.26-24.37-7.59-28.86-19.58-5.21-12.38-2.85-23.9,6.01-34.01,1.18-1.37,2.53-2.57,4.03-3.58,2.8-1.93,6.62-1.22,8.55,1.57,1.58,2.29,1.42,5.36-.39,7.48-.77.96-1.83,1.69-2.67,2.61-5.57,5.37-7.24,13.63-4.2,20.75,2.48,7.39,9.44,12.34,17.23,12.28,18.17.31,36.34.1,54.53.13,1.81,0,2.89-.04,2.06-2.47-2.48-7.2-4.76-14.47-7.05-21.73-.25-1.55-1.7-2.61-3.25-2.39-4.71.12-9.42.1-14.15,0-1.52.05-2.99.57-4.21,1.49-3.98,2.52-7.95,5.06-11.99,7.5-3.78,2.28-7.52,1.64-9.46-1.49-2-3.22-.99-6.63,2.94-9.12,21.91-13.84,43.84-27.67,65.77-41.48,1.37-.86,4.12-1.25,3.48-3.39-.53-1.77-2.97-.86-4.53-.83-6.65-.28-13.31-.12-19.95.47-5.1.7-9.95,2.68-14.08,5.75-6.68,4.95-13.34,9.95-20.09,14.8-2.57,2.3-6.52,2.08-8.82-.49-2.3-2.57-2.08-6.52.49-8.82.31-.28.65-.53,1.01-.74.86-.7,1.78-1.32,2.67-1.98,4.79-3.55,9.51-7.2,14.42-10.58,1.72-.83,2.44-2.9,1.61-4.61-.03-.06-.06-.13-.1-.19-1.33-3.5-2.47-7.06-3.43-10.68-2.09-7.2,2.06-14.74,9.27-16.82,2.37-.69,4.88-.71,7.27-.08,4.83,1.2,9.59,2.73,14.29,4.38,6.52,2.25,11.79,7.15,14.51,13.49.61,2.28,2.73,3.83,5.08,3.73,7.45.11,13.41,6.24,13.3,13.69-.05,3.32-1.32,6.5-3.57,8.95-1.16,1.02-1.38,2.75-.51,4.03,3.01,6.24,5.95,12.51,8.81,18.82.59,1.58,2.21,2.54,3.88,2.31,13.73-.06,27.46-.06,41.2,0,1.89,0,3.66-.26,2.97-2.6-.65-2.2,2.48-5.66-2.39-6.57-19.52-3.61-30.83-15.73-32.91-35.26-.25-2.33-.9-2.93-3.18-3-12.65-.36-18.72-6.68-18.74-19.26,0-4.3-.03-8.6,0-12.9-.14-4.5,1.58-8.86,4.76-12.04,1.29-1.23,1.98-2.97,1.88-4.75.17-7.75-.7-15.54.57-23.26C138.42,12.68,152.6.39,169.39.16c25.8-.21,51.6-.21,77.4,0,18.68.32,33.74,15.41,34.03,34.09.09,3.88.02,7.77.04,11.65.02,5.02-.25,9.64,3.82,14.12,4.68,5.14,4,27.84.16,33.74-2.89,4.92-8.26,7.85-13.96,7.62-4.13-.15-5.03,1.11-5.51,5.14-1.62,17.08-14.83,30.78-31.84,33.02-5.26.86-2.91,4.26-3.28,6.74-.49,3.23,2.1,2.5,3.9,2.57,8.16.33,16.39-.86,24.48.93,16.48,3.54,28.38,17.93,28.75,34.78.26,20.67.1,41.34.07,62.01,0,4.5-2.47,7.31-6.18,7.34s-6.22-2.79-6.26-7.26c-.07-6.34-.02-12.68-.02-19.93-8.91,14.27-12.86,30.44-24.79,41.46,4.01,5.56,9.59,6.2,15.79,5.91,5.54-.44,11.1-.28,16.6.47,16.32,2.39,28.57,16.14,29.07,32.63.39,26.49.44,52.99-.02,79.48-.68,18.22-15.53,32.7-33.76,32.93-2.91.07-5.83.04-8.74.03-6.38,0-12.99-1.18-18.03,4.53-.99,1.13-2.93,1.43-4.43,2.1h-23.31c-8.56-3.45-13.45-9.4-12.8-19.04.13-1.87-.53-2.54-2.54-2.77-20.2-2.26-31.73-12.89-35.64-32.86-.92-4.66-4.34-2.04-6.63-2.55-2.5-.57-2.51,1.35-2.5,3.12.02,5.68.11,11.37-.03,17.05,0,15.89-10.13,30.02-25.18,35.11-2.07.69-4.16,1.3-6.25,1.94H15.29Zm169.14-79.59c0,6.51-.07,13.03,0,19.54-.49,13.78,10.28,25.35,24.05,25.84.53.02,1.06.02,1.58,0,11.5.13,23-.04,34.5.08,2.53.03,3.5-.57,3.93-3.32,2.28-14.64,6.36-28.65,16.02-40.39.87-.71,1-1.98.29-2.85-.09-.11-.18-.2-.29-.29-9.65-11.74-13.7-25.75-16.05-40.38-.37-2.34-.96-3.37-3.52-3.34-11.78.12-23.56-.18-35.33.13-14.97.39-25.01,10.88-25.19,25.85-.08,6.37,0,12.75,0,19.13m23.61-219.19c6.38,0,12.76.02,19.13,0,15.53-.05,26.02-10.53,26.1-26.14.05-11.09-.12-22.18.09-33.28.06-3.16-.94-4.26-4-4.69-11.17-1.36-21.96-4.89-31.77-10.39-3.21-1.87-6.2-5.87-9.24-5.82-3.23.04-6.33,3.88-9.64,5.8-9.85,5.43-20.62,8.98-31.76,10.48-1.97.31-4.16.06-4.12,3.31.15,12.2-.27,24.41.19,36.6.16,13.5,11.24,24.32,24.74,24.16.25,0,.5,0,.75-.02,6.51.03,13.03,0,19.55,0m39,33.9c-10.63,0-20.47.04-30.31-.03-2.13-.01-2.53.99-2.48,2.81.08,3.47.09,6.94,0,10.4.27,3.44-2.31,6.45-5.75,6.71-.06,0-.12,0-.18.01-3.51.08-6.41-2.7-6.49-6.21,0-.15,0-.3,0-.44-.18-3.19-.17-6.38.01-9.57.21-2.88-.69-3.79-3.66-3.76-13.87.15-27.75.07-41.62.07h-11.76c4.25,9.1,8.12,17.64,12.21,26.08,4.24,8.77,6.38,18.4,6.26,28.14-.03,5.42.19,10.83-.08,16.23-.16,3.17.92,3.9,3.96,3.98,13.32.32,26.14-2.84,39.07-5.21,4.25-.78,6.69-4.11,8.63-7.82,9.12-17.43,18.28-34.85,27.47-52.24,1.47-2.79,2.9-5.61,4.72-9.14M208.27,12.57c-12.62,0-25.23-.07-37.84.02-11.34-.28-21.03,8.12-22.36,19.39-.43,5.94-.55,11.9-.37,17.85-.05,2.01,1.14,2.26,2.67,2.21,19.62-.63,38.42-3.51,52.81-18.84,1.91-2.69,5.64-3.33,8.33-1.42.55.39,1.03.87,1.42,1.42,14.48,15.13,33.16,18.36,52.84,18.87,2,.05,2.67-.7,2.62-2.67-.11-4.43,0-8.87-.04-13.31.64-12.35-8.86-22.88-21.22-23.52-.76-.04-1.52-.04-2.29,0-12.2-.05-24.4,0-36.6,0m91.13,334.61h-.04c0-12.9.19-25.8-.06-38.69.04-10.89-7.98-20.12-18.76-21.6-6.21-.56-12.46-.69-18.69-.39-1.86-.05-1.91,1.17-1.87,2.48.54,19.8,3.53,38.7,19.02,53.18,2.61,2.12,3,5.94.89,8.55-.28.35-.6.66-.96.94-2.68,2.42-5.08,5.12-7.18,8.05-8.95,13.74-11.74,29.09-11.8,45.17,0,1.9.79,2.34,2.49,2.3,4.02-.08,8.04-.02,12.06-.02,15.99-.02,24.87-8.93,24.9-25.02.02-11.65.02-23.3,0-34.95m-118.47-79.8c11.51,0,23.03-.27,34.54.06,17.05.49,28.83-6.98,36.04-22.3,1.27-2.69,1.39-4.18-1.4-5.97-6.28-4.06-12.41-8.38-18.38-12.89-2.66-2-3.9-1.96-5.35,1.22-3.36,7.38-8.56,13.2-16.73,15-11.71,2.85-23.64,4.74-35.66,5.63-11.38.26-22.74-.94-33.81-3.55-3.11-.63-3.5.42-3.43,3.03.14,4.99.26,9.99-.03,14.97-.22,3.68.72,4.97,4.69,4.89,13.17-.29,26.35-.1,39.52-.1m-47.45-60.1c4.57,0,9.14-.09,13.7.04,2.36.07,3.29-.47,2.57-3.03-.73-3.1-1.72-6.13-2.95-9.06-9.44-20.17-18.88-40.35-28.32-60.52-.86-1.85-1.56-2.55-3.58-1.2-4.83,3.24-9.75,6.33-14.76,9.29-2.06,1.21-2,2.53-1.35,4.45,2.35,6.94,4.77,13.87,6.83,20.89,3.61,12.32,9.2,24.08,10.44,37.05.19,1.97,1.35,2.08,2.85,2.08,4.85-.03,9.71,0,14.56,0m141.55-20.73c.3-9.07-4.44-17.56-12.33-22.05-1.8-1.11-2.72-.88-3.74,1.09-7.73,14.98-15.55,29.92-23.45,44.82-1.16,2.17-.57,3.04,1.18,4.24,6.62,4.53,13.2,9.14,19.68,13.85,1.97,1.43,2.81,1.3,3.87-.97,3.17-6.75,6.64-13.36,9.89-20.08,3.05-6.55,4.72-13.67,4.9-20.9m-87.72,93.32c-6.92,0-13.85.05-20.77-.03-2.1-.03-3.33.26-3.31,2.85.1,13.15.05,26.31.06,39.47,0,.8-.2,2.1.65,2.2,2.31.37,4.66.43,6.99.17,1.97-.29,1.38-2.44,1.58-3.82,2.57-16.26,15.53-28.9,31.85-31.07,6.37-.76,6.26-.76,6.46-6.97.07-2.22-.54-2.89-2.73-2.85-6.92.11-13.85.04-20.77.04m-71-36.74v20.77c0,.14,0,.28,0,.41-.53,3.75,2.16,2.99,4.28,3.08,2.2.09,3.97.23,3.82-3.09-.29-6.5-.21-13.02-.06-19.52-.02-7.22,5.81-13.09,13.03-13.11.91,0,1.82.09,2.71.28,2.46.41,4.94.71,7.35,1.31,2.47.62,3.63.18,3.39-2.67-.19-2.49-.19-4.98,0-7.47.16-2.41-.49-3.45-3.17-3.41-9.42.15-18.84.15-28.26,0-2.78-.05-3.16,1.16-3.13,3.48.1,6.65.04,13.29.04,19.94m149.44-166.49c0,2.77-.05,5.55.02,8.32.05,1.89-.86,4.34,2.76,4.15,3.12-.16,6.19-.32,6.37-4.25.26-5.39.25-10.82,0-16.21-.19-4-3.39-4-6.43-4.15-3.61-.18-2.63,2.36-2.69,4.23-.09,2.63-.02,5.27-.02,7.9m-115.37.4c0-2.77.13-5.54-.05-8.3-.1-1.53,1.14-4-1.88-4.13-2.73-.13-6.31-.66-6.9,2.89-1.01,6.14-1.01,12.41,0,18.56.57,3.51,4.12,3.07,6.88,2.96,3.07-.13,1.79-2.59,1.91-4.09.2-2.61.05-5.26.05-7.88m84.64,336.74v-.03c2.77,0,5.56.21,8.3-.05,4.2-.41,4.14-3.63,4.19-6.82.05-3.51-2.51-2.24-4.11-2.28-5.81-.13-11.63-.07-17.45-.03-1.13,0-2.43-.43-2.89,1.44-1.16,4.68.95,7.67,5.73,7.75,2.08.03,4.15,0,6.23,0m.42-124.65c2.63,0,5.27.16,7.87-.06,1.48-.13,3.96,1.28,4.13-1.8.15-2.75.61-6.32-2.87-6.93-6.14-1.02-12.41-1.04-18.56-.06-3.59.54-2.99,4.13-2.92,6.85.08,3.08,2.54,1.84,4.05,1.94,2.75.18,5.53.05,8.28.05m-27.58-149.18c-2.21,0-4.44.18-6.63-.04-3.52-.36-3.01,2.06-2.78,4s-1.61,5.1,2.69,4.98c4.14-.11,8.3-.21,12.43.04,3.21.2,4.15-.79,4.28-4.1.15-4-.98-5.56-5.02-4.92-1.65.14-3.31.16-4.97.05m-35.92,207.22c0-2.49-.13-4.98.03-7.46.21-3.33-2.18-2.7-3.89-2.47-1.76.23-4.84-1.69-4.81,2.37.03,4.42.18,8.85-.06,13.26-.16,2.95.87,3.61,3.71,3.74,3.82.17,5.76-.66,5.05-4.88-.14-1.51-.15-3.03-.05-4.55M101.53,100.76c.07-.41.17-.6.11-.67-4.77-6.21-12.36-6.12-18.9-8.33-1.13-.38-1.62.81-1.26,1.95.93,2.9,1.91,5.78,2.83,8.68.14.73.85,1.21,1.59,1.07.12-.02.24-.07.35-.12,4.98-1.4,10.1-2.26,15.27-2.57"/>
  </g>
</svg>