<?xml version="1.0" encoding="UTF-8"?>
<svg id="Capa_2" data-name="Capa 2" xmlns="http://www.w3.org/2000/svg" width="406.951" height="504.147" viewBox="0 0 497.04 450.71">
  <defs>
    <style>
      .cls-1 {
        fill: #049ae7;
      }
    </style>
  </defs>
  <g id="Capa_1-2" data-name="Capa 1">
    <g>
      <path class="cls-1" d="m0,164.99c1.33-.79,1-2.3,1.43-3.45,4.4-11.79,12.76-19.2,25.17-20.79,12.84-1.64,25.86-1.47,38.73-.09,13.72,1.47,24.36,11.97,26.67,25.15,2.25,12.87-4.34,26.05-16.63,32.19-4.75,2.37-6.48,5.65-6.44,10.75.15,17.96,0,35.92.08,53.88.04,10.01-4.11,17.49-13.1,21.95-2.2,1.09-2.5,2.48-2.5,4.55.04,33.33-.17,66.66.11,99.99.21,24.76,19.49,44.9,43.88,46.59,24.22,1.68,45.66-15.35,49.83-39.64.3-1.74.25-3.55.45-5.31.2-1.81-.56-2.34-2.35-2.77-15.37-3.7-20.89-10.86-20.9-26.75,0-8.57-.07-17.15.02-25.72.14-14.54,9.47-24.01,24.01-24.12,17.15-.14,34.3-.06,51.45-.02,5.97.01,8.97,2.45,9.04,7.08.08,4.75-3.17,7.43-9.27,7.45-16.34.04-32.68,0-49.02.02-9.26.01-11.65,2.47-11.66,11.9,0,8.57-.07,17.15.02,25.72.07,6.98,3.15,10.04,10.18,10.05,107.75.02,215.5.02,323.26,0,7.01,0,9.98-3.09,10.02-10.15.05-9.22.05-18.44,0-27.67-.04-6.81-2.94-9.81-9.73-9.83-24.27-.06-48.54.03-72.8-.1-3.22-.02-4.4,1-4.01,4.13.16,1.27.05,2.59.01,3.88-.41,13.25-9.92,23.08-23.15,23.13-41.26.15-82.51.13-123.77.01-13.17-.04-22.74-9.25-23.22-22.42-.39-10.66-.39-21.36,0-32.03.49-13.09,9.65-21.94,22.78-22.24,11.48-.26,22.97-.2,34.46-.03,3.6.05,5.12-.68,5.07-4.76-.15-11.91.05-11.92-11.93-11.92-37.05,0-74.1.01-111.15,0-25.17-.01-40.58-15.37-40.58-40.48-.01-60.99-.02-121.99,0-182.98C124.44,15.65,140.04,0,164.4,0c97.56,0,195.12,0,292.68,0,24.48,0,39.94,15.5,39.95,40.06.01,61.32.02,122.64,0,183.95,0,23.88-15.59,39.52-39.47,39.56-39.31.05-78.63.08-117.94-.08-4.42-.02-6.22.72-6.05,5.7.39,11,.1,11,11.34,11.01,8.74,0,17.47-.07,26.21.02,15.5.15,24.71,9.41,24.83,24.81.05,6.85-.92,6.3,6.14,6.31,23.14.02,46.27-.02,69.41.02,16.5.03,25.51,9.07,25.53,25.48.01,8.74.02,17.47,0,26.21-.03,15.68-9.38,25.1-25.05,25.1-100.47.01-200.94,0-301.41,0-1.29,0-2.61.14-3.88-.03-3.28-.42-4.37.79-4.56,4.21-1.04,18.7-9.16,34.01-24.04,45.15-19.98,14.96-41.95,17.45-64.39,6.41-22.38-11.01-34.27-29.78-34.68-54.73-.54-32.67-.17-65.36-.09-98.04,0-3.45-.5-5.63-4.11-7.53-7.76-4.08-11.42-11.21-11.46-19.97-.08-18.12-.16-36.24.05-54.36.06-5.48-1.58-9.04-6.81-11.48-9.3-4.34-13.94-12.57-16.6-22.1v-10.68ZM310.82,14.56c-48.84,0-97.69,0-146.53,0-16.11,0-25.29,9.14-25.29,25.23-.02,61.3-.02,122.59,0,183.89,0,16.17,9.1,25.33,25.19,25.34,97.69.02,195.37.02,293.06,0,16.17,0,25.22-9.09,25.23-25.24,0-61.3,0-122.59,0-183.89,0-16.43-9.01-25.33-25.61-25.33-48.68,0-97.36,0-146.04,0Zm.32,280.19c-20.06,0-40.11-.03-60.17.01-7.9.02-10.67,2.69-10.74,10.35-.08,9.22-.12,18.44.02,27.66.1,6.67,3.22,9.67,10,9.67,40.27.04,80.55.04,120.82,0,7.25,0,10.24-3.09,10.29-10.42.06-8.73.03-17.47,0-26.2-.02-8.33-2.7-11.05-11.04-11.06-19.73-.04-39.47-.01-59.2-.01ZM46.39,154.56s0,.06,0,.09c-5.17,0-10.34-.03-15.51.02-.96,0-1.92.28-2.86.49-7.09,1.55-12.54,7.12-13.37,13.65-.83,6.55,2.65,12.88,9,16.35.71.39,1.44.74,2.15,1.11,7.75,4.02,11.44,10.62,12.01,19.12.18,2.73.06,5.49.06,8.24,0,12.41,0,12.27,12.42,12.21,3.56-.02,4.33-1.29,4.19-4.51-.22-5.16-.25-10.35.02-15.5.46-8.88,4.41-15.65,12.53-19.82,8.46-4.34,12.16-11.15,10.41-18.68-1.72-7.41-8.88-12.53-17.96-12.73-4.36-.1-8.72-.02-13.09-.02Zm8.01,98.78c.02-13.96.02-13.89-13.32-13.11-2.54.15-3.29.99-3.25,3.44.13,6.76-.08,13.53.11,20.29.14,4.94,3.73,8.39,8.23,8.39,4.5,0,8-3.47,8.2-8.38.15-3.54.03-7.09.03-10.63Zm256.1,26.85c8.63,0,8.69,0,8.61-8.71-.08-8.94,1.31-7.83-7.98-7.89-8.59-.06-8.65-.01-8.57,8.68.08,9.19-1.2,7.76,7.94,7.91Z"/>
      <path class="cls-1" d="m46.42,69.99c8.94.25,17.68,1.61,26.09,4.74,4.93,1.84,7.08,5.59,5.64,9.63-1.48,4.13-5.35,5.81-10.34,4.08-14.43-5-28.78-5-43.21-.01-5.1,1.76-8.78.16-10.31-4.07-1.52-4.17.48-7.71,5.57-9.62,8.56-3.21,17.47-4.55,26.58-4.76Z"/>
      <path class="cls-1" d="m67.27,111.24c-.08,4.68-4.39,8.31-8.94,6.8-8.12-2.7-16-2.83-24.11-.04-3.88,1.33-6.99-.54-8.65-4.23-1.61-3.59-.04-7.66,3.83-9.22,11.07-4.48,22.27-4.42,33.4-.11,2.99,1.16,4.45,3.57,4.46,6.8Z"/>
      <path class="cls-1" d="m310.69,31.11c48.21,0,96.43,0,144.64,0,8.45,0,10.6,2.16,10.6,10.6,0,60.02,0,120.05,0,180.07,0,8.53-2.11,10.69-10.53,10.73-8.9.04-17.8.11-26.69-.05-5.57-.1-8.83-3.27-8.35-7.84.47-4.42,3.25-6.55,7.55-6.61,6.47-.09,12.95-.16,19.41,0,3.08.08,4.14-.78,4.13-4.07-.1-54.68-.12-109.37.03-164.05.01-4.07-1.65-4.29-4.86-4.28-48.54.08-97.07.05-145.61.05-41.74,0-83.48.09-125.22-.12-4.81-.02-5.79,1.36-5.78,5.94.17,53.55.17,107.1,0,160.65-.01,4.63,1.13,5.94,5.85,5.93,72-.15,143.99-.11,215.99-.1,1.94,0,3.9-.06,5.81.23,3.73.57,5.74,3.12,5.91,6.66.18,3.57-1.68,6.26-5.3,7.16-1.85.46-3.85.48-5.78.48-75.23.02-150.46.02-225.69.01-9.22,0-11.24-2-11.24-11.05,0-59.86,0-119.72,0-179.58,0-8.71,2.12-10.77,10.97-10.78,48.05,0,96.1,0,144.15,0Z"/>
      <path class="cls-1" d="m311.06,201.26c-31.96-.01-61.29-8.66-88.16-25.72-6.58-4.17-7.3-7.46-3-13.92,20.6-30.93,41.21-61.86,61.83-92.77,4.07-6.11,6.67-6.62,13.33-3.02,10.48,5.66,21.01,5.63,31.48-.03,6.63-3.59,9.16-3.08,13.3,3.13,20.64,30.91,41.26,61.83,61.86,92.76,4.25,6.39,3.52,9.67-3.15,13.91-26.72,16.99-55.91,25.58-87.5,25.66Zm3.67-14.56c21.53.11,45.77-6.27,68.48-18.78,2.95-1.63,3.72-2.93,1.4-5.7-1.85-2.22-3.46-4.71-4.83-7.26-1.42-2.64-2.79-2.7-5.33-1.28-22.17,12.39-46.02,17.57-71.35,16.24-7.31-.38-10.89-2.91-10.66-7.77.23-4.92,3.8-7.16,11.25-6.78,18.71.95,36.73-1.93,53.92-9.55,12.68-5.62,12.58-5.55,4.82-16.94-1.72-2.53-2.9-2.49-5.36-1.17-7.42,4-15.32,6.86-23.56,8.72-15.72,3.55-31.44,3.55-47.09-.43-4.77-1.21-6.94-4.66-5.95-8.94.91-3.92,4.45-5.95,9.02-5.14,1.27.22,2.53.51,3.8.76,19.01,3.73,37.27,1.55,54.85-6.68,3.19-1.49,4.12-2.63,1.75-5.9-5.11-7.07-9.76-14.47-14.6-21.74q-4.83-7.25-13.13-5.17c-.47.12-.95.18-1.43.28-8.92,1.85-17.75,1.53-26.19-1.98-5.1-2.12-5.26,2.56-6.68,4.72-1.96,2.96,1.64,2.72,3.01,3.31,5.54,2.4,11.38,3.55,17.43,3.75,6.43.21,9.87,3,9.67,7.69-.2,4.63-3.53,6.96-9.77,6.85-9.36-.16-18.25-2.42-26.66-6.38-2.43-1.14-3.58-.84-5.03,1.38-7.52,11.5-15.15,22.94-22.88,34.3-1.53,2.24-1.16,3.32,1.16,4.35,4.42,1.97,8.79,4.07,13.17,6.14,4.41,2.08,6.14,5.92,4.48,9.87-1.53,3.64-5.51,5.21-9.78,3.63-3.02-1.12-5.91-2.61-8.9-3.82-3.41-1.37-6.88-5.48-9.76-4.28-3.02,1.26-4.46,6.03-6.95,8.96-2.75,3.24-1.37,4.55,1.73,6.24,22.31,12.16,46.09,18.46,75.93,18.51Z"/>
      <path class="cls-1" d="m310.66,325.85c-2.58,0-5.17.18-7.73-.04-4.56-.39-7.23-3.39-7.06-7.59.17-4.03,2.76-6.63,7.28-6.79,5.15-.18,10.32-.18,15.47.02,4.29.17,7.09,3.1,7.17,6.99.07,3.78-2.76,6.96-6.91,7.35-2.72.26-5.48.05-8.22.05v.02Z"/>
      <path class="cls-1" d="m353.65,311.39c7.49-.04,10.96,2.17,11.08,7.01.12,5-3.61,7.5-11.23,7.5-1.29,0-2.59.08-3.86-.06-4.54-.48-7.24-3.41-7.09-7.59.15-3.99,2.8-6.53,7.23-6.85,1.28-.09,2.58-.01,3.86-.01Z"/>
      <path class="cls-1" d="m267.97,325.96c-1.61-.07-3.25.05-4.81-.25-3.97-.78-6.34-3.19-6.18-7.37.16-4.13,2.49-6.54,6.64-6.87,2.56-.2,5.15-.19,7.72-.07,4.71.2,7.55,2.84,7.69,6.92.14,4.22-2.87,7.2-7.67,7.55-1.12.08-2.25.01-3.38.01,0,.03,0,.05,0,.08Z"/>
    </g>
  </g>
</svg>