<svg xmlns="http://www.w3.org/2000/svg" id="Capa_2" width="406.951" height="504.147" data-name="Capa 2" viewBox="0 0 395.35 395.37"><defs><style>.cls-1{fill:#049ae7}</style></defs><g id="Capa_1-2" data-name="Capa 1"><g id="Grupo_1342" data-name="Grupo 1342"><path id="Trazado_598" d="m218.52,395.36c-5.76-4.1-6.43-6.28-3.83-13.01,4.35-11.26,8.66-22.55,13.13-33.76,1.06-2.67.81-3.59-2.28-3.45-4.88.21-9.78.09-14.66.05-5.42-.05-8.68-2.94-8.69-7.65s3.26-7.75,8.64-7.76c23.81-.05,47.61-.05,71.42-.02,13.31,0,20.7-7.42,20.76-20.81.02-3.73-.19-7.48.07-11.19.19-2.71-.93-3.83-3.34-4.68-6.3-2.21-12.48-4.76-18.76-7.03-3.75-1.36-6.78-3.21-6.96-7.69-.19-4.68,2.83-6.75,6.63-8.39,6.37-2.75,12.58-5.86,19-8.49,2.38-.68,3.86-3.06,3.43-5.5-.21-5.66.02-11.32-.09-16.98-.27-3.8,1.63-7.42,4.9-9.37,7.21-4.72,14.17-9.82,21.37-14.54,2.32-1.52,2.34-2.6.88-4.77-9.3-13.89-18.42-27.9-27.72-41.79-1.94-2.72-2.94-6.01-2.84-9.35.47-12.09-.33-24.2-2.38-36.12-.18-.99-.53-1.96-1-3.63-3.94,13.56-10,26.4-17.94,38.07-17.17,26.41-42,46.95-71.16,58.85-12.95,5.31-24.8,11.87-33.56,23.09-10.47,13.28-15.56,30.01-14.27,46.87.71,9.81-1.32,19.63-5.88,28.35-8.03,16.08-23.42,27.22-41.2,29.82-3.03.14-5.64,2.17-6.55,5.06-4.92,12.83-10.32,25.48-15.42,38.25-1.03,3.18-3.18,5.88-6.05,7.6h-4.62c-5.81-4-6.54-6.36-3.88-12.92,4.78-11.77,9.51-23.55,14.43-35.26,1.07-2.54,1.1-3.64-1.96-4.47-6.32-1.8-12.2-4.91-17.26-9.11-35.76-28.06-59.9-68.33-67.8-113.09-1.3-7.04-2.06-14.18-3.07-21.27v-23.94c.98-6.99,1.79-14.01,2.98-20.95,4.36-25.16,13.94-49.13,28.13-70.35,2.98-4.51,7.32-5.76,11.19-3.33,3.95,2.47,4.72,7.2,1.68,11.83-13.74,20.32-22.72,43.47-26.29,67.73-8.57,61.96,10.32,114.02,56.68,156.2,5.88,6.01,13.26,10.34,21.38,12.52,21.72,4.4,42.9-9.64,47.3-31.36.68-3.33.92-6.74.74-10.13-1.35-19.56,4.19-38.97,15.66-54.87,9.01-12.67,21.55-22.41,36.06-28.02,36.68-14.3,63.76-38.95,80.43-74.69,18.44-39.88,1.06-87.16-38.82-105.6-6.75-3.12-13.91-5.28-21.26-6.42-44.34-6.83-85.39,1.52-123.07,26.01-2.63,2.21-6.34,2.63-9.4,1.06-5.32-2.93-5.19-9.88.29-13.57C110.1,13.66,140.62,3.09,172.31.64c1-.14,1.99-.36,2.96-.64h91.89c6.25,1.39,12.68,1.83,18.84,3.75,36.96,11.49,61.45,35.66,70.8,73.18,9.26,37.2-.67,69.94-27.82,97.17-2,2-2.35,3.25-.68,5.66,5.42,7.82,10.61,15.8,15.8,23.77,5.65,8.66,3.97,17.16-4.57,23.12-6.11,4.28-12.25,8.51-18.48,12.62-1.82.98-2.88,2.95-2.71,5.01.16,6.43-.03,12.87.08,19.3.35,3.99-2.1,7.69-5.9,8.93-3.31,1.34-6.51,2.93-10.68,4.83,3.95,1.52,7.07,2.7,10.18,3.92,4.85,1.9,6.33,3.88,6.35,8.93.03,7.71.2,15.45-.17,23.15-1.01,17.64-15.47,31.52-33.14,31.79-11.96.16-23.93.15-35.9-.03-2.3-.32-4.46,1.2-4.93,3.47-4.93,13.1-10.09,26.12-15.04,39.21-.96,3.21-3.13,5.92-6.06,7.56h-4.62Zm99.21-232.15c25.14-21.87,36.01-64.26,17.74-100.36-15.43-30.69-47.64-49.27-81.93-47.26,14.12,8.86,25.76,21.17,33.79,35.77,3.56,6.45,5.31,13.68,8.58,20.16,13.34,26.1,19.91,55.14,19.09,84.44-.27,2.7.74,5.38,2.73,7.23" class="cls-1" data-name="Trazado 598"/><path id="Trazado_599" d="m395.35,279.53c-2.31,3.79-6.63,5.86-11.03,5.28-7.57-.25-15.15.09-22.71-.14-4.24.26-7.88-2.97-8.14-7.21-.09-1.52.27-3.03,1.04-4.34,1.24-2.33,3.67-3.78,6.31-3.76,8.98-.03,17.97,0,26.95-.03,3.91,0,5.92,2.54,7.59,5.56v4.63Z" class="cls-1" data-name="Trazado 599"/><path id="Trazado_601" d="m372.32,227.75c3.46,0,6.49,2.31,7.4,5.65,1.05,3.35-.48,6.96-3.62,8.54-7.33,3.05-14.78,5.86-22.32,8.31-3.67,1.03-7.49-1.04-8.62-4.68-1.46-3.35-.16-7.25,3.01-9.06,7.48-3.36,15.16-6.27,22.99-8.7.38-.07.76-.09,1.14-.06" class="cls-1" data-name="Trazado 601"/><path id="Trazado_602" d="m353.19,303.42c.79.16,1.56.36,2.32.61,6.25,2.31,12.52,4.57,18.72,7.01,4.12,1.11,6.57,5.35,5.46,9.47-.05.19-.11.37-.17.55-1.54,4.31-5.82,6.11-10.78,4.32-6.39-2.31-12.76-4.66-19.07-7.19-3.57-1.22-5.65-4.92-4.85-8.6.8-3.89,4.41-6.55,8.37-6.17" class="cls-1" data-name="Trazado 602"/></g></g></svg>