<svg xmlns="http://www.w3.org/2000/svg" id="Capa_2" width="406.951" height="504.147" data-name="Capa 2" viewBox="0 0 384 383.32"><defs><style>.cls-1{fill:#049ae7}</style></defs><g id="Capa_1-2" data-name="Capa 1"><g><path d="m0,74.18c2.41-5.74,6.85-8.53,12.96-9.12,2.47-.24,4.88-1.06,7.35-1.39,2.45-.33,3.67-1.51,4.79-3.83,1.57-3.25,1.42-5.65-.86-8.4-2.06-2.48-3.73-5.3-5.45-8.05-3.22-5.16-2.77-10.27,1.38-14.73,2.72-2.92,5.55-5.76,8.49-8.46,4.48-4.11,9.61-4.54,14.78-1.3,3.28,2.05,6.44,4.3,9.67,6.42,3.47,2.28,9.59-.24,10.45-4.3.82-3.9,1.46-7.84,2.39-11.72C67.35,3.42,71.45.21,77.53.09c3.75-.08,7.5-.07,11.25,0,6.21.11,10.38,3.45,11.76,9.47.86,3.76,1.53,7.57,2.3,11.35.84,4.13,6.89,6.73,10.37,4.44,3.34-2.19,6.59-4.52,9.99-6.62,5.02-3.11,10.09-2.58,14.45,1.36,1.3,1.17,2.58,2.38,3.72,3.7,1.25,1.44,2.64,1.92,4.58,1.85,4.87-.18,9.75-.14,14.62-.05,7,.13,11.77,4.06,13.28,10.88.65,2.92,1.47,5.85,1.65,8.81.42,6.9,3.28,11.48,10.42,13.12,1.86.43,3.12.65,4.75-.5,4.49-3.16,9.05-6.23,13.7-9.15,5.6-3.53,11.35-3.03,16.15,1.45,3.74,3.49,7.38,7.1,10.87,10.84,4.39,4.71,4.84,10.64,1.4,16.16-1.72,2.75-3.32,5.64-5.46,8.04-4.45,4.98-5.58,9.9-1.85,15.92,1.16,1.87,2.06,3.06,4.2,3.45,5.4.99,10.8,2.01,16.15,3.25,6.2,1.43,9.87,5.94,10.04,12.29.14,5.23.14,10.48-.03,15.71-.19,5.81-3.65,10.17-9.29,11.71-3.36.92-6.8,1.86-10.25,2.12-6.69.49-11.42,2.81-13.01,10.02-.46,2.11-.79,3.56.53,5.4,3.11,4.37,6.1,8.83,8.97,13.36,3.56,5.62,2.94,11.61-1.68,16.43-3.36,3.52-6.81,6.96-10.34,10.31-4.84,4.59-10.73,5.16-16.47,1.63-2.76-1.7-5.68-3.28-8.06-5.43-4.98-4.5-9.95-5.62-15.95-1.9-1.86,1.15-3.06,2-3.42,4.28-.8,5.04-1.91,10.03-2.96,15.03-1.49,7.13-6.16,11.03-13.4,11.13-4.75.06-9.5.08-14.25-.01-6.72-.13-11.28-3.85-12.8-10.41-.76-3.28-1.89-6.57-1.96-9.88-.16-6.81-3.43-10.49-9.86-12.27-2.13-.59-3.55-.82-5.41.5-4.37,3.12-8.84,6.09-13.37,8.97-5.51,3.5-11.45,3.02-16.17-1.39-3.74-3.49-7.37-7.11-10.87-10.85-4.5-4.81-4.96-10.47-1.47-16.13,1.7-2.76,3.26-5.7,5.45-8.04,4.78-5.11,5.61-10.36,1.72-16.25-.07-.1-.12-.22-.15-.34-.41-1.65-1.44-2.34-3.15-2.64-5.04-.88-10.04-1.98-15.06-2.97-2.47-.49-4.78-1.28-6.92-2.69-1.63-1.08-2.28-3.95-4.25-3.62-1.92.33-3.58,2.14-5.35,3.31-1.04.69-2.06,1.42-3.12,2.07-5.29,3.28-10.58,2.81-15.08-1.45-2.72-2.57-5.38-5.22-7.96-7.93-4.46-4.69-5-9.9-1.56-15.34,2.13-3.37,4.43-6.64,6.64-9.96.6-.91,1.31-1.7.79-3.03-1.45-3.74-2.58-7.57-7.85-7.39-1.82.06-3.65-.85-5.5-1.03-6.07-.59-10.54-3.37-13.03-9.05,0-5.99,0-11.98,0-17.96Zm86.48-1.82c3.54,5.28,7.03,10.6,10.67,15.81,2,2.87,2.3,5.59.51,8.69-2.44,4.22-4.31,8.7-5.56,13.43-.9,3.42-3.18,5.13-6.59,5.76-6.26,1.16-12.47,2.55-18.73,3.64-2.16.37-3.02,1.21-2.87,3.4.27,3.96-1.46,8.79.66,11.68,2.03,2.76,7.14,1.97,10.86,2.9,3.63.9,7.32,1.56,11,2.23,2.9.53,4.69,2.23,5.49,4.97,1.46,5.05,3.42,9.88,6.03,14.45,1.63,2.85,1.1,5.44-.67,8.03-3.66,5.35-7.19,10.79-10.89,16.12-1.13,1.63-1.18,2.71.36,4.11,2.49,2.26,4.86,4.68,7.13,7.16,1.24,1.35,2.19,1.48,3.75.4,5.32-3.71,10.8-7.19,16.13-10.89,3.01-2.1,5.9-2.27,9.07-.44,4.12,2.38,8.51,4.18,13.1,5.42,3.44.93,5.2,3.06,5.84,6.49,1.16,6.24,2.57,12.44,3.67,18.69.38,2.14,1.17,2.98,3.38,2.86,3.98-.21,8.89,1.21,11.7-.65,2.88-1.9,2.06-7.29,2.98-11.12.84-3.51,1.51-7.06,2.19-10.61.55-2.86,2.19-4.66,4.98-5.47,5.05-1.47,9.88-3.46,14.49-5.99,2.66-1.46,5.22-1.24,7.74.47,5.48,3.7,11.05,7.27,16.48,11.04,1.63,1.13,2.66,1.26,4.05-.3,2.73-3.05,7.33-5.6,8.02-8.99.66-3.23-3.75-6.6-5.87-9.95-1.8-2.84-3.68-5.64-5.63-8.38-1.95-2.74-2.11-5.5-.47-8.4,2.48-4.35,4.36-8.96,5.72-13.76.88-3.09,2.83-4.79,6-5.38,6.13-1.13,12.22-2.49,18.36-3.59,2.55-.46,4.16-1.31,3.59-4.26-.14-.72-.02-1.49-.02-2.24q0-9.51-9.54-11.32c-4.04-.77-8.08-1.6-12.12-2.37-3.22-.61-5.41-2.26-6.32-5.57-1.32-4.82-3.25-9.41-5.73-13.76-1.65-2.9-1.37-5.64.53-8.4,3.68-5.34,7.17-10.81,10.89-16.12,1.15-1.64,1.16-2.69-.36-4.06-2.4-2.18-4.72-4.47-6.86-6.9-1.46-1.66-2.57-1.72-4.37-.45-5.2,3.66-10.61,7.04-15.82,10.69-3.01,2.11-5.86,2.34-9.05.47-4-2.34-8.26-4.11-12.75-5.3-3.48-.92-5.52-2.94-6.16-6.64-1.08-6.26-2.53-12.45-3.68-18.69-.41-2.2-1.3-3.22-3.67-2.96-1.98.21-3.99.04-5.99.04q-6.17,0-7.35,6.19c-1.02,5.26-2.1,10.5-3.11,15.76-.59,3.1-2.25,5.18-5.37,6.04-4.95,1.36-9.67,3.32-14.13,5.86-2.85,1.62-5.43,1.26-8.05-.52-5.47-3.71-11.02-7.31-16.47-11.06-1.48-1.02-2.47-1.11-3.76.3-2.37,2.57-4.93,4.95-7.4,7.43-.52.52-.95,1.13-1.43,1.7.51.83.93,1.59,1.42,2.31Zm27.21-16.46c1.57,1.33,3.45,3.51,5.34,3.1,3.48-.74,6.75-2.49,10.05-3.95,1.02-.45.88-1.74,1.08-2.67,1.12-5.24,2-10.53,3.28-15.73.77-3.11-1.58-4.19-3.11-5.8-1.65-1.74-2.69.33-3.75.99-3.71,2.3-7.32,4.76-10.9,7.27-2.77,1.93-5.52,2.04-8.42.39-3.27-1.86-6.71-3.29-10.34-4.31-3.23-.9-4.96-3-5.52-6.33-.75-4.42-1.88-8.77-2.61-13.19-.34-2.08-1.02-2.9-3.3-2.91-7.16-.04-7.18-.15-8.65,6.85-.66,3.17-1.3,6.35-1.87,9.53-.56,3.14-2.27,5.2-5.37,6.04-3.76,1.02-7.29,2.56-10.68,4.45-2.78,1.56-5.45,1.36-8.08-.46-3.8-2.62-7.73-5.05-11.47-7.76-1.72-1.25-2.75-1.28-4.34.33-5.16,5.18-5.24,5.1-1.16,11.19,1.81,2.69,3.61,5.39,5.44,8.06,1.72,2.51,1.84,5.1.37,7.74-1.95,3.5-3.5,7.15-4.59,11.01-.82,2.92-2.87,4.55-5.84,5.12-4.78.92-9.53,1.99-14.32,2.81-1.74.3-2.13,1.05-2.2,2.69-.33,7.54-.38,7.55,7.14,9.13,2.93.62,5.85,1.33,8.81,1.76,3.51.51,5.64,2.34,6.56,5.74.98,3.62,2.49,7.04,4.34,10.3,1.57,2.77,1.43,5.43-.39,8.07-2.62,3.8-5.07,7.71-7.77,11.46-1.21,1.68-1.38,2.71.27,4.34,5.2,5.14,5.11,5.23,11.22,1.2.42-.28.8-.61,1.24-.84,4.81-2.46,8.35-5.49,7.16-11.79-.45-2.38.65-5.03,2.41-6.89,1.79-1.89,1.25-2.96-.27-4.8-10.34-12.51-12.54-26.53-5.73-41.21,6.7-14.44,18.79-21.42,31.93-22.01,14.41.19,24.99,3.39,34.05,11.05Zm-56.39,22.03c-2.2,10.04,2.48,21.14,11.22,26.57,4.27,2.65,11.21-.09,13.64-4.33,3.09-5.4,2.12-9.57-1.67-13.94-2.1-2.43-3.68-5.32-5.46-8.03-4.35-6.65-3.9-12.05,1.46-17.92.41-.45.81-.9,1.61-1.8-9.88.76-18.53,9.1-20.8,19.45Z" class="cls-1"/><path d="m384,221.64c-2.87-6.7-7.64-12.13-11.92-17.9-9.4-12.65-17.41-26.13-24.39-40.25-1.63-3.31-1.22-5.61,1.41-7.87,1.61-1.38,3.17-2.83,4.71-4.28,7.08-6.67,9.23-14.3,5.2-23.06-5.88-12.75-9.36-26.2-13.34-39.56-7.38-24.81-20.6-45.91-42.36-60.76-14.99-10.23-32.13-15.19-49.7-18.9-19.94-4.21-40.05-7.22-60.37-8.7-7.61-.55-15.23-.49-22.83.36-4.21.47-6.67,3.02-6.46,6.73.22,3.84,3.14,6.39,7.53,5.97,8.75-.82,17.46-.68,26.19.12,23.79,2.18,47.3,5.9,70.34,12.31,34.88,9.72,55.55,33.47,65.57,67.15,3.94,13.25,7.31,26.62,13.28,39.19,2.37,4.99,1.81,6.2-2.26,10.16-2.23,2.17-4.89,3.88-6.72,6.48-4.36,6.18-5.48,12.47-1.97,19.62,8.56,17.41,18.69,33.79,30.57,49.14,6.21,8.03,6.72,7.07-2.67,12.89-2.22,1.38-4.66,2.41-6.88,3.79-9.01,5.55-11.83,13.38-8.5,23.41.35,1.06.84,2.08,1.24,3.12.98,2.51,3.95,4.84,3.13,7.23-.71,2.09-3.79,3.38-5.85,5-4.38,3.46-4.85,6.19-1.85,10.88.96,1.51,2.54,2.74-.31,4.36-10.17,5.79-13.47,13.43-10.68,24.82,1.41,5.75,1.49,11.29-.51,16.89-2.4,6.74-7.68,9.58-14.75,7.91-20.43-4.83-40.29-11.48-60.07-18.43-9.65-3.39-19.33-6.68-28.94-10.16-5.41-1.96-10.53-4.55-15.14-8.06-4.65-3.54-7.92-7.8-8.31-13.97-.25-3.94-3.1-6.1-6.82-5.83-3.4.25-5.79,2.82-5.78,6.6.02,7.35,2.93,13.54,8.03,18.76,7.62,7.79,17.23,12.22,27.25,15.88,5.97,2.18,12.01,4.2,18.04,6.23,1.67.56,2.3,1.05.86,2.71-9.39,10.78-16.18,23.02-20.24,36.72-.69,2.33-2.14,2.26-3.93,2.25-17.75-.06-35.49-.06-53.24-.13-27.49-.1-54.98-.24-82.48-.36-1.25,0-2.5-.05-3.75-.06-1.37-.01-2.29-.2-1.23-1.89,11.51-18.53,15.98-39.3,19.28-60.44,3.52-22.54,1.52-44.49-7.09-65.71-4.77-11.75-11.63-22.29-19.34-32.32-9.38-12.2-18.28-24.68-22.34-39.85-.39-1.44-.69-2.92-1.19-4.32-1.23-3.4-4.52-5.14-7.73-4.19-3.32.98-5.24,4-4.46,7.56,2.2,10.07,6.12,19.47,11.42,28.29,4.31,7.18,9.21,13.95,14.38,20.52,15.01,19.03,24.24,40.29,25.1,64.75.59,16.86-2.55,33.24-6.73,49.46-3.06,11.9-7.53,23.19-14.66,33.35-1.77,2.52-3.09,5.42-4.22,8.31-1.98,5.04.75,9.09,6.18,9.21,7.24.16,14.5.08,21.74.14,1.36,0,2.76-.25,4.06.41h136.5c2.62-1.72,3.92-4.18,4.73-7.21,1.8-6.74,4.36-13.24,7.51-19.48,3.72-7.39,8.07-14.32,14.52-19.74,2-1.68,3.8-2.07,6.39-1.13,16.41,5.97,33.15,10.88,50.15,14.87,10.45,2.46,21.13-2.05,26.18-11.39,4.2-7.77,5.74-16.16,4-24.94-2.19-11.04-2.23-11.03,7.12-16.98,5.27-3.35,7.1-7.29,4.95-13-1.24-3.31-.25-4.73,2.21-6.62,6.34-4.87,6.93-8.26,3.28-15.45-.56-1.11-1.21-2.18-1.81-3.27-5.32-9.63-4.85-11.34,4.94-16.35,6.78-3.47,12.92-7.52,15.83-15.02v-5.99Z" class="cls-1"/><path d="m248.65,34.11c-4.27-.11-7.01,2.18-7.5,5.44-.48,3.2,1.33,6.04,4.79,7.01,5.04,1.4,10.16,2.53,15.2,3.9,28.02,7.66,42.3,27.77,49.31,54.39,2.14,8.12,2.03,7.86,10.26,6.41,3.82-.68,4.08-2.13,3.28-5.36-2.88-11.66-6.92-22.78-13.08-33.2-11.06-18.72-27.74-29.52-48.28-35.13-4.93-1.34-9.91-2.46-13.98-3.46Z" class="cls-1"/><path d="m326.41,140.6c3.43,0,6.44-3.05,6.39-6.47-.05-3.5-3-6.27-6.57-6.18-3.5.09-6.07,2.68-6.11,6.18-.04,3.56,2.79,6.48,6.29,6.48Z" class="cls-1"/><path d="m108.79,127.58c.1-24.61,20.36-44.56,45.14-44.44,24.51.12,44.47,20.19,44.47,44.72,0,24.61-20.26,44.72-44.95,44.62-24.78-.1-44.76-20.19-44.66-44.89Zm76.74.3c.03-17.6-14.21-31.92-31.79-31.98-17.73-.05-32.24,14.4-32.16,32.05.07,17.57,14.39,31.73,32.05,31.72,17.7,0,31.87-14.14,31.9-31.8Z" class="cls-1"/><path d="m147.19,127.69c-.08,3.46,2.85,6.41,6.37,6.43,3.49.01,6.16-2.53,6.31-6,.15-3.6-2.52-6.55-6.06-6.68-3.43-.13-6.54,2.82-6.62,6.25Z" class="cls-1"/></g></g></svg>