<?xml version="1.0" encoding="UTF-8"?>
<svg id="Capa_2" data-name="Capa 2" xmlns="http://www.w3.org/2000/svg" width="406.951" height="504.147" viewBox="0 0 406.64 445.58">
  <defs>
    <style>
      .cls-1 {
        fill: #049ae7;
      }
    </style>
  </defs>
  <g id="Capa_1-2" data-name="Capa 1">
    <g>
      <path class="cls-1" d="m269.02,44.86c0-9.34-.04-17.84,0-26.35.07-11.82,6.51-18.34,18.4-18.43,12.53-.1,25.06-.1,37.58,0,11.91.1,18.31,6.55,18.35,18.43.06,19.49.11,38.98-.07,58.46-.03,3.48,1.14,5.14,4.19,6.61,17.11,8.25,34.1,16.74,51.16,25.1,3.59,1.76,6.79,3.89,7.68,8.05.83,3.84.08,7.43-2.95,10.19-3.14,2.87-6.85,3.42-10.81,2.1-1.46-.48-2.82-1.26-4.2-1.94-19.12-9.42-38.17-18.98-57.39-28.18-6.09-2.92-8.75-7.11-8.69-13.8.18-19.95,0-39.91.13-59.86.02-3.35-.74-4.63-4.36-4.5-8.03.28-16.09.24-24.12.01-3.32-.09-4.18,1.04-4.14,4.22.16,11.44.1,22.89.05,34.34-.05,11.22-7.13,15.66-17.17,10.78-22.22-10.81-44.45-21.59-66.61-32.52-2.89-1.43-5.15-1.52-8.12-.06-59.59,29.32-119.23,58.52-178.87,87.72-1.94.95-3.9,1.92-5.95,2.54-4.59,1.39-9.67-.82-11.86-4.94-2.28-4.3-1.43-9.53,2.27-12.64,1.51-1.27,3.31-2.27,5.1-3.15,60.45-29.65,120.94-59.23,181.37-88.95,8.13-4,15.81-4.05,23.91,0,16.57,8.29,33.29,16.29,49.96,24.4,1.49.73,3.01,1.39,5.15,2.37Z"/>
      <path class="cls-1" d="m203.93,445.56c-17.94,0-35.88.02-53.83,0-14.88-.02-21.81-6.98-21.8-21.94.01-13.92-.46-27.87.33-41.75,1.54-26.91,20.71-46.74,47.55-48.63,18.8-1.32,37.77-1.27,56.57-.03,26.48,1.75,45.6,21.78,46.93,48.59.74,14.97.47,30,.15,45-.26,11.88-7.87,18.68-20.23,18.74-18.56.09-37.12.02-55.68.02Zm1.72-19.89c8.97,0,17.95-.27,26.91.11,4.64.2,6.03-1.01,5.87-5.81-.39-11.59-.2-23.2-.07-34.8.06-5.12,3.44-8.49,7.95-8.47,4.51.02,7.65,3.4,7.91,8.54.07,1.39.03,2.78.03,4.18,0,10.98.05,21.97-.03,32.95-.02,2.25.44,3.43,3.03,3.35,2.15-.07,3.07-.72,3.02-2.95-.28-14.38.69-28.78-.55-43.13-1.19-13.69-13.6-25.93-27.3-26.58-18.08-.85-36.2-.84-54.27-.06-17.07.74-29.36,13.64-29.81,30.68-.34,12.83.04,25.68-.2,38.51-.07,3.66,1.83,3.54,4.3,3.48,2.45-.06,4.88.54,4.8-3.51-.22-11.13-.09-22.27-.05-33.41,0-2,.04-4.05.46-5.99.82-3.81,3.5-5.79,7.27-5.97,3.58-.16,6.23,1.59,7.59,4.96.76,1.89.8,3.91.79,5.94-.03,11.45.07,22.89-.07,34.34-.04,2.84.79,3.73,3.66,3.68,9.59-.16,19.18-.06,28.77-.06Z"/>
      <path class="cls-1" d="m128.7,210.25c8.74.34,22.98-.86,37.18.54,10.54,1.04,20.06,4.85,28.85,10.58,4.96,3.24,6.23,9.01,3.33,13.77-2.72,4.47-8.38,6.1-13.36,2.9-10.79-6.93-22.61-8.43-35.05-8.27-19.49.24-38.98-.05-58.47.1-23.74.18-42.79,15.05-48.09,37.3-.9,3.77-1.33,7.61-1.34,11.49-.02,18.41.07,36.81-.08,55.22-.03,3.78,1.09,5.41,5.02,5.13,3.54-.25,7.13-.26,10.66,0,3.41.26,4.1-1.2,4.08-4.29-.12-17.48-.07-34.96-.04-52.43,0-1.84.09-3.72.41-5.53.75-4.25,3.44-6.52,7.72-6.51,4.29,0,6.91,2.37,7.68,6.58.3,1.66.38,3.37.38,5.06.03,17.48.11,34.96-.06,52.43-.03,3.58.87,4.78,4.61,4.71,12.21-.23,24.44-.2,36.66-.04,7.78.1,12.46,6.22,10.12,12.89-1.58,4.5-5.09,6.64-9.61,6.66-25.68.08-51.35.25-77.02-.12-11.14-.16-19.93-9.3-20.06-20.44-.24-21.65-.66-43.33.16-64.95,1.28-33.5,30.1-61.35,64.19-62.71,12.2-.49,24.43-.08,42.13-.08Z"/>
      <path class="cls-1" d="m335.12,403.38c-11.76,0-23.51-.03-35.27.01-4.35.02-7.94-1.33-10.06-5.33-3.57-6.72,1.24-14.12,9.52-14.31,9.28-.21,18.56-.05,27.84-.06,3.87,0,7.75-.21,11.6.06,3.3.23,4.16-.98,4.13-4.17-.15-15.31-.07-30.63-.06-45.94,0-7.92,2.64-11.78,7.97-11.81,5.36-.03,8.13,3.95,8.14,11.72,0,15.16.09,30.32-.06,45.48-.03,3.38.49,4.92,4.43,4.76,7.61-.3,7.72-.05,7.6-7.67-.28-17.47.79-34.95-.65-52.4-1.49-18.08-17.58-34.43-35.77-35.7-23.16-1.61-46.38-.34-69.57-.64-2.31-.03-4.66.17-6.8-.98-3.75-2.01-5.81-5.12-5.45-9.4.36-4.2,2.53-7.17,6.7-8.56,1.65-.55,3.3-.75,5.01-.75,22.27,0,44.56-.34,66.82.08,32.38.61,58.47,26.58,59.27,58.94.46,18.71.26,37.43.1,56.15-.11,11.82-8.37,20.17-20.16,20.42-11.75.25-23.51.06-35.27.06v.03Z"/>
      <path class="cls-1" d="m175.45,148.69c-.18,28.2-23.21,51.03-51.23,50.78-28.17-.25-51.02-23.23-50.94-51.21.08-28.02,23.13-51.01,51.15-51.02,28.32,0,51.2,23.07,51.02,51.45Zm-51.25,30.91c17.21.1,31.39-13.86,31.54-31.06.15-17.1-13.96-31.31-31.18-31.41-17.22-.1-31.29,13.77-31.52,31.06-.22,17.02,13.95,31.31,31.16,31.41Z"/>
      <path class="cls-1" d="m252.14,211.04c-.05-25.68,21.08-47.04,46.7-47.2,25.72-.16,47.25,21.35,47.24,47.18-.02,25.6-21.37,46.93-46.98,46.95-25.66.01-46.91-21.21-46.96-46.92Zm47.1,27.06c14.91-.08,27.19-12.39,27.15-27.22-.04-14.8-12.39-27.12-27.24-27.17-15.04-.05-27.5,12.48-27.32,27.49.17,14.91,12.46,26.97,27.41,26.9Z"/>
      <path class="cls-1" d="m204.88,325.29c-21.72-.09-39.77-18.3-39.38-39.74.4-21.91,18.31-39.51,39.92-39.23,21.52.28,39.25,18.16,39.19,39.54-.06,21.66-18.06,39.53-39.73,39.43Zm-19.53-39.71c-.09,10.96,8.57,19.91,19.42,20.07,10.82.16,19.81-8.66,19.94-19.56.13-10.94-8.52-19.88-19.43-20.09-10.77-.21-19.83,8.7-19.93,19.58Z"/>
    </g>
  </g>
</svg>