<?xml version="1.0" encoding="UTF-8"?>
<svg id="Capa_2" data-name="Capa 2" xmlns="http://www.w3.org/2000/svg" width="406.951" height="504.147" viewBox="0 0 374.27 383.25">
  <defs>
    <style>
      .cls-1 {
        fill: #049ae7;
      }
    </style>
  </defs>
  <g id="Capa_1-2" data-name="Capa 1">
    <g>
      <path class="cls-1" d="m130.25,383.25c-2.52-.6-5.09-1.05-7.56-1.82-21.9-6.84-35.1-21.41-38.93-44.17-.37-2.19-.98-3.08-3.45-3.18-12.73-.53-21.9-6.74-27.42-18.18-.88-1.82-2.08-2.5-3.83-3.04-26.36-8.11-39.66-36.52-28.99-62.1.89-2.14.61-3.22-1.11-4.66-8.35-6.95-14.18-15.65-17.5-26.01-1.23-3.82.03-6.89,3.2-7.98,3.12-1.08,5.98.59,7.39,4.44,6.4,17.54,18.6,28.17,37.12,31.37,4.09.71,6.07,3.07,5.62,6.54-.44,3.38-3,5.05-7.25,4.55-4.85-.57-9.55-1.87-13.98-3.9-2.05-.94-2.91-.74-3.81,1.48-6.54,16.22,1.91,36.86,17.91,43.82,2.38,1.03,2.76.12,3.05-1.8.74-5.04,2.76-9.55,5.84-13.59,2.76-3.62,5.74-4.44,8.6-2.43,2.94,2.05,3.08,5.39.39,9.16-5.39,7.57-5.5,16.43-.29,23.29,5.24,6.9,14.41,9.69,22.42,6.79,3.73-1.35,6.73-3.69,9.18-6.82,2.56-3.27,5.7-3.97,8.38-2.03,2.86,2.07,3.07,5.41.49,8.87-2.49,3.34-5.51,6.15-9.17,8.13-1.7.91-2.17,1.95-2,3.83,1.94,21.03,19.63,37.69,40.66,38.2,21.48.53,40.17-15.07,42.73-36.13.72-5.9.17-11.96.23-17.95.04-4.37,2.11-6.97,5.54-7.01,3.44-.04,5.54,2.58,5.69,6.9.26,7.09-.76,14.23.72,21.27,5.48,26.14,35.11,40.63,59.05,28.88.64-.32,1.23-.75,2.12-1.3-4.66-4.13-9.09-8.1-12.7-12.86-17.15-22.64-20.84-47.42-11.51-74.13.87-2.48.66-3.57-1.61-4.96-6.96-4.27-12.16-10.25-15.8-17.56-1.82-3.67-1.04-6.9,1.93-8.43,2.97-1.53,6.1-.36,7.97,3.25,2.76,5.31,6.54,9.66,11.43,13.11,1.81,1.28,2.71,1.18,4.05-.76,13.24-19.26,31.47-30.53,54.72-33.32,15.53-1.86,30.3.99,44.08,8.44,2.33,1.26,3.88,1.18,5.91-.49,14.34-11.83,20.5-26.97,16.86-45.17-3.69-18.49-15.37-30.25-33.46-35.62-2.44-.72-3.7-.19-4.81,2.28-2.49,5.55-6.77,9.48-12.39,11.89-3.8,1.63-6.9.77-8.33-2.27-1.46-3.1-.19-5.92,3.53-7.81,9.37-4.77,11.45-14.21,4.93-22.4-2.67-3.36-2.72-6.29-.15-8.58,2.6-2.32,5.98-1.79,8.81,1.43,2.77,3.14,4.76,6.75,5.56,10.86.39,2,1.15,2.94,3.27,3.31,4.42.78,8.74,2.14,12.69,4.31,2.4,1.32,2.82.34,3.26-1.8,3.01-14.61-5.65-30.99-19.94-37.5-6.57-2.99-6.76-3.36-5.38-10.48,1.84-9.46-3.41-18.82-12.45-22.2-9-3.37-19.03.24-23.92,8.62-.44.75-.74,1.58-1.17,2.34-1.77,3.12-4.65,4.19-7.52,2.8-2.88-1.39-3.97-4.36-2.58-7.59,2.97-6.91,7.84-12.15,14.63-15.36,2.21-1.05,2.9-2.13,2.48-4.51-2.36-13.37-14.59-25.42-27.89-27.43-1.96-.3-2.92-.26-2.89,2.17.06,4.79-1.02,9.42-3,13.78-.74,1.63-.51,2.66.6,3.98,3.13,3.72,4.89,8.09,5.43,12.91.43,3.8-1.44,6.49-4.61,6.97-3.4.51-5.84-1.56-6.54-5.57-1.78-10.21-10.44-14.93-20.11-10.94-3.86,1.59-6.87.76-8.3-2.3-1.45-3.11-.2-6,3.54-7.84,5.34-2.63,10.96-3.4,16.72-1.85,2.35.63,3.24.05,3.94-2.25,2.8-9.22.4-17.19-5.49-24.4-.63-.77-1.33-1.48-1.99-2.24-2.62-3-2.7-6.37-.2-8.59,2.43-2.15,5.54-1.85,8.29.88,3.21,3.19,5.87,6.8,7.81,10.89.82,1.72,1.71,2.57,3.82,2.76,21.46,1.94,37.63,16.42,41.89,37.54.45,2.2,1.26,2.65,3.3,2.93,17.13,2.33,28.08,15.2,27.61,32.45-.06,2.16.57,3.26,2.41,4.36,18.77,11.26,27.05,31.72,21.29,52.72-.56,2.04-.16,3.11,1.26,4.49,25.09,24.48,24.35,61.28-1.74,85.01-1.74,1.58-1.86,2.27-.06,3.92,17.66,16.19,26.28,36.3,25.42,60.29-.49,13.48-4.55,25.94-11.8,37.33-2.22,3.49-5.29,4.44-8.18,2.65-2.85-1.77-3.5-5.07-1.34-8.52,7-11.19,10.38-23.34,10.19-36.55-.47-32.28-25.48-59.34-58.35-63.06-31.6-3.57-62.38,18.27-69.63,49.42-6.09,26.17,3.98,52.85,25.73,68.22,21.77,15.37,50.24,15.89,72.83,1.32,1.05-.67,2.09-1.39,3.23-1.87,2.68-1.11,4.95-.26,6.56,2,1.53,2.16,1.45,4.52-.24,6.57-.85,1.03-2.03,1.85-3.18,2.57-24.21,15.09-49.32,16.61-75.2,4.73-2.18-1-3.67-1.17-5.7.25-6.56,4.56-14.24,6.27-21.84,8.11h-11.98c-.58-.2-1.15-.49-1.75-.59-17.08-2.67-29.94-11.53-38.76-26.34-.28-.48-.66-.89-1.16-1.54-7.14,12.72-17.3,21.46-30.95,25.88-3.41,1.1-6.97,1.74-10.47,2.59h-11.98Z"/>
      <path class="cls-1" d="m178.16,205.82c-6.15,3.1-12.22,4.61-18.71,3.89-10.07-1.11-17.83-5.94-23.27-14.46-2.23-3.49-1.74-6.66,1.13-8.51,2.89-1.86,5.83-1,8.24,2.42,7.51,10.66,21.03,12.64,30.18,4.47,1.68-1.5,2.48-3.11,2.48-5.48-.07-55.26-.06-110.53-.04-165.79,0-1.68-.19-3.02-1.63-4.27-16.52-14.33-45.28-5.01-50.19,16.3-1.01,4.38-.55,8.63.65,12.91.62,2.19,1.58,2.63,3.72,2.05,5.77-1.56,11.38-.79,16.74,1.74,3.71,1.75,5.05,4.72,3.7,7.82-1.34,3.08-4.45,4.01-8.23,2.46-9.97-4.09-18.28.49-20.24,11.14-.69,3.75-3.1,5.77-6.39,5.35-3.21-.41-5.1-3.02-4.74-6.85.45-4.84,2.23-9.22,5.34-12.94,1.22-1.46,1.4-2.58.62-4.3-1.98-4.36-2.97-8.99-2.95-13.79,0-1.76-.33-2.29-2.32-2.06-13.39,1.58-26.8,14.77-28.51,28.1-.25,1.93.24,2.86,2.04,3.69,6.45,2.97,11.24,7.75,14.43,14.1,2.08,4.14,1.43,7.39-1.73,9.04-3.22,1.68-5.95.38-8.22-3.93-3.97-7.52-11.75-11.85-19.67-10.96-8.23.93-14.9,6.67-17.02,14.71-.84,3.19-.78,6.41-.05,9.62,1.24,5.43.43,6.99-4.78,9.22-14.4,6.16-22.9,20.99-20.98,36.57.53,4.26.57,4.27,4.3,2.59,3.64-1.65,7.4-3.06,11.33-3.74,2.32-.4,3.4-1.24,3.85-3.63.8-4.24,2.95-7.92,5.91-11.07,2.62-2.79,5.82-3.17,8.29-1.07,2.56,2.17,2.67,5.23.29,8.29-6.87,8.88-4.99,17.79,4.82,22.88,3.47,1.8,4.71,4.6,3.38,7.6-1.33,2.97-4.39,4.03-7.93,2.59-5.92-2.4-10.39-6.49-12.98-12.29-1.08-2.43-2.32-2.76-4.55-2.12-16.3,4.71-27.25,14.99-32.57,31.16-.35,1.06-.55,2.18-.91,3.23-1.15,3.28-4.03,4.96-6.95,4.09-3.01-.89-4.66-3.73-3.86-7.1,1.47-6.23,3.92-12.07,7.37-17.48,2.63-4.12,5.66-7.92,9.36-11.13,1.51-1.31,1.82-2.46,1.25-4.5-5.82-21.1,2.6-41.71,21.59-52.91,1.65-.98,2.15-1.91,2.12-3.77-.37-17.97,10.18-30.42,27.93-32.89,2.02-.28,2.57-.95,2.95-2.87,4.09-20.8,20.48-35.63,41.5-37.56,2.09-.19,3.2-.8,4.2-2.75C130.54.1,159.41-7.17,181.37,7.81c1.87,1.27,2.97,1.31,4.82-.02C193.71,2.4,202.21-.12,211.47.03c4.1.07,6.52,2.16,6.55,5.57.03,3.45-2.35,5.65-6.45,5.62-7.23-.06-13.74,1.98-19.63,6.15-1.73,1.23-2.62,2.59-2.62,4.92.08,55.39.07,110.78.02,166.16,0,2.07.66,3.51,2.13,4.88,8.4,7.88,22.14,6.83,29.18-2.29.53-.69.99-1.44,1.5-2.15,2.28-3.18,5.2-3.97,8.01-2.19,2.77,1.76,3.31,4.88,1.42,8.19-7.33,12.82-24.11,18.44-38.11,12.76-1.24-.5-2.47-1.03-4.08-1.7v4.38c0,25.7,0,51.4,0,77.09,0,1.12.1,2.27-.08,3.36-.5,3.1-2.3,4.99-5.53,5-3.23,0-5.05-1.86-5.55-4.96-.18-1.1-.07-2.24-.07-3.36,0-25.7,0-51.4,0-77.09,0-1.35,0-2.69,0-4.56Z"/>
      <path class="cls-1" d="m298.26,262.93c3.86,0,7.73-.06,11.59.02,4.86.1,6.79,2.06,6.83,6.86.05,4.86.23,9.73-.06,14.58-.2,3.29,1.05,3.95,4.03,3.81,4.85-.24,9.72-.1,14.58-.05,4.45.04,6.51,1.89,6.58,6.29.13,8.1.13,16.2,0,24.3-.07,4.4-2.11,6.2-6.62,6.25-5.11.05-10.22.12-15.33-.03-2.37-.07-3.31.57-3.22,3.11.19,5.1.09,10.22.04,15.33-.04,4.63-1.98,6.74-6.51,6.8-7.97.1-15.95.1-23.93,0-4.39-.05-6.37-2.1-6.45-6.46-.08-4.98-.16-9.97.03-14.95.11-2.82-.56-4.01-3.68-3.85-4.97.27-9.97.12-14.95.06-4.56-.05-6.54-2.03-6.58-6.68-.06-7.85-.07-15.7,0-23.55.04-4.61,2.06-6.57,6.65-6.61,5.11-.05,10.22-.13,15.33.04,2.42.08,3.31-.61,3.22-3.11-.17-4.98-.08-9.97-.04-14.95.05-5.29,1.89-7.11,7.26-7.18,3.74-.05,7.48,0,11.22,0Zm-21.53,36.43c0,.1,0,.2,0,.3-3.47,0-8.09-1.36-10.11.35-2.38,2.02-.52,6.79-.8,10.35,0,.12.02.25,0,.37-.41,2.55.81,3.17,3.18,3.09,4.86-.15,9.73-.08,14.59-.03,5.45.05,7.34,2,7.41,7.54.03,2.12-.06,4.24.02,6.36.13,3.6-1.54,8.39.61,10.49,2.49,2.42,7.35.49,11.16.84,2.19.2,2.77-.71,2.72-2.78-.12-5.24-.09-10.48-.02-15.72.06-4.54,2.1-6.57,6.67-6.72,2.49-.08,4.99.09,7.48-.04,3.55-.19,8.29,1.62,10.35-.82,2.11-2.52.38-7.18.66-10.89.16-2.21-.8-2.75-2.84-2.71-5.11.11-10.23.08-15.34.02-4.97-.06-6.93-2.11-7-7.15-.03-2.37.05-4.74-.02-7.11-.11-3.47,1.48-8.1-.57-10.13-2.4-2.36-7.11-.46-10.79-.83-2.55-.26-3.2.84-3.13,3.22.14,5.11.12,10.23.01,15.34-.1,4.54-2.19,6.54-6.75,6.66-2.49.07-4.99.01-7.48.01Z"/>
      <path class="cls-1" d="m88.32,256.71c1.52-.02,2.89,1.18,4.24,2.55,17.51,17.9,43.09,14.6,55.23-7.11,2.1-3.76,5.19-5.03,8.23-3.39,3.01,1.63,3.68,4.9,1.64,8.81-5.56,10.63-13.97,18.06-25.36,21.89-2.39.8-3.05,1.93-2.86,4.27.89,10.93,5.47,19.52,15.35,24.88,4.1,2.22,5.47,5.22,3.84,8.37-1.59,3.08-5.08,3.74-9.12,1.53-12.95-7.08-19.78-18.21-21.1-32.74-.24-2.68-.67-3.73-3.65-3.95-12.35-.9-22.71-6.07-30.92-15.42-1.74-1.98-2.26-4.2-1.17-6.56.95-2.08,2.74-3.17,5.65-3.14Z"/>
      <path class="cls-1" d="m109.39,172.51c.03,7.88-1.52,14.66-5.1,20.78-1.59,2.72-.95,3.78,1.36,5.49,7.47,5.51,12.33,12.88,14.42,22,.84,3.67-.63,6.61-3.7,7.44-3.31.89-6.12-.87-7.1-4.78-1.74-6.97-5.74-12.29-11.35-16.61-1.88-1.45-3.12-1.48-5.06.1-7.94,6.42-17.18,9.33-27.36,9.3-1.24,0-2.49-.12-3.72-.3-4.18-.61-6.39-2.85-6.09-6.12.31-3.47,3.08-5.3,7.36-4.97,11.21.86,20.64-2.87,27.82-11.51,6.91-8.32,8.77-17.95,6.26-28.42-.38-1.59-.89-3.17-.38-4.77.75-2.35,2.41-3.77,4.92-3.92,2.84-.17,4.82,1.19,5.72,3.85,1.46,4.28,2.15,8.69,2.01,12.46Z"/>
      <path class="cls-1" d="m301.77,216.27c-10.61-.32-19.49-3.19-27.09-9.38-1.96-1.59-3.2-1.52-5.07-.07-5.5,4.24-9.51,9.42-11.26,16.25-1.08,4.22-3.79,6.07-7.2,5.16-3.19-.85-4.55-3.83-3.62-7.79,2.18-9.25,7.26-16.61,14.93-22.08,2.17-1.55,2.12-2.57.95-4.69-5.61-10.18-6.75-20.96-3.73-32.16,1.15-4.25,3.78-6.04,7.23-5.13,3.33.88,4.61,3.78,3.55,8.11-5.48,22.55,11.05,41.94,34.34,40.28,3.99-.28,6.69,1.66,6.99,5.02.29,3.21-1.79,5.47-5.69,6.07-1.72.26-3.46.33-4.35.42Z"/>
      <path class="cls-1" d="m148.33,107.17c.1,7.33-1.85,13.56-5.94,18.99-1.61,2.13-1.82,3.37.13,5.55,5.86,6.57,8.54,14.51,8.58,23.3.02,4.13-2.08,6.59-5.44,6.7-3.52.12-5.61-2.32-5.75-6.71-.58-17.77-16.05-28.6-33.07-23.14-4.21,1.35-7.09.23-8.22-3.19-1.07-3.22.51-5.89,4.47-7.35,8.27-3.04,16.62-3.18,24.8.1,2.69,1.08,3.96.45,5.43-1.73,3.71-5.53,4.7-11.41,2.95-17.79-.3-1.08-.72-2.13-.89-3.23-.48-3.18.91-5.44,3.91-6.34,2.87-.86,5.24.34,6.5,3.02,1.83,3.87,2.64,8.02,2.54,11.83Z"/>
      <path class="cls-1" d="m226.5,92.07c4.54.14,6.66,3.84,5.1,8.51-2.3,6.87-1.31,13.22,2.67,19.21,1.3,1.95,2.45,2.81,5.13,1.72,8.28-3.39,16.76-3.27,25.16-.15,3.89,1.45,5.44,4.2,4.3,7.44-1.12,3.21-4.06,4.36-7.97,3.13-17.61-5.55-32.48,4.99-33.27,23.59-.16,3.81-2.27,6.16-5.53,6.18-3.28.02-5.59-2.34-5.65-6.1-.14-9.07,2.63-17.22,8.66-24.01,1.81-2.04,1.68-3.15.17-5.24-6.59-9.15-7.79-19.17-4.11-29.79.94-2.71,2.72-4.42,5.35-4.48Z"/>
    </g>
  </g>
</svg>