<svg xmlns="http://www.w3.org/2000/svg" xmlns:xlink="http://www.w3.org/1999/xlink" id="Capa_2" width="406.951" height="504.147" data-name="Capa 2" viewBox="0 0 432.19 263.79"><defs><style>.cls-1{fill:#059ae7}.cls-2{clip-path:url(#clippath)}.cls-3{fill:none}</style><clipPath id="clippath"><rect width="432.19" height="263.79" class="cls-3"/></clipPath></defs><g id="Capa_1-2" data-name="Capa 1"><g id="Grupo_1302" data-name="Grupo 1302"><g class="cls-2"><g id="Grupo_1300" data-name="Grupo 1300"><path id="Trazado_567" d="m432.19,134.66c-17.36,29.37-39.98,55.3-66.73,76.48-46.66,36.32-99.47,54.86-158.73,52.44-61.76-2.52-114.56-26.79-159.31-69.03-17.53-16.73-32.78-35.68-45.37-56.38-2.56-3.31-2.73-7.88-.43-11.38C31.88,77.74,72.24,39.83,126.11,18.45c79.6-31.6,155.44-22.24,226.41,25.24,33.01,22.08,58.88,51.18,79.08,85.35.17.21.37.4.6.56v5.07ZM123.73,225.8c-1.3-1.4-2.59-2.81-3.9-4.21-12.34-13.19-21.79-28.8-27.77-45.84-2.6-7.3-1.21-12.09,3.91-13.93,5.47-1.96,9.36.76,12.04,8.41,18.28,52.18,72.73,84.32,126.77,74.85,62.42-10.46,104.55-69.54,94.09-131.97-.4-2.38-.87-4.75-1.42-7.11-13.2-58.33-72.47-97.9-130.84-86.65-43.9,8.46-73.59,34.21-89.1,76.21-2.26,6.12-6.43,8.66-11.49,6.87-4.74-1.67-6.46-6.32-4.48-12.29,3.96-11.88,9.63-23.13,16.82-33.38,4.69-6.54,9.88-12.7,15.52-18.43-1.21-.15-2.42.19-3.38.95-42.4,20.52-75.49,51.41-101.03,90.74-1.32,2.03-.56,3.26.48,4.85,18.97,29.77,43.96,55.24,73.37,74.76,9.5,6.51,19.7,11.94,30.41,16.17m184.62.65c.99-.45,1.98-.88,2.97-1.35,42.4-20.52,75.53-51.35,101.09-90.67,1.12-1.45,1.05-3.49-.19-4.85-22.4-35.35-53.31-64.52-89.91-84.81-4.73-2.78-9.69-5.17-14.81-7.14,52.38,51.46,53.12,135.64,1.66,188.01-.26.27-.53.54-.8.8" class="cls-1" data-name="Trazado 567"/><path id="Trazado_568" d="m215.97,203.94c-39.65.03-71.81-32.09-71.84-71.74-.02-35.94,26.53-66.35,62.13-71.19,8.09-1.16,16.32-.87,24.3.87,1.91.45,3.92.12,5.59-.91,17.69-10.49,40.54-4.65,51.03,13.05,6.9,11.65,6.94,26.13.1,37.81-1.09,1.79-1.44,3.94-.97,5.98,7.95,38.81-17.07,76.72-55.88,84.68-4.76.98-9.61,1.46-14.47,1.46m4.8-126.45c-4.55-.43-9.14-.28-13.66.45-29.95,4.93-50.23,33.21-45.3,63.16,4.93,29.95,33.21,50.23,63.16,45.3,27.09-4.46,46.73-28.22,46.01-55.67-.09-3.48-1.02-3.33-3.83-2.4-19.46,6.7-40.67-3.65-47.36-23.12-2.21-6.43-2.62-13.33-1.19-19.98.52-2.57,1.42-5.08,2.17-7.75m34.23,36.06c11.3.05,20.5-9.08,20.55-20.38.05-11.3-9.08-20.5-20.38-20.55-11.3-.05-20.5,9.08-20.55,20.38,0,.03,0,.06,0,.09.03,11.26,9.12,20.39,20.38,20.45" class="cls-1" data-name="Trazado 568"/><path id="Trazado_569" d="m101.4,132.03c.11,4.59-3.52,8.41-8.11,8.52,0,0,0,0,0,0-4.65.12-8.51-3.56-8.63-8.2-.12-4.65,3.56-8.51,8.2-8.63.08,0,.15,0,.23,0,4.58-.01,8.3,3.69,8.31,8.27,0,.02,0,.03,0,.05" class="cls-1" data-name="Trazado 569"/></g></g></g></g></svg>