<svg xmlns="http://www.w3.org/2000/svg" id="Capa_2" width="406.951" height="504.147" data-name="Capa 2" viewBox="0 0 344.45 378.27"><defs><style>.cls-1{fill:#049ae7}</style></defs><g id="Capa_1-2" data-name="Capa 1"><g><path d="m223.13,378.27c-5.83-1.37-11.78-2.27-17.37-4.62-15.52-6.52-26.71-17.75-34.84-32.2-1.46-2.6-2.98-3.57-5.97-3.56-43.09.1-86.18.09-129.27.06-17.24-.01-30.52-9.83-34.54-25.51-.61-2.36-1.04-4.85-1.05-7.28C0,276.11,0,247.05.03,218c0-4.45,2.67-7.57,6.56-8.05,3.56-.44,7.18,2.07,7.96,5.71.3,1.42.23,2.94.23,4.41.01,27.33,0,54.66.01,82,0,2.09,0,4.16.52,6.23,2.06,8.36,8.69,14.11,17.24,14.78,1.1.09,2.21.1,3.32.1,40.87,0,81.75,0,122.62,0,4.26,0,4.17.01,3.01-4.18-7.23-26.13-7.37-52.06,3.09-77.4,8.42-20.4,22.65-34.59,44.86-39.53.57-.13,1.11-.39,1.84-.66-3.64-6.27-5.82-12.9-7.17-19.82-1.6-8.17,1.24-11.62,9.54-11.64,13.66-.03,25.69,3.91,34.79,14.63,3.42-4.71,4.53-9.66,4.5-15.32-.2-39.03-.39-78.06.04-117.08.16-14.23-9.97-22.6-21.95-21.96-9.45.5-18.96.17-28.43.06-2.31-.03-3.13.51-3.18,3.02-.16,8.5-5.8,13.88-14.39,13.88-34.1.03-68.21.03-102.31,0-8.62,0-14.31-5.28-14.56-13.78-.08-2.76-1.04-3.16-3.45-3.13-9.97.12-19.94,0-29.92.06-11.81.06-20,8.19-20.01,19.98-.04,34.97-.01,69.93-.02,104.9,0,1.35.09,2.73-.1,4.06-.54,3.79-3.65,6.37-7.44,6.3-3.63-.06-6.58-2.6-7.12-6.25-.18-1.21-.11-2.46-.11-3.69,0-34.6,0-69.19,0-103.79C.02,29.88,14.33,15.57,36.28,15.55c9.6,0,19.21-.04,28.81.03,2,.02,2.92-.23,3.14-2.68C68.94,4.8,74.36.03,82.5.02c34.23-.03,68.45-.03,102.68,0,8.12,0,13.78,5.02,14.23,12.86.14,2.48,1.11,2.71,3.12,2.7,9.85-.07,19.7-.05,29.55-.03,21.06.04,35.5,14.36,35.55,35.46.07,35.09.02,70.18.02,105.26v4.28c.68-.14,1.2-.12,1.55-.35,12.81-8.12,27.02-10.07,41.78-9.47,5.02.2,8.15,4,7.32,9-2.6,15.62-7.24,30.39-18.19,42.44-.91,1-1.77,1.73.31,2.58,22.99,9.31,34.76,27.83,40.31,50.76,7.51,31.07,3.87,60.95-12.55,88.63-11.11,18.74-27.26,30.77-49.42,33.6-.33.04-.63.33-.94.51h-54.67Zm27.15-14.97c0,.07,0,.13,0,.2,5.78,0,11.57-.18,17.35.03,21.14.76,37-8.58,47.45-26.33,16.64-28.26,19.36-58.34,7.74-89.01-9.71-25.62-31.03-37.27-56.97-31.15-10.57,2.49-20.18,2.59-30.78.05-24.89-5.98-45.04,4.61-55.87,27.84-5.11,10.97-7.47,22.61-7.83,34.64-.66,22.19,3.8,43.05,16.81,61.48,8.94,12.67,20.93,20.86,36.65,22.13,8.43.68,16.97.12,25.46.12ZM134.11,32.42c15.64,0,31.27-.09,46.91.08,3.17.03,4-.95,3.79-3.94-.25-3.55-.19-7.14-.01-10.7.12-2.36-.54-3.17-3.03-3.13-8.49.15-16.99.06-25.48.06-23.27,0-46.54.05-69.8-.07-2.94-.02-3.86.79-3.65,3.69.25,3.43.23,6.9,0,10.33-.19,2.85.64,3.78,3.64,3.75,15.88-.15,31.76-.07,47.64-.07Zm167.93,133.45c-22.8-.25-40.37,14.69-43.02,37.19,5.1-1,10.13-2.13,15.26-2.08,2.73.03,4.99-.81,7.21-2.26,11.89-7.8,17.3-19.61,20.56-32.85Zm-81.48,19.77c4.86,13.9,8.96,16.6,20.38,16.8-1.85-9.11-10.88-16.65-20.38-16.8Z" class="cls-1"/><path d="m137.38,248.53c.06,26.49-21.52,48.28-47.97,48.41-26.58.13-48.52-21.63-48.61-48.21-.09-26.5,21.85-48.45,48.39-48.41,26.44.04,48.12,21.74,48.18,48.21Zm-14.79-.06c-.08-18.3-15.19-33.36-33.45-33.35-18.42.01-33.66,15.32-33.53,33.67.14,18.44,15.39,33.46,33.86,33.34,18.22-.12,33.2-15.34,33.12-33.66Z" class="cls-1"/><path d="m138.89,87.6c27.33,0,54.65-.01,81.98.01,5.55,0,8.65,2.36,9,6.63.33,4.02-2.09,7.24-6.09,7.9-1.32.22-2.7.22-4.05.22-53.91,0-107.83,0-161.74,0-6.85,0-10.27-2.39-10.4-7.23-.14-4.96,3.41-7.54,10.43-7.54,26.96,0,53.91,0,80.87,0Z" class="cls-1"/><path d="m122.6,126.21c22.14,0,44.28-.01,66.43.01,5.13,0,8.18,2.52,8.44,6.78.24,3.87-2.03,6.92-5.92,7.71-1.43.29-2.93.26-4.4.26-43.05.01-86.11.01-129.16,0-1.47,0-2.98.03-4.4-.27-3.82-.79-6.25-4.06-5.94-7.74.32-3.76,3.13-6.61,7.07-6.68,7.5-.14,15.01-.07,22.51-.07,15.13,0,30.26,0,45.39,0Z" class="cls-1"/><path d="m112.21,164.73c18.46,0,36.91,0,55.37,0,5.61,0,9.06,2.91,8.96,7.49-.09,4.44-3.47,7.27-8.87,7.28-37.16.02-74.31.02-111.47,0-4.47,0-7.28-1.88-8.24-5.38-.92-3.35.14-6.04,2.89-8.1,1.68-1.26,3.64-1.29,5.63-1.29,18.58.02,37.16,0,55.74,0Z" class="cls-1"/><path d="m14.77,187.58c.07,4.05-3.04,7.36-7.05,7.51-4.2.16-7.61-3.06-7.68-7.25-.07-4.16,3.29-7.58,7.42-7.55,3.98.03,7.24,3.28,7.31,7.29Z" class="cls-1"/><path d="m110.97,237.92c.07,2.11-.81,3.82-2.18,5.32-6.2,6.82-12.35,13.68-18.61,20.44-3.69,3.99-7.63,4.14-11.62.55-2.92-2.63-5.78-5.33-8.59-8.08-3.42-3.35-3.7-7.7-.8-10.82,2.86-3.09,7.24-3.09,10.87.01.47.4.95.79,1.33,1.27,1.55,1.95,2.75,2.04,4.52-.05,3.97-4.69,8.18-9.16,12.4-13.63,2.33-2.47,5.21-3.16,8.4-1.72,2.86,1.3,4.22,3.61,4.28,6.71Z" class="cls-1"/></g></g></svg>