<svg xmlns="http://www.w3.org/2000/svg" id="Capa_2" width="406.951" height="504.147" data-name="Capa 2" viewBox="0 0 453.1 436.14"><defs><style>.cls-1{fill:#049ae7}</style></defs><g id="Capa_1-2" data-name="Capa 1"><g><path d="m453.1,96.71c-2.24,9.9-5.05,19.58-10.11,28.51-7.07,12.46-16.56,22.89-26.97,32.56-3.33,3.09-7.16,3.06-9.84.25-2.63-2.76-2.5-6.72.73-9.8,8.12-7.76,15.99-15.74,21.99-25.3,11.15-17.77,14.93-36.41,5.95-56.28-16.38-36.25-65.17-42.73-90.6-12.11-1.41,1.69-2.73,3.56-4.47,4.85-4.06,3.04-8.76,1.89-12.59-3.01-8.31-10.64-18.97-17.49-32.2-20.3-7.92-1.69-15.81-1.43-23.66.49-1.57.38-2.9.67-3.45,2.75-3.54,13.16-11.27,23.9-20.31,33.74-2.31,2.52-2.18,3.83-.02,6.36,15.22,17.85,23.89,38.39,24.51,62.01.08,3.25,1,4.39,4.27,5.15,11.95,2.79,20.37,13.85,20.92,27,.09,2.22.55,3.8,2.39,5.25,10.33,8.09,20.63,16.22,30.76,24.55,3.39,2.79,5.98,2.59,9.3-.1,13.73-11.16,27.61-22.13,41.44-33.15,1.49-1.19,2.89-2.54,4.88-2.92,3.12-.59,5.59.43,7.09,3.19,1.59,2.91,1.17,5.79-1.28,8.05-2.27,2.09-4.78,3.93-7.2,5.86-12.33,9.84-24.64,19.7-37,29.51-8.79,6.99-16.43,7.01-25.22.06-8.44-6.68-16.87-13.37-25.21-20.18-2.41-1.97-3.68-2.79-5.69.8-4.93,8.78-12.4,14.83-21.98,18.2-1.27.45-3.01.34-3.17,2.44-.71,9.71-4.84,18-11.56,25.94,12.63.23,24.23-1.2,35.64-4.07,4.41-1.11,8.77-2.55,12.99-4.26,9.57-3.87,18.86-4.44,26.85,3.03,8.18,7.63,9.4,17.45,6.41,27.74-3.8,13.09-13.06,21.82-24.41,28.5-14.62,8.61-30.77,12.4-47.42,14.41-5.05.61-4.52.39-3.53,5.43,1.81,9.13,6.99,14.77,14.77,19.84,15.38,10.04,27.96,23.05,34.61,40.78.62,1.65,1.54,2.21,3.27,2.2,4.15-.02,8.23.69,12.22,1.75,11.57,3.08,16.71,16.14,9.93,26.03-4.99,7.29-10.23,14.49-16.08,21.08-9.42,10.61-21.6,12.57-35.16,10.14-16.67-2.99-33.45-5.36-50.17-8.08-1.67-.27-3.21-.31-4.73.37-23.33,10.48-48.07,10.66-72.91,9.91-16.47-.49-32.56-3.02-47.71-9.87-3-1.36-5.83-.27-8.66.17-17.32,2.66-34.59,5.7-51.94,8.18-11.92,1.7-22.25-2.16-30.1-11.34-5.55-6.49-10.68-13.37-15.54-20.39-6.95-10.03-1.79-23.23,10.07-26.24,3.27-.83,6.68-1.64,10.01-1.56,3.68.09,5.09-1.42,6.18-4.64,1.07-3.17,2.78-6.18,4.57-9.04,2.09-3.35,5.69-4.15,8.84-2.39,3.11,1.75,4.33,5.34,2.55,8.79-2.17,4.2-3.99,8.51-5.76,12.88-1.93,4.74-5.74,7.46-11.01,7.44-3.86-.01-7.68.21-11.4,1.17-3.95,1.02-4.94,3.62-2.52,6.92,4.54,6.18,9.08,12.36,13.97,18.26,4.77,5.76,11.25,8.09,18.61,6.98,18.06-2.73,36.07-5.76,54.13-8.51,2.48-.38,3.05-1.48,3.32-3.67,2.16-17.46-2.27-33.61-9.71-49.15-3.52-7.35-8.09-14.01-13.52-20.11-1.88-2.11-3.41-2.72-5.85-.81-3.48,2.71-7.2,5.12-10.82,7.65-3.62,2.53-7.53,2.21-9.84-.8-2.32-3.02-1.75-6.98,1.81-9.67,4.34-3.28,8.81-6.43,13.44-9.29,2.56-1.58,4.21-3.4,4.91-6.35.75-3.14,1.61-6.31,2.9-9.26,1.52-3.5.56-4.46-3.09-4.84-14.74-1.51-29.03-4.87-42.44-11.4-9.97-4.85-18.69-11.26-24.89-20.62-5.24-7.9-7.74-16.46-5.77-26.02,2.96-14.34,16.7-21.99,30.89-16.68,9.56,3.58,19.22,6.54,29.34,7.94,7,.96,14.02,1.62,21.8,1.47-1.68-2.4-3.1-4.34-4.42-6.35-3.45-5.26-5.68-11.02-6.3-17.26-.29-2.9-1.37-4.13-4.17-5.13-17.97-6.37-29.41-25.2-26.5-43.11,1.83-11.29,10.1-20.41,21.22-22.86,2.8-.62,3.43-1.75,3.52-4.38,1.04-33.06,16.04-58.77,41.68-78.85,1.36-1.06,2.99-1.77,3.64-3.67,4.33-12.54,14.36-18.13,26.33-21.1,4.27-1.06,8.71-1.46,13.07-2.15,12.08-1.92,22.58-7.35,32.43-14.35,9.12-6.48,17.75-13.67,27.56-19.18,10.59-5.95,18.19-1.87,18.99,10.37.44,6.83-.85,13.5-2.02,20.18-.15.85-.27,1.7-.46,2.88,3.22-.55,5.67-2.12,8.2-3.42,4.45-2.29,8.8-4.77,13.25-7.07,2.63-1.36,5.63-3.13,8.37-2.23,6.48,2.11,12.4-.65,18.54-1.25,21.64-2.14,40.1,4.57,55.4,19.84,2.37,2.37,3.28,2.3,5.66,0,19.57-18.99,42.73-25.23,68.72-16.81,25.64,8.3,40.53,26.73,45.69,53.1.22,1.14.58,2.26.87,3.38v15.04ZM169.41,254.26c6.65.2,13.27-.25,19.86-.98,16.35-1.81,32.29-5.09,46.57-13.87,13.8-8.49,23.13-23.25,13.32-42.68-2.86-5.66-2.56-11.27.3-16.95,16.74-33.21,10.55-63.49-11.77-91.74-2.19-2.77-3.68-2.49-6.3-.6-10.76,7.79-22.58,12.73-36.16,11.93-3.21-.19-4.17.45-4.26,3.89-.29,11.66-8.19,17.64-19.6,15.25-6.58-1.38-12.47-4.41-18.06-8.02-13.62-8.81-25.26-19.83-35.06-32.7-2.29-3-3.6-2.63-5.98-.5-4.96,4.43-9.75,9.03-13.67,14.4-19.29,26.43-24.7,54.72-10.26,85.08,3.73,7.84,4.38,14.67.62,22.64-6.05,12.83-3.12,25.24,7.34,34.9,5.37,4.96,11.69,8.43,18.47,11.04,17.58,6.77,35.96,8.71,54.62,8.92Zm-.02,168.59c1.92,0,3.83.03,5.75,0,14.79-.24,29.43-1.51,43.5-6.59,2.09-.76,3.26-1.35,2.97-4.25-3.27-31.95,6.76-59.5,28.34-82.96,2.22-2.41,1.66-4.24.98-6.67-.79-2.84-3-1.88-4.7-1.88-51.03-.04-102.05-.05-153.08,0-1.82,0-4.1-1.02-4.97,2.11-.73,2.61-.76,4.36,1.32,6.64,20.9,22.9,31.01,49.72,28.24,80.87-.37,4.12.8,5.65,4.48,6.81,15.39,4.87,31.19,6.02,47.18,5.9Zm-.06-115.64c12.97,0,25.95,0,38.92,0,11.2,0,22.41,0,33.61,0,1.71,0,3.32.43,3.41-2.51.21-7.22,3.35-10.06,10.72-10.69,10.29-.88,20.48-2.37,30.4-5.34,11.85-3.55,22.95-8.5,31.38-18,4.21-4.75,7.18-10.11,7.01-16.7-.22-8.47-6.31-12.88-14.11-9.66-19.59,8.09-40.07,10.7-61,10.09-8.1-.24-15.69.33-23.02,4.12-3.35,1.73-7.16,2.98-10.9,3.47-7.57,1-12.72,3.53-14.09,12.2-.91,5.79-5.22,10.45-9.72,14.43-11.51,10.16-27.24,10.68-39.32,1.23-6.88-5.38-11.15-12.48-13.11-20.92-.6-2.59-1.51-3.81-4.43-4.29-10.63-1.74-20.98-4.62-30.72-9.37-1.64-.8-3.29-1.11-5.11-1.03-24.49,1.07-48.54-.58-71.55-10.23-6.44-2.7-11.72.84-13.04,7.77-1.06,5.56.81,10.49,3.81,15.02,5.49,8.28,13.45,13.5,22.31,17.47,13.62,6.09,28.11,8.51,42.85,9.78,6.37.55,10.38,3.81,10.2,9.32-.12,3.68,1.34,3.92,4.29,3.91,23.73-.09,47.47-.05,71.2-.05ZM217.63,14.69c-9.66,5.68-17.45,12.22-25.71,18.08-10.55,7.49-21.81,13.42-34.62,15.96-6.49,1.29-13.2,1.39-19.49,3.72-4.64,1.72-8.86,4.01-11.51,8.44-1.03,1.72-1.71,3.44-.29,5.31,11.7,15.42,25.05,28.98,42.76,37.52,2.56,1.24,5.81,3.36,8.23,1.28,2.17-1.86.67-5.27.18-8-.1-.58-.17-1.17-.22-1.75-.66-7.33,4.35-11.94,11.54-10.17,10.99,2.7,21.08.51,30.47-5.25,14.82-9.08,25.86-21.7,33.7-37.15.57-1.13,1.88-2.31.75-4.02-3.55,1.94-7.01,3.9-10.53,5.74-6.01,3.16-12.17,6.01-19.05,6.65-6.49.6-11.02-4.32-10.01-10.76.25-1.6.68-3.16.99-4.75,1.29-6.6,2.74-13.18,2.79-20.86Zm76.41,406.81c7.19-.17,12.68-2.42,16.71-7.42,4.71-5.85,9.22-11.87,13.67-17.92,2.56-3.48,1.53-6.17-2.63-7.17-3.59-.86-7.25-1.14-10.96-1.09-5.46.06-9.56-2.63-11.29-7.66-6.45-18.78-20.15-31.06-36.18-41.42-2.14-1.38-3.45-1.45-5.17.55-17.18,20.01-25.86,42.87-23.72,69.48.2,2.48,1.06,3.53,3.65,3.89,8.75,1.22,17.45,2.78,26.17,4.16,10.18,1.61,20.36,3.16,29.76,4.61ZM55.11,175.43c.61,9.16,4.99,16.45,12.81,21.66,5.8,3.87,5.56,3.62,8.67-2.5,2.24-4.42,2.02-8.02-.37-12.27-3.54-6.28-5.83-13.15-7.12-20.25-.54-2.96-1.89-3.17-4.26-2.33-5.71,2.01-9.83,8.48-9.73,15.69Zm228.93-.69c-.07-7.04-4.33-13.38-10.09-15.14-1.98-.6-3.28-.49-3.75,1.97-1.63,8.58-4.78,16.63-8.95,24.28-.9,1.65-1.01,3.27-.21,5.05,1.09,2.4,2.07,4.86,2.97,7.34.58,1.62,1.35,1.74,2.93,1.19,9.27-3.23,17.2-14.59,17.09-24.7Zm-115.32,92.41c-4.26,0-8.53.21-12.77-.07-3.15-.21-3.1.85-2.11,3.23,3.28,7.87,10.78,13.31,18.25,13.02,7.49-.28,14.84-6.3,17.55-14.06.83-2.37.21-2.84-2-2.57-6.28.77-12.6.84-18.92.45Z" class="cls-1"/><path d="m377.07,120.57c0,3.39.14,6.79-.03,10.17-.26,4.92-3.5,8.24-8.42,8.54-3.67.23-7.37.23-11.05.07-2.63-.11-3.74.64-3.57,3.45.21,3.52.15,7.08,0,10.61-.22,5.35-3.56,8.83-8.94,8.98-6.78.19-13.57.2-20.34-.01-5.34-.17-8.59-3.7-8.78-9.14-.13-3.68-.12-7.37,0-11.05.07-2.13-.77-2.86-2.84-2.81-3.68.09-7.37.12-11.05-.04-5.67-.24-9.03-3.58-9.15-9.22-.14-6.48-.13-12.97,0-19.46.1-5.53,3.57-9.09,9.09-9.4,3.23-.19,6.51-.32,9.72.01,3.69.38,4.54-1.16,4.27-4.48-.25-3.07-.13-6.19-.02-9.28.2-5.49,3.7-9.16,9.18-9.3,6.63-.17,13.27-.18,19.9,0,5.26.15,8.75,3.78,8.98,9.02.14,3.38.26,6.8-.01,10.17-.26,3.24,1.03,4.06,4.02,3.84,3.23-.23,6.49-.16,9.72,0,5.76.27,9.2,3.82,9.36,9.6.09,3.24.02,6.49.02,9.73-.01,0-.02,0-.04,0Zm-70.95-.26c.12,6.59-.93,5.72,5.92,5.82,2.65.04,5.32-.12,7.95.07,5.56.41,8.88,3.88,9.17,9.41.09,1.76.02,3.54.02,5.3,0,8.87,0,8.77,8.74,8.36,2.45-.11,2.96-1.05,2.88-3.2-.12-3.38-.12-6.78,0-10.17.19-5.82,3.53-9.29,9.31-9.72,1.91-.14,3.83-.05,5.74-.05,8.22,0,8.12,0,8.05-8.18-.02-2.62-.65-3.71-3.45-3.54-3.52.22-7.07.15-10.6,0-5.05-.21-8.54-3.55-8.99-8.56-.19-2.05-.08-4.12-.08-6.18,0-8.75,0-8.64-8.76-8.31-2.46.09-2.96,1.02-2.87,3.16.12,3.24.08,6.48.02,9.72-.13,6.63-3.56,10.09-10.09,10.21-2.36.05-4.72-.02-7.07.02-6.68.1-5.78-.92-5.89,5.84Z" class="cls-1"/><path d="m169.89,191.57c5.45,0,10.9-.13,16.35.03,6.57.19,10.35,3.67,11.34,10.08,1.81,11.72-3.6,24.05-13.61,30-9.88,5.88-20.02,5.88-29.55-.61-10.69-7.27-14.39-17.87-12.67-30.42.75-5.52,5.17-8.82,11.36-9.09.29-.01.59,0,.88,0,5.3,0,10.6,0,15.91.01Zm-.21,13.26c-3.68,0-7.38.26-11.03-.07-4-.36-4.37,1.51-3.81,4.71,1.36,7.69,7.91,13.31,15.41,13.04,7.43-.27,13.77-6.86,14.39-14.77.17-2.12-.45-2.97-2.61-2.92-4.12.09-8.24.03-12.36.02Z" class="cls-1"/><path d="m131.41,141.3c4.49.16,8.72,1.27,12.55,3.64,3.48,2.14,4.57,5.37,3.05,8.61-1.6,3.41-5.29,5-8.87,3.11-4.76-2.51-9.07-2.38-13.78.08-3.41,1.78-6.94.27-8.58-2.94-1.64-3.21-.65-6.61,2.7-8.72,3.94-2.48,8.3-3.67,12.94-3.78Z" class="cls-1"/><path d="m207.96,141.3c4.64.17,9,1.35,12.91,3.88,3.19,2.07,4.24,5.76,2.44,8.79-1.91,3.21-4.97,4.55-8.26,2.81-5.04-2.66-9.61-2.45-14.62.09-3.37,1.71-6.45.16-8.11-3.12-1.68-3.32-.79-6.37,2.34-8.45,4.01-2.66,8.5-3.9,13.3-4.01Z" class="cls-1"/><path d="m124.75,173.25c0-5.58,2.21-8.49,6.53-8.52,4.31-.03,6.73,2.98,6.74,8.39.01,5.42-2.38,8.52-6.61,8.56-4.25.04-6.65-3-6.65-8.43Z" class="cls-1"/><path d="m214.42,172.98c.03,5.65-2.2,8.64-6.49,8.69-4.31.05-6.78-3.05-6.78-8.51,0-5.5,2.43-8.49,6.82-8.43,4.24.07,6.41,2.84,6.44,8.25Z" class="cls-1"/></g></g></svg>