<svg xmlns="http://www.w3.org/2000/svg" id="Capa_2" width="406.951" height="504.147" data-name="Capa 2" viewBox="0 0 362.23 408.8"><defs><style>.cls-1{fill:#049ae7}</style></defs><g id="Capa_1-2" data-name="Capa 1"><path d="m231.3,0c7.7,2.02,15.29,4.23,21.75,9.22,11.97,9.25,18.56,21.3,19.07,36.5.12,3.59.12,7.19,0,10.77-.11,3.38-1.91,5.47-5.34,5.83-3.33.34-5.87-1.62-6.27-5.26-.39-3.55-.16-7.17-.35-10.75-1.08-19.86-15.47-34.09-35.39-34.26-29.14-.26-58.28-.24-87.42,0-19.93.16-34.82,14.34-35.38,34.16-.58,20.21-.17,40.45-.23,60.67,0,1.49.27,2.42,1.98,2.84,2.81.69,5.53,1.71,8.66,2.71,0-1.62,0-3.05,0-4.47,0-13.97-.07-27.94.02-41.92.1-15.2,10.06-25.21,25.21-25.52,3.59-.07,7.2.17,10.78-.05,8.47-.51,15.87,1.68,22.57,7.14,6.17,5.02,14.05,4.94,20.27-.12,6.47-5.26,13.61-7.46,21.81-7.02,3.85.21,7.72-.04,11.57.06,14.93.35,24.87,10.36,24.99,25.33.11,13.97.03,27.94.03,41.92,0,1.46,0,2.91,0,4.63,3.12-.99,5.95-2.06,8.87-2.76,2.16-.51,1.74-2.01,1.75-3.39.03-6.12,0-12.24.03-18.36,0-1.32.03-2.67.26-3.97.6-3.36,2.64-5.21,6.1-5.01,3.44.2,5.4,2.24,5.48,5.65.15,6.25.16,12.51.05,18.76-.04,2.21.6,3.68,2.42,5.02,3.69,2.7,5.78,6.44,6.51,11.01.71,4.51.71,9.04.22,13.53-1.03,9.42-7.62,15.36-17.84,15.95-2.84.16-3.77,1.1-4.36,3.77-3.39,15.2-10.41,28.67-20.41,40.54-2.12,2.51-1.86,3.17,1.11,4.41,18.92,7.88,30.12,22.1,33.59,42.26.5,2.9,1.66,3.93,4.28,4.69,14.66,4.3,29.26,8.79,43.87,13.22,12.65,3.83,20.25,12.18,22.5,25.27,5.99,34.84,12.01,69.68,17.92,104.53,1.89,11.17-5.99,20.68-17.3,21.25-.93.05-1.86.03-2.79.03-107.25,0-214.5,0-321.76,0-14.48,0-22.02-8.94-19.68-23.26.36-2.23.68-4.47,1.05-6.7,1.33-7.86,2.67-15.72,4.02-23.58.09-.52.23-1.04.35-1.56,1.01-4.09,3.54-6.11,6.95-5.57,3.4.55,5.34,3.38,4.72,7.5-1.15,7.62-2.51,15.21-3.8,22.81-.58,3.41-1.23,6.8-1.78,10.21-.81,5.04,1.57,7.93,6.64,8.15.93.04,1.86,0,2.79,0,106.45,0,212.91,0,319.36,0,8.43,0,10.24-2.08,8.86-10.24-5.67-33.41-11.38-66.82-17-100.24-1.52-9.02-6.32-14.85-15.27-17.43-13.27-3.83-26.48-7.89-39.66-12-2.63-.82-3.47-.53-3.41,2.41.16,8.38.12,16.77.01,25.15-.03,2.33.56,3.43,2.99,4.19,13.73,4.32,22.74,17.2,21.83,30.79-.99,14.69-11.15,26.34-25.26,28.98-13.9,2.59-27.64-4.59-33.79-17.67-7.61-16.19,1.08-36.41,18.23-41.77,3.37-1.05,4.22-2.54,4.14-5.81-.21-9.04-.21-18.1,0-27.14.07-2.97-.91-4.19-3.73-4.86-4.51-1.08-9-2.4-13.34-4.03-2.96-1.11-4.09-.25-5.27,2.49-11.66,27.1-21.88,54.76-32.64,82.22-6.54,16.69-12.8,33.5-19.19,50.26-.33.87-.65,1.74-.96,2.62-1.08,3.09-2.79,5.61-6.44,5.53-3.43-.08-5.01-2.54-6.11-5.46-5.62-14.91-11.13-29.87-16.96-44.71-11.8-30.04-22.91-60.35-35.64-90.03-1.46-3.41-2.9-3.95-6.16-2.71-4.34,1.64-8.84,2.9-13.34,4.03-2.44.61-3.16,1.81-3,4.18.19,2.78.2,5.6,0,8.38-.19,2.64.51,3.85,3.37,4.66,12.3,3.5,20.32,13.67,21.33,26.49,1.42,17.9,2.81,35.8,4.15,53.71.88,11.64-5.39,18.31-17.18,18.34-2.25,0-4.52.3-6.74-.4-3.11-.98-4.59-3.1-4.24-6.32.33-3.04,2.21-4.81,5.21-5.09,2.38-.23,4.79-.08,7.18-.14,2.8-.07,4.18-1.54,3.96-4.32-1.46-18.83-2.76-37.68-4.52-56.48-.82-8.78-8.4-14.76-17.84-15.08-9.34-.32-17.17,5.3-18.6,14.06-1.97,12.08-2.09,24.37-3.25,36.54-.6,6.36-1.06,12.73-1.53,19.09-.39,5.26.46,6.17,5.6,6.21,1.73.02,3.46-.04,5.19.07,3.27.21,5.23,2.14,5.59,5.24.36,3.14-1.24,5.63-4.4,6.19-13.94,2.49-25.36-2.92-23.95-18.77,1.63-18.28,2.74-36.61,4.66-54.86,1.31-12.49,8.95-20.44,20.68-24.32,2.62-.87,3.52-1.82,3.47-4.6-.14-8.26,0-8.25-7.95-5.83-11.69,3.55-23.35,7.22-35.1,10.58-8.95,2.56-13.82,8.36-15.3,17.39-2.13,12.98-4.37,25.95-6.57,38.92-.29,1.71-.64,3.43-1.92,4.72-1.86,1.87-4.02,2.52-6.54,1.44-3.06-1.31-4.01-3.85-3.5-6.86,2.64-15.45,4.81-31.02,8.3-46.29,2.42-10.58,10.23-17.16,20.62-20.34,14.86-4.55,29.73-9.07,44.64-13.43,2.69-.78,3.67-1.99,4.16-4.79,3.53-19.96,14.63-34.06,33.34-42.05,1.09-.46,2.16-.97,3.6-1.62-6.44-7.44-11.69-15.38-15.86-24.04-3.01-6.26-5.53-12.67-6.83-19.49-.47-2.49-1.33-3.46-4.05-3.63-11.88-.74-18.26-7.74-18.34-19.67-.04-6.39-1.05-13.63,4.36-17.95,5.36-4.29,5-9.3,4.98-14.81-.05-15.7-.04-31.4,0-47.11.06-25.72,14.69-43.53,39.92-48.7.35-.07.65-.4.97-.61,33.53,0,67.07,0,100.6,0Zm6.34,92.14c0-8.92.06-17.83-.02-26.75-.06-6.33-3.62-12.06-9.15-12.35-10.91-.58-22.01-2.92-32.04,5.17-8.82,7.11-21.85,6.8-30.98,0-6.07-4.52-12.34-6.39-19.67-5.74-2.24.2-4.52.02-6.78.03-10.1.04-14.62,4.54-14.63,14.6-.01,17.03.01,34.07-.01,51.1-.01,6.58-2.2,9.12-8.74,9.94-1.32.17-1.99.4-1.96,1.76.22,8.07-.68,16.17,1.81,24.15,4.23,13.59,11.01,25.66,20.93,35.81,17.16,17.57,37.62,24.68,61.71,17.61,27.57-8.09,54-43.14,50.31-77.23-.16-1.46-.54-1.84-2.1-2.06-6.51-.91-8.62-3.49-8.65-10.08-.03-8.65,0-17.3-.01-25.95Zm-17.64,148.15c-.35-.64-.56-1.12-.86-1.54-4.41-6.18-5.17-13.22-4.99-20.53.11-4.42.02-4.38-3.82-2.67-19.57,8.69-39.17,8.73-58.69-.07-3.05-1.38-4.09-1.3-3.88,2.39.43,7.42-.38,14.65-4.97,20.9-1.22,1.66-.1,2.3.99,3.12,11.72,8.75,23.46,17.49,35.13,26.31,1.56,1.18,2.66,1.13,4.19-.03,11.68-8.82,23.41-17.55,35.13-26.32.61-.46,1.16-1.01,1.77-1.56Zm48.28,58.89c-10.48-.06-19.07,8.46-19.07,18.9,0,10.28,8.4,18.79,18.67,18.91,10.5.13,19.17-8.28,19.28-18.71.11-10.44-8.39-19.04-18.88-19.1Zm-87.74,66.98c.32-.04.64-.08.96-.11,3.1-8.19,6.17-16.39,9.31-24.56.45-1.18.52-2.28.3-3.49-1.57-8.49-3.27-16.96-4.6-25.49-.79-5.09-4.49-2.71-7.07-3.22-2.45-.48-3.58.67-3.95,3.11-.74,4.86-1.7,9.68-2.54,14.53-.77,4.44-2.98,9.28-1.94,13.26,2.31,8.89,6.25,17.35,9.53,25.99Zm80.43-126.79c-2.25-15.76-17.42-30.75-32.51-32.86-1.94-.27-2.34.27-2.32,1.93.09,5.58.13,11.15.23,16.73.04,1.9.82,3.59,1.62,5.29,1.02,2.15,2.3,3.39,4.95,2.61,3.03-.9,6.03-.26,9,.64,6.2,1.89,12.42,3.7,19.02,5.66Zm-160.18.06c6.74-2,12.92-3.8,19.08-5.67,2.3-.7,4.62-1.29,7.03-1.05,5.9.59,8.01-.78,8.57-6.94.53-5.8.27-11.66.4-17.5.04-1.97-.89-1.99-2.52-1.68-5.3,1.03-10.17,3.07-14.58,6.09-9.31,6.39-15.44,14.98-17.98,26.74Zm36.01,12.2c-.22.17-.43.35-.65.52,4.08,10.19,8.17,20.38,12.23,30.58.57,1.43,1.46,1.17,2.53.71,5.83-2.5,11.66-4.97,18.12-7.72-11.04-8.25-21.64-16.17-32.23-24.09Zm56.16,24.09c6.15,2.63,11.77,4.88,17.25,7.44,2.37,1.11,3.11.4,3.96-1.79,3.21-8.3,6.64-16.5,9.91-24.77.61-1.53,1.83-2.93,1.37-5.15-10.79,8.07-21.4,15.99-32.49,24.28Zm-25.63,13.82c2.46,2.88,3.99,6.66,7.01,7.38,4.14.98,8.73.67,13.03.16,2.68-.32,3.64-3.6,5.56-5.38,1.44-1.33,1.73-2.22-.57-3.29-10.75-5-10.71-5.08-21.71-.33-.97.42-1.93.85-3.33,1.46Zm-65.66-160.35c0-.66,0-1.33,0-1.99,0-5.77-1.65-7.26-7.37-6.86-.96.07-1.66.34-1.69,1.21-.13,3.95-.87,7.99.51,11.82,1.12,3.12,3.97,3.91,6.86,3.49,3.15-.46,1.18-3.22,1.65-4.9.24-.86.04-1.85.04-2.77Zm158.64-.2c0,1.72.12,3.46-.03,5.17-.21,2.42.98,2.98,3.1,2.79,3.53-.32,5.65-2.14,6.07-5.68.2-1.7.09-3.44.09-5.17,0-6.54.02-6.47-6.42-5.19-2,.4-3.1,1.05-2.85,3.3.18,1.57.03,3.18.03,4.77Zm-98.5,188.03c.25-.02.5-.03.74-.05.59-3.25,1.16-6.5,1.76-9.75.22-1.19.38-2.29-.56-3.35-2.38-2.67-4.67-5.41-6.99-8.13-.63-.74-1.31-1.41-2.34-.73-.84.55-.67,1.36-.37,2.13,2.58,6.63,5.17,13.25,7.76,19.87Zm37.94,1.13c2.97-7.65,5.5-14.16,8.04-20.67.35-.89.77-1.8-.25-2.48-1.03-.69-1.64.12-2.35.76-5.92,5.39-9.68,11.4-6,19.71.21.47.22,1.02.56,2.68Z" class="cls-1"/></g></svg>