<svg xmlns="http://www.w3.org/2000/svg" id="Capa_2" width="406.951" height="504.147" data-name="Capa 2" viewBox="0 0 382.45 380.74"><defs><style>.cls-1{fill:#049ae7}</style></defs><g id="Capa_1-2" data-name="Capa 1"><g><path d="m157.75,98.65c-.9,30.3-1.79,60.6-2.7,90.9-.07,2.2.31,4.11,1.76,5.9,40.29,49.83,88.67,89.12,148.33,113.63,16.08,6.6,32.81,10.97,49.98,13.71,8.76,1.4,14.79,7.47,16.33,15.8,1.55,8.39-1.91,16.09-9.53,20.7-10.6,6.42-22.46,8.7-34.55,9.94-16.57,1.7-33.15.92-49.71-.24-8.03-.56-15.46-3.76-23.06-6.11-18.79-5.8-37.25-12.7-56.46-17.15-22.04-5.1-43.92-5.95-65.46,2.47-5.35,2.09-10.7,4.29-15.41,7.54-7.5,5.17-15.7,7.73-24.71,8.69-15.18,1.62-30.3,2.71-45.43-.41-23.2-4.77-35.53-19.45-36.41-43.11-.77-20.81,4.51-40.5,10.83-60.01,5.61-17.32,12.59-34.11,20.16-50.65,1.57-3.43,1.99-6.7,1.58-10.46-2.48-22.8-4.73-45.63-7.07-68.45-2.64-25.8-5.3-51.59-7.95-77.39-1.59-15.5-3.2-31-4.74-46.51-.22-2.21-.67-4.21-2.69-5.45-1.73-1.07-3.55-1.14-5.32-.11-2.22,1.28-2.87,3.31-2.62,5.74,1.15,11.41,2.28,22.83,3.45,34.24,2.37,23.19,4.76,46.38,7.14,69.58,2.64,25.67,5.28,51.34,7.91,77.02.46,4.47.78,8.95,1.36,13.4.27,2.05-.63,3.64-1.39,5.32-10.45,23.33-19.97,47-26.22,71.85-3.54,14.08-5.78,28.32-5.02,42.92,1.57,29.82,18.78,48.79,48.33,53.32,19.25,2.95,38.3,1.19,57.27-2.3,3.95-.73,7.66-2.32,10.98-4.57,25.58-17.4,53.3-19.05,82.4-11.53,19.44,5.02,38.3,11.85,57.42,17.84,9.45,2.96,18.9,5.14,28.87,5.5,20.47.73,40.89,1.4,61.03-3.45,7.67-1.85,15.01-4.57,21.71-8.83,10.84-6.91,16.18-19.24,13.7-31.62-2.51-12.49-11.95-22-24.66-23.98-45.17-7.02-84.22-27.53-120.42-54.31-25.79-19.08-48.86-41.06-69.09-66-1.43-1.76-2.05-3.48-1.98-5.75,1.45-44.88,2.84-89.77,4.22-134.65.46-14.96.88-29.93,1.29-44.89C171.32,2.44,169.41.02,166.03,0c-3.35-.02-5.33,2.33-5.46,6.64-.93,30.67-1.84,61.34-2.75,92.02-.02,0-.05,0-.07,0Z" class="cls-1"/><path d="m315.1,352.81c-16.49-.24-31.96-3.89-46.3-12.52-13.9-8.37-29.55-12.47-45.08-16.62-26.39-7.05-53.24-11.88-80.13-16.5-4.17-.72-8.34-1.46-12.49-2.31-5.24-1.08-9.51.56-13.3,4.17-7.78,7.41-16.15,14.11-25.22,19.91-8.13,5.19-16.6,9.61-26.18,11.51-19.11,3.79-33.67-11.42-28.99-30.32,2.37-9.55,7.71-17.48,13.73-25.03,1.01-1.27,2.16-2.44,3.02-3.81,1.5-2.41,1.31-4.84-.83-6.76-2.28-2.03-5.11-2.16-7.07.05-10.39,11.74-19.19,24.47-20.34,40.71-1.64,23.07,19.13,40.37,42.36,35.64,15.56-3.17,28.57-11.4,41.02-20.71,5.4-4.04,10.56-8.37,15.38-13.09,1.44-1.41,2.92-2.15,4.99-1.76,35.74,6.7,71.75,12.14,106.6,22.97,11.09,3.45,21.6,8.08,31.85,13.65,22.18,12.05,45.81,14.47,70.29,8.33,3.89-.98,7.53-2.64,10.76-5.06,8.99-6.77,8.23-17.05-1.66-22.33-4.31-2.3-8.99-3.65-13.69-4.89-16.37-4.31-32.95-7.91-48.78-14.1-11.07-4.32-21.67-9.53-31.42-16.36-27.06-18.98-57.39-30.8-88.65-40.59-1.54-.48-3.09-.98-4.65-1.41-4.11-1.14-7.01.06-7.92,3.26-.9,3.17.87,5.71,4.98,7.02,4.27,1.36,8.59,2.56,12.85,3.98,26.19,8.73,51.78,18.83,74.61,34.73,16.33,11.38,34.12,19.56,53.19,24.99,12.09,3.45,24.31,6.47,36.45,9.76,2.28.62,4.5,1.46,6.67,2.39,1.32.56,3.25,1.01,3.32,2.65.07,1.78-1.81,2.53-3.19,3.33-4.28,2.49-9.04,3.54-13.85,4.25-4.06.6-8.17,1.09-12.31.88Z" class="cls-1"/><path d="m113.07,107.63c-.55,33.3-1.07,66.61-1.7,99.91-.07,3.79,1.21,6.16,4.55,8.16,11.99,7.19,19.55,17.26,19.18,31.94-.17,6.85-3.39,10.22-10.24,10.96-4.65.5-9.25.11-13.7-1.23-3.72-1.11-6.48-.3-8.88,2.77-2.23,2.85-4.92,5.29-7.92,7.37-12.44,8.61-27.6,1.38-29-13.81-.75-8.11,1.64-15.53,4.91-22.75,2.94-6.5,6.58-12.61,10.94-18.24,1.96-2.54,2.66-5.16,2.67-8.29.03-53.14.13-106.29.21-159.43.02-12.1.03-24.2.03-36.3,0-1.12.11-2.27-.1-3.36-.55-2.98-2.4-4.65-5.47-4.53-2.87.12-4.59,1.77-4.94,4.65-.15,1.23-.08,2.49-.08,3.74-.15,64.12-.3,128.24-.39,192.36,0,2.89-.8,5.17-2.45,7.55-8.3,12.01-14.99,24.73-16.09,39.68-1.18,16.02,9.85,30.81,25.04,33.29,8.91,1.46,16.88-1.74,22.95-7.72,5.1-5.02,10.05-6.52,16.76-5,3.75.85,7.7,0,11.45-1.09,8.53-2.46,13.98-8.97,14.74-17.8,1.55-17.91-6.25-31.34-20.41-41.48-2.38-1.71-3.01-3.41-2.97-6.13,1.1-64.61,2.12-129.22,3.14-193.83.02-1.37.15-2.77-.06-4.11-.45-2.83-2.28-4.49-5.09-4.55-2.84-.06-4.67,1.58-5.26,4.36-.23,1.08-.13,2.24-.15,3.36-.57,33.18-1.13,66.36-1.7,99.53,0,0,.01,0,.02,0Z" class="cls-1"/><path d="m186.13,88.31c-2.52.08-4.25,1.28-5.06,3.69-.77,2.3-.02,4.24,1.8,5.64,1.16.89,2.6,1.45,3.95,2.07,53.66,24.92,79.42,86.62,59.4,142.31-.25.7-.53,1.4-.75,2.11-1.03,3.42.24,6.27,3.23,7.3,2.75.95,5.5-.47,6.76-3.7,2.63-6.74,4.59-13.7,5.95-20.8,10.8-56.65-18.46-113.36-70.7-137.14-1.47-.67-2.89-1.48-4.58-1.48Z" class="cls-1"/><path d="m185.28,174.59c.09,4.07,3.61,6.19,7.93,4.88,8.22-2.5,16.41-5.1,24.61-7.66,2.26-.7,4.55-1.32,6.76-2.14,2.96-1.1,4.41-3.24,3.6-6.43-.76-3-3.44-4.55-6.75-3.57-10.86,3.23-21.67,6.61-32.47,10.04-2.35.75-3.54,2.64-3.68,4.88Z" class="cls-1"/><path d="m214.64,198.61c3.43.12,5.86-1.72,6.14-4.81.27-3.05-1.79-5.31-5.48-5.74-7.53-.88-15.06-1.69-22.6-2.46-3.58-.37-6.15,1.49-6.56,4.56-.39,2.95,1.73,5.56,5.31,5.99,7.65.92,15.31,1.65,23.2,2.47Z" class="cls-1"/><path d="m199.41,140.78c-1.51-.08-2.87.71-4.07,1.89-5.43,5.31-10.92,10.58-16.29,15.95-2.64,2.64-2.76,5.67-.58,7.92,2.12,2.19,5.37,2.14,7.98-.35,5.58-5.34,11.07-10.78,16.59-16.18,1.81-1.76,2.25-3.89,1.32-6.16-.83-2.01-2.49-3.05-4.95-3.07Z" class="cls-1"/></g></g></svg>