<svg xmlns="http://www.w3.org/2000/svg" id="Capa_2" width="406.951" height="504.147" data-name="Capa 2" viewBox="0 0 401.83 381.71"><defs><style>.cls-1{fill:#049ae7}</style></defs><g id="Capa_1-2" data-name="Capa 1"><g><path d="m401.83,335.98c-2.78,9.81-9.78,15.08-18.98,18.55-12.69,4.78-24.68,11.33-37.71,15.32-10.36,3.17-20.96,4.28-31.76,3.8-4.33-.19-6.73-2.39-6.65-6.06.08-3.62,2.6-5.89,6.95-5.67,15.24.77,29.52-2.75,43.27-9.11,7.94-3.67,16.04-6.97,24.07-10.45,1.18-.51,2.5-.78,3.54-2.1-9.74-9.38-20.96-16.29-33.7-20.73-9.07-3.17-18.41-4.8-28.06-4.83-13.46-.04-26.53-2.35-38.96-7.64-2.53-1.08-3.36-.74-3.57,2.1-.85,11.94-4.55,23.03-10.74,33.22-1.49,2.44-.92,3.53,1.2,4.91,5.05,3.29,10.28,6.19,15.85,8.51,4.22,1.76,5.78,4.89,4.38,8.29-1.36,3.29-4.72,4.25-9.04,2.51-6.57-2.65-12.78-5.99-18.49-10.17-1.88-1.38-2.94-1.54-4.76.33-32.54,33.27-82.91,33.25-115.51-.02-1.57-1.6-2.44-1.88-4.44-.53-29.89,20.09-61.47,23.02-94.61,8.99-9.86-4.17-19.66-8.49-29.51-12.68-9.72-4.14-14.38-11.44-14.57-22-.93-52.36,10.92-101.54,36.4-147.37,3.04-5.46,4.56-11.36,5.15-17.54,2.43-25.2,10.04-48.76,22.39-70.82,2.3-4.1,5.39-5.37,8.59-3.63,3.25,1.77,4.03,5.2,1.78,9.16-12.31,21.7-19.18,45.07-21.56,69.84-.65,6.73-2.91,12.97-6.18,18.85-18.93,34.04-30.17,70.47-33.72,109.24-.92,10-1.34,20.03-.94,30.72,2.79-2.19,5.16-4.1,7.6-5.94,5.75-4.35,11.91-8.03,18.5-10.98,3.94-1.76,7.26-.94,8.81,2.1,1.64,3.23.2,6.65-3.81,8.5-9.57,4.41-18.01,10.41-26.1,17.94,6.03,2.63,11.6,5.12,17.23,7.49,11.29,4.76,22.22,10.51,34.49,12.58,22.72,3.84,43.61-.68,62.72-13.55,1.74-1.17,2.62-2.04,1.24-4.29-6.4-10.4-10.15-21.72-11.05-33.93-.16-2.17-.55-3.06-3.04-1.99-13.42,5.77-27.55,7.86-42.07,7.9-2.34,0-4.69.38-7.03.54-3.83.27-6.69-1.82-7.12-5.18-.42-3.29,1.91-6.11,5.81-6.45,7.16-.61,14.35-.83,21.5-1.46,10.52-.93,20.42-4.12,29.96-8.6,2.3-1.08,2.34-2.9,2.68-4.75,4.79-26.48,19.28-45.81,42.96-58.37,1.27-.67,2.58-1.27,3.9-1.84,1.01-.43,1.9-.88,1.81-2.21-.68-9.48-1.41-18.95-2.99-28.7-10.72,5.53-19.03,13.1-24.94,23.11-9.54,16.16-22.47,28.75-38.83,37.86-.23.13-.45.26-.68.39-4.28,2.49-7.69,2.13-9.63-1.02-1.96-3.19-.76-6.5,3.46-8.98,6.1-3.58,12.07-7.32,17.38-12.02,4.21-3.72,8.11-7.71,11.82-12.93-8.54-.39-15.25-4.58-22.43-7.48-3.17-1.28-6.58-1.52-10.01-1.59-3.95-.08-6.31-2.54-6.18-6.07.12-3.32,2.48-5.54,6.26-5.62,7.34-.17,14.25,1.58,20.67,5.15,5.16,2.87,10.69,4.03,16.56,4.06,2.04.01,3.34-.59,4.54-2.3,7.3-10.36,16.74-18.28,28.15-23.76,2.03-.98,2.57-2.12,2.29-4.25-1.09-8.03-2.13-16.07-2.96-24.12-.23-2.26-1.08-2.8-3.17-2.76-9.79.16-18.79,2.83-27,8.17-.77.5-1.48,1.08-2.25,1.58-3.34,2.17-6.7,1.82-8.71-.88-2.16-2.9-1.44-6.11,2.01-8.77,3.09-2.39,6.55-4.2,10.4-6.3-4.55-3.39-9.44-4.87-14.42-6.16-.88-.23-1.81-.28-2.68-.54-3.36-1.02-5.05-3.62-4.48-6.79.55-3.08,3.14-5.07,6.68-4.58,8.97,1.23,17.23,4.51,24.33,10.09,3.36,2.64,6.45,3.49,10.69,2.77,6.82-1.15,6.83-.81,5.98-7.75-3.07-25.03-6.12-50.07-9.16-75.1-1.05-8.69-6.49-13.26-15.17-12.75-13.36.78-24.84,5.79-34.16,15.44-4.26,4.42-8.24,9.11-12.44,13.59-2.34,2.49-5.78,2.76-8.09.68-2.46-2.21-3.16-5.09-1.08-7.71,10.76-13.52,22.36-26.02,39.77-31.11,5.56-1.63,11.21-2.54,16.98-2.7,13.65-.39,24.31,9.08,25.89,22.69,1.97,17,4.11,33.99,6.17,50.98.06.48.18.95.4,2.11,4.95-7.67,7.83-15.55,8.03-23.91.44-18.41,1.17-36.86-.46-55.26-.66-7.48-3.57-14.42-5.92-21.47-.45-1.36-.97-2.71-1.31-4.1-.83-3.36.63-6.3,3.55-7.31,2.97-1.03,6.23.27,7.39,3.45,4.53,12.4,8.91,24.85,8.84,38.34-.07,12.68-.2,25.37.05,38.05.33,17-4.5,32.23-14.99,45.56-2.44,3.1-3.35,6.01-2.63,10.01,1.25,7.03,1.79,14.18,2.74,22.19,6.41-7.78,12.27-14.9,18.14-22.03.66-.81,1.31-1.63,1.98-2.43,3.89-4.62,7.46-4.68,11.28-.07,5.43,6.54,10.79,13.14,16.18,19.7,1.14,1.38,2.31,2.73,3.98,4.68,1.14-9.24,2.19-17.74,3.22-26.24.27-2.26-1.49-3.56-2.64-5.04-8.26-10.68-13.69-22.53-14.96-36.05-.48-5.06-.49-10.19-.4-15.28.26-14.24-.83-28.5.71-42.72,1.08-9.98,4.8-19.22,8.06-28.58,1.12-3.23,4.32-4.55,7.33-3.57,3.08,1.01,4.62,4.06,3.57,7.63-2.12,7.26-5.22,14.22-6.6,21.71-.71,3.86-1.31,7.73-1.31,11.67,0,14.52-.06,29.03.03,43.55.06,8.79,2.47,17.01,6.54,24.77.3.58.65,1.13,1.03,1.66.13.18.41.25.97.57,1.34-10.99,2.67-21.81,3.98-32.64.85-7.01,1.55-14.03,2.51-21.02,1.79-12.99,12.47-21.98,25.66-21.6,16.52.48,30.88,6.34,42.62,18.02,30.91,30.72,48.7,67.78,53.27,111.14.72,6.86,2.74,13.24,6.12,19.26,2.62,4.66,5.02,9.46,7.31,14.29,1.47,3.08.39,5.76-2.47,7.36-2.88,1.61-6.06,1.15-7.53-1.79-5.25-10.46-12.53-20.12-14.27-32.04-1.61-10.99-2.75-22.03-5.68-32.79-8.24-30.2-23.45-56.31-46.01-78.02-9.23-8.88-20.54-13.26-33.32-13.67-7.89-.25-13.16,4.42-14.1,12.23-3.2,26.6-6.35,53.2-9.66,79.78-.32,2.57.14,3.04,2.74,3.46,6.54,1.08,11.86-.17,17.2-4.47,5.83-4.7,13.13-6.93,20.57-8.15,4.82-.79,8.17,2.06,7.65,6.3-.42,3.43-2.82,4.8-5.89,5.33-5.47.95-10.52,2.97-15.69,6.06,3.4,2.14,6.61,4,9.64,6.1,4.12,2.85,5.02,6.11,2.79,9.2-2.17,3-5.64,3.17-9.66.33-8.36-5.9-17.67-8.83-27.87-9.12-2.3-.07-3.44.33-3.69,3.06-.72,7.8-1.78,15.58-2.86,23.34-.33,2.39.15,3.77,2.51,4.89,11.32,5.39,20.58,13.32,27.84,23.53,1.19,1.67,2.43,2.38,4.5,2.37,6-.03,11.63-1.28,16.91-4.21,6.17-3.43,12.85-5.09,19.92-5.01,4.25.04,6.78,2.34,6.73,5.95-.05,3.46-2.47,5.74-6.52,5.76-5.63.03-10.81,1.5-15.71,4.23-4.85,2.7-10.11,4.16-15.55,4.77-.58,1.43.55,2.03,1.14,2.77,6.61,8.27,14.68,14.84,23.78,20.2,1.58.93,3.19,1.8,4.7,2.83,3.08,2.1,3.92,5.32,2.24,8.14-1.67,2.79-4.97,3.66-8.24,1.88-15.78-8.59-29.16-19.86-38.53-35.38-5.83-9.66-12.86-18.1-22.54-24.09-1.43-.88-2.92-1.66-5.02-2.84-.79,7.57-1.13,14.73-2.38,21.72-1.1,6.16.76,9.07,6.52,12.08,23.19,12.15,37.09,31.55,41.64,57.43.48,2.74,1.62,4.27,4.14,5.43,11.06,5.08,22.65,8.46,34.78,8.44,26.89-.05,50.55,8.23,71.29,26.3,0-7.01.26-13.57-.05-20.11-1.28-26.93-6.54-53.09-15.57-78.51-1.5-4.21-.68-7,2.27-8.53,3.48-1.81,7.04-.2,8.59,4.1,5.77,16.01,10.11,32.4,12.89,49.19,1.6,9.67,2.84,19.39,3.32,29.2.06,1.13.4,2.25.62,3.37v28.25Zm-200.78,33.84c37.54-.04,68.15-30.74,68-68.18-.16-37.39-30.6-67.72-68.01-67.76-37.6-.04-68.19,30.46-68.18,67.97,0,37.5,30.63,68.02,68.2,67.97Zm23.45-193.78c.44-1.61-.39-2.74-1.34-3.88-6.81-8.25-13.65-16.49-20.36-24.83-1.48-1.84-2.23-1.82-3.7.01-6.21,7.74-12.44,15.46-18.93,22.96-2.37,2.73-3.02,5.37-2.57,8.86,1.77,13.71,3.82,27.4,4.57,41.22.16,2.94.95,3.81,4,3.14,8.1-1.78,16.32-1.92,24.53-.82,8.42,1.13,8.4,1.23,9.24-7.42.06-.65.17-1.29.24-1.94,1.44-12.44,2.87-24.88,4.31-37.3Z" class="cls-1"/><path d="m155.34,301.87c0-3.92-.02-7.84,0-11.76.04-5.69,1.85-7.56,7.43-7.61,5.1-.04,10.2-.16,15.29.05,2.81.12,3.57-.9,3.48-3.57-.18-5.09-.09-10.19-.04-15.29.05-5.34,2.1-7.51,7.28-7.56,8.1-.08,16.21-.07,24.31,0,5.2.05,7.25,2.21,7.31,7.54.06,4.97.17,9.94-.05,14.9-.13,2.98.63,4.17,3.86,4,5.21-.27,10.45-.13,15.68-.05,4.6.08,6.62,2.13,6.65,6.79.06,8.37.06,16.73,0,25.1-.04,4.66-2.07,6.69-6.68,6.75-5.1.07-10.21.28-15.29-.07-3.65-.25-4.41,1.11-4.23,4.42.26,4.82.11,9.67.06,14.51-.06,5.31-2.12,7.52-7.29,7.57-8.1.09-16.21.08-24.31,0-5.18-.05-7.24-2.25-7.3-7.56-.05-4.71-.34-9.44.08-14.11.38-4.2-1.24-5.07-5.03-4.82-4.82.32-9.67.13-14.5.06-4.62-.06-6.62-2.08-6.69-6.73-.07-4.18-.01-8.37-.02-12.55Zm37.91,22.99c.46,3.15-1.72,8.03.86,10.32,2.48,2.2,7.26.36,11.01.69,2.67.23,3.71-.61,3.6-3.45-.21-5.22-.09-10.45-.05-15.67.05-5.29,2.04-7.28,7.39-7.33,5.36-.06,10.71-.09,16.07.02,2.01.04,2.81-.55,2.72-2.65-.15-3.13-.21-6.28.02-9.4.2-2.74-.99-3.25-3.4-3.18-5.35.14-10.71.12-16.07.02-4.61-.08-6.65-2.17-6.72-6.79-.08-5.62-.08-11.23,0-16.85.03-1.99-.6-2.84-2.68-2.76-3,.13-6.02.2-9.01-.02-2.86-.22-3.95.62-3.81,3.66.25,5.21.11,10.45.05,15.67-.06,5.04-2.09,7.01-7.21,7.1-2.35.04-4.71-.1-7.05.03-3.86.22-9.13-1.74-11.19.85-1.94,2.43-.45,7.49-.73,11.37-.19,2.61,1,3,3.22,2.95,5.48-.12,10.97-.13,16.46,0,4.35.11,6.38,2.27,6.5,6.63.07,2.74.01,5.49.01,8.8Z" class="cls-1"/></g></g></svg>