<svg xmlns="http://www.w3.org/2000/svg" id="Capa_2" width="406.951" height="504.147" data-name="Capa 2" viewBox="0 0 374.2 383.21"><defs><style>.cls-1{fill:#049ae7}</style></defs><g id="Capa_1-2" data-name="Capa 1"><g><path d="m285.19,383.21c-5.27-1.36-10.7-1.97-15.96-3.45-2.04-.58-2.68,2.42-4.25,3.45-87.08,0-174.16,0-261.24,0-1.76-1.39-3.64-2.77-3.66-5.29-.06-5.11-.17-10.23.04-15.34.13-3.2,2.76-5.33,5.75-5.21,3.01.12,5.15,2.32,5.34,5.64.11,1.87.23,3.77-.01,5.61-.39,2.96.9,3.49,3.57,3.43,8.11-.17,16.22-.06,24.33-.06q6.37,0,6.38-6.19c0-1.12-.03-2.25.04-3.37.2-3.19,1.86-5.11,5.07-5.44,3.08-.32,5.52,1.64,5.96,4.91.26,1.96.31,4,.11,5.97-.32,3.11.48,4.25,3.98,4.21,17.46-.21,34.93-.1,52.4-.1,4.19,0,4.2-.02,2.25-3.83-14.64-28.61-29.28-57.23-43.93-85.84-1.64-3.21-2.62-7.69-5.26-9.2-2.89-1.65-7.11.89-10.71,1.73-19.33,4.48-32.99,15.75-40.45,34.27-3.43,8.51-3.87,17.44-3.71,26.47.08,4.22-1.98,6.56-5.42,6.65-3.56.09-5.71-2.38-5.78-6.72-.04-2.37-.02-4.74,0-7.11.25-30.99,21.42-57.31,51.66-64.23,7.89-1.8,15.81-3.49,23.69-5.37,2.43-.58,5.04-.68,7.29-1.97-.17-.37-.19-.52-.28-.59-.87-.7-1.75-1.4-2.63-2.09-12.83-10.1-22.23-22.72-28.31-37.89-5.41-13.5-6.45-27.58-5.94-41.88.08-2.35-.61-3.79-2.59-5.22-16.86-12.21-16.86-36.41.02-48.46,2.01-1.43,2.59-2.9,2.58-5.22-.07-10.35-.17-20.71.13-31.06.41-14.09,4.46-27.23,11.36-39.49,1.89-3.35,4.92-4.4,7.81-2.89,2.88,1.5,3.72,4.65,2.13,8.04-.42.9-.93,1.76-1.39,2.65-4.09,7.79-6.81,16.03-8.02,24.75-1.52,10.93-.43,21.93-.9,32.89-.16,3.69.55,5.65,4.73,4.86,1.45-.27,2.99-.09,4.48-.03,3.69.17,5.68,2.13,5.93,5.84.08,1.12.13,2.26,0,3.36-.26,2.24.49,3.09,2.87,3,5.11-.19,10.23.07,15.34-.13,14.44-.57,25.39-7.22,33-19.42,3.86-6.19,5.37-13.07,5.7-20.28.14-3.17,1.9-5.09,5.12-5.38,3.09-.28,5.42,1.68,5.98,4.93.15.85.13,1.74.16,2.61.73,17.69,13.96,33.18,31.35,36.77,6.43,1.33,12.93.72,19.4.82,5.8.09,5.8.02,6.01-5.83.16-4.37,2.07-6.23,6.54-6.31,2.12-.04,4.25-.06,6.36.06,1.58.09,2.25-.41,2.21-2.08-.3-12.09,1.12-24.28-.99-36.24-5.18-29.36-21.64-50.24-49.56-60.68-27.77-10.38-53.68-5.32-76.93,13.11-.88.7-1.68,1.53-2.64,2.07-2.6,1.47-5.12,1.19-7.09-1.08-1.96-2.27-1.92-4.84-.05-7.17.92-1.15,2.14-2.09,3.31-3.02C99.4,3.01,123.75-3.16,150.84,1.5c37.38,6.43,68.03,39.64,71.58,77.4,1.14,12.08.42,24.18.54,36.28.02,2.62.71,4.2,2.91,5.8,15.04,10.94,16.76,33.12,2.87,45.25-4.77,4.16-6.5,8.12-5.73,13.87.12.86.02,1.74.01,2.62-.19,29.74-11.97,53.79-35.33,72.19-.7.55-1.92.78-1.75,2.25,10.89,2.5,21.81,4.95,32.68,7.56,2.09.5,2.56-.71,3.35-2.01,18.83-31.03,46.31-44.84,82.43-41.11,7.98.82,15.6,3.29,22.84,6.76,3.11,1.49,4.19,4.29,3.08,7.11-1.19,3.01-4.03,4.25-7.39,3.18-.94-.3-1.83-.79-2.75-1.17-7.42-3.13-15.16-5-23.19-5.38-44.36-2.08-78.87,35.3-73.29,79.33,4.91,38.77,42.59,66.72,80.96,59.53,26.94-5.05,45.75-20.73,54.51-46.75,8.76-26.03,3.07-49.64-15.2-70.17-.66-.74-1.43-1.42-1.96-2.25-1.6-2.52-1.51-5.05.64-7.15,2.15-2.1,4.72-2.17,7.16-.48,1.21.84,2.2,2.02,3.2,3.12,39.41,43.27,21.4,112.84-34.02,131.67-5.92,2.01-12.08,2.77-18.08,4.28-5.24,0-10.48,0-15.72,0ZM126.71,121.71c-9.8,10.56-21.81,16.36-36.28,16.79-5.36.16-10.73.06-16.09.07-1.28,0-2.59-.1-2.52,1.81.52,14.05-1.49,28.22,1.49,42.15,6.51,30.48,33.93,50.63,66.11,48.76,29.2-1.69,54.05-26.14,56.84-56.08,1.06-11.32.2-22.69.48-34.03.06-2.28-.97-2.63-2.92-2.66-7.35-.11-14.73.63-22.04-.57-15.84-2.6-27.82-10.96-36.19-24.59-.38-.62-.78-1.22-1.37-2.14-2.41,3.77-4.63,7.36-7.51,10.47Zm82.86,250.31c1.88,0,2.33-.76,2.26-2.44-.09-2.36-.11-4.74.02-7.1.18-3.3,2.36-5.45,5.41-5.51,3.05-.07,5.33,2.01,5.73,5.24.06.49.03,1,.04,1.49q.19,8.3,8.68,8.3c6.23,0,12.46,0,18.71,0,.25-1.33-.88-1.41-1.48-1.81-30.7-20.46-43.92-56.22-33.66-91.51.77-2.66.17-3.51-2.33-3.92-3.54-.59-7.55-2.76-10.44-1.72-2.98,1.08-3.7,5.85-5.33,9.03-14.73,28.68-29.39,57.4-44.06,86.11-.55,1.08-1.04,2.2-1.79,3.81,19.84,0,39.04-.02,58.23.03Zm-32.19-81.67c2.14.01,3.38-.57,4.33-2.57,2.41-5.05,4.92-10.07,7.65-14.96,1.45-2.6.64-3.27-1.91-3.81-8.16-1.72-16.27-3.64-24.41-5.48-5.36-1.21-6.49-2.63-6.51-8.23-.01-4.36-.07-8.73.03-13.09.04-2.03-.17-2.86-2.63-2.17-13.13,3.68-26.34,3.67-39.47-.01-2.55-.71-2.69.24-2.66,2.22.07,4.74.07,9.47,0,14.21-.06,4.39-1.38,5.97-5.72,6.95-8.25,1.87-16.5,3.81-24.78,5.51-2.83.58-3.79,1.24-2.08,4.16,2.69,4.62,5.08,9.43,7.33,14.28,1.05,2.27,2.35,3.02,4.84,3,14.33-.12,28.67-.06,43.01-.06,14.34,0,28.67-.04,43.01.05Zm-6.33,11.19c-24.45,0-48.89.05-73.34-.07-3.43-.02-3.62.69-2.12,3.6,11.1,21.46,22.11,42.98,32.99,64.55,1.17,2.32,2.71,2.61,4.76,2.35,2.26-.28,4.79,1.07,6.42-2.16,11.22-22.24,22.61-44.4,33.94-66.58.16-.32.26-.68.58-1.53-1.3-.07-2.27-.16-3.24-.16Zm-3.29-51.69c.04,3.82.37,4.06,3.72,2.18,15.88-8.9,27.42-21.7,34.49-38.51,4.88-11.61,6.25-23.77,5.81-36.22-.04-1.07.64-2.66-1.5-2.71-2.01-.04-2.74.79-2.96,2.85-1.6,14.78-7.34,27.81-16.88,39.19-5.25,6.27-11.31,11.67-18.47,15.58-3.31,1.81-4.84,3.84-4.25,7.55.21,1.34.03,2.74.03,4.11,0,1.99-.02,3.99,0,5.98Zm-71.17,1.92c3.71,2.18,3.97,1.96,3.99-2.39.02-3.99-.08-7.97.04-11.96.06-1.98-.62-3.07-2.37-4.11-21.17-12.48-33.73-30.78-37.07-55.24-.1-.74-.21-1.48-.41-2.2-.41-1.5-1.72-1.19-2.78-1.24-1.31-.07-1.23,1-1.25,1.84-.04,2.49-.01,4.98-.01,7.47,1.1,29.77,14.02,52.61,39.86,67.83Zm-35.95-122.72c.06-2.2-.7-2.76-2.8-2.58-8.83.77-16.26,9.14-16.27,18.46,0,9.37,7.42,17.69,16.26,18.41,2.15.18,2.85-.41,2.81-2.57-.12-5.35-.04-10.7-.04-16.05,0-5.23-.09-10.45.05-15.67Zm147.26,31.27c-.11,2.85.96,3.3,3.5,2.93,8.81-1.27,15.61-9.43,15.45-18.77-.15-8.97-7.37-17-15.99-17.99-2.37-.27-3.02.5-2.95,2.79.14,5.23.04,10.47.04,15.71,0,5.11.15,10.23-.06,15.33Z" class="cls-1"/><path d="m245.81,288.4c2.38,4.83,4.47,10.14,10.34,12.5,8.73,3.51,12.24,13.96,7.89,22.25-4.34,8.26-14.88,11.14-22.84,6.22-8-4.94-10.63-15.99-4.41-23.01,3.72-4.2,2.71-6.43.15-10.34-6.2-9.48-1.17-21.89,9.61-24.78,2.57-.69,5.21-.62,7.81-.46,2.44.15,3.37-.69,3.99-3.14,4.07-16.17,18.27-27.23,34.63-27.22,16.44.01,30.72,11.04,34.69,27.13.67,2.73,1.77,3.38,4.28,3.22,4.28-.28,8.46.09,12.22,2.55,8.36,5.47,9.95,15.73,3.57,24.85-1.75,2.5-2.41,3.91.3,6.56,6.84,6.67,5.71,17.89-1.85,23.71-7.39,5.7-18.17,3.91-23.36-3.88-5.26-7.91-2.78-19.23,5.95-23,5.82-2.51,8.13-7.39,11.04-11.97,2.13-3.35-.24-7.16-4.24-7.56-1.36-.14-2.75.04-4.11-.08-2.21-.21-3.21.47-3.77,2.88-1.82,7.75-5.87,14.27-12.19,19.18-2.36,1.83-3.45,3.94-3.66,6.93-1,13.93-2.16,27.84-3.31,41.76-.42,5.13-3.25,8.51-8.03,10.23-2.63.95-5.42.68-8.16.68-10.48,0-14.46-3.7-15.25-14.1-.98-12.93-2.08-25.85-2.94-38.79-.19-2.9-1.31-4.86-3.52-6.6-5.98-4.67-10.09-10.75-11.92-18.08-.82-3.31-2.04-4.9-4.93-4.07-6.26.01-9.77,2.78-7.97,6.43Zm31.62,6.75c5.02,3.98,7.62,8.78,7.98,15.27.7,12.8,1.95,25.58,2.84,38.37.18,2.56.82,4.02,3.72,3.61,2.42-.34,5.5,1.23,5.78-3.41.79-13.05,2.1-26.07,2.9-39.12.38-6.2,3.05-10.7,7.76-14.6,12.84-10.64,12.06-29.89-1.52-39.17-7.96-5.44-16.54-6.08-25.11-1.63-8.68,4.51-13.06,11.95-13.32,20.87.1,8.57,2.95,15.04,8.96,19.81Zm-27.38,25.33c2.8-.17,4.81-2.47,4.5-5.29-.33-2.93-2.17-4.41-5.01-4.47-2.67-.06-4.88,2.48-4.75,5.17.14,2.78,2.42,4.77,5.26,4.59Zm86.52,0c2.96-.2,4.49-1.98,4.67-4.82.16-2.63-2.34-5.01-4.98-4.98-2.75.03-4.87,2.29-4.79,5.1.07,2.82,2.27,4.89,5.11,4.69Z" class="cls-1"/><path d="m72.76,331.02c-3.03.36-5.26,1.75-5.53,5.01-.16,1.87-.89,2.49-2.7,2.71-3.14.38-4.97,2.35-4.92,5.55.05,3.18,1.84,5.14,5.06,5.39,1.7.13,2.37.76,2.51,2.46.26,3.2,2.15,5.04,5.35,5.11,3.2.08,5.25-1.69,5.58-4.86.22-2.09,1.16-2.57,3.04-2.8,3.05-.37,4.61-2.51,4.61-5.43,0-2.76-1.52-4.86-4.35-5.28-2.16-.32-3.18-1-3.41-3.34-.29-2.86-2.49-4.11-5.22-4.53Z" class="cls-1"/></g></g></svg>