<?xml version="1.0" encoding="UTF-8"?>
<svg id="Capa_2" data-name="Capa 2" xmlns="http://www.w3.org/2000/svg" width="406.951" height="504.147" viewBox="0 0 447.26 359.48">
  <defs>
    <style>
      .cls-1 {
        fill: #049ae7;
      }
    </style>
  </defs>
  <g id="Capa_1-2" data-name="Capa 1">
    <g>
      <path class="cls-1" d="m447.26,172.05c-2.18,4.85-5.95,6.54-11.21,6.47-15.43-.2-30.86,0-46.29-.13-2.7-.02-4.15.87-5.43,3.21-5.54,10.16-12.63,19.17-20.81,27.35-46.53,46.52-93.04,93.06-139.58,139.57-14.61,14.6-33.32,14.6-47.9.06-17.31-17.27-34.59-34.58-51.87-51.88-1.03-1.03-2.09-2.06-2.9-3.25-2.47-3.65-1.91-8.12,1.25-11.12,2.9-2.76,7.53-3.2,10.86-.86,1.41.99,2.63,2.29,3.86,3.53,16.99,16.98,33.96,33.97,50.95,50.95,8.01,8,15.47,8.03,23.47.03,46.43-46.41,92.84-92.84,139.25-139.28,5.33-5.33,10.27-10.97,14.26-17.47-1.74-1.26-3.39-.75-4.91-.75-19.36-.04-38.72-.22-58.08.09-6.03.09-10.64-1.44-14.48-6.2-2.23-2.76-4.53-7.2-7.73-7.02-2.72.16-5.48,3.97-7.77,6.56-4.49,5.07-9.87,7.81-16.59,6.47-10.71-2.13-16.56,2.31-19.58,12.5-1.68,5.65-4.83,10.87-7.36,16.27-2.42,5.15-5.73,7.36-10,6.76-4.3-.6-6.84-3.44-7.8-9.21-2.79-16.63-5.48-33.28-8.21-49.93-.11-.68-.31-1.34-1.35-2.1-1,5.85-2.01,11.7-2.99,17.56-1.16,6.88-2.24,13.78-3.47,20.65-1.44,7.99-8.65,10.71-14.99,5.59-6.22-5.03-12.34-10.2-18.37-15.47-2.11-1.84-4.26-2.88-7.08-2.59-1.58.16-3.22-.12-4.8.06-5.72.64-10.67-.8-14.56-5.19-1.88-2.12-3.64-2.47-5.7-.14-3.98,4.49-9.05,5.89-14.94,5.36-3.76-.34-7.57.04-11.35-.16-4.88-.26-8.31-3.71-8.54-8.26-.23-4.6,3.34-9.32,8.21-8.93,9.75.77,17.71-1.73,24.62-8.84,2.71-2.79,7.22-2.54,10,.33,6.66,6.87,14.38,9.7,23.84,8.34,2.69-.39,5.01,1.11,7.08,2.88,3.62,3.11,7.31,6.13,11.63,9.73,1.54-9.09,2.98-17.46,4.38-25.84,2.92-17.5,5.8-35,8.73-52.49.91-5.4,4.24-8.44,8.95-8.35,4.54.09,7.75,3.06,8.61,8.25,4.1,24.67,8.15,49.35,12.23,74.02.28,1.68.65,3.35,1,5.17,1.73-.99,2.11-2.66,2.56-4.08,2.37-7.44,7.39-10.22,15.02-9.44,4.18.43,8.44-.06,12.65.12,2.81.12,4.97-.63,6.99-2.65,3.92-3.9,8.03-7.61,12.12-11.33,5.73-5.21,9.91-5.02,15.36.66,3.23,3.36,6.53,6.66,9.58,10.17,1.96,2.27,4.08,3.19,7.14,3.17,21.83-.13,43.67-.13,65.5,0,3.07.02,4.58-.83,5.66-3.86,22.18-61.85-18.91-129.55-84.03-138.05-31.65-4.13-59.6,4.45-83.67,25.46-7.4,6.46-10.18,6.56-17.45.08C132.67-7.61,39.72,20.67,20.83,96.85c-8.97,36.19-.31,68.67,24.84,96.29,9.79,10.75,20.47,20.69,30.73,31.02,1.23,1.24,2.53,2.45,3.51,3.87,2.31,3.34,1.8,7.95-1,10.84-2.86,2.95-7.25,3.51-10.81,1.37-.62-.37-1.22-.81-1.72-1.32-12.42-12.69-25.78-24.49-37.33-37.99C-30.96,130.76,6.93,20.9,97.51,2.92c36.31-7.21,69.63.69,99.12,23.37,2.48,1.9,3.84,2.12,6.5.13C239.92-1.15,280.43-7.63,322.99,9.28c42.74,16.98,67.84,49.6,75.48,95.16,2.99,17.8,1.4,35.4-3.76,52.65-.98,3.26-.32,3.92,2.91,3.88,12.37-.15,24.75.12,37.12-.14,5.4-.12,9.64,1.25,12.51,5.98v5.24Z"/>
      <path class="cls-1" d="m109.26,260.57c.08,4.92-3.84,8.93-8.73,8.9-4.69-.03-8.61-3.86-8.72-8.55-.12-4.86,3.87-8.86,8.79-8.84,4.81.02,8.57,3.7,8.65,8.48Z"/>
    </g>
  </g>
</svg>