<svg xmlns="http://www.w3.org/2000/svg" id="Capa_2" width="406.951" height="504.147" data-name="Capa 2" viewBox="0 0 384 383.23"><defs><style>.cls-1{fill:#049ae7}</style></defs><g id="Capa_1-2" data-name="Capa 1"><g><path d="m384,186.37c-.98,4.48-1.78,9.01-2.97,13.43-2.89,10.76-8.11,20.33-15.26,28.86-2.83,3.38-6.02,4-8.75,1.77-2.77-2.26-2.83-5.39.05-8.86,10.89-13.14,15.87-28.24,15.73-45.25-.18-21.45-.02-42.9-.05-64.36-.04-34.2-22.63-60.96-56.34-66.77-27.06-4.67-51.54,11.43-57.3,37.67-2.7,12.3.96,28.1,8.65,36.78,3.34-4.22,6.85-8.25,11.36-11.24,1.25-.82,2.49-1.69,3.84-2.3,2.8-1.26,5.21-.43,6.86,2.03,1.7,2.51,1.25,5.02-.88,7.11-.88.86-2.03,1.44-3.06,2.15-19.25,13.23-19.27,41.41-.04,54.67,4.97,3.42,6.11,6.06,4.02,9.25-2.17,3.31-5.57,3.29-10.44-.04-3.53-2.42-6.61-5.31-9.33-8.6q-2.7-3.28-5.01.52c-13.39,22.01-6.59,50.64,15.39,64.22,17.32,10.69,35.17,9.1,53.14,1.75.81-.33,1.58-.75,2.37-1.12,4.2-1.95,7.47-1.21,8.97,2.02,1.45,3.12.03,5.99-3.93,8.01-5.37,2.72-10.99,4.76-16.86,6.07-21.23,4.72-40.86,1.73-57.48-13.12-14.6-13.05-21.1-29.59-19.36-49.21.12-1.31,1.01-3.14-.15-3.85-1.3-.79-2.81.57-4.05,1.34-5.73,3.53-8.99,8.69-9.07,15.42-.16,13.97,0,27.94-.11,41.91-.02,2.09.98,3.06,2.42,4.19,21.92,17.31,32.14,40.02,28.73,67.63-3.56,28.88-20.01,48.74-46.85,60.01-6,2.52-12.48,3.28-18.75,4.79h-15c-.69-.23-1.37-.57-2.08-.67-19.58-2.71-35.68-11.7-48-27.06-26.07-32.5-20.11-79.45,13.14-104.66,1.44-1.09,2.52-2.03,2.5-4.15-.11-13.96.02-27.93-.1-41.89-.06-6.26-2.91-11.25-8.05-14.86-1.51-1.06-3.38-2.83-4.96-1.97-1.49.81-.33,3.18-.18,4.82,2.78,31.63-21.64,60.55-53.36,63.12-36.37,2.95-70.5-20.68-80.36-55.75C1.78,195.65,1.01,190.97,0,186.37c0-10.48,0-20.96,0-31.44,1.87-2.51,3.97-4.64,7.48-3.33,3.44,1.27,3.84,4.16,3.8,7.35-.08,6.73-.07,13.47-.01,20.21.1,13.19,3.8,25.3,11.12,36.29,15.07,22.6,43.81,34.31,68.12,27.78,30.88-8.3,45.09-44.53,27.89-70.94-1.41-2.16-2.19-2.86-4.03-.29-3.23,4.5-7.46,8.03-12.24,10.86-2.55,1.51-5.02,1.46-7.21-.63-2.84-2.72-2.21-6.64,1.63-9.09,6.31-4.02,11.03-9.32,13.74-16.31,5.88-15.15.65-30.57-13.68-40.42-3.43-2.36-4.33-5.34-2.49-8.24,1.83-2.87,4.99-3.36,8.53-1.22,4.53,2.74,8.54,6.14,11.64,10.43,1.56,2.16,2.38,2.48,4.03-.03,18.84-28.62-.07-68.69-34.23-72.42-33.41-3.65-64.77,19.31-71.44,52.16-2.11,10.4-1.16,20.88-1.35,31.33-.06,3.18-.34,6.06-3.79,7.36C3.96,137.1,1.9,134.94,0,132.47,0,122.74,0,113.01,0,103.28c.24-.95.55-1.88.69-2.84,3.85-25.94,17.26-45.52,40.27-57.92,19.22-10.36,39.56-12.88,60.29-4.35,23.61,9.72,37.7,33.69,35.41,59.43-.12,1.32-.96,3.16.14,3.88,1.3.84,2.82-.54,4.04-1.31,6.1-3.81,9.15-9.34,9.15-16.53,0-25.57,0-51.14.01-76.72C150.02,2.6,152.19,0,155.64,0c3.45,0,5.6,2.6,5.6,6.94.02,25.7.07,51.39-.02,77.09-.05,15.45-10.87,27.58-26.24,29.74-.98.14-2.15-.06-2.63,1.04-1.82,4.16-4.3,7.99-6.77,12.05,22.97,1.81,42.09-11.45,47.41-32.39,1.59-6.26,1.11-12.64,1.2-18.99.05-3.11-.16-6.26.24-9.33.41-3.12,2.62-4.88,5.79-4.67,2.93.2,5.05,1.95,5.09,5,.12,8.6.93,17.27-.49,25.78-4.62,27.58-26.55,45.86-54.84,46.06q-6.22.04-6.2,6.14.02,6.68,6.68,6.73c31.27.21,54.71,23.51,54.96,54.67.07,8.61.13,17.22-.05,25.82-.07,3.23.48,4.98,4.23,4.26,2.79-.53,6.51,1.28,8.29-.54,1.93-1.97.56-5.71.63-8.67.26-9.72-.9-19.53.58-29.16,4.25-27.68,26.47-46.25,54.88-46.39q6.26-.03,6.24-6.06c0-1.37-.11-2.77.11-4.11.37-2.24-.59-2.8-2.66-2.72-5,.18-10.01,0-14.93-.99-26.18-5.23-44-26.62-44.15-53.32-.14-25.45-.03-50.89-.03-76.34,0-.87-.02-1.75.08-2.62.37-3.04,2.21-4.77,5.17-4.96,2.99-.19,5.02,1.42,5.69,4.35.33,1.43.29,2.97.3,4.46.04,25.7-.04,51.39.14,77.09.08,10.97,4.47,20.38,12.11,28.16,9.87,10.04,22.08,13.71,36.58,12.81-2.82-4.12-5.09-7.81-6.79-11.81-.46-1.08-1.43-1.17-2.46-1.34-16.79-2.74-26.62-14.27-26.63-31.25-.02-21.83,0-43.66,0-65.49,0-3.74-.08-7.49.03-11.23C222.89,2.35,225.25,0,228.36,0c3.1,0,5.39,2.33,5.62,5.8.07.99.02,2,.02,2.99,0,24.95.01,49.9,0,74.85,0,6.58,2.59,11.86,7.9,15.72,1.57,1.14,3.52,3.04,5.27,2.06,1.31-.73.21-3.23.06-4.92-2.73-30.81,20.96-59.61,51.69-62.79,38.44-3.97,74.14,21.42,82.94,59.01.82,3.49,1.44,7.04,2.15,10.56v83.09Zm-254.49,123.26c.05,34.45,28,62.36,62.47,62.37,34.47.01,62.45-27.88,62.52-62.33.07-34.57-28.05-62.66-62.66-62.58-34.43.08-62.38,28.12-62.32,62.54Zm128.94-146.98c-24.82-1.65-44.3,12.65-47.94,35.67-1.99,12.57-.43,25.41-.69,38.12-.03,1.22.61,1.78,1.67,2.12,3.65,1.18,7.29,2.4,11.26,3.71,0-12.15-.03-24.1,0-36.04.05-16.17,10.18-27.94,26.2-30.49,1.25-.2,2.47-.28,3.05-1.71,1.59-3.91,3.94-7.42,6.44-11.37Zm-97.19,79.68c3.77-1.3,7-2.63,10.35-3.48,2.2-.56,2.64-1.68,2.62-3.7-.08-8.97-.04-17.94-.03-26.91,0-3.99-.06-7.96-.9-11.89-4.83-22.49-26.41-36.52-47.59-33.43,2.34,3.61,4.66,7.13,6.26,11.03.58,1.43,1.74,1.57,3,1.78,16.29,2.68,26.24,14.31,26.29,30.73.03,11.83,0,23.66,0,35.87Z" class="cls-1"/><path d="m185.44,23.45c0,5.48.05,10.95-.02,16.43-.05,4-2.34,6.53-5.65,6.46-3.19-.07-5.5-2.48-5.53-6.28-.09-11.2-.09-22.4,0-33.6.03-4.05,2.37-6.5,5.74-6.44,3.35.06,5.41,2.5,5.46,6.64.06,5.6.01,11.2.01,16.8Z" class="cls-1"/><path d="m165.49,291.89c8.7,0,8.67,0,8.72-8.75.01-2.74-.02-5.51.4-8.2,1.37-8.76,8.74-14.87,17.55-14.79,8.69.08,15.79,6.14,17.27,14.73.75,4.34.45,8.72.31,13.07-.1,3,.58,4.28,3.86,4,3.47-.3,6.99-.12,10.49-.05,9.71.2,17.35,7.86,17.44,17.43.09,9.66-7.3,17.47-16.98,17.83-3.99.15-8,.16-11.99.02-2.18-.07-2.83.75-2.77,2.82.12,3.61.11,7.24,0,10.85-.31,10.51-8.07,18.34-17.96,18.2-9.82-.14-17.32-7.85-17.61-18.17-.1-3.37-.18-6.74.03-10.1.17-2.71-.57-3.83-3.5-3.63-3.73.25-7.5.14-11.24,0-9.7-.36-17.09-8.14-17.02-17.8.07-9.57,7.69-17.24,17.39-17.47,1.87-.04,3.75,0,5.62-.01Zm4.25,11.22c-2.87,0-5.75-.03-8.62,0-4.47.06-7.26,2.44-7.38,6.23-.12,4,2.64,6.57,7.33,6.63,5.75.07,11.5-.01,17.25.03,5.15.04,7.05,1.91,7.1,6.96.05,5.61-.03,11.23.03,16.84.05,4.95,2.56,7.97,6.51,7.99,3.95.02,6.52-3,6.58-7.92.06-5.61-.02-11.23.03-16.84.05-5.1,1.93-6.98,7.04-7.02,5.75-.05,11.5.03,17.25-.03,4.7-.05,7.49-2.6,7.4-6.57-.08-3.79-2.88-6.25-7.32-6.29-5.62-.05-11.25,0-16.87-.02-5.62-.02-7.46-1.8-7.49-7.31-.04-5.74.07-11.48-.04-17.21-.08-4.17-2.27-6.72-5.75-7.11-4.17-.46-7.19,2.32-7.29,7.05-.14,6.11.02,12.22-.07,18.33-.07,4.14-2.12,6.12-6.29,6.23-3.12.09-6.25.02-9.37.02Z" class="cls-1"/></g></g></svg>