<?xml version="1.0" encoding="UTF-8"?>
<svg id="Capa_2" data-name="Capa 2" xmlns="http://www.w3.org/2000/svg" width="406.951" height="504.147" viewBox="0 0 499.59 450.97">
  <defs>
    <style>
      .cls-1 {
        fill: #049ae7;
      }
    </style>
  </defs>
  <g id="Capa_1-2" data-name="Capa 1">
    <g>
      <path class="cls-1" d="m469.62,411.51c-11.69-11.7-23.4-23.39-35.06-35.13-1.05-1.06-1.62-1.27-2.63.05-2.04,2.68-4.47,5.01-7.11,7.09-1.11.87-1.04,1.36-.09,2.3,16.47,16.42,32.91,32.86,49.34,49.31,1.34,1.34,2.93,2.02,4.81,2.05,2.65.03,5.13-1.51,6.21-3.85,1.21-2.64.82-5.45-1.26-7.57-4.7-4.79-9.47-9.51-14.22-14.25Z"/>
      <path class="cls-1" d="m481.06,403.42c-13.03-13.03-26.05-26.08-39.11-39.08-1.05-1.05-1.46-1.92-.54-3.22.35-.5.55-1.12.78-1.7,16.11-41.48-13.98-84.37-59.91-84.4-5.8.04-14.04,1.71-21.98,5.19-40.54,17.82-49.76,71.83-16.91,101.49,19.29,17.41,41.59,20.85,65.82,11.37,1.42-.55,2.46-1,3.88.43,16.89,17.03,33.9,33.95,50.83,50.94,8.38,8.41,21.1,8.75,29.42.67,8.22-7.98,8.23-20.94-.04-29.43-4.03-4.14-8.15-8.18-12.23-12.27Zm-96.41-19.1c-26.86-.52-47.89-22.02-47.41-48.49.48-26.77,22.29-47.58,49.31-47.04,26.33.52,46.81,22.31,46.29,49.25-.5,25.66-22.49,46.79-48.18,46.29Zm100.45,49.02c-1.07,2.34-3.56,3.88-6.21,3.85-1.88-.03-3.47-.71-4.81-2.05-16.44-16.45-32.87-32.9-49.34-49.31-.95-.94-1.01-1.43.09-2.3,2.64-2.08,5.07-4.41,7.11-7.09,1-1.32,1.58-1.1,2.63-.05,11.66,11.74,23.37,23.42,35.06,35.13,4.74,4.75,9.51,9.47,14.22,14.25,2.08,2.12,2.47,4.93,1.26,7.57Z"/>
      <path class="cls-1" d="m396.3,54.29c16.33.22,32.66.21,48.99,0,11.21-.14,19.99-9.33,20.01-20.37.02-11.33-8.79-20.47-20.19-20.7-8.12-.16-16.24-.03-24.37-.03v.02c-8.13,0-16.25-.16-24.38.04-11.31.28-20.04,9.4-20.04,20.6,0,10.99,8.81,20.28,19.97,20.43Zm1.41-27.29c7.73-.01,15.46,0,23.18,0,7.88,0,15.77-.03,23.65.02,3.4.02,5.76,1.79,6.71,4.8.86,2.74-.16,5.75-2.53,7.47-1.32.96-2.81,1.3-4.41,1.3-15.61,0-31.22.03-46.84-.02-4.53-.02-7.44-2.92-7.35-7.02.09-3.93,3.1-6.54,7.57-6.55Z"/>
      <path class="cls-1" d="m365.23,136.46c18.98-.07,37.96-.03,56.94-.03,19.22,0,38.44-.01,57.66-.02,5.86,0,11.72-.05,17.58.03,1.57.02,2.22-.36,2.14-2.07-.14-3.04-.19-6.1.01-9.14.15-2.2-.62-2.67-2.7-2.66-21.88.07-43.75.04-65.63.04-2.19,0-4.38,0-6.56,0-19.69,0-39.38,0-59.06,0q-2.98,0-2.97,3.07c0,2.73.15,5.48-.04,8.2-.16,2.15.62,2.58,2.63,2.57Z"/>
      <path class="cls-1" d="m496.82,177.29c-21.94.07-43.89.04-65.83.04-21.79,0-43.58,0-65.36,0q-2.98,0-2.98,3.07c0,2.42-.02,4.84,0,7.26.03,3.71-.51,3.4,3.36,3.4,25.3.01,50.59.02,75.89.02,18.51,0,37.02-.03,55.52.03,1.6,0,2.21-.29,2.13-2.01-.14-3.04-.19-6.1.01-9.13.15-2.23-.66-2.68-2.74-2.67Z"/>
      <path class="cls-1" d="m362.6,78.98c-.15,2.19.6,2.7,2.72,2.69,31.26-.07,62.51-.05,93.77-.05,12.73,0,25.47-.03,38.2.04,1.7,0,2.36-.35,2.26-2.18-.16-2.88-.23-5.79,0-8.66.2-2.41-.59-2.95-2.93-2.94-21.79.09-43.59.06-65.38.06-21.96,0-43.92.02-65.87-.04-2.01,0-2.98.31-2.79,2.64.23,2.79.2,5.63,0,8.43Z"/>
      <path class="cls-1" d="m365.62,245.78c34.83,0,69.66,0,104.49,0,8.9,0,17.8-.05,26.69.04,2.02.02,2.93-.35,2.76-2.63-.22-2.87-.22-5.79,0-8.66.16-2.19-.65-2.53-2.63-2.52-21.94.07-43.88.04-65.81.04-7.42,0-14.84,0-22.26,0-14.53,0-29.05.05-43.58-.05-2.21-.02-2.83.63-2.68,2.75.18,2.64.05,5.31.05,7.96q0,3.06,2.98,3.06Z"/>
      <path class="cls-1" d="m496.79,259.31c-9.37.15-18.75.06-28.12.06-9.52,0-19.04.05-28.56-.04-1.78-.02-2.29.49-2.21,2.24.14,3.12.15,6.25,0,9.37-.1,1.92.62,2.32,2.4,2.31,15.15-.06,30.31-.04,45.46-.04,3.91,0,7.81-.07,11.72.03,1.65.04,2.14-.54,2.07-2.15-.12-2.96-.18-5.94.01-8.9.14-2.2-.42-2.92-2.76-2.88Z"/>
      <path class="cls-1" d="m385.2,109.05c8.44-.07,16.87-.03,25.31-.03h0c8.28,0,16.56-.07,24.84.06,2.15.03,2.81-.54,2.67-2.69-.19-3.11-.1-6.25-.01-9.37.04-1.31-.34-1.77-1.7-1.77-17.19.03-34.37.03-51.56,0-1.21,0-1.64.38-1.62,1.61.07,3.36.11,6.72-.02,10.08-.06,1.64.44,2.13,2.08,2.12Z"/>
      <path class="cls-1" d="m453.89,109.05c7.18-.08,14.35-.03,21.53-.03,7.41,0,14.82-.03,22.23.02,1.33,0,1.95-.23,1.9-1.78-.13-3.43-.1-6.86-.02-10.3.03-1.36-.47-1.72-1.76-1.72-14.82.03-29.64.04-44.47,0-1.54,0-1.79.62-1.76,1.95.07,3.2.15,6.4-.02,9.59-.11,1.95.65,2.29,2.37,2.27Z"/>
      <path class="cls-1" d="m419.46,150.1c-11.31-.03-22.61-.03-33.92-.12-1.72-.01-2.55.26-2.43,2.26.2,3.19.17,6.39.09,9.59-.04,1.47.49,1.86,1.88,1.85,6.24-.05,12.47-.02,18.71-.02,0,.03,0,.06,0,.09,6.16,0,12.32-.05,18.48.03,1.64.02,2.2-.47,2.1-2.11-.13-2.18-.03-4.37-.03-6.55q0-5-4.89-5.01Z"/>
      <path class="cls-1" d="m439.77,163.77c3.98-.08,7.96-.03,11.94-.03,3.9,0,7.8-.04,11.7.02,1.34.02,1.97-.26,1.92-1.79-.1-3.43-.09-6.87,0-10.3.04-1.36-.45-1.7-1.74-1.69-7.96.05-15.92.06-23.87-.01-1.5-.01-1.83.54-1.8,1.9.07,3.35.09,6.71-.01,10.06-.04,1.47.46,1.86,1.87,1.83Z"/>
      <path class="cls-1" d="m412.29,218.5c1.78-.12,3.58.04,5.37-.05,2.15-.1,4.93.96,6.27-.44,1.33-1.39.23-4.16.42-5.94,0-2.01-.08-3.64.02-5.27.09-1.46-.31-2.11-1.92-2.06-3.34.1-6.7.11-10.04,0-1.62-.05-1.97.62-1.93,2.06.08,3.27.07,6.54,0,9.81-.03,1.36.3,2,1.82,1.89Z"/>
      <path class="cls-1" d="m335.67,135.86c1.26,1.54,4.23.51,6.45.51,2.22,0,5.18,1.02,6.47-.49,1.11-1.3.4-4.15.5-6.32-.03,0-.06,0-.09,0,0-1.79-.08-3.59.03-5.37.07-1.26-.39-1.61-1.59-1.59-3.35.06-6.71.15-10.05-.03-1.89-.1-2.23.65-2.11,2.27.12,1.55.01,3.11.04,4.67.03,2.18-.74,5.03.35,6.35Z"/>
      <path class="cls-1" d="m336.62,191.09c3.66-.05,7.33-.05,10.99-.02.98,0,1.41-.27,1.4-1.32-.04-3.66-.04-7.33,0-10.99,0-.97-.33-1.43-1.34-1.43-3.66.02-7.33.02-10.99-.01-1,0-1.4.37-1.37,1.37.05,1.79.01,3.59.01,5.38,0,1.87.03,3.74-.01,5.61-.02.97.26,1.41,1.32,1.4Z"/>
      <path class="cls-1" d="m335.8,81.24c1.25,1.1,4.15.42,6.31.37,2.23-.06,5.1.99,6.51-.44,1.29-1.31.38-4.15.35-6.31-.03-2.23.98-5.1-.45-6.51-1.32-1.3-4.16-.23-6.4-.42-2.14.28-5.02-.96-6.43.52-1.27,1.34-.39,4.16-.35,6.32.04,2.23-1.01,5.19.45,6.48Z"/>
      <path class="cls-1" d="m384.79,218.49c3.51-.05,7.02-.06,10.52,0,1.24.02,1.65-.46,1.62-1.64-.05-1.71-.01-3.43-.01-5.14h-.02c0-1.72-.05-3.43.02-5.14.05-1.23-.24-1.86-1.66-1.82-3.51.08-7.02.07-10.52.02-1.21-.02-1.63.4-1.61,1.62.06,3.51.06,7.02,0,10.52-.02,1.26.48,1.6,1.66,1.59Z"/>
      <path class="cls-1" d="m450.01,204.75c-3.5.05-7.01.04-10.51,0-1.01,0-1.6.18-1.58,1.39.06,3.66.04,7.32.01,10.98,0,1,.38,1.37,1.38,1.36,3.58-.04,7.16-.05,10.74.01,1.25.02,1.63-.47,1.58-1.65-.07-1.71-.02-3.42-.02-5.14,0-1.79-.06-3.58.02-5.37.06-1.25-.45-1.6-1.63-1.58Z"/>
      <path class="cls-1" d="m335.7,245.26c1.27,1.5,4.24.43,6.47.49,2.17.06,5.05.75,6.34-.34,1.51-1.28.25-4.26.55-6.48-.32-2.22.96-5.1-.56-6.51-1.37-1.27-4.18-.33-6.35-.35-2.17-.02-5.05-.72-6.33.37-1.5,1.28-.4,4.25-.47,6.48-.07,2.17-.74,5.04.36,6.33Z"/>
      <path class="cls-1" d="m409.07,331.63c.05-1.57-.49-2.02-2-1.98-4.29.11-8.59,0-12.88.16-1.95.07-2.37-.66-2.32-2.43.13-4.21.02-8.43.13-12.64.04-1.56-.32-2.25-2.06-2.18-3.27.13-6.56.13-9.84,0-1.66-.07-1.94.64-1.92,2.06.06,4.37-.04,8.75.06,13.12.04,1.57-.45,2.01-1.98,1.97-4.45-.09-8.9.02-13.35-.06-1.46-.03-1.87.46-1.84,1.87.09,3.28.13,6.56,0,9.84-.07,1.72.58,2.09,2.14,2.05,4.29-.12,8.58-.07,12.87-.16,1.44-.03,2.32.03,2.17,1.96-.17,2.16.15,4.36-.05,6.13,0,2.68.06,4.95-.02,7.21-.05,1.42.23,2.12,1.9,2.05,3.35-.14,6.72-.11,10.07-.02,1.47.04,1.86-.49,1.84-1.89-.07-4.45.04-8.9-.05-13.35-.03-1.58.51-2.01,2.02-1.98,4.37.08,8.75-.02,13.12.06,1.47.03,2.05-.37,2-1.94-.11-3.28-.12-6.56,0-9.84Z"/>
      <g>
        <path class="cls-1" d="m225.16,400.77c2.6,1.02,5.41,1.24,8.2,1.48,24.65,2.1,41.14-16.22,40.32-37.19-.74-18.93-.25-37.9-.27-56.86-.03-40.93.04-81.87-.1-122.8-.07-20.05-8.34-36.14-24.34-48.28-12.03-9.12-25.77-14.93-39.61-20.55-10.93-4.43-21.88-8.8-32.8-13.18.21-1.42,1.21-2.07,1.88-2.91,18.59-23.25,18.95-56.32.38-79.57C167.01,6.11,151.45-1.42,132.29.22c-19.53,1.67-33.66,12.1-43.29,28.75-12.9,22.32-10.46,50.78,5.98,71.52,1.7,2.15,1.16,2.73-.98,3.53-3.96,1.49-7.87,3.12-11.78,4.74-16.44,6.84-33.18,13.04-48.48,22.36-13.44,8.19-24.63,18.4-30.12,33.71C.45,173.7-.02,182.89,0,192.19c.1,34.46.07,68.92.09,103.38.02,24.43-.03,48.85.11,73.28.05,9.11,3.52,16.98,10.08,23.3,10.94,10.56,24.06,12.21,38.22,8.73,2.37-.58,3.13-.32,3.24,2.17.09,2.03.24,4.06.41,6.09h19.72c-.35-4.24-.71-8.47-1.04-12.71-.9-11.53-.29-23.18-.31-34.78-.05-29.45-.08-58.9-.1-88.35-.01-23.09-.08-46.18.09-69.27.02-3.38-1.03-4.15-4.13-3.97-4.34.25-8.7.14-13.05.05-1.88-.04-2.49.63-2.48,2.53.07,29.23.08,58.45.1,87.68,0,2.11-.03,4.22-.03,6.33.01,23.52.02,47.05.05,70.57,0,2.24-.07,4.47-.62,6.64-.8,3.13-2.27,5.97-5.34,7.32-10.41,4.6-25.4.23-25.36-14.82.15-59.67.03-119.34-.07-179.02-.03-17.33,8.32-29.53,22.6-38.4,11.8-7.34,24.6-12.54,37.33-17.9,8.73-3.67,17.52-7.17,26.29-10.74.59-.24,1.23-.38,2.23-.69-1.98,11.2.51,20.85,8.68,28.63,5.68,5.4,12.57,8,20.38,7.87,9.24-.15,16.8-3.98,22.63-11.13,4.7-5.77,5.67-9.91,5.99-24.78,13.6,5.48,27.17,10.83,40.64,16.41,10.19,4.22,20.2,8.85,29.3,15.22,12.39,8.68,18.21,20.55,18.19,35.63-.07,44.84.02,89.67.05,134.51,0,15.05.03,30.11,0,45.16-.02,8.77-6.25,15.16-15.04,15.49-1.45.05-2.9.06-4.35,0-6.52-.32-10.58-3.98-11.44-10.42-.71-5.31-.34-10.67-.36-16-.09-30.34-.17-60.67-.19-91.01-.02-20.41,0-40.82.15-61.22.02-2.94-.58-4.21-3.8-3.99-4.22.28-8.48.21-12.71.05-2.45-.1-3.22.6-3.2,3.16.13,17.06.08,34.12.09,51.18.02,39.6-.24,79.21.18,118.8.13,12.04-.53,24.02-1.45,35.97h19.63c.16-2.1.34-4.2.49-6.31.17-2.46.96-2.96,3.24-2.06ZM136.67,19.55c5.4,0,9.81,4.48,9.72,9.85-.09,5.21-4.41,9.4-9.78,9.48-5.15.08-9.62-4.36-9.62-9.54,0-5.55,4.2-9.79,9.69-9.79Zm-.14,116.88c-5.43-.03-9.56-4.36-9.48-9.95.06-4.93,4.51-9.33,9.49-9.41,5.25-.08,9.92,4.52,9.9,9.74-.03,5.4-4.4,9.65-9.91,9.61Zm13.52-38.12c-1.69.77-3.17,1.07-5.06.45-5.43-1.78-10.98-1.81-16.43-.02-1.96.64-3.59.37-5.39-.47-15.43-7.22-24.96-25.74-22.4-43.41.97-6.7,3.03-12.93,7.05-18.96,4.91,14.49,14.48,22.58,29.69,22.56,12.57-.01,20.61-6.66,28.01-22.32,14.63,20.31,6.58,52.11-15.47,62.17Z"/>
        <path class="cls-1" d="m149.6,383.54c-13.23-6.65-29.21-2.14-37.46,10.57-3.02,4.65-4.53,9.85-4.66,15.03h19.72c.43-5.01,4.68-8.99,9.79-8.98,4.86.01,9.17,4.14,9.56,8.98h19.49c0-.22,0-.43,0-.65-.46-11.47-6.29-19.84-16.45-24.95Z"/>
        <path class="cls-1" d="m155.8,260.71c-10.84-9.53-27.88-9.35-38.6.4-11.23,10.22-13.02,26.89-4.05,39.09,1.26,1.71,1.4,2.7.12,4.5-6.67,9.4-7.87,19.55-2.82,29.99,5.23,10.82,14.23,16.17,26.02,16.7,11.88-.3,20.84-5.44,26.26-15.77,5.43-10.34,4.63-20.72-2.01-30.35-1.56-2.26-1.46-3.45.08-5.62,8.78-12.4,6.58-28.76-5.01-38.93Zm-19.21,12.66c5.41-.06,9.96,4.3,9.95,9.52-.02,5.35-4.46,9.87-9.71,9.87-5.29,0-9.71-4.47-9.7-9.82,0-5.33,4.14-9.51,9.46-9.58Zm.32,58.37c-5.44.03-9.72-4.2-9.77-9.67-.05-5.33,4.39-9.78,9.74-9.74,5.12.03,9.61,4.47,9.67,9.55.06,5.35-4.31,9.83-9.64,9.87Z"/>
        <path class="cls-1" d="m136.26,234.18c16.39.19,29.66-12.66,29.81-28.85.15-16.13-12.99-29.57-29.02-29.7-16.27-.13-29.57,12.87-29.72,29.03-.14,15.75,13.18,29.34,28.93,29.52Zm.75-38.99c5.08.12,9.73,4.79,9.66,9.68-.08,5.21-4.87,9.86-9.99,9.72-5.78-.16-9.81-4.58-9.65-10.59.13-4.78,4.83-8.94,9.98-8.81Z"/>
      </g>
    </g>
  </g>
</svg>