<svg xmlns="http://www.w3.org/2000/svg" id="Capa_2" width="406.951" height="504.147" data-name="Capa 2" viewBox="0 0 367.19 383.31"><defs><style>.cls-1{fill:#049ae7}</style></defs><g id="Capa_1-2" data-name="Capa 1"><g><path d="m35.22,383.31c-4.33-3.22-4.86-5.03-2.47-9.79,8.48-16.87,22.48-25.71,40.95-28.38,15.81-2.29,31.57-4.96,47.34-7.54,7.9-1.29,13.07-7.33,13.18-15.32.08-6.36-.04-12.72.06-19.08.03-1.83-.65-2.91-2.08-4-9.94-7.57-19.71-15.36-27.8-24.97-1.39-1.65-2.14-.81-3.29.08-15.36,12-32.58,14.09-51.03,9.38-1.43-.37-2.95-.86-4.11-1.72-2.38-1.76-3.14-4.22-1.68-6.93,1.5-2.77,3.89-3.72,6.96-2.71,7.75,2.55,15.64,3.05,23.68,1.73,7.18-1.18,13.57-4.06,19.27-8.58,1.63-1.3,2.17-2.35.88-4.3-2.9-4.37-5.24-9.08-7.1-13.97-.75-1.97-1.99-2.55-3.82-2.91-24.18-4.79-39.29-24.52-37.68-49.12.2-3.02.71-6.07,2.29-8.6,2.04-3.27,1.7-6.45,1.17-9.96-7.57-50.66,14.74-99.92,58.35-124.44,19.64-11.05,39.39-12.45,59.66-2.05.41.21.9.28,1.73.52,0-9.59,0-18.92,0-28.25,0-.76-.14-1.44-.89-1.92-17.99-11.48-38.71-13.63-57.26,1.68-.77.64-1.51,1.31-2.22,2.02-4.21,4.18-9.24,5.96-15.2,6.08-17.3.36-32.28,10.99-37.12,26.95-2.25,7.41-6.06,12.84-12.18,17.64-12.61,9.9-16.99,23.36-13.83,39.01,1.57,7.77-.17,14.15-5.72,19.83-18.18,18.56-18.74,44.93-1.34,64.35,6.14,6.85,7.49,14.16,4.14,22.77-5.04,12.96-3.65,25.41,4.12,37.06,2.43,3.64,2.15,6.94-.69,8.88-2.88,1.97-6.08,1.12-8.54-2.54-9.73-14.46-11.71-30.02-5.73-46.31,1.92-5.23,1.46-8.97-2.37-13.18-20.35-22.34-19.69-56.24,1.48-77.96,3.44-3.53,4.3-6.9,3.46-11.72-3.62-20.8,3.1-37.81,19.97-50.62,2.84-2.16,4.65-4.56,5.62-8.01,6.18-22.1,24.74-36.61,47.8-37.34,3.75-.12,6.58-1.33,9.31-3.89C120.74-1.97,147.5-4.9,169,8c4.54,2.73,8.23,2.75,12.77-.02,20.53-12.55,47.14-10.09,65.08,6.01,3.64,3.26,7.26,4.91,12.24,5.2,22.78,1.35,40.13,15.61,46.37,37.63.85,3.02,2.39,5.27,4.94,7.18,17.45,13.06,24.39,30.37,20.35,51.82-.8,4.24.06,7.4,3.15,10.43,8.83,8.66,13.99,19.29,16.06,31.43.21,1.22.31,2.48.3,3.72-.04,3.07-1.77,4.96-4.66,5.44-2.95.49-5.18-.91-6.08-3.79-.63-2-.8-4.15-1.24-6.22-1.79-8.52-5.6-16.05-11.83-22.1-6.43-6.24-8.24-13.18-6.55-22.04,3.05-16-2.34-29.32-15.43-39.1-5.06-3.78-8.35-8.2-9.97-14.33-4.41-16.72-19.49-28.54-37.16-28.97-6.82-.17-12.18-2.54-17.09-7.13-14.46-13.54-35.47-15.46-52.81-5.83-5.16,2.86-7.25,5.88-6.65,11.76.62,6.05.26,12.21.09,18.32-.08,3.01.31,3.6,3.36,2.15,17.62-8.42,35.44-8.86,53.03-.07,26.23,13.1,44.82,33.44,55.87,60.49,9.19,22.49,11.27,45.83,7.16,69.74-.29,1.67-.3,3.1.58,4.64,2.66,4.67,3.76,9.78,3.42,15.11-.16,2.41.51,4.07,2.58,5.28.85.5,1.58,1.22,2.33,1.87q5.51,4.71,11.34.07c6.57-5.24,11.58-11.66,14.78-19.45.33-.81.64-1.63,1.05-2.4,1.58-3.01,4.29-4.13,7.15-2.98,2.98,1.19,4.27,4.1,3.08,7.38-4.26,11.73-11.61,21.16-21.83,28.26-2.45,1.7-2.83,2.56-1.07,5.28,19.41,29.84,20.4,60.38,2.83,91.38-1.27,2.23-1.33,3.42.6,5.31,10.89,10.65,21.12,22.03,32.53,32.08,11.41,10.04,10.08,26.51-5.71,31.77h-6.75c-4.79-1.47-8.4-4.57-11.86-8.07-10.58-10.73-21.29-21.34-32-31.95-.88-.87-1.58-2.66-3.28-1.76-3.64,1.94-7.18,4.05-11.06,6.27,13.14,4.88,22.67,13.19,28.79,25.29,2.53,5.01,2.14,6.75-2.1,10.21h-3.75c-1.94-1.25-3.21-2.98-4.21-5.06-3.5-7.3-8.81-13.02-15.95-16.85-9.71-5.2-20.43-6.67-31.16-6.58-11.88.1-23.43-.85-34.63-4.95-4.4-1.61-6.09-4.38-4.79-7.79,1.21-3.17,4.33-4.25,8.49-2.78,11.15,3.94,22.53,5.05,34.31,3.7,40.32-4.66,70.12-44.9,62.5-84.63-7.54-39.37-41.71-64.49-81.61-60.01-34.29,3.85-62.56,34.59-63.47,68.96-.62,23.35,7.71,42.83,25.13,58.44,3.56,3.18,4.09,6.34,1.62,9.04-2.45,2.68-5.51,2.45-9.19-.73-4.94-4.26-9.28-9.07-13.05-14.39-.96-1.36-1.76-2.53-3.87-2.07-6.78,1.5-13.39.51-19.92-1.6-5.69-1.84-10.92-4.7-16.69-7.65,0,4.8.03,9.12,0,13.43-.11,14.27-9.35,24.86-23.49,27.07-16.04,2.51-32.05,5.14-48.09,7.64-14.34,2.23-25.06,9.4-31.35,22.65-.84,1.76-2.16,2.97-3.57,4.17h-3.75Zm170.04-181.06c-2.21-.9-3.77-1.37-5.17-2.13-2.18-1.19-3.2-3.15-2.83-5.63.37-2.46,1.87-3.98,4.29-4.63,1.7-.46,3.2.22,4.73.71,6.05,1.96,12.33,3.15,18.41,1.14,12.39-4.08,24.91-6.28,37.95-4.79,1.81.21,2.03-.63,2.23-2.06.89-6.58,1.2-13.19.19-19.76-3.28-21.21-13.89-38.37-30.42-51.65-25.37-20.37-53.61-28.72-85.72-18.3-5.95,1.93-11.61,4.55-17.1,7.54-2.12,1.15-4.28,1.37-6.38-.03-1.81-1.21-2.65-2.95-2.44-5.13.24-2.52,1.93-3.87,4.01-5,12.3-6.69,25.28-11.21,39.29-12.61,1.31-.13,3.32.35,3.35-1.99.05-4.12,0-8.23.02-12.35,0-1.41-1.12-1.84-2.02-2.45-16.04-10.73-32.77-11.93-49.98-3.2-39.01,19.8-61.82,62.56-57.42,109.03.12,1.26,0,2.69.97,3.86,3.16-1.36,6.27-2.78,9.68-2.89,2.6-.09,3.13-1.27,3.41-3.67,2.64-22.37,13.06-40.81,29.07-56.32,2.61-2.53,5.76-2.48,8.05-.26,2.4,2.32,2.31,5.45-.28,8.29-2.27,2.49-4.72,4.83-6.87,7.41-13.8,16.64-21.22,35.47-18.65,57.34,1.64,13.98,4.71,27.75,7.24,41.6,2.88,15.79,9.5,29.84,19.72,42.2,7.7,9.32,17.29,16.55,26.76,23.89,6.22,4.82,12.78,9.17,19.99,12.42,5.84,2.63,11.84,4.62,18.47,4.02-.03-.52.05-.93-.09-1.24-4.78-10.85-7.46-22.17-7.5-34.06,0-1.82-.69-1.92-2.28-1.65-6.71,1.14-13.2.22-19.35-2.67-3.52-1.65-4.76-5.06-2.91-8,1.92-3.06,4.7-3.38,7.85-2.04,4.88,2.07,9.86,2.65,14.98.99,1.6-.52,2.91-1.23,3.19-3.21.61-4.33,1.81-8.54,3.39-12.6.94-2.41.03-2.76-2.07-2.73-4.29.07-8.42-.94-12.47-2.26-4.04-1.32-5.72-3.87-4.78-7.14,1-3.45,3.99-4.82,8.09-3.47,4.72,1.55,9.52,2.04,14.42,1.47,1.55-.18,3.39-.08,4.37-1.67,5.84-9.43,13.32-17.37,22.63-24.33Zm84.75-29.36c1.55-11.68,1.53-23.13-.57-34.48-6.46-34.96-24.62-61.69-56.41-78.45-15.44-8.14-30.93-7.1-46.31.8-4.43,2.27-6.74,5.04-5.83,10.14.32,1.81.22,3.75.01,5.6-.28,2.51.92,3.18,3.15,3.43,3.72.42,7.44.92,11.09,1.72,40.11,8.8,77.29,42.63,81.54,85.74.12,1.19.16,2.33,1.71,2.37,4.06.09,7.7,1.76,11.61,3.12Zm-232.33,30.2c.54,10.86,7.26,21.5,20.59,27.81,1.29.61,2.87,1.96,4.1.95,1-.82-.03-2.54-.26-3.85-2.63-14.69-5.82-29.29-7.64-44.11-.36-2.94-1.5-3.12-3.79-2.64-7.96,1.65-13.09,8.74-12.99,21.84Zm298.46,163.39c-.14-2.1-1.2-3.57-2.57-4.92-4.16-4.11-8.28-8.25-12.42-12.38q-6.28-6.26-12.22.47c-.16.19-.34.37-.52.54-.83.75-.74,1.42.04,2.18,6.29,6.2,12.49,12.49,18.87,18.59,1.65,1.58,3.89,1.49,5.94.33,1.9-1.08,2.71-2.81,2.89-4.81Zm-28.57-30.56c-.98-1.13-1.42-1.69-1.93-2.2-1.83-1.85-3.81-3.58-5.49-5.56-1.63-1.93-2.67-1.69-4.32.08-5.58,5.97-5.65,5.9.11,11.64.26.26.58.49.78.79,1.82,2.65,3.43,2.34,5.42,0,1.49-1.77,3.5-3.1,5.43-4.75Zm-35.01-140.5c-.69-7.15-6.26-13.12-12.85-14.2-1.41-.23-3.31-.82-3.17,1.64.12,2.28-2.57,5.37,1.11,6.7,4.9,1.77,9.81,3.5,14.91,5.86Z" class="cls-1"/><path d="m192.67,270.52c-.02-33.8,27.93-61.64,61.86-61.62,33.71.02,61.83,27.89,61.87,61.33.04,34.38-27.67,62.11-62.14,62.18-33.84.07-61.57-27.79-61.59-61.88Zm107.86-20.03c-.19-.76-.23-1.13-.37-1.44-.42-.9-.84-1.81-1.33-2.67-8.61-14.94-21.5-23.48-38.58-25.98-3.38-.49-4.02.45-3.72,3.61.89,9.18,1.6,18.38,2.21,27.59.25,3.76-1.99,6.37-5.14,6.6-3.06.22-5.61-2.23-6.03-5.89-.16-1.36-.22-2.74-.22-4.11-.01-2.4-.71-3.24-3.05-1.73-2.62,1.69-5.32,3.27-8.08,4.72-3.08,1.62-6.32.76-7.85-1.87-1.52-2.62-.65-5.9,2.24-7.75,2.62-1.68,5.22-3.55,8.09-4.68,6.15-2.43,8.74-6.35,6.61-12.87-.07-.23-.07-.5-.05-.74.2-2.1-.89-2.11-2.51-1.72-4.65,1.11-9.02,2.86-13.18,5.19-25.41,14.25-33.49,47.58-17.43,71.62,1.51,2.26,2.49,2.79,4.75.83,3.39-2.93,7.05-5.59,10.76-8.12,2.36-1.61,3.13-3.53,2.95-6.31-.29-4.48-.32-8.98-.29-13.46.03-3.76,2.32-6.22,5.55-6.25,3.22-.04,5.53,2.39,5.65,6.12.17,5.11.23,10.22.34,15.34.11,5.24-1.9,9.41-6.18,12.53-3.83,2.79-7.49,5.84-11.4,8.51-2.27,1.55-1.67,2.32.1,3.7,14.64,11.39,37.85,13.13,53.83,4.04,1.69-.96,2.12-1.61.69-3.21-3.66-4.09-7.18-8.31-10.76-12.47-1.45-1.69-2.33-3.54-1.59-5.83,1.41-4.39,6.48-5.35,9.87-1.67,3.97,4.32,7.74,8.82,11.49,13.33,1.18,1.41,1.92,1.49,3.18.11,10.4-11.4,15.17-24.67,13.73-40.11-.2-2.13-1.08-3-3.13-3.31-4.69-.7-9.4-1.37-14-2.49-2.83-.69-4.43.27-6.04,2.34-2.76,3.54-5.65,6.99-8.59,10.39-2.46,2.84-5.79,3.28-8.26,1.25-2.44-2-2.69-5.44-.36-8.36,3.42-4.3,6.88-8.57,10.54-12.66,3.29-3.69,7.54-5.17,12.51-4.32,4.27.73,8.55,1.46,13.05,2.23Z" class="cls-1"/><path d="m135.63,153.51c7.46.04,14.65,1.37,21.45,4.49,3.9,1.79,5.35,4.9,3.84,8.04-1.41,2.95-4.61,3.9-8.37,2.21-11.92-5.39-23.89-3.75-35.9-.48-1.32.36-2.62.84-3.95,1.16-3.36.81-6.24-.74-7.1-3.75-.88-3.1.59-5.96,3.95-7,8.49-2.63,17.12-4.58,26.07-4.67Z" class="cls-1"/><path d="m245.32,162.88c0,4.53-3.3,7-7.23,6.07-4.12-.98-8.19-2.21-12.34-3.08-9.65-2.02-19.09-1.51-28.23,2.61-3.4,1.53-6.56.27-7.82-2.73-1.23-2.93-.04-5.74,3.16-7.4.66-.34,1.35-.64,2.04-.93,11.65-4.86,23.6-4.73,35.68-2.06,3.53.78,7.02,1.75,10.48,2.78,2.64.79,4.2,2.59,4.25,4.73Z" class="cls-1"/><path d="m132.6,203.72c-5.68.09-11.15-1-16.46-2.93-3.59-1.31-5.21-4.06-4.26-7.15.95-3.09,3.99-4.69,7.53-3.46,8.83,3.06,17.55,3.05,26.38,0,3.58-1.24,6.44.29,7.5,3.48.98,2.95-.46,5.73-3.87,7.02-5.4,2.05-11.01,3.13-16.81,3.03Z" class="cls-1"/></g></g></svg>