<svg xmlns="http://www.w3.org/2000/svg" id="Capa_2" width="60.951" height="50.147" data-name="Capa 2" viewBox="0 0 49.33 49.42"><defs><style>.cls-1{fill:none;stroke:#049ae7;stroke-linecap:round;stroke-linejoin:round;stroke-width:2px}</style></defs><g id="Capa_1-2" data-name="Capa 1"><path id="Icon_feather-phone" d="m48.33,36.5v7.14c.01,2.63-2.11,4.77-4.74,4.78-.15,0-.3,0-.45-.02-7.32-.79-14.35-3.29-20.53-7.3-5.75-3.65-10.62-8.53-14.28-14.28C4.3,20.61,1.8,13.54,1.02,6.19.78,3.57,2.71,1.26,5.33,1.02c.14-.01.28-.02.42-.02h7.14c2.39-.02,4.42,1.73,4.76,4.09.3,2.28.86,4.53,1.67,6.69.65,1.74.24,3.7-1.07,5.02l-3.02,3.02c3.39,5.96,8.32,10.89,14.28,14.28l3.02-3.02c1.32-1.31,3.28-1.72,5.02-1.07,2.16.81,4.4,1.36,6.69,1.67,2.39.34,4.15,2.41,4.09,4.83Z" class="cls-1" data-name="Icon feather-phone"/></g></svg>