<svg xmlns="http://www.w3.org/2000/svg" xmlns:xlink="http://www.w3.org/1999/xlink" id="Grupo_473" width="59.049" height="59.049" class="icono" data-name="Grupo 473" viewBox="0 0 59.049 59.049"><defs><clipPath id="clip-path"><rect id="Rectángulo_238" width="59.049" height="59.049" data-name="Rectángulo 238"/></clipPath><linearGradient id="myGradient" x1="0%" x2="100%" y1="0%" y2="100%"><stop offset="0%" style="stop-color:#049ae7;stop-opacity:1"/><stop offset="100%" style="stop-color:#007e79;stop-opacity:1"/></linearGradient></defs><g id="Grupo_473-2" clip-path="url(#clip-path)" data-name="Grupo 473"><path id="Trazado_134" fill="url(#myGradient)" d="M136.286,505.9h20.667a2.952,2.952,0,1,0,0-5.9H136.286a2.952,2.952,0,0,0,0,5.9" data-name="Trazado 134" transform="translate(-121.524 -455.714)"/><path id="Trazado_135" fill="url(#myGradient)" d="M211.811,405.9a2.952,2.952,0,0,0,0-5.9h-8.857a2.952,2.952,0,0,0,0,5.9Z" data-name="Trazado 135" transform="translate(-182.286 -364.571)"/><path id="Trazado_136" fill="url(#myGradient)" d="M56.1,53.145H50.915a23.62,23.62,0,0,0-15.485-38.2V8.858a2.952,2.952,0,0,0-2.952-2.952H31.83l-.917-3.669A2.952,2.952,0,0,0,28.049,0h-5.9A2.952,2.952,0,0,0,19.28,2.237l2.864.716L19.28,2.237l-.917,3.669h-.647a2.952,2.952,0,0,0-2.952,2.952V29.525a2.952,2.952,0,0,0,2.952,2.952H32.478a2.952,2.952,0,0,0,2.952-2.952V20.914a17.717,17.717,0,0,1,6.843,32.23H2.953a2.952,2.952,0,0,0,0,5.9H56.1a2.952,2.952,0,1,0,0-5.9M20.668,11.811a2.952,2.952,0,0,0,2.864-2.236l.917-3.669h1.295l.917,3.669a2.952,2.952,0,0,0,2.864,2.236V26.573H20.668Z" data-name="Trazado 136" transform="translate(-0.001 -0.001)"/></g></svg>