<?xml version="1.0" encoding="UTF-8"?>
<svg id="Capa_2" data-name="Capa 2" xmlns="http://www.w3.org/2000/svg" xmlns:xlink="http://www.w3.org/1999/xlink" viewBox="0 0 282.26 145.43">
  <defs>
    <style>
      .cls-1 {
        clip-path: url(#clippath-6);
      }

      .cls-2 {
        clip-path: url(#clippath-7);
      }

      .cls-3 {
        clip-path: url(#clippath-4);
      }

      .cls-4 {
        fill: url(#Degradado_sin_nombre_10-4);
      }

      .cls-5 {
        fill: url(#Degradado_sin_nombre_2-4);
      }

      .cls-6, .cls-7, .cls-8 {
        fill: none;
      }

      .cls-9 {
        fill: url(#Degradado_sin_nombre_10-5);
      }

      .cls-10 {
        fill: url(#Degradado_sin_nombre_10-3);
      }

      .cls-11 {
        fill: #e30613;
      }

      .cls-12 {
        clip-path: url(#clippath-1);
      }

      .cls-7 {
        stroke: #fff;
        stroke-linecap: round;
        stroke-linejoin: round;
        stroke-width: .47px;
      }

      .cls-13 {
        clip-path: url(#clippath-5);
      }

      .cls-14 {
        fill: url(#Degradado_sin_nombre_10-2);
      }

      .cls-15 {
        clip-path: url(#clippath-8);
      }

      .cls-16 {
        fill: url(#Degradado_sin_nombre_10-6);
      }

      .cls-17 {
        clip-path: url(#clippath-3);
      }

      .cls-18 {
        fill: url(#Degradado_sin_nombre_2);
        fill-rule: evenodd;
      }

      .cls-8 {
        clip-rule: evenodd;
      }

      .cls-19 {
        fill: #575756;
      }

      .cls-20 {
        fill: url(#Degradado_sin_nombre_2-3);
      }

      .cls-21 {
        fill: url(#Degradado_sin_nombre_10);
      }

      .cls-22 {
        clip-path: url(#clippath-2);
      }

      .cls-23 {
        fill: url(#Degradado_sin_nombre_2-2);
      }

      .cls-24 {
        clip-path: url(#clippath);
      }
    </style>
    <linearGradient id="Degradado_sin_nombre_2" data-name="Degradado sin nombre 2" x1="102.39" y1="-168.6" x2="380.31" y2="-168.6" gradientTransform="translate(-71.9 266.79) rotate(-10.44)" gradientUnits="userSpaceOnUse">
      <stop offset="0" stop-color="#00746c"/>
      <stop offset="1" stop-color="#00ab9c"/>
    </linearGradient>
    <clipPath id="clippath">
      <path class="cls-8" d="M65.51,41.75h0c4.56-.05,8.33,3.64,8.38,8.19l.23,20.27c.05,4.56-3.64,8.33-8.19,8.38h0c-4.56.05-8.33-3.64-8.38-8.19l-.23-20.27c-.05-4.56,3.64-8.33,8.19-8.38M65.44,35.62h0c8.86-.1,16.2,7.07,16.3,15.93l.19,17.04c.1,8.86-7.07,16.2-15.93,16.3h0c-8.86.1-16.2-7.07-16.3-15.93l-.19-17.04c-.1-8.86,7.07-16.2,15.93-16.3Z"/>
    </clipPath>
    <linearGradient id="Degradado_sin_nombre_2-2" data-name="Degradado sin nombre 2" x1="-167.91" y1="231.35" x2="-135.67" y2="231.35" gradientTransform="translate(217.51 -171.1)" xlink:href="#Degradado_sin_nombre_2"/>
    <clipPath id="clippath-1">
      <path class="cls-8" d="M87.25,36.13l8.44-.1.08,7.37c3.24-4.95,7.82-6.74,12.57-8.13.03,2.92.07,5.83.1,8.75-6.28.06-10.45,2.69-12.57,7.82l.37,32.23-8.44.1-.55-48.04Z"/>
    </clipPath>
    <linearGradient id="Degradado_sin_nombre_2-3" data-name="Degradado sin nombre 2" x1="-129.99" y1="231.2" x2="-108.89" y2="231.2" gradientTransform="translate(217.51 -171.47)" xlink:href="#Degradado_sin_nombre_2"/>
    <clipPath id="clippath-2">
      <path class="cls-8" d="M127.41,41.05h0c4.24-.05,7.76,3.64,7.81,8.2l.23,20.27c.05,4.56-3.38,8.33-7.62,8.38h0c-4.24.05-7.76-3.64-7.81-8.2l-.23-20.27c-.05-4.56,3.38-8.33,7.62-8.38M127.34,34.91h0c3.21-.04,6.2,1.03,8.67,2.86l-.24-20.92,6.73-2.53.79,69.99-6.76.08-.04-3.26c-2.42,1.89-5.39,3.02-8.6,3.05h0c-8.25.09-15.09-7.08-15.19-15.95l-.19-17.04c-.1-8.86,6.57-16.19,14.82-16.29Z"/>
    </clipPath>
    <linearGradient id="Degradado_sin_nombre_2-4" data-name="Degradado sin nombre 2" x1="-104.9" y1="221.29" x2="-74.5" y2="221.29" gradientTransform="translate(217.4 -171.8)" xlink:href="#Degradado_sin_nombre_2"/>
    <clipPath id="clippath-3">
      <polygon class="cls-8" points="147.35 16.1 165.76 83.28 175.74 83.17 190.93 15.3 180.34 15.42 171.08 64.8 159.93 15.81 147.35 16.1"/>
    </clipPath>
    <linearGradient id="Degradado_sin_nombre_10" data-name="Degradado sin nombre 10" x1="-69.67" y1="221.67" x2="-26.08" y2="221.67" gradientTransform="translate(217.4 -172.28)" gradientUnits="userSpaceOnUse">
      <stop offset="0" stop-color="#006eb7"/>
      <stop offset="1" stop-color="#0096d5"/>
    </linearGradient>
    <clipPath id="clippath-4">
      <rect class="cls-6" x="196.35" y="35.76" width="8.44" height="47.12" transform="translate(-.66 2.28) rotate(-.65)"/>
    </clipPath>
    <linearGradient id="Degradado_sin_nombre_10-2" data-name="Degradado sin nombre 10" x1="-21.17" y1="231.96" x2="-12.72" y2="231.96" gradientTransform="translate(217.51 -172.63)" xlink:href="#Degradado_sin_nombre_10"/>
    <clipPath id="clippath-5">
      <rect class="cls-6" x="195.91" y="15.2" width="8.44" height="10.74" transform="translate(-.22 2.27) rotate(-.65)"/>
    </clipPath>
    <linearGradient id="Degradado_sin_nombre_10-3" data-name="Degradado sin nombre 10" x1="-21.17" y1="193.2" x2="-12.72" y2="193.2" gradientTransform="translate(217.07 -172.63)" xlink:href="#Degradado_sin_nombre_10"/>
    <clipPath id="clippath-6">
      <rect class="cls-6" x="270.19" y="11.59" width="8.44" height="70.45" transform="translate(-.51 3.12) rotate(-.65)"/>
    </clipPath>
    <linearGradient id="Degradado_sin_nombre_10-4" data-name="Degradado sin nombre 10" x1="52.82" y1="220.29" x2="61.26" y2="220.29" gradientTransform="translate(217.37 -173.47)" xlink:href="#Degradado_sin_nombre_10"/>
    <clipPath id="clippath-7">
      <path class="cls-8" d="M211.49,24.69l8.43-1.53.13,11.75,10.36-.12.07,5.83-10.36.12.3,26.4c.13,11.84,7.75,11.46,9.06,5.84,1.12,1.89,1.76,2.96,2.88,4.85-5.58,7.73-19.48,6.6-20.34-7.46l-.34-29.54-3.2.04-.07-5.83,3.2-.04-.12-10.32Z"/>
    </clipPath>
    <linearGradient id="Degradado_sin_nombre_10-5" data-name="Degradado sin nombre 10" x1="-8.84" y1="227.25" x2="14.62" y2="227.25" gradientTransform="translate(217.46 -172.86)" xlink:href="#Degradado_sin_nombre_10"/>
    <clipPath id="clippath-8">
      <path class="cls-8" d="M256.43,58.22c-20.28-2.01-16.85,19.67-8.56,19.04,4.27-.73,8.72-3.25,8.68-6.53l-.12-12.51ZM235.77,48.13c2.11-.02,4.23-.05,6.34-.07,0,0,.13-6.45,4.32-7.21,4.19-.76,9-.41,9.76,3.57l.1,9.21c-22.07-2.78-25.35,20.29-16.99,26.9,6.12,4.84,13.52,1.26,17.97-3.94,2,4.3,5.01,6.17,8.85,4.66-.02-1.54-.03-3.07-.05-4.6-1.14-.05-1.94-.56-2.27-1.71-.12-10.16-.23-20.33-.35-30.49,0,0-.1-8.8-10.35-10.12-10.25-1.32-18.19,2.36-17.34,13.81Z"/>
    </clipPath>
    <linearGradient id="Degradado_sin_nombre_10-6" data-name="Degradado sin nombre 10" x1="17.45" y1="232.31" x2="48.37" y2="232.31" gradientTransform="translate(217.51 -173.17)" xlink:href="#Degradado_sin_nombre_10"/>
  </defs>
  <g id="Capa_1-2" data-name="Capa 1">
    <g>
      <path class="cls-18" d="M223.68,95.43c-.52-.42-1.29-.62-2.31-.61l-4.5.05.06,5.05,4.27-.05c1.15-.01,1.99-.22,2.51-.63.52-.41.77-1.05.76-1.94,0-.83-.28-1.45-.79-1.88ZM223.68,95.43c-.52-.42-1.29-.62-2.31-.61l-4.5.05.06,5.05,4.27-.05c1.15-.01,1.99-.22,2.51-.63.52-.41.77-1.05.76-1.94,0-.83-.28-1.45-.79-1.88ZM10.25,89.35l-.7-61.57,24.02,56.59,9.23-.1L41.85,0l-9.23.1.65,57.15L9.24.37,0,.48l1.11,97.55,159.28-1.81.19,16.91,121.25-1.38-.29-25.48-271.3,3.08ZM182.18,109.69l-4.42.05-.2-17.46,4.42-.05.2,17.46ZM199.65,109.49l-4.38.05-.04-3.57,4.38-.05.04,3.57ZM227.2,101.5c-1.13.99-2.75,1.5-4.85,1.52l-5.42.06.07,6.22-4.41.05-.2-17.46,9.54-.11c2.25-.03,3.96.43,5.14,1.37,1.17.94,1.76,2.33,1.78,4.16s-.53,3.2-1.65,4.18ZM239.03,109.04l-4.38.05-.04-3.57,4.38-.05.04,3.57ZM266.16,107.72c-1.5,1.02-3.62,1.54-6.35,1.57-2.7.03-4.82-.45-6.37-1.46-1.55-1-2.39-2.44-2.52-4.32l4.36-.05c.18.95.66,1.66,1.47,2.11.8.45,1.96.67,3.46.65,1.28-.01,2.25-.21,2.89-.59.65-.38.97-.93.96-1.65-.01-1.06-1.89-1.91-5.64-2.57l-.13-.02c-.1-.02-.25-.04-.45-.08-2-.33-3.43-.72-4.29-1.15-.76-.39-1.34-.91-1.75-1.57-.41-.67-.61-1.45-.62-2.36-.02-1.7.68-3.01,2.08-3.93,1.41-.92,3.44-1.4,6.12-1.43,2.51-.03,4.47.43,5.89,1.39,1.42.95,2.18,2.3,2.28,4.06l-4.23.05c-.09-.84-.49-1.48-1.21-1.92-.73-.43-1.75-.64-3.08-.63-1.15.01-2.04.21-2.66.58-.62.37-.93.9-.92,1.58.01.92,1.24,1.6,3.68,2.03.66.12,1.18.21,1.54.28,1.57.31,2.68.54,3.34.72.65.18,1.23.37,1.72.58.88.39,1.53.9,1.98,1.55.44.65.67,1.42.68,2.33.02,1.82-.71,3.23-2.21,4.25ZM223.68,95.43c-.52-.42-1.29-.62-2.31-.61l-4.5.05.06,5.05,4.27-.05c1.15-.01,1.99-.22,2.51-.63.52-.41.77-1.05.76-1.94,0-.83-.28-1.45-.79-1.88ZM223.68,95.43c-.52-.42-1.29-.62-2.31-.61l-4.5.05.06,5.05,4.27-.05c1.15-.01,1.99-.22,2.51-.63.52-.41.77-1.05.76-1.94,0-.83-.28-1.45-.79-1.88ZM223.68,95.43c-.52-.42-1.29-.62-2.31-.61l-4.5.05.06,5.05,4.27-.05c1.15-.01,1.99-.22,2.51-.63.52-.41.77-1.05.76-1.94,0-.83-.28-1.45-.79-1.88Z"/>
      <g class="cls-24">
        <rect class="cls-23" x="49.61" y="35.61" width="32.23" height="49.27" transform="translate(-.68 .75) rotate(-.65)"/>
      </g>
      <g class="cls-12">
        <rect class="cls-20" x="87.52" y="35.4" width="21.11" height="48.66" transform="translate(-.67 1.12) rotate(-.65)"/>
      </g>
      <g class="cls-22">
        <rect class="cls-5" x="112.5" y="14.49" width="30.39" height="69.99" transform="translate(-.55 1.45) rotate(-.65)"/>
      </g>
      <g class="cls-17">
        <rect class="cls-21" x="147.73" y="15.55" width="43.59" height="67.69" transform="translate(-.55 1.93) rotate(-.65)"/>
      </g>
      <g class="cls-3">
        <rect class="cls-14" x="196.35" y="35.76" width="8.44" height="47.12" transform="translate(-.66 2.28) rotate(-.65)"/>
      </g>
      <g class="cls-13">
        <rect class="cls-10" x="195.91" y="15.2" width="8.44" height="10.74" transform="translate(-.22 2.27) rotate(-.65)"/>
      </g>
      <g class="cls-1">
        <rect class="cls-4" x="270.19" y="11.59" width="8.44" height="70.45" transform="translate(-.51 3.12) rotate(-.65)"/>
      </g>
      <g class="cls-2">
        <rect class="cls-9" x="208.62" y="23.15" width="23.46" height="62.48" transform="translate(-.6 2.51) rotate(-.65)"/>
      </g>
      <g class="cls-15">
        <rect class="cls-16" x="230.78" y="32.95" width="35.1" height="52.39" transform="translate(-.66 2.82) rotate(-.65)"/>
      </g>
      <rect class="cls-11" x="160.62" y="115.66" width="121.62" height="2.11" transform="translate(-1.31 2.52) rotate(-.65)"/>
      <path class="cls-7" d="M272.11,127.75c.3-.4.61-.84.94-1.32v-.03s0-.03,0-.03c0-.31-.05-.57-.14-.79-.07-.11-.12-.19-.17-.26-.07-.07-.13-.1-.2-.1-.04-.02-.08-.03-.1-.03-.02.02-.07.03-.13.04-.09.02-.18.07-.29.14-.2.11-.41.28-.65.5-.41.35-.84.78-1.27,1.26-.37.44-.73.92-1.1,1.43-.39.55-.71,1.04-.97,1.49-.15.29-.28.55-.38.79-.11.29-.16.53-.16.72,0,.09.01.17.04.23.02.02.05.04.07.06,0,.02.02.03.07.03.06.02.15.02.26,0,.13-.04.26-.1.39-.17.41-.22.88-.59,1.4-1.1.39-.38.81-.83,1.27-1.36.43-.53.81-1.03,1.13-1.49ZM269.7,138.78v-.03s-.07-.03-.07-.03v.03s.02.05.07.03ZM278.4,117.79c.09.13.13.26.13.39v.03c-.02.18-.06.39-.12.63-.04.15-.1.32-.16.49-.11.26-.23.56-.38.89-.26.51-.57,1.07-.93,1.69-.56.97-1.2,1.97-1.94,3.01-.19.44-.33.77-.42.99-.38.92-.72,1.78-1.02,2.57-.7,1.82-1.32,3.59-1.84,5.31-.34,1.01-.59,1.9-.76,2.67-.02.15-.05.32-.09.49,0,0,0,0,.01-.02.01-.01.02-.03.02-.05.15-.29.26-.52.32-.69.11-.29.29-.38.56-.28.26.09.34.29.24.57,0,.04-.02.09-.07.13-.17.18-.34.39-.48.63-.13.2-.25.42-.35.66-.15.27-.26.49-.32.7-.04.15-.06.27-.06.36v.03s0,.03,0,.03v.05s0,.06,0,.08c0,.04-.02.1-.06.17l-.03.13-.03.07c-.07.13-.16.22-.29.28-.13.06-.26.05-.4-.01-.13-.05-.22-.13-.27-.26l-.17-.29c0-.15,0-.32.03-.49,0-.07.01-.13.03-.2,0-.07.01-.13.03-.2.02-.11.07-.35.16-.73.1-.44.23-.9.38-1.38.21-.79.47-1.69.79-2.7.49-1.56,1.09-3.34,1.81-5.34.02-.05.05-.11.08-.2.03-.09.06-.15.08-.2-.02,0-.06.05-.11.13-.05.09-.1.15-.15.2-.5.62-.9,1.11-1.2,1.46-.45.53-.89,1-1.3,1.39-.61.6-1.09,1.03-1.46,1.3-.17.11-.34.19-.49.24-.22.09-.43.12-.62.1-.13,0-.25-.03-.36-.09-.11-.07-.21-.15-.3-.26-.13-.17-.22-.39-.27-.65-.05-.3-.02-.68.09-1.12.06-.28.17-.61.32-.95.23-.57.56-1.14.96-1.72.37-.53.78-1.04,1.23-1.53.5-.55.98-1,1.46-1.33.33-.24.62-.42.88-.53.22-.09.41-.15.59-.17.13-.02.25-.02.36,0,.11,0,.23.03.36.09.22.09.4.24.53.46.11.18.19.36.24.56.02.04.03.1.03.16,0-.02.05-.11.16-.26.34-.88.65-1.66.93-2.34.49-1.14.87-2.01,1.15-2.61.23-.51.45-.93.64-1.29.15-.24.28-.45.39-.62.09-.13.17-.24.26-.33.06-.09.11-.14.13-.17.04-.04.12-.11.23-.2.13-.11.28-.16.44-.14.16.02.3.1.41.23ZM259.32,132.23h.03s-.03,0-.03,0ZM268.89,127.65c.15-.09.27-.05.35.13.08.17.04.3-.11.36h-.03c-.18.07-.38.18-.62.34-.17.13-.37.28-.59.43-.17.16-.36.32-.55.5-.17.18-.35.34-.52.5-.09.09-.2.21-.34.35-.14.15-.27.28-.39.4-.12.12-.23.23-.34.32-.26.27-.45.44-.59.53-.13.11-.24.2-.33.26-.15.09-.29.16-.42.2-.04.02-.07.03-.07.03h-.1s-.04,0-.07,0h-.1c-.07-.02-.13-.04-.2-.06-.05-.02-.09-.04-.13-.07-.04-.04-.1-.09-.16-.13-.02-.04-.06-.09-.1-.13-.02-.04-.04-.09-.07-.16l-.03-.07-.03-.07c-.05-.13-.07-.29-.07-.49,0-.11,0-.26.03-.46.04-.33.13-.71.28-1.15l-.55.63c-.69.82-1.17,1.37-1.43,1.66-.28.29-.54.54-.78.76-.35.33-.66.56-.94.7-.13.06-.24.11-.33.13-.17.04-.34.05-.49,0-.2-.07-.36-.18-.5-.36-.07-.11-.12-.24-.17-.39-.05-.2-.06-.43-.04-.69.02-.17.05-.37.09-.59.06-.33.17-.69.31-1.09.11-.33.23-.67.38-1.02.23-.62.52-1.29.86-2.01.19-.38.35-.69.48-.96.11-.18.2-.34.29-.5.04-.09.09-.17.13-.24l.1-.13.03-.07.03-.06s.02-.01.07-.04c.11-.13.25-.21.43-.23.17-.02.33.02.46.14.13.12.21.27.22.44.01.17-.05.33-.18.46l.03-.03-.03.03v.03s-.07.1-.07.1l-.13.23c-.09.14-.17.28-.26.43-.19.35-.35.66-.48.92-.34.66-.64,1.3-.9,1.92-.32.68-.56,1.32-.73,1.91-.04.17-.07.33-.09.46-.04.15-.06.28-.06.39,0,0,0,.01.03.03.02,0,.07-.01.13-.03.22-.09.49-.27.81-.54.24-.18.49-.4.75-.66.52-.51,1.01-1.03,1.46-1.56.46-.51.9-1.06,1.33-1.66.21-.29.41-.58.58-.89.09-.15.17-.3.26-.43.11-.24.17-.38.19-.4.02-.04.04-.09.06-.13.09-.15.2-.26.36-.32.15-.06.3-.04.46.04.26.13.37.33.3.62l-.06.3c-.11.29-.3.73-.59,1.32-.29.59-.5,1.06-.63,1.39-.21.48-.37.92-.48,1.32-.02.09-.04.19-.06.3-.02.09-.03.16-.03.23v.1s0,.03,0,.03h-.03s.03,0,.03,0h.03s.12-.02.23-.07c.06-.05.16-.1.29-.17.2-.11.39-.25.59-.43.3-.27.67-.6,1.11-1l.55-.53c.19-.18.38-.34.55-.5.24-.2.45-.37.62-.5.24-.18.47-.31.68-.4ZM260.82,117.14c.02-.09.04-.17.06-.26.02-.09.03-.17.03-.23-.28.05-.6.21-.95.5-.28.22-.58.52-.88.9-.26.31-.52.65-.78,1.03-.45.66-.91,1.43-1.39,2.31-.81,1.54-1.54,3.18-2.18,4.92-.08.22-.17.43-.25.63.28-.27.57-.58.88-.93.63-.73,1.2-1.45,1.72-2.15.47-.66.98-1.4,1.52-2.22.49-.79.93-1.58,1.32-2.35.24-.48.42-.89.54-1.22.02-.06.06-.16.13-.3.06-.18.11-.29.13-.33l.1-.3ZM261.96,116.07c.07.15.1.35.1.59-.02.13-.05.27-.09.43-.02.13-.05.26-.1.39l-.13.33s-.04.15-.13.33c-.06.15-.11.26-.13.33-.15.37-.35.8-.61,1.29-.82,1.5-1.86,3.04-3.13,4.64-.67.84-1.28,1.53-1.82,2.09-.37.38-.7.7-1.01.96-.24.2-.42.36-.55.46-.11.07-.19.12-.26.17-.08.28-.16.55-.22.79-.27.97-.46,1.83-.56,2.57-.02.22-.03.42-.03.59,0,.22.03.4.07.53,0,.04.01.09.03.13h.1c.09,0,.17-.02.26-.04.28-.07.65-.23,1.11-.47.37-.2.74-.42,1.11-.67.76-.53,1.47-1.09,2.12-1.66.32-.29.64-.6.94-.93.15-.17.29-.34.42-.5.15-.2.27-.37.36-.53v-.03c.09-.15.2-.19.36-.1.15.06.2.17.14.33-.13.37-.36.8-.71,1.29-.24.31-.54.66-.91,1.06-.67.71-1.38,1.34-2.11,1.89-.41.31-.8.58-1.17.8-.24.13-.46.26-.65.37-.26.11-.5.2-.72.27-.15.04-.31.07-.46.07-.2.02-.37.02-.53-.03-.13-.04-.24-.1-.33-.16-.09-.07-.18-.14-.27-.23-.11-.15-.19-.31-.23-.49-.09-.24-.14-.52-.14-.85,0-.24,0-.49.02-.76.06-.75.23-1.68.53-2.8.23-.85.51-1.74.85-2.67.3-.79.65-1.66,1.06-2.61.45-.95.87-1.77,1.25-2.48.49-.9.99-1.71,1.48-2.41.3-.42.59-.8.87-1.13.37-.42.72-.77,1.07-1.03.24-.18.47-.32.69-.44.28-.13.57-.22.85-.27h.1c.07,0,.11,0,.13,0,.13,0,.24.02.33.06.13.02.25.08.36.19.11.08.2.19.27.33ZM247.79,129.27c.28-.33.56-.71.84-1.13.11-.15.25-.35.42-.6l.19-.3.1-.16c.06-.09.11-.15.13-.2.15-.2.34-.22.56-.07.07.04.11.11.13.2.06-.18.13-.34.19-.5.06-.26.11-.5.16-.72.02-.13.04-.24.06-.33v-.2c-.16.02-.34.1-.56.23-.33.18-.7.48-1.11.9-.69.69-1.32,1.48-1.88,2.39-.3.48-.52.91-.64,1.29-.08.24-.13.44-.13.59v.03s.06-.01.1-.03c.15-.07.33-.19.52-.37.28-.27.58-.61.91-1.03ZM245.99,130.67s-.02.04,0,.05c.02,0,.05.01.1.01h.1s-.2-.06-.2-.06ZM253.48,127.83c.15.11.18.24.07.39-.52.73-.97,1.33-1.36,1.79-.28.33-.55.6-.81.8-.18.13-.34.25-.49.36-.11.05-.21.09-.29.14-.13.04-.25.08-.36.1-.13.02-.26.02-.39,0-.15-.04-.29-.12-.4-.23-.16-.15-.28-.37-.37-.65-.07-.35-.1-.76-.08-1.22v-.39c-.24.33-.45.61-.62.83-.34.46-.66.84-.94,1.13-.22.24-.4.43-.55.56-.17.13-.3.22-.39.27-.2.11-.39.18-.59.2h-.03s-.2-.03-.2-.03c-.13-.07-.25-.15-.35-.26-.1-.11-.18-.23-.25-.36-.07-.2-.1-.42-.1-.66.02-.28.09-.6.22-.96.17-.46.43-.97.77-1.52.63-.95,1.34-1.8,2.14-2.55.48-.44.93-.79,1.37-1.03.35-.18.66-.29.95-.34h.3s.1,0,.16.03h.03s.07.03.07.03c.04,0,.09.01.13.03.15.09.28.22.37.39.05.11.07.23.07.36.02.13.02.3,0,.49-.02.13-.05.28-.09.46-.06.24-.15.51-.25.79-.09.24-.18.5-.29.76-.06.15-.13.29-.19.39-.06.15-.13.29-.19.4-.15.22-.35.27-.59.14v-.03c-.08.37-.14.68-.19.92-.02.2-.03.37-.03.52,0,.2.02.35.04.46.02.15.08.25.17.29.02.02.04.04.06.07h.15c.05,0,.11-.02.18-.05.07-.03.14-.06.23-.09.13-.09.26-.19.39-.3.24-.18.5-.41.78-.7.39-.42.84-.98,1.36-1.69.11-.15.24-.18.39-.07ZM240.47,130.94v-.17s-.93.34-.93.34c-2.71,1.06-4.99,1.96-6.84,2.74-1.13.49-2.24.99-3.35,1.52-1.22.56-2.31,1.1-3.29,1.62-1.22.65-2.27,1.28-3.15,1.87-.54.37-1.03.73-1.47,1.08-.51.41-.93.81-1.27,1.22-.18.2-.35.44-.51.72-.14.24-.25.49-.32.74-.14.49-.02.87.37,1.12.18.13.42.21.71.27.27.07.55.11.82.13.55.03,1.13.01,1.75-.05.16-.02.3-.04.41-.06l.22-.03.22-.06c.13-.02.27-.05.44-.08.15-.04.29-.08.44-.12.58-.15,1.16-.32,1.75-.51,1.07-.36,2.2-.8,3.38-1.33,1.14-.5,2.22-1.06,3.24-1.65,1.11-.65,2.1-1.33,2.99-2.03.98-.8,1.81-1.64,2.49-2.55.02,0,.06-.05.12-.14.06-.09.11-.16.15-.2l.24-.38.14-.17.11-.19.22-.39s.04-.05.05-.08c.02-.04.03-.07.04-.1,0-.03.02-.06.04-.1.02-.04.04-.07.05-.11.13-.26.19-.39.19-.39.16-.46.26-.73.29-.83,0-.02.01-.08.04-.18.03-.1.05-.18.07-.23l.08-.41.05-.22.02-.22s0-.14.02-.41ZM248.38,108.46c.04.18.04.37,0,.57-.03.27-.12.6-.26.99-.09.24-.2.53-.35.88-.5,1.06-.76,1.62-.78,1.68-.27.64-.45,1.2-.55,1.68-.16.62-.18,1.17-.06,1.64.04.13.02.25-.07.38-.08.13-.19.21-.34.25-.09.02-.18.01-.26-.01-.08-.03-.16-.08-.22-.15-.06-.07-.11-.15-.12-.25-.02-.01-.03-.04-.03-.05v-.03c-.06-.6.01-1.27.22-2,.14-.51.37-1.1.69-1.79.07-.2.2-.49.37-.87.18-.37.3-.66.38-.84.16-.33.28-.61.35-.83.12-.31.19-.58.21-.8.02-.13.02-.24,0-.33-.02-.07-.06-.15-.11-.22-.09-.11-.29-.19-.58-.24-.22-.05-.49-.07-.82-.07-.24.02-.52.05-.85.09-.57.08-1.15.21-1.75.38-.58.15-1.17.32-1.75.51-2.16.74-4.4,1.7-6.7,2.9-1.09.56-2.15,1.14-3.18,1.76-1.12.69-2.14,1.37-3.04,2.04-1.1.83-1.99,1.63-2.66,2.38-.43.5-.75.96-.94,1.38-.13.25-.19.49-.21.71v.33s.03.04.03.08l.03.05s0,.02.01.06c.01.03.02.06.04.08.09.16.24.34.44.52.18.14.41.29.69.43.42.22.97.44,1.65.67.61.21,1.77.57,3.49,1.06,1.56.42,2.75.77,3.57,1.06,1.37.48,2.53.99,3.47,1.55.64.39,1.17.79,1.57,1.19.26.23.49.49.69.76.19.27.35.57.5.9.13.29.23.61.31.96l1.36-.54c.71-.26,1.28-.48,1.72-.65.33-.13.61-.25.84-.37.36-.17.63-.3.79-.39.14-.09.25-.07.33.07.07.14.05.24-.08.32-.18.11-.46.26-.84.45-.25.1-.55.21-.87.34-.44.19-1.01.41-1.72.67l-1.44.56c.02.22.02.42,0,.6-.02.29-.02.47-.02.52l-.03.25-.05.25-.1.49s0,.08-.03.14c-.02.06-.04.11-.05.18-.02.06-.04.12-.05.15-.04.13-.14.44-.32.94-.02,0-.09.15-.22.44,0,0-.03.06-.08.18-.05.12-.1.21-.13.26l-.24.42-.14.22-.13.19-.27.39c-.04.06-.09.13-.16.23-.07.1-.12.16-.14.16-.74.96-1.63,1.86-2.68,2.71-.92.74-1.96,1.45-3.12,2.12-1.05.62-2.16,1.18-3.32,1.71-1.22.54-2.38.99-3.49,1.35-.62.19-1.23.36-1.83.51-.15.05-.29.09-.44.11-.18.04-.34.08-.49.12l-.22.03-.24.06c-.13.02-.28.04-.47.06-.71.08-1.37.09-1.97.02-.37-.03-.7-.09-.99-.18-.38-.12-.71-.28-.96-.45-.18-.12-.33-.26-.44-.41-.13-.18-.22-.37-.28-.57-.06-.2-.08-.4-.06-.6.02-.04.03-.09.03-.17.02-.07.03-.12.03-.14l.08-.25c.21-.57.57-1.13,1.08-1.68.36-.4.83-.84,1.41-1.3.43-.35.94-.71,1.52-1.08.91-.59,1.98-1.22,3.21-1.87,1.8-.92,4.05-1.94,6.76-3.06,1.85-.79,4.14-1.69,6.87-2.71l1.04-.4c-.04-.33-.13-.63-.26-.9-.11-.25-.24-.48-.39-.68-.19-.24-.37-.44-.56-.62-.35-.35-.81-.69-1.38-1.03-.83-.5-1.92-.98-3.27-1.44-.81-.28-1.97-.63-3.49-1.06-1.76-.51-2.95-.87-3.57-1.08-.71-.25-1.31-.5-1.79-.75-.33-.18-.61-.36-.85-.54-.33-.27-.58-.56-.75-.87-.02-.02-.06-.12-.11-.3-.06-.12-.08-.23-.09-.3-.04-.2-.05-.4-.03-.6.03-.33.14-.69.32-1.07.23-.51.6-1.06,1.1-1.66.72-.79,1.67-1.63,2.85-2.52.94-.69,1.98-1.37,3.13-2.06,1.05-.65,2.14-1.26,3.26-1.82,1.14-.58,2.26-1.11,3.35-1.6,1.25-.53,2.43-.97,3.52-1.33,1.38-.43,2.61-.71,3.69-.84.8-.08,1.46-.07,1.97.03.2.05.38.11.55.19.2.09.37.21.5.38.15.18.24.39.28.63Z"/>
      <path class="cls-19" d="M272.08,127.75c.3-.4.61-.84.94-1.32v-.03s0-.03,0-.03c0-.31-.05-.57-.14-.79-.07-.11-.12-.2-.17-.26-.07-.07-.13-.1-.2-.1-.04-.02-.08-.03-.1-.03-.02.02-.07.03-.13.03-.09.02-.18.07-.29.14-.2.11-.41.28-.65.5-.41.35-.84.78-1.27,1.26-.37.44-.73.92-1.1,1.42-.39.55-.71,1.05-.97,1.49-.15.29-.28.55-.38.79-.11.29-.16.53-.16.72,0,.09.01.17.04.23.02.02.05.04.07.06,0,.02.02.03.07.03.06.02.15.02.26,0,.13-.04.26-.1.39-.17.41-.22.88-.59,1.4-1.1.39-.38.81-.83,1.27-1.36.43-.53.81-1.03,1.13-1.49M269.68,138.78v-.03s-.07-.03-.07-.03v.03s.02.05.07.03ZM278.37,117.79c.09.13.13.26.13.39v.03c-.02.18-.06.38-.12.63-.04.15-.1.32-.16.49-.11.26-.23.56-.38.89-.26.51-.57,1.07-.93,1.69-.56.97-1.2,1.97-1.94,3.01-.19.44-.33.77-.42.99-.38.92-.72,1.78-1.02,2.57-.7,1.82-1.32,3.59-1.84,5.31-.34,1.01-.59,1.9-.76,2.67-.02.15-.05.32-.09.49,0,0,0,0,.02-.02.01-.01.02-.03.02-.05.15-.29.26-.52.32-.69.11-.29.29-.38.56-.28.26.09.34.29.24.57,0,.04-.02.09-.06.13-.17.18-.34.39-.48.63-.13.2-.25.42-.35.66-.15.26-.26.5-.32.69-.04.15-.06.27-.06.36v.03s0,.03,0,.03v.05s0,.06,0,.08c0,.04-.02.1-.06.16l-.03.13-.03.07c-.06.13-.16.23-.29.28-.13.06-.26.05-.39-.01-.13-.04-.22-.13-.27-.26l-.17-.29c0-.15,0-.32.03-.49,0-.07.01-.13.03-.2,0-.07.01-.13.03-.2.02-.11.07-.35.16-.73.1-.44.23-.9.38-1.38.21-.79.47-1.69.79-2.7.49-1.56,1.09-3.34,1.81-5.34.02-.05.05-.11.08-.2.03-.09.06-.15.08-.2-.02,0-.06.05-.11.13-.05.09-.1.15-.15.2-.5.62-.9,1.11-1.2,1.46-.45.53-.89,1-1.3,1.39-.61.6-1.09,1.03-1.46,1.3-.17.11-.34.19-.49.24-.22.09-.43.13-.62.11-.13,0-.25-.03-.36-.09-.11-.07-.21-.15-.3-.26-.13-.17-.22-.39-.27-.65-.05-.3-.02-.68.09-1.12.06-.28.17-.6.32-.96.23-.57.56-1.14.96-1.72.37-.53.78-1.04,1.23-1.53.5-.55.98-1,1.46-1.33.33-.24.62-.42.88-.53.22-.09.41-.15.59-.17.13-.02.25-.02.36,0,.11,0,.23.03.36.1.22.09.4.24.53.45.11.18.19.36.24.56.02.04.03.1.03.16,0-.02.05-.11.16-.26.34-.88.65-1.66.93-2.34.49-1.14.87-2.01,1.15-2.61.23-.51.45-.93.64-1.29.15-.24.28-.45.39-.63.09-.13.17-.24.26-.33.07-.09.11-.14.13-.17.04-.04.12-.11.23-.2.13-.11.28-.16.44-.14.16.02.3.1.41.23ZM259.29,132.23h.03s-.03,0-.03,0ZM268.86,127.65c.15-.09.27-.05.35.13.08.17.04.3-.11.36h-.03c-.18.07-.38.18-.62.34-.17.13-.37.28-.59.43-.17.16-.36.32-.55.5-.17.18-.35.34-.52.5-.09.09-.2.2-.34.35-.14.15-.27.28-.39.4-.12.12-.23.23-.34.32-.26.27-.45.44-.59.53-.13.11-.24.2-.33.27-.15.09-.29.16-.42.2-.04.02-.07.03-.07.03h-.1s-.04,0-.07,0h-.1c-.07-.02-.13-.04-.2-.06-.05-.02-.09-.04-.13-.06-.04-.04-.1-.09-.16-.13-.02-.04-.06-.09-.1-.13-.02-.04-.04-.1-.07-.16l-.03-.07-.03-.07c-.05-.13-.07-.29-.07-.49,0-.11,0-.26.03-.46.04-.33.13-.71.28-1.15l-.55.63c-.69.82-1.17,1.37-1.43,1.66-.28.29-.54.54-.78.76-.35.33-.66.57-.94.7-.13.07-.24.11-.33.13-.17.05-.34.05-.49,0-.2-.06-.36-.18-.5-.36-.07-.11-.12-.24-.17-.39-.05-.2-.06-.43-.04-.69.02-.18.05-.37.09-.59.06-.33.17-.69.31-1.09.11-.33.23-.67.38-1.02.23-.62.52-1.29.86-2.01.19-.38.35-.69.48-.96.11-.18.2-.34.29-.5.04-.09.09-.17.13-.23l.1-.13.03-.07.03-.07s.02,0,.07-.03c.11-.13.25-.21.43-.23.17-.02.33.02.46.14.13.12.21.27.22.44.01.17-.05.33-.18.46l.03-.03-.03.03v.03s-.06.1-.06.1l-.13.23c-.09.13-.17.28-.26.43-.19.35-.35.66-.48.93-.34.66-.64,1.3-.9,1.91-.32.68-.56,1.32-.73,1.91-.04.18-.07.33-.09.46-.04.15-.06.28-.06.39,0,0,0,.01.03.03.02,0,.07-.01.13-.03.22-.09.49-.27.81-.53.24-.18.49-.4.75-.66.52-.51,1.01-1.03,1.46-1.56.46-.51.9-1.06,1.33-1.66.21-.29.41-.59.58-.89.09-.15.17-.3.26-.43.11-.24.17-.37.19-.4.02-.04.04-.09.06-.13.09-.15.21-.26.36-.32.15-.06.31-.04.46.04.26.13.37.33.3.62l-.06.3c-.11.29-.3.73-.59,1.32-.29.59-.5,1.06-.63,1.39-.21.48-.37.92-.48,1.32-.02.09-.04.19-.06.3-.02.09-.03.16-.03.23v.1s0,.03,0,.03h-.03s.03,0,.03,0h.03s.12-.02.23-.07c.06-.05.16-.1.29-.17.2-.11.39-.26.59-.43.3-.27.67-.6,1.11-1l.55-.53c.19-.18.38-.34.55-.5.24-.2.45-.37.62-.5.24-.18.47-.31.68-.4ZM260.79,117.14c.02-.09.04-.18.06-.26.02-.09.03-.17.03-.23-.28.05-.6.21-.95.5-.28.22-.58.52-.88.9-.26.31-.52.65-.78,1.03-.45.66-.91,1.43-1.39,2.31-.81,1.54-1.54,3.18-2.18,4.92-.09.22-.17.43-.26.63.28-.27.57-.58.88-.93.63-.73,1.2-1.45,1.72-2.16.47-.66.98-1.4,1.52-2.22.49-.79.93-1.58,1.32-2.35.24-.48.42-.89.54-1.22.02-.06.06-.16.13-.3.06-.18.11-.29.13-.33l.1-.3ZM261.93,116.07c.07.15.1.35.1.59-.02.13-.05.27-.09.43-.02.13-.05.26-.09.39l-.13.33s-.04.15-.13.33c-.06.15-.11.26-.13.33-.15.37-.35.8-.61,1.29-.82,1.5-1.86,3.04-3.13,4.63-.67.84-1.28,1.54-1.82,2.09-.37.38-.7.7-1.01.96-.24.2-.42.35-.55.47-.11.07-.2.12-.26.17-.08.28-.16.55-.22.79-.27.97-.46,1.82-.56,2.57-.02.22-.03.42-.03.59,0,.22.03.39.07.52,0,.04.01.09.03.13h.1c.09,0,.17-.01.26-.04.28-.07.65-.23,1.11-.47.37-.2.74-.42,1.11-.67.76-.53,1.47-1.09,2.12-1.67.32-.29.64-.6.94-.93.15-.18.29-.34.42-.5.15-.2.27-.38.36-.53v-.03c.09-.15.2-.19.36-.1.15.06.2.17.14.33-.13.37-.36.8-.71,1.29-.24.31-.54.66-.91,1.06-.67.71-1.38,1.34-2.11,1.9-.41.31-.8.58-1.17.8-.24.13-.46.26-.65.37-.26.11-.5.2-.72.27-.15.05-.31.07-.46.07-.2.02-.37.02-.53-.03-.13-.04-.24-.1-.33-.16-.09-.07-.18-.14-.27-.23-.11-.15-.19-.31-.24-.49-.09-.24-.14-.52-.14-.85,0-.24,0-.49.02-.75.06-.75.23-1.68.53-2.8.23-.86.51-1.75.85-2.67.3-.79.65-1.66,1.06-2.61.45-.95.87-1.77,1.25-2.48.49-.9.99-1.71,1.48-2.41.3-.42.59-.8.87-1.13.37-.42.72-.76,1.07-1.03.24-.18.47-.32.69-.44.28-.13.57-.22.85-.27h.1c.07,0,.11,0,.13,0,.13,0,.24.02.33.06.13.02.25.08.36.19.11.09.2.2.27.33ZM247.76,129.27c.28-.33.56-.71.84-1.13.11-.15.25-.35.42-.6l.19-.3.1-.16c.06-.09.11-.15.13-.2.15-.2.34-.22.56-.07.07.04.11.11.13.2.06-.18.13-.34.19-.5.06-.26.11-.5.16-.72.02-.13.04-.24.06-.33v-.2c-.16.02-.34.1-.56.24-.33.18-.69.48-1.11.9-.69.69-1.32,1.48-1.88,2.39-.3.48-.52.91-.64,1.29-.08.24-.13.44-.13.59v.03s.05-.01.1-.03c.15-.07.33-.19.52-.37.28-.27.58-.61.91-1.03ZM245.97,130.67s-.02.04,0,.05c.02,0,.05.01.1.01h.1s-.2-.06-.2-.06ZM253.46,127.83c.15.11.18.24.07.39-.52.73-.97,1.33-1.36,1.79-.28.33-.55.6-.81.8-.18.13-.34.25-.49.37-.11.05-.21.09-.29.14-.13.04-.25.08-.36.1-.13.02-.26.03-.39,0-.15-.04-.29-.12-.4-.23-.16-.15-.28-.37-.37-.65-.07-.35-.1-.76-.08-1.21v-.39c-.24.33-.45.61-.62.83-.34.46-.66.84-.94,1.13-.22.24-.4.43-.55.56-.17.13-.3.22-.39.27-.2.11-.39.18-.59.2h-.03s-.2-.03-.2-.03c-.13-.06-.25-.15-.35-.26-.1-.11-.18-.23-.25-.36-.07-.2-.1-.41-.1-.66.02-.28.09-.6.22-.95.17-.46.43-.97.77-1.52.63-.95,1.34-1.8,2.14-2.55.48-.44.93-.79,1.37-1.03.35-.18.66-.29.95-.34h.3s.1,0,.16.03h.03s.07.03.07.03c.04,0,.09.01.13.03.15.09.28.22.37.39.05.11.07.23.07.36.02.13.02.3,0,.49-.02.13-.05.28-.09.46-.06.24-.15.51-.25.79-.08.24-.18.5-.29.76-.06.15-.13.29-.19.39-.06.15-.13.29-.19.4-.15.22-.35.27-.59.14v-.03c-.08.37-.14.68-.19.92-.02.2-.03.37-.03.53,0,.2.02.35.04.46.02.15.08.25.17.29.02.02.04.04.07.07h.15c.05,0,.11-.02.18-.05.07-.03.14-.06.23-.09.13-.09.26-.19.39-.3.24-.18.5-.41.78-.7.39-.42.84-.98,1.36-1.69.11-.15.24-.18.39-.07ZM240.45,130.94v-.17s-.93.34-.93.34c-2.71,1.05-4.99,1.96-6.84,2.73-1.13.49-2.24.99-3.35,1.52-1.22.56-2.31,1.1-3.29,1.62-1.22.65-2.27,1.28-3.15,1.87-.54.37-1.03.73-1.47,1.08-.51.41-.93.81-1.27,1.22-.18.2-.35.44-.51.72-.14.24-.25.49-.32.74-.14.49-.02.87.37,1.12.18.13.42.21.71.27.27.07.55.11.82.13.55.03,1.13.01,1.75-.05.16-.02.3-.04.41-.06l.22-.03.22-.06c.13-.02.27-.05.44-.09.15-.04.29-.08.44-.12.58-.15,1.16-.32,1.75-.51,1.07-.36,2.2-.8,3.38-1.33,1.14-.5,2.22-1.06,3.24-1.65,1.11-.65,2.1-1.33,2.99-2.03.98-.8,1.81-1.64,2.49-2.55.02,0,.06-.05.12-.14.06-.09.11-.16.15-.19l.24-.39.14-.17.11-.19.22-.39s.04-.05.05-.08c.02-.04.03-.07.04-.1,0-.03.02-.06.04-.1.02-.04.04-.07.05-.11.13-.26.19-.39.19-.39.16-.46.26-.73.29-.83,0-.02.01-.08.04-.18.03-.1.05-.18.07-.23l.08-.41.05-.22.02-.22s0-.14.02-.41ZM248.35,108.46c.04.18.04.37,0,.57-.03.27-.12.6-.26.99-.09.24-.2.53-.35.88-.5,1.06-.76,1.62-.78,1.68-.27.64-.45,1.2-.55,1.68-.16.62-.18,1.17-.06,1.64.04.13.02.25-.07.38-.08.13-.19.21-.34.25-.09.02-.18.02-.26-.01-.08-.03-.16-.08-.22-.15-.06-.07-.11-.15-.13-.25-.02-.02-.03-.04-.03-.05v-.03c-.06-.6.01-1.27.22-2,.14-.51.37-1.11.69-1.79.07-.2.2-.49.37-.87.18-.38.3-.66.38-.84.16-.33.28-.61.35-.83.12-.31.19-.58.21-.8.02-.13.02-.24,0-.33-.02-.07-.06-.15-.11-.22-.09-.11-.29-.19-.58-.24-.22-.05-.49-.08-.82-.07-.24.02-.52.05-.85.09-.57.08-1.15.2-1.75.38-.58.15-1.17.32-1.75.51-2.16.74-4.4,1.7-6.7,2.9-1.09.56-2.15,1.15-3.18,1.76-1.12.69-2.14,1.37-3.04,2.03-1.1.83-1.99,1.63-2.65,2.38-.43.5-.75.96-.94,1.38-.13.26-.19.49-.21.71v.33s.03.04.03.08l.03.05s0,.02.01.06c.01.03.02.06.04.08.09.16.24.33.44.51.18.14.41.29.69.43.42.21.97.44,1.65.67.61.21,1.77.57,3.49,1.06,1.56.42,2.75.77,3.57,1.06,1.37.48,2.53.99,3.47,1.55.64.39,1.17.79,1.57,1.19.26.23.49.49.69.76.19.27.35.57.5.9.13.29.23.61.31.96l1.36-.54c.71-.26,1.28-.48,1.72-.65.33-.13.61-.25.84-.37.36-.17.63-.3.79-.39.14-.09.25-.07.33.07.07.14.05.24-.08.32-.18.11-.46.26-.84.45-.25.09-.55.21-.87.34-.44.19-1.01.41-1.72.68l-1.44.56c.02.22.02.42,0,.6-.02.29-.02.46-.02.52l-.03.25-.05.25-.1.49s0,.08-.03.14c-.02.06-.04.12-.05.18-.02.06-.04.12-.05.15-.04.13-.14.44-.32.94-.02,0-.09.15-.21.44,0,0-.03.06-.08.18-.05.12-.1.21-.13.26l-.24.42-.14.22-.13.19-.27.39c-.04.05-.09.13-.16.23-.07.1-.12.15-.14.15-.74.96-1.63,1.86-2.68,2.71-.92.74-1.96,1.45-3.13,2.12-1.05.61-2.16,1.18-3.32,1.71-1.22.54-2.38.99-3.49,1.35-.62.19-1.23.36-1.83.51-.15.06-.29.09-.44.11-.18.04-.35.08-.49.12l-.22.03-.24.06c-.13.02-.28.04-.47.06-.71.08-1.37.09-1.97.02-.37-.03-.7-.09-.99-.18-.38-.12-.71-.28-.96-.46-.18-.12-.33-.26-.44-.41-.13-.18-.22-.37-.28-.57-.06-.2-.08-.4-.06-.6.02-.04.03-.09.03-.17.02-.07.03-.12.03-.14l.08-.25c.21-.57.57-1.13,1.08-1.68.36-.4.83-.84,1.41-1.3.43-.35.94-.71,1.52-1.08.91-.59,1.98-1.22,3.21-1.87,1.8-.92,4.05-1.94,6.76-3.06,1.85-.79,4.14-1.69,6.87-2.71l1.04-.4c-.04-.33-.13-.63-.26-.9-.11-.25-.24-.48-.39-.68-.19-.24-.37-.44-.56-.62-.35-.34-.81-.69-1.38-1.02-.83-.5-1.92-.98-3.27-1.44-.81-.28-1.97-.64-3.49-1.06-1.76-.51-2.95-.87-3.57-1.08-.71-.25-1.31-.49-1.79-.75-.33-.18-.61-.36-.85-.54-.33-.27-.58-.56-.75-.87-.02-.02-.06-.12-.11-.3-.06-.13-.08-.23-.09-.3-.04-.2-.05-.4-.03-.6.03-.33.14-.69.32-1.07.23-.51.6-1.07,1.1-1.66.72-.79,1.67-1.63,2.85-2.52.94-.69,1.98-1.37,3.13-2.06,1.05-.65,2.14-1.26,3.26-1.82,1.14-.58,2.26-1.11,3.35-1.6,1.25-.53,2.43-.97,3.52-1.33,1.38-.43,2.61-.71,3.69-.84.8-.08,1.46-.07,1.97.03.2.05.38.11.55.19.2.09.37.21.5.38.15.18.24.39.28.63Z"/>
      <path class="cls-19" d="M181.44,131.62c.61,0,1.15-.23,1.62-.68.47-.45.78-1.01.92-1.69.14-.67.07-1.23-.23-1.68-.29-.45-.74-.66-1.35-.66-.6,0-1.13.24-1.61.69-.48.45-.78,1.02-.92,1.69-.14.67-.06,1.23.22,1.67.29.44.73.66,1.34.65M185.56,125.33c.24,0,.43.07.55.23.12.16.16.36.11.62l-1.22,5.94c-.05.24-.17.45-.36.61-.19.17-.41.25-.65.25s-.42-.08-.55-.23c-.12-.16-.16-.36-.12-.6-.29.27-.65.51-1.09.7-.44.2-.88.3-1.32.3-.64,0-1.19-.15-1.65-.48-.45-.33-.77-.78-.95-1.37-.18-.59-.2-1.25-.04-2,.16-.75.44-1.42.87-2.02.42-.6.93-1.07,1.51-1.4.59-.34,1.19-.51,1.82-.52.45,0,.85.07,1.21.23.36.16.65.36.87.61v-.02c.05-.24.17-.45.37-.61.19-.17.41-.25.65-.25ZM173.14,131.71c.6,0,1.14-.24,1.61-.69.48-.45.78-1.02.92-1.69.14-.67.07-1.23-.22-1.67-.29-.44-.73-.66-1.34-.65s-1.15.23-1.62.68c-.48.45-.78,1.01-.92,1.69-.14.67-.06,1.24.23,1.68.29.45.74.66,1.35.66ZM174.63,125.46c.65,0,1.19.15,1.65.48.46.33.77.78.95,1.37.18.59.2,1.25.04,2-.15.75-.44,1.42-.86,2.02-.42.6-.93,1.07-1.51,1.4-.59.34-1.19.51-1.82.52-.45,0-.85-.08-1.21-.26-.36-.18-.64-.4-.85-.66l-.57,2.75c-.05.24-.17.45-.36.61-.19.17-.41.25-.65.25s-.43-.07-.55-.23c-.13-.16-.16-.36-.11-.62l1.78-8.61c.05-.24.17-.45.36-.61.19-.17.41-.25.65-.25s.43.08.55.24c.12.16.16.36.11.61v.06c.27-.28.63-.53,1.08-.75.44-.21.89-.32,1.33-.33ZM160.04,131.86c.61,0,1.15-.23,1.62-.68.47-.45.78-1.01.92-1.69.14-.67.07-1.23-.23-1.68-.29-.45-.74-.66-1.35-.66-.6,0-1.14.24-1.61.69-.48.45-.78,1.02-.92,1.69-.14.67-.06,1.23.22,1.67.29.44.73.66,1.34.65ZM164.16,125.58c.24,0,.43.07.55.23.12.16.16.36.11.62l-1.22,5.94c-.05.24-.17.45-.36.61-.19.17-.41.25-.65.25s-.42-.08-.55-.23c-.12-.16-.16-.36-.12-.6-.29.27-.65.51-1.09.7-.44.2-.88.3-1.32.3-.64,0-1.19-.15-1.65-.48-.45-.33-.77-.78-.95-1.37-.18-.59-.2-1.25-.04-2,.15-.75.44-1.42.87-2.02.42-.6.93-1.07,1.51-1.4.59-.34,1.19-.51,1.82-.52.45,0,.85.07,1.21.23.36.16.65.36.87.61v-.02c.05-.24.17-.45.37-.61.19-.17.41-.25.65-.25ZM154.83,131.78c.23,0,.4.07.52.21.12.14.16.33.11.55-.04.21-.15.4-.34.55-.18.15-.38.23-.61.23l-4.51.05c-.21,0-.38-.07-.49-.23-.11-.15-.15-.32-.11-.5.03-.16.08-.29.14-.4.06-.11.15-.23.29-.37l4.23-4.37-2.72.03c-.22,0-.4-.07-.51-.22-.12-.15-.15-.33-.11-.56.04-.21.15-.4.33-.54.18-.15.38-.22.61-.22l4.32-.05c.21,0,.36.07.48.21.11.14.15.32.11.54-.03.14-.07.26-.11.36-.05.1-.14.21-.27.35l-4.26,4.41,2.93-.03ZM146.96,125.77c.95-.01,1.55.26,1.8.83.25.56.27,1.34.06,2.35l-.74,3.6c-.05.24-.17.45-.36.61-.19.17-.41.25-.65.25s-.43-.08-.55-.24c-.13-.16-.16-.37-.11-.61l.74-3.6c.11-.51.08-.92-.07-1.21-.15-.29-.49-.44-1.02-.43s-1,.17-1.37.48c-.37.32-.61.71-.71,1.19l-.74,3.6c-.05.24-.17.45-.36.61-.19.17-.41.25-.65.25s-.43-.08-.55-.24c-.13-.16-.16-.37-.11-.61l1.2-5.8c.05-.24.17-.45.36-.61.19-.17.41-.25.65-.25s.43.08.55.24c.12.16.16.36.11.61l-.05.24c.32-.34.71-.63,1.17-.88.46-.25.93-.37,1.41-.38ZM136.17,132.13c.61,0,1.15-.23,1.62-.68.47-.45.78-1.01.92-1.69.14-.67.07-1.23-.23-1.68-.29-.45-.74-.66-1.35-.66-.6,0-1.14.24-1.61.69-.48.45-.78,1.02-.92,1.69-.14.67-.06,1.23.22,1.67.29.44.73.66,1.34.65ZM140.29,125.85c.24,0,.43.07.55.23.12.16.16.36.11.62l-1.22,5.94c-.05.24-.17.45-.36.61-.19.17-.41.25-.65.25s-.42-.08-.55-.23c-.12-.16-.16-.36-.12-.6-.29.27-.65.51-1.09.7-.44.2-.88.3-1.32.3-.64,0-1.19-.15-1.65-.48-.45-.33-.77-.78-.95-1.37-.18-.59-.2-1.25-.04-2,.15-.75.44-1.42.87-2.02.42-.6.93-1.07,1.51-1.4.59-.34,1.19-.51,1.82-.52.45,0,.85.07,1.21.23.36.16.65.36.87.61v-.02c.05-.24.17-.45.37-.61.19-.17.41-.25.65-.25ZM131.8,125.17c-.32,0-.53-.04-.64-.15-.11-.1-.14-.28-.08-.55l.06-.27c.05-.26.16-.45.32-.55.16-.1.4-.16.7-.16.33,0,.55.05.66.15.11.1.14.28.08.55l-.06.27c-.06.27-.16.46-.32.56-.16.1-.4.15-.73.15ZM131.1,132.74c-.05.24-.17.45-.36.61-.19.17-.41.25-.65.25s-.43-.08-.55-.24c-.12-.16-.16-.37-.11-.61l1.2-5.8c.05-.24.17-.45.36-.61.19-.17.41-.25.65-.25s.43.08.55.24c.12.16.16.36.11.61l-1.2,5.8ZM128.93,124.73c-.32,0-.56.1-.73.28-.17.18-.28.38-.32.6l-.13.66h1.28c.22-.02.39.05.51.2.12.14.16.33.11.55-.05.23-.16.41-.34.56-.18.15-.38.22-.6.22h-1.28s-1.02,4.99-1.02,4.99c-.05.24-.17.45-.36.61-.19.17-.41.25-.65.25s-.43-.08-.55-.24c-.13-.16-.16-.37-.11-.61l1.03-4.97h-.76c-.22.01-.4-.06-.52-.2-.12-.14-.16-.33-.11-.55.05-.22.16-.41.34-.56.18-.15.38-.22.61-.22h.76s.13-.66.13-.66c.14-.7.5-1.28,1.07-1.72.57-.45,1.31-.67,2.22-.68.35,0,.63.06.86.2.23.14.31.35.25.64-.05.22-.15.41-.31.55-.16.14-.33.21-.52.22-.05,0-.1,0-.15-.01-.05,0-.1-.02-.16-.03-.21-.05-.39-.08-.54-.08ZM120.72,126.07c.95-.01,1.55.26,1.8.83.25.56.27,1.34.06,2.35l-.74,3.6c-.05.24-.17.45-.36.61-.19.17-.41.25-.65.25s-.43-.08-.55-.24c-.13-.16-.16-.37-.11-.61l.74-3.6c.1-.51.08-.92-.07-1.21-.16-.29-.5-.44-1.02-.43-.54,0-1,.17-1.37.48-.37.32-.61.71-.71,1.19l-.74,3.6c-.05.24-.17.45-.36.61-.19.17-.41.25-.65.25s-.43-.08-.55-.24c-.13-.16-.16-.37-.11-.61l1.2-5.8c.05-.24.17-.45.36-.61.19-.17.41-.25.65-.25s.43.08.55.24c.12.16.16.36.11.61l-.05.24c.32-.34.71-.63,1.17-.88.46-.25.93-.37,1.41-.38ZM112.82,130.05c.1-.46.08-.87-.03-1.23-.12-.36-.32-.63-.6-.83-.28-.19-.62-.29-1.01-.28s-.77.11-1.13.31c-.36.2-.68.48-.94.85-.27.36-.45.77-.54,1.23-.09.46-.08.87.04,1.22.12.35.32.63.6.82.28.19.62.29,1.01.28s.77-.11,1.13-.31c.36-.2.68-.48.94-.84.26-.36.44-.77.54-1.23ZM114.5,130.04c-.15.75-.46,1.42-.92,2.02-.46.6-1.01,1.07-1.67,1.4-.65.33-1.33.51-2.03.51-.71,0-1.32-.15-1.83-.47-.51-.32-.87-.78-1.09-1.37-.21-.59-.24-1.26-.09-2.01.15-.75.46-1.42.92-2.02.46-.6,1.01-1.07,1.66-1.41.65-.34,1.33-.51,2.04-.52.7,0,1.31.15,1.82.48.52.32.88.78,1.1,1.37.21.59.24,1.26.09,2.01ZM104.15,126.26c.79,0,1.41.11,1.84.35.44.24.61.57.53.98-.04.21-.14.39-.29.54-.15.16-.33.24-.52.24-.15,0-.27-.02-.35-.06-.08-.04-.16-.1-.24-.17-.07-.07-.15-.13-.22-.17-.08-.05-.21-.09-.39-.12-.18-.03-.32-.05-.43-.05-.7,0-1.29.23-1.78.67-.49.44-.8,1.01-.95,1.71-.14.67-.05,1.23.26,1.67.31.44.78.66,1.4.65.46,0,.81-.07,1.06-.18.06-.03.15-.08.26-.15.11-.07.21-.13.31-.17.09-.04.2-.06.32-.06.23,0,.4.07.51.22.1.15.13.34.08.57-.05.22-.22.44-.52.64-.3.2-.68.36-1.14.48-.45.12-.92.19-1.41.19-.72,0-1.32-.15-1.8-.48-.48-.33-.8-.79-.98-1.39-.18-.59-.19-1.25-.04-1.98.16-.76.45-1.43.89-2.03.43-.59.97-1.06,1.6-1.4.63-.34,1.3-.51,2.01-.52ZM88.43,132.91c-.06-.11-.07-.25-.04-.42.05-.24.21-.45.49-.62.15-.09.29-.13.43-.13.2,0,.36.09.5.26.22.29.47.5.74.64.28.14.63.2,1.06.2.73-.04,1.16-.32,1.27-.84.06-.27-.03-.48-.24-.61-.22-.14-.58-.27-1.07-.41-.51-.14-.92-.29-1.23-.43-.31-.15-.56-.37-.74-.67-.19-.3-.22-.71-.12-1.22.09-.45.3-.84.63-1.18.32-.34.71-.6,1.17-.79.45-.19.91-.28,1.38-.29s.93.08,1.37.25c.44.17.76.43.96.77.09.15.12.32.08.5-.04.21-.17.39-.38.54-.15.1-.31.16-.48.16-.21,0-.36-.06-.46-.19-.13-.2-.31-.37-.55-.48-.24-.12-.53-.18-.87-.17-.71,0-1.12.27-1.22.78-.04.21-.01.37.09.5.11.13.25.22.44.29.19.07.45.15.79.25.48.13.87.28,1.17.42.31.14.54.37.71.68.17.31.2.71.1,1.22-.1.46-.31.86-.66,1.21-.34.34-.74.61-1.2.79-.46.18-.92.28-1.37.28-.62,0-1.17-.09-1.66-.29-.49-.2-.86-.53-1.1-.98ZM86.31,130.36c.1-.46.08-.87-.03-1.23-.12-.36-.32-.63-.6-.83-.28-.19-.62-.29-1.01-.28s-.77.11-1.13.31c-.36.2-.68.48-.94.85-.27.36-.45.77-.54,1.23-.09.46-.08.87.04,1.22.12.35.32.63.6.82.28.19.62.29,1.01.28.39,0,.77-.11,1.13-.31.36-.2.68-.48.94-.84.26-.36.44-.77.54-1.23ZM88,130.34c-.15.75-.46,1.42-.92,2.02-.46.6-1.02,1.07-1.67,1.4-.65.33-1.33.51-2.03.51s-1.32-.15-1.83-.47c-.51-.32-.87-.78-1.09-1.37-.21-.59-.24-1.26-.09-2.01.16-.75.46-1.42.92-2.02.46-.6,1.01-1.07,1.66-1.41.65-.34,1.33-.51,2.04-.52s1.31.15,1.82.48c.52.32.88.78,1.1,1.37.21.59.24,1.26.09,2.01ZM77.32,126.56c.93-.01,1.51.26,1.74.83.24.56.25,1.34.05,2.35l-.74,3.6c-.05.24-.17.45-.36.61-.19.17-.41.25-.65.25s-.43-.08-.55-.24c-.13-.16-.16-.37-.11-.61l.74-3.6c.1-.51.09-.92-.05-1.21-.14-.29-.46-.44-.97-.43s-.96.17-1.32.48c-.36.32-.59.71-.69,1.19l-.74,3.6c-.05.24-.17.45-.36.61-.19.17-.41.25-.65.25s-.43-.08-.55-.24c-.13-.16-.16-.37-.11-.61l.74-3.6c.11-.51.09-.92-.05-1.21-.14-.29-.46-.44-.97-.43-.52,0-.96.17-1.32.48-.36.32-.59.71-.69,1.19l-.74,3.6c-.05.24-.17.45-.36.61-.19.17-.41.25-.65.25s-.43-.08-.55-.24c-.13-.16-.16-.37-.11-.61l1.2-5.8c.05-.24.17-.45.36-.61.19-.17.41-.25.65-.25s.43.08.55.24c.12.16.16.36.11.61l-.05.23c.32-.34.7-.63,1.14-.88.44-.24.89-.37,1.37-.37,1.18-.01,1.82.49,1.94,1.52.3-.4.7-.76,1.2-1.08.5-.32,1.03-.49,1.58-.49ZM61.89,132.97c.61,0,1.15-.23,1.62-.68.47-.45.78-1.01.92-1.69.14-.67.07-1.23-.23-1.68-.29-.45-.74-.66-1.35-.66-.6,0-1.14.24-1.61.69-.48.45-.78,1.02-.92,1.69-.14.67-.06,1.23.22,1.67.29.44.73.66,1.34.65ZM66.01,126.69c.24,0,.43.07.55.23.12.16.16.36.11.62l-1.22,5.94c-.05.24-.17.45-.36.61-.19.17-.41.25-.65.25s-.42-.08-.55-.23c-.12-.16-.16-.36-.12-.6-.29.27-.65.51-1.09.7-.44.2-.88.3-1.32.3-.64,0-1.19-.15-1.65-.48-.45-.33-.77-.78-.95-1.37-.18-.59-.2-1.25-.04-2,.15-.75.44-1.42.87-2.02.42-.6.93-1.07,1.51-1.4.59-.34,1.19-.51,1.82-.52.45,0,.85.07,1.21.23.36.16.65.36.87.61v-.02c.05-.24.17-.45.37-.61.19-.17.41-.25.65-.25ZM57.92,126.78c.28,0,.5.07.66.23.16.16.22.34.17.56-.06.29-.18.51-.36.66-.18.15-.37.22-.58.22-.14,0-.29-.03-.46-.09-.03,0-.09-.03-.18-.05-.09-.03-.2-.04-.31-.04-.24,0-.49.08-.75.23-.25.15-.49.38-.69.69-.21.31-.36.67-.44,1.09l-.69,3.33c-.05.24-.17.45-.36.61-.19.17-.41.25-.65.25s-.43-.08-.55-.24c-.13-.16-.16-.37-.11-.61l1.2-5.8c.05-.24.17-.45.36-.61.19-.17.41-.25.65-.25s.43.08.55.24c.12.16.16.36.11.61l-.04.18c.3-.39.67-.68,1.11-.89.44-.21.9-.31,1.35-.32ZM48.76,128.43c-1.08.01-1.83.53-2.24,1.55l3.67-.04.02-.1c.04-.39-.08-.73-.37-1.01-.29-.28-.65-.41-1.09-.41ZM51.85,130.57c-.05.22-.18.41-.38.55-.2.14-.41.21-.63.22l-4.63.05c0,.55.17.98.5,1.29.34.31.76.46,1.26.45.38,0,.69-.04.92-.12.23-.07.41-.15.56-.23.14-.08.24-.14.29-.16.19-.09.35-.13.5-.13.2,0,.35.07.46.2.11.14.15.3.11.49-.05.25-.23.48-.53.69-.3.22-.69.4-1.16.56-.47.16-.93.23-1.38.24-.79,0-1.44-.15-1.95-.47-.52-.32-.87-.77-1.07-1.34-.2-.57-.22-1.22-.08-1.94.17-.81.48-1.51.94-2.13.46-.61,1-1.08,1.62-1.41.62-.33,1.24-.5,1.87-.5.62,0,1.16.15,1.64.49.48.33.82.78,1.03,1.35.21.57.25,1.19.11,1.85ZM41.55,126.97c.95-.01,1.55.26,1.8.83.25.56.27,1.34.06,2.35l-.74,3.6c-.05.24-.17.45-.36.61-.19.17-.41.25-.65.25s-.43-.08-.55-.24c-.13-.16-.16-.37-.11-.61l.74-3.6c.11-.51.08-.92-.07-1.21-.16-.29-.5-.44-1.02-.43s-1,.17-1.37.48c-.37.32-.61.71-.71,1.19l-.74,3.6c-.05.24-.17.45-.36.61-.19.17-.41.25-.65.25s-.43-.08-.55-.24c-.13-.16-.16-.37-.11-.61l1.2-5.8c.05-.24.17-.45.36-.61.19-.17.41-.25.65-.25s.43.08.55.24c.12.16.16.36.11.61l-.05.24c.32-.34.71-.63,1.17-.88.46-.25.93-.37,1.41-.38ZM32.27,128.62c-1.09.01-1.83.53-2.24,1.55l3.67-.04.02-.1c.04-.39-.08-.73-.37-1.01-.29-.28-.65-.41-1.09-.41ZM35.37,130.75c-.05.22-.18.41-.38.55-.2.14-.41.21-.63.22l-4.63.05c0,.55.17.98.5,1.29.34.31.76.46,1.26.45.38,0,.69-.04.92-.12.23-.07.41-.15.56-.23.14-.08.24-.14.29-.16.19-.09.35-.13.5-.13.2,0,.35.07.46.2.11.14.15.3.11.49-.05.25-.23.48-.53.69-.3.22-.69.4-1.16.56-.47.16-.93.23-1.38.24-.79,0-1.44-.15-1.95-.47-.52-.32-.87-.77-1.07-1.34-.2-.57-.22-1.22-.08-1.94.17-.81.48-1.51.94-2.13.46-.61,1-1.08,1.62-1.41.62-.33,1.24-.5,1.87-.5.62,0,1.16.15,1.64.49.48.33.82.78,1.03,1.35.21.57.24,1.19.11,1.85ZM26.54,129.48c.24,0,.43.08.55.24.13.16.16.36.11.61l-.61,2.98c-.07.33-.26.58-.59.76-1.03.58-2.1.88-3.19.89-.92.01-1.73-.21-2.42-.65-.69-.45-1.19-1.05-1.49-1.82-.3-.77-.35-1.61-.16-2.53.19-.92.59-1.77,1.21-2.54.62-.78,1.36-1.4,2.24-1.86.88-.46,1.78-.7,2.71-.71.93-.01,1.69.17,2.3.54.13.07.21.17.25.29.05.12.05.25.02.39-.05.23-.17.44-.36.61-.19.18-.4.26-.62.27-.14,0-.29-.03-.44-.11-.46-.21-.96-.31-1.51-.31-.6,0-1.18.17-1.75.48-.57.31-1.05.72-1.45,1.24-.4.52-.66,1.08-.79,1.69-.13.61-.09,1.17.09,1.68.19.51.5.92.95,1.22.44.3.96.44,1.56.44.26,0,.55-.03.86-.08.31-.05.58-.11.82-.19l.38-1.83h-1.32c-.24.02-.43-.06-.56-.22-.13-.16-.17-.36-.12-.6.05-.24.17-.45.37-.61.2-.16.42-.24.66-.25l2.3-.03Z"/>
      <path class="cls-19" d="M218.06,125.1c.24,0,.43.08.55.24.12.16.16.36.11.61l-.74,3.57c-.21,1.01-.65,1.81-1.32,2.38-.67.58-1.52.87-2.55.88-1.03.01-1.76-.26-2.19-.83-.43-.57-.54-1.35-.34-2.37l.74-3.57c.05-.24.17-.45.36-.61.19-.17.41-.25.65-.25s.43.08.55.24c.12.16.16.36.11.61l-.74,3.57c-.12.57-.08.99.12,1.27.2.27.55.41,1.05.4s.93-.15,1.23-.43c.31-.28.53-.71.64-1.28l.74-3.57c.05-.24.17-.45.36-.61.19-.17.41-.25.65-.25M209.16,131.12c.13,0,.24.06.32.19.08.13.1.29.06.5-.05.25-.24.47-.55.64-.31.18-.64.27-.99.27-.58,0-1.04-.11-1.39-.36-.35-.24-.44-.77-.27-1.57l.8-3.88h-.64c-.23,0-.4-.06-.52-.21-.12-.15-.15-.33-.11-.56.04-.21.16-.4.33-.54.18-.15.38-.22.61-.22h.64s.18-.91.18-.91c.05-.24.17-.45.37-.61.2-.17.42-.25.66-.25s.41.08.54.24c.12.16.16.37.11.61l-.18.9h1c.22-.01.39.06.51.21.12.15.16.33.11.56-.04.22-.16.4-.34.54-.18.15-.38.22-.6.22h-1s-.79,3.82-.79,3.82c-.04.2-.02.34.07.43.08.09.22.13.39.13.07,0,.18-.02.32-.06.12-.05.23-.07.34-.08ZM196.09,131.45c.61,0,1.15-.23,1.62-.68.47-.45.78-1.01.92-1.69.14-.67.07-1.23-.23-1.68-.29-.45-.74-.66-1.35-.66s-1.14.24-1.61.69c-.48.45-.78,1.02-.92,1.69-.14.67-.06,1.23.22,1.67.29.44.73.66,1.34.65ZM200.21,125.17c.24,0,.43.07.55.23.12.16.16.36.11.62l-1.22,5.94c-.05.24-.17.45-.36.61-.19.17-.41.25-.65.25s-.42-.08-.55-.23c-.12-.16-.16-.36-.12-.6-.29.27-.65.51-1.09.7-.44.2-.88.3-1.32.3-.64,0-1.19-.15-1.65-.48-.45-.33-.77-.78-.95-1.37-.18-.59-.2-1.25-.04-2,.15-.75.44-1.42.87-2.02.42-.6.93-1.07,1.51-1.4.59-.34,1.19-.51,1.82-.52.45,0,.85.07,1.21.23.36.16.65.36.87.61v-.02c.05-.24.17-.45.37-.61.19-.17.41-.25.65-.25ZM192.12,125.26c.28,0,.5.07.66.23.16.16.22.34.17.56-.06.29-.18.51-.36.66-.18.15-.37.22-.58.22-.14,0-.29-.03-.46-.09-.03,0-.09-.03-.18-.05-.09-.03-.2-.04-.31-.04-.24,0-.49.08-.75.23-.25.15-.49.38-.69.69-.21.31-.36.67-.44,1.09l-.69,3.33c-.05.24-.17.45-.36.61-.19.17-.41.25-.65.25s-.43-.08-.55-.24c-.13-.16-.16-.37-.11-.61l1.2-5.8c.05-.24.17-.45.36-.61.19-.17.41-.25.65-.25s.43.08.55.24c.12.16.16.36.11.61l-.04.18c.3-.39.67-.68,1.11-.89.44-.21.9-.31,1.35-.32Z"/>
    </g>
  </g>
</svg>