  <svg viewBox="0 0 24 24" xmlns="http://www.w3.org/2000/svg" width="55" height="55">
    <defs>
    <linearGradient id="myGradient" x1="0%" y1="0%" x2="100%" y2="100%">
        <stop offset="0%" style="stop-color:#049ae7;stop-opacity:1" />
        <stop offset="100%" style="stop-color:#007e79;stop-opacity:1" />
    </linearGradient>
    </defs>
        <g>
            <path d="M0 0H24V24H0z" fill="none" />
            <path d="M17 2v2h-1v14c0 2.21-1.79 4-4 4s-4-1.79-4-4V4H7V2h10zm-3 8h-4v8c0 1.105.895 2 2 2s2-.895 2-2v-8zm-1 5c.552 0 1 .448 1 1s-.448 1-1 1-1-.448-1-1 .448-1 1-1zm-2-3c.552 0 1 .448 1 1s-.448 1-1 1-1-.448-1-1 .448-1 1-1zm3-8h-4v4h4V4z" fill="url(#myGradient)" />
        </g>
 </svg>