<?xml version="1.0" encoding="UTF-8"?>
<svg id="Capa_2" data-name="Capa 2" xmlns="http://www.w3.org/2000/svg" viewBox="0 0 281.14 146.78">
  <defs>
    <style>
      .cls-1, .cls-2 {
        fill: #fff;
      }

      .cls-2 {
        fill-rule: evenodd;
      }
    </style>
  </defs>
  <g id="Capa_1-2" data-name="Capa 1">
    <polygon class="cls-2" points="216.01 101.25 215.96 101.25 215.96 96.19 215.99 96.19 215.99 96.21 216.01 101.25"/>
    <path class="cls-2" d="M223.54,98.7c0,.89-.26,1.53-.78,1.93-.52.41-1.36.61-2.51.61h-4.24s-.03.01-.03.01l-.02-5.04h.03l4.47-.02c1.02,0,1.79.21,2.31.63.51.43.77,1.06.77,1.88Z"/>
    <path class="cls-2" d="M223.54,98.7c0,.89-.26,1.53-.78,1.93-.52.41-1.36.61-2.51.61h-4.24s-.03.01-.03.01l-.02-5.04h.03l4.47-.02c1.02,0,1.79.21,2.31.63.51.43.77,1.06.77,1.88Z"/>
    <path class="cls-2" d="M222.77,96.82c.51.43.77,1.06.77,1.88,0,.89-.26,1.53-.78,1.93-.52.41-1.36.61-2.51.61h-4.24s-.05.01-.05.01v-5.06h.03v.02l4.47-.02c1.02,0,1.79.21,2.31.63Z"/>
    <path class="cls-2" d="M280.67,88.13l-271.14.91-.21-61.53,23.55,56.75,9.23-.03-.28-84.23-9.23.03.19,57.12L9.23.11,0,.14l.32,97.5,159.19-.54.06,16.91,70.98-.24h2.23s1.03-.01,1.03-.01l11.17-.04h1.42l34.35-.12-.08-25.47ZM176.77,110.75l-.06-17.44,4.42-.02.06,17.45h-4.42ZM194.26,110.7v-3.57s4.37-.02,4.37-.02v3.57s-4.37.02-4.37.02ZM226.24,102.91c-1.14.98-2.76,1.47-4.87,1.48l-5.41.02.02,6.21-4.41.02-.06-17.45,9.54-.03c2.25-.01,3.95.46,5.12,1.41,1.16.94,1.75,2.34,1.75,4.17.01,1.8-.55,3.19-1.68,4.17ZM233.62,110.56v-3.56s4.37-.02,4.37-.02v3.57s-4.37.01-4.37.01ZM265.12,109.45c-1.5,1-3.62,1.5-6.35,1.51-2.7.01-4.82-.49-6.36-1.5-1.54-1.01-2.36-2.46-2.49-4.34l4.36-.02c.16.96.65,1.67,1.45,2.12.79.46,1.94.69,3.45.68,1.27,0,2.25-.19,2.89-.56.65-.37.98-.93.97-1.65,0-1.06-1.87-1.93-5.61-2.61l-.13-.02c-.1-.02-.25-.05-.45-.08-2-.35-3.43-.75-4.28-1.19-.76-.39-1.34-.92-1.74-1.58-.4-.67-.6-1.46-.6-2.37,0-1.7.7-3,2.11-3.91,1.41-.91,3.45-1.38,6.13-1.39,2.51,0,4.47.47,5.88,1.44,1.42.96,2.16,2.31,2.24,4.07l-4.23.02c-.08-.85-.48-1.49-1.2-1.93-.72-.44-1.74-.66-3.07-.66-1.15.01-2.04.19-2.67.56-.62.37-.93.9-.93,1.58,0,.92,1.22,1.61,3.66,2.06.66.12,1.17.22,1.54.29,1.57.32,2.67.57,3.33.75.65.18,1.22.38,1.71.59.88.4,1.53.92,1.97,1.57.44.64.66,1.43.66,2.33.01,1.82-.74,3.23-2.24,4.24Z"/>
    <path class="cls-2" d="M223.54,98.7c0,.89-.26,1.53-.78,1.93-.52.41-1.36.61-2.51.61h-4.24s-.05.01-.05.01v-5.06h.03v.02l4.47-.02c1.02,0,1.79.21,2.31.63.51.43.77,1.06.77,1.88Z"/>
    <path class="cls-2" d="M223.54,98.7c0,.89-.26,1.53-.78,1.93-.52.41-1.36.61-2.51.61h-4.24s-.03.01-.03.01l-.02-5.04h.03l4.47-.02c1.02,0,1.79.21,2.31.63.51.43.77,1.06.77,1.88Z"/>
    <path class="cls-2" d="M223.54,98.7c0,.89-.26,1.53-.78,1.93-.52.41-1.36.61-2.51.61h-4.24s-.03.01-.03.01l-.02-5.04h.03l4.47-.02c1.02,0,1.79.21,2.31.63.51.43.77,1.06.77,1.88Z"/>
    <path class="cls-2" d="M65.14,41.91h0c4.56-.02,8.3,3.7,8.31,8.26l.07,20.26c.02,4.55-3.7,8.3-8.25,8.31h0c-4.55.02-8.3-3.7-8.31-8.26l-.07-20.26c-.02-4.56,3.7-8.3,8.25-8.31M65.12,35.78h0c8.86-.03,16.13,7.19,16.16,16.05l.06,17.03c.03,8.86-7.19,16.13-16.05,16.16h0c-8.86.03-16.13-7.19-16.16-16.05l-.06-17.03c-.03-8.86,7.19-16.13,16.05-16.16Z"/>
    <path class="cls-2" d="M86.9,36.47l8.44-.03.02,7.37c3.28-4.92,7.87-6.68,12.63-8.02,0,2.91.02,5.83.03,8.74-6.27.01-10.46,2.6-12.63,7.71l.11,32.21-8.44.03-.16-48.01Z"/>
    <path class="cls-2" d="M127,41.7h0c4.24-.01,7.72,3.7,7.74,8.26l.07,20.26c.02,4.55-3.44,8.29-7.68,8.31h0c-4.24.01-7.72-3.7-7.74-8.26l-.07-20.26c-.02-4.56,3.44-8.29,7.68-8.31M126.98,35.57h0c3.2-.01,6.19,1.07,8.64,2.92l-.07-20.9,6.74-2.48.24,69.95-6.75.02v-3.25c-2.45,1.87-5.42,2.97-8.63,2.98h0c-8.25.03-15.02-7.2-15.05-16.06l-.06-17.03c-.03-8.86,6.69-16.13,14.94-16.16Z"/>
    <polygon class="cls-2" points="147.12 16.94 164.99 84.22 174.96 84.19 190.69 16.48 180.1 16.52 170.45 65.79 159.7 16.74 147.12 16.94"/>
    <rect class="cls-1" x="195.74" y="37.01" width="8.44" height="47.09" transform="translate(-.2 .67) rotate(-.19)"/>
    <rect class="cls-1" x="195.61" y="16.45" width="8.44" height="10.74" transform="translate(-.07 .67) rotate(-.19)"/>
    <rect class="cls-1" x="269.64" y="13.44" width="8.44" height="70.41" transform="translate(-.16 .92) rotate(-.19)"/>
    <path class="cls-2" d="M211.15,26.02l8.43-1.46.04,11.74,10.35-.03.02,5.83-10.35.03.09,26.38c.04,11.83,7.65,11.52,9.01,5.91,1.1,1.9,1.73,2.97,2.83,4.87-5.64,7.68-19.52,6.44-20.27-7.61l-.1-29.52h-3.2s-.02-5.82-.02-5.82h3.2s-.03-10.32-.03-10.32Z"/>
    <path class="cls-2" d="M255.8,59.9c-20.26-2.17-17,19.52-8.7,18.96,4.27-.7,8.74-3.18,8.73-6.45l-.02-12.51ZM235.23,49.65c2.11,0,4.23-.01,6.34-.02,0,0,.18-6.44,4.37-7.17,4.19-.73,9-.34,9.73,3.65l.03,9.21c-22.04-2.96-25.5,20.08-17.19,26.75,6.08,4.89,13.5,1.37,17.99-3.79,1.96,4.31,4.96,6.21,8.81,4.73,0-1.53-.01-3.07-.02-4.6-1.14-.06-1.94-.58-2.26-1.73-.03-10.16-.07-20.32-.1-30.48,0,0-.03-8.8-10.26-10.19-10.23-1.4-18.2,2.21-17.44,13.66Z"/>
    <rect class="cls-1" x="159.58" y="117.02" width="121.55" height="2.11" transform="translate(-.4 .74) rotate(-.19)"/>
    <path class="cls-1" d="M259.96,118.14s-.12-.07-.19-.06c-.33.05-.67.23-1.06.54-.3.24-.61.55-.91.93-.27.31-.54.66-.8,1.04-.46.66-.94,1.44-1.42,2.32-.83,1.54-1.58,3.2-2.23,4.92-.08.22-.17.43-.26.62-.04.1-.01.22.08.29.05.03.09.04.14.04.06,0,.12-.02.16-.06.29-.27.59-.58.9-.94.64-.73,1.22-1.45,1.75-2.16.47-.64.99-1.38,1.54-2.21.5-.8.96-1.59,1.35-2.36.23-.46.42-.88.57-1.25.02-.06.06-.15.12-.28.07-.17.11-.27.14-.34l.1-.3v-.06s.06-.21.06-.21c.03-.1.04-.2.04-.29,0-.07-.03-.14-.08-.18ZM259.49,118.7s0,.03-.01.04l-.08.26s-.07.16-.13.33c-.07.15-.12.25-.14.31-.13.34-.32.75-.54,1.2-.39.75-.83,1.53-1.32,2.31-.55.82-1.07,1.55-1.53,2.19-.52.7-1.1,1.41-1.72,2.13l-.03.03c.59-1.53,1.27-2.99,2-4.36.48-.87.95-1.64,1.39-2.28.26-.37.52-.7.78-1.01.29-.35.57-.64.85-.86.17-.14.34-.25.49-.32v.03ZM249.55,126.67s-.12-.06-.19-.05c-.18.02-.39.11-.63.25-.35.19-.73.5-1.17.93-.71.7-1.36,1.51-1.93,2.42-.32.5-.54.94-.67,1.32-.06.17-.1.31-.12.44-.08-.01-.16.01-.22.07-.05.05-.09.16-.08.23.01.09.09.19.18.21.05.02.11.03.17.03h.1s.09-.02.13-.04c.05-.01.09-.03.12-.05.19-.08.38-.21.6-.4.29-.28.59-.62.93-1.05.31-.35.6-.73.86-1.13.11-.15.25-.35.43-.6l.29-.45c.08-.11.13-.18.13-.19.05-.08.09-.11.23-.02.01.01.03.02.04.06.03.1.12.18.22.18.1.01.2-.06.23-.16.06-.17.13-.33.2-.51.07-.27.12-.51.17-.74.02-.13.04-.23.07-.37v-.2c0-.07-.03-.13-.09-.18ZM249.1,127.33c-.04.22-.09.45-.14.68-.02.04-.04.09-.06.14-.3-.16-.59-.1-.83.21-.01.04-.05.09-.11.18l-.29.44c-.17.24-.32.44-.43.6-.26.39-.54.76-.83,1.1h-.01c-.32.41-.62.75-.89,1-.04.04-.09.08-.14.12.01-.03.02-.06.04-.1.12-.35.33-.76.62-1.23.55-.87,1.18-1.66,1.87-2.33.39-.4.75-.68,1.06-.85.06-.04.12-.07.17-.09-.01.04-.02.08-.03.13ZM259.96,118.14s-.12-.07-.19-.06c-.33.05-.67.23-1.06.54-.3.24-.61.55-.91.93-.27.31-.54.66-.8,1.04-.46.66-.94,1.44-1.42,2.32-.83,1.54-1.58,3.2-2.23,4.92-.08.22-.17.43-.26.62-.04.1-.01.22.08.29.05.03.09.04.14.04.06,0,.12-.02.16-.06.29-.27.59-.58.9-.94.64-.73,1.22-1.45,1.75-2.16.47-.64.99-1.38,1.54-2.21.5-.8.96-1.59,1.35-2.36.23-.46.42-.88.57-1.25.02-.06.06-.15.12-.28.07-.17.11-.27.14-.34l.1-.3v-.06s.06-.21.06-.21c.03-.1.04-.2.04-.29,0-.07-.03-.14-.08-.18ZM259.49,118.7s0,.03-.01.04l-.08.26s-.07.16-.13.33c-.07.15-.12.25-.14.31-.13.34-.32.75-.54,1.2-.39.75-.83,1.53-1.32,2.31-.55.82-1.07,1.55-1.53,2.19-.52.7-1.1,1.41-1.72,2.13l-.03.03c.59-1.53,1.27-2.99,2-4.36.48-.87.95-1.64,1.39-2.28.26-.37.52-.7.78-1.01.29-.35.57-.64.85-.86.17-.14.34-.25.49-.32v.03ZM249.55,126.67s-.12-.06-.19-.05c-.18.02-.39.11-.63.25-.35.19-.73.5-1.17.93-.71.7-1.36,1.51-1.93,2.42-.32.5-.54.94-.67,1.32-.06.17-.1.31-.12.44-.08-.01-.16.01-.22.07-.05.05-.09.16-.08.23.01.09.09.19.18.21.05.02.11.03.17.03h.1s.09-.02.13-.04c.05-.01.09-.03.12-.05.19-.08.38-.21.6-.4.29-.28.59-.62.93-1.05.31-.35.6-.73.86-1.13.11-.15.25-.35.43-.6l.29-.45c.08-.11.13-.18.13-.19.05-.08.09-.11.23-.02.01.01.03.02.04.06.03.1.12.18.22.18.1.01.2-.06.23-.16.06-.17.13-.33.2-.51.07-.27.12-.51.17-.74.02-.13.04-.23.07-.37v-.2c0-.07-.03-.13-.09-.18ZM249.1,127.33c-.04.22-.09.45-.14.68-.02.04-.04.09-.06.14-.3-.16-.59-.1-.83.21-.01.04-.05.09-.11.18l-.29.44c-.17.24-.32.44-.43.6-.26.39-.54.76-.83,1.1h-.01c-.32.41-.62.75-.89,1-.04.04-.09.08-.14.12.01-.03.02-.06.04-.1.12-.35.33-.76.62-1.23.55-.87,1.18-1.66,1.87-2.33.39-.4.75-.68,1.06-.85.06-.04.12-.07.17-.09-.01.04-.02.08-.03.13ZM249.55,126.67s-.12-.06-.19-.05c-.18.02-.39.11-.63.25-.35.19-.73.5-1.17.93-.71.7-1.36,1.51-1.93,2.42-.32.5-.54.94-.67,1.32-.06.17-.1.31-.12.44-.08-.01-.16.01-.22.07-.05.05-.09.16-.08.23.01.09.09.19.18.21.05.02.11.03.17.03h.1s.09-.02.13-.04c.05-.01.09-.03.12-.05.19-.08.38-.21.6-.4.29-.28.59-.62.93-1.05.31-.35.6-.73.86-1.13.11-.15.25-.35.43-.6l.29-.45c.08-.11.13-.18.13-.19.05-.08.09-.11.23-.02.01.01.03.02.04.06.03.1.12.18.22.18.1.01.2-.06.23-.16.06-.17.13-.33.2-.51.07-.27.12-.51.17-.74.02-.13.04-.23.07-.37v-.2c0-.07-.03-.13-.09-.18ZM249.1,127.33c-.04.22-.09.45-.14.68-.02.04-.04.09-.06.14-.3-.16-.59-.1-.83.21-.01.04-.05.09-.11.18l-.29.44c-.17.24-.32.44-.43.6-.26.39-.54.76-.83,1.1h-.01c-.32.41-.62.75-.89,1-.04.04-.09.08-.14.12.01-.03.02-.06.04-.1.12-.35.33-.76.62-1.23.55-.87,1.18-1.66,1.87-2.33.39-.4.75-.68,1.06-.85.06-.04.12-.07.17-.09-.01.04-.02.08-.03.13ZM259.96,118.14s-.12-.07-.19-.06c-.33.05-.67.23-1.06.54-.3.24-.61.55-.91.93-.27.31-.54.66-.8,1.04-.46.66-.94,1.44-1.42,2.32-.83,1.54-1.58,3.2-2.23,4.92-.08.22-.17.43-.26.62-.04.1-.01.22.08.29.05.03.09.04.14.04.06,0,.12-.02.16-.06.29-.27.59-.58.9-.94.64-.73,1.22-1.45,1.75-2.16.47-.64.99-1.38,1.54-2.21.5-.8.96-1.59,1.35-2.36.23-.46.42-.88.57-1.25.02-.06.06-.15.12-.28.07-.17.11-.27.14-.34l.1-.3v-.06s.06-.21.06-.21c.03-.1.04-.2.04-.29,0-.07-.03-.14-.08-.18ZM259.49,118.7s0,.03-.01.04l-.08.26s-.07.16-.13.33c-.07.15-.12.25-.14.31-.13.34-.32.75-.54,1.2-.39.75-.83,1.53-1.32,2.31-.55.82-1.07,1.55-1.53,2.19-.52.7-1.1,1.41-1.72,2.13l-.03.03c.59-1.53,1.27-2.99,2-4.36.48-.87.95-1.64,1.39-2.28.26-.37.52-.7.78-1.01.29-.35.57-.64.85-.86.17-.14.34-.25.49-.32v.03ZM259.96,118.14s-.12-.07-.19-.06c-.33.05-.67.23-1.06.54-.3.24-.61.55-.91.93-.27.31-.54.66-.8,1.04-.46.66-.94,1.44-1.42,2.32-.83,1.54-1.58,3.2-2.23,4.92-.08.22-.17.43-.26.62-.04.1-.01.22.08.29.05.03.09.04.14.04.06,0,.12-.02.16-.06.29-.27.59-.58.9-.94.64-.73,1.22-1.45,1.75-2.16.47-.64.99-1.38,1.54-2.21.5-.8.96-1.59,1.35-2.36.23-.46.42-.88.57-1.25.02-.06.06-.15.12-.28.07-.17.11-.27.14-.34l.1-.3v-.06s.06-.21.06-.21c.03-.1.04-.2.04-.29,0-.07-.03-.14-.08-.18ZM259.49,118.7s0,.03-.01.04l-.08.26s-.07.16-.13.33c-.07.15-.12.25-.14.31-.13.34-.32.75-.54,1.2-.39.75-.83,1.53-1.32,2.31-.55.82-1.07,1.55-1.53,2.19-.52.7-1.1,1.41-1.72,2.13l-.03.03c.59-1.53,1.27-2.99,2-4.36.48-.87.95-1.64,1.39-2.28.26-.37.52-.7.78-1.01.29-.35.57-.64.85-.86.17-.14.34-.25.49-.32v.03ZM249.55,126.67s-.12-.06-.19-.05c-.18.02-.39.11-.63.25-.35.19-.73.5-1.17.93-.71.7-1.36,1.51-1.93,2.42-.32.5-.54.94-.67,1.32-.06.17-.1.31-.12.44-.08-.01-.16.01-.22.07-.05.05-.09.16-.08.23.01.09.09.19.18.21.05.02.11.03.17.03h.1s.09-.02.13-.04c.05-.01.09-.03.12-.05.19-.08.38-.21.6-.4.29-.28.59-.62.93-1.05.31-.35.6-.73.86-1.13.11-.15.25-.35.43-.6l.29-.45c.08-.11.13-.18.13-.19.05-.08.09-.11.23-.02.01.01.03.02.04.06.03.1.12.18.22.18.1.01.2-.06.23-.16.06-.17.13-.33.2-.51.07-.27.12-.51.17-.74.02-.13.04-.23.07-.37v-.2c0-.07-.03-.13-.09-.18ZM249.1,127.33c-.04.22-.09.45-.14.68-.02.04-.04.09-.06.14-.3-.16-.59-.1-.83.21-.01.04-.05.09-.11.18l-.29.44c-.17.24-.32.44-.43.6-.26.39-.54.76-.83,1.1h-.01c-.32.41-.62.75-.89,1-.04.04-.09.08-.14.12.01-.03.02-.06.04-.1.12-.35.33-.76.62-1.23.55-.87,1.18-1.66,1.87-2.33.39-.4.75-.68,1.06-.85.06-.04.12-.07.17-.09-.01.04-.02.08-.03.13ZM277.47,119.47s-.01-.01-.01-.02c-.15-.17-.34-.28-.57-.31-.23-.03-.44.03-.62.18-.12.1-.2.17-.25.22-.02.03-.07.09-.13.16-.1.1-.19.22-.29.38-.11.17-.24.38-.4.63-.22.39-.44.83-.66,1.29-.27.58-.66,1.43-1.18,2.61-.25.62-.54,1.32-.83,2.06-.03-.07-.07-.14-.12-.21-.15-.27-.37-.45-.62-.55-.17-.09-.32-.13-.43-.12-.13-.03-.28-.03-.43,0-.21.03-.42.09-.65.18-.28.12-.6.31-.93.55-.49.34-1,.8-1.51,1.35-.46.49-.89,1.01-1.26,1.54-.21.29-.4.58-.57.87l-.9.84c-.44.39-.81.72-1.11.99-.19.17-.37.29-.54.39-.07.04-.13.07-.18.1.02-.1.04-.18.05-.25.1-.37.26-.8.48-1.29.13-.32.34-.78.63-1.36s.5-1.05.62-1.37l.07-.3c.09-.39-.06-.7-.42-.88-.21-.12-.44-.14-.65-.06-.21.07-.37.21-.49.43l-.06.1s-.08.14-.19.4c-.09.13-.18.28-.27.44-.16.29-.35.58-.57.86-.43.59-.88,1.14-1.33,1.64-.47.53-.96,1.05-1.46,1.53-.26.26-.5.47-.74.64-.2.17-.38.3-.54.39,0-.01,0-.02,0-.03.02-.12.05-.27.09-.43.17-.58.42-1.21.74-1.88.26-.61.56-1.24.91-1.9.12-.25.29-.56.48-.9.08-.15.17-.29.26-.43l.19-.32s.01-.03.02-.05h.01c.14-.18.2-.37.19-.59-.02-.23-.12-.44-.3-.6s-.39-.23-.64-.2c-.22.02-.41.12-.55.27h-.03s-.07.07-.1.11l-.15.25c-.05.07-.09.16-.14.24-.08.15-.18.31-.3.51-.13.26-.29.57-.49.95-.28.59-.53,1.14-.74,1.65-.06.08-.13.15-.2.23-.27.3-.58.6-.93.91-.65.57-1.36,1.12-2.1,1.63-.34.22-.71.44-1.09.64-.44.24-.8.39-1.06.45-.05.01-.09.02-.13.02-.02-.08-.04-.21-.04-.42,0-.16.01-.35.03-.55.1-.74.3-1.59.57-2.54.06-.21.13-.44.2-.69.06-.04.12-.08.21-.14l.57-.46c.31-.27.66-.6,1.02-.97.56-.57,1.18-1.27,1.85-2.09,1.29-1.58,2.36-3.14,3.19-4.64.27-.49.48-.93.64-1.32.02-.07.06-.17.12-.3.09-.2.13-.31.14-.38l.13-.31c.05-.14.08-.29.1-.4.04-.17.08-.32.1-.5,0-.27-.04-.5-.11-.68-.01,0-.01-.01-.01-.01-.08-.17-.2-.3-.31-.39-.13-.14-.29-.22-.45-.26-.12-.05-.26-.07-.41-.07h-.27c-.3.05-.61.15-.92.29-.23.12-.47.27-.72.45-.35.27-.73.62-1.12,1.06-.28.32-.57.69-.89,1.14-.5.69-1.01,1.5-1.52,2.42-.4.71-.83,1.55-1.28,2.48-.43,1-.79,1.85-1.08,2.61-.34.9-.63,1.77-.86,2.6-.33.41-.62.76-.88,1.03-.27.28-.53.5-.77.68-.11.1-.23.18-.34.26-.09.03-.17.06-.23.09-.05.02-.08.02-.08.02h-.05s-.03-.02-.06-.04c0,0-.02-.02-.03-.12-.02-.07-.03-.2-.04-.42,0-.15.02-.31.03-.48.03-.17.08-.38.13-.62.24.02.46-.08.63-.32.07-.12.14-.26.19-.4.07-.11.14-.25.21-.42.11-.27.21-.52.3-.76.11-.29.2-.57.27-.82.04-.18.08-.34.1-.49.02-.22.02-.4,0-.52,0-.16-.03-.31-.09-.47-.11-.21-.27-.38-.48-.5-.05-.02-.11-.04-.16-.05h-.03s-.06-.03-.09-.03c-.09-.03-.15-.04-.21-.04h-.33c-.32.06-.66.18-1.03.37-.45.25-.93.6-1.42,1.05-.77.71-1.47,1.52-2.08,2.41-.15.08-.35.17-.59.28-.23.11-.51.23-.83.35-.43.17-1.01.38-1.72.64l-1.11.42c-.07-.25-.16-.5-.26-.73-.16-.35-.33-.66-.52-.95-.21-.28-.45-.55-.71-.79-.41-.41-.95-.82-1.61-1.23-.94-.57-2.12-1.11-3.5-1.6-.8-.28-1.97-.64-3.57-1.08-1.7-.5-2.86-.87-3.47-1.08-.66-.24-1.21-.46-1.61-.67-.25-.13-.47-.27-.63-.4-.19-.17-.32-.32-.41-.47-.01-.02-.03-.1-.04-.12h0s-.02-.07-.03-.09v-.24c.02-.2.08-.41.2-.63.18-.4.49-.84.91-1.32.66-.74,1.55-1.52,2.64-2.33.89-.64,1.88-1.3,3.04-1.99.92-.54,1.9-1.07,2.93-1.6.08-.04.17-.09.25-.13,2.28-1.16,4.53-2.11,6.69-2.83.54-.17,1.11-.33,1.74-.49.58-.16,1.16-.28,1.71-.36.32-.03.6-.06.82-.08.34,0,.57.02.78.08.33.06.42.14.43.15.03.05.06.09.06.13.02.06.02.14,0,.26,0,.19-.08.43-.2.73-.07.21-.18.47-.35.81-.07.18-.2.46-.38.82-.19.41-.31.69-.38.87-.33.68-.57,1.29-.72,1.81-.22.76-.3,1.46-.24,2.1,0,.03.01.08.04.13.03.12.08.22.17.32.08.1.19.18.32.22s.26.05.39.02c.21-.05.37-.17.48-.35.12-.19.16-.38.1-.57-.1-.43-.07-.94.08-1.53.1-.45.29-1,.56-1.64,0-.03.07-.17.24-.51.12-.26.3-.63.55-1.15.14-.36.26-.65.35-.89.15-.4.25-.75.28-1.03.04-.23.04-.45,0-.65-.04-.28-.15-.53-.32-.74-.15-.19-.34-.34-.59-.45-.17-.08-.37-.15-.59-.21-.53-.11-1.22-.12-2.05-.05-1.07.11-2.33.39-3.73.82-.72.23-1.49.5-2.3.82-.12.04-.26.09-.39.15-.17.06-.35.13-.54.21,0,0-.01,0-.02.01-.1.04-.2.08-.3.12-1.13.49-2.26,1.02-3.37,1.57-.96.46-1.9.97-2.83,1.52-.16.09-.31.19-.47.28-1.13.67-2.2,1.36-3.16,2.05-1.18.88-2.16,1.73-2.9,2.53-.52.6-.91,1.17-1.15,1.7-.19.41-.31.79-.35,1.15-.01.23,0,.45.03.62,0,.11.04.24.1.37.06.21.09.31.14.37.17.32.43.63.79.93.26.19.56.38.88.56.49.26,1.1.52,1.82.78.62.21,1.79.58,3.57,1.11,1.57.45,2.7.8,3.47,1.08,1.33.46,2.41.95,3.21,1.44.57.35,1,.67,1.33,1.01.18.17.36.37.53.59.13.19.25.4.36.65.09.2.16.41.2.64l-.86.32c-2.7.98-5.02,1.88-6.89,2.65-2.7,1.1-4.98,2.11-6.8,3.02-1.22.64-2.31,1.26-3.24,1.85-.57.37-1.09.73-1.54,1.09-.58.45-1.07.89-1.45,1.31-.53.57-.91,1.16-1.14,1.76l-.08.25s-.01.04-.01.06c-.01.02-.01.05-.02.09,0,.02,0,.04,0,.06,0,.05-.01.07-.01.07-.01.02-.01.05-.02.08-.02.23.01.46.07.68.06.23.16.44.31.66.13.16.29.32.49.46.29.19.63.36,1.03.49.3.09.64.16,1.03.19.3.04.61.06.94.06.35,0,.71-.02,1.08-.06.14-.01.26-.03.37-.04l.59-.11c.15-.03.31-.07.47-.1.15-.02.31-.06.46-.12.59-.14,1.21-.31,1.85-.5,1.12-.35,2.31-.8,3.52-1.33,1.18-.53,2.31-1.09,3.35-1.7,1.17-.66,2.23-1.37,3.17-2.11,1.06-.84,1.97-1.75,2.71-2.69.07-.05.12-.12.17-.19.08-.11.13-.19.17-.24l.27-.38.52-.83c.04-.06.1-.16.16-.29l.08-.19c.1-.24.15-.33.17-.36.02-.03.04-.05.05-.09.19-.5.3-.82.32-.9.02-.05.04-.11.07-.2l.05-.17c.02-.08.04-.14.03-.16l.11-.49.09-.54c0-.06,0-.22.02-.5,0-.15.02-.3,0-.47l1.28-.48c.67-.24,1.25-.47,1.73-.67.11-.04.21-.08.31-.12-.06.13-.11.25-.15.37-.14.37-.22.71-.25,1.03,0,.27.04.51.13.77.08.15.17.29.28.41.12.13.25.23.42.31.02.02.04.02.07.03l.2.03h.09c.22-.02.45-.1.68-.22.09-.06.23-.15.43-.3.17-.14.36-.34.57-.57.29-.29.61-.66.97-1.14.06-.08.12-.16.19-.25,0,.35.03.66.09.96.1.32.24.57.42.75.14.14.31.24.52.3.16.02.32.02.48-.01.12-.02.25-.06.43-.12.08-.04.17-.08.32-.15.15-.11.32-.23.5-.36.14-.11.28-.23.42-.38-.03.25-.06.48-.08.69-.02.27-.03.53-.03.77,0,.36.05.67.14.91.05.21.15.4.29.6.1.1.19.18.3.26.11.08.25.15.4.2.18.05.38.06.59.04.17,0,.35-.03.53-.08.22-.07.47-.16.76-.28l.67-.37c.39-.23.79-.51,1.2-.81.49-.36.97-.76,1.44-1.2-.02.13-.04.25-.05.36-.02.29-.01.55.04.78.05.17.11.32.2.47.16.21.36.36.63.44.19.06.39.06.61,0,.1-.02.22-.07.37-.14.31-.15.65-.4,1.01-.74.24-.22.5-.47.8-.77.25-.27.69-.77,1.32-1.51-.01.07-.02.14-.03.21-.02.2-.03.37-.03.48,0,.23.03.42.09.59l.05.11c.03.08.06.14.08.19.01.02.03.04.04.06.03.03.05.05.06.07.02.04.05.07.08.1.05.03.1.06.13.1.02.01.04.03.06.04l.17.08s.08.03.11.04l.08.03s.05,0,.08.01h.26s.08-.01.11-.03l.03-.02c.15-.05.31-.12.49-.24.09-.06.21-.15.32-.25.15-.1.35-.28.61-.54.11-.09.23-.2.36-.33l.09-.1s.05-.04.07-.06c-.08.38-.09.71-.05,1,.05.3.15.55.31.77.11.12.23.23.36.31.15.09.28.13.46.13.23.02.47-.01.72-.11.17-.05.36-.14.56-.26.38-.28.88-.72,1.5-1.31.41-.39.85-.86,1.32-1.4.16-.18.34-.4.55-.65-.59,1.61-1.09,3.07-1.5,4.36-.33,1.04-.6,1.92-.81,2.7-.17.52-.29.98-.4,1.39-.08.38-.14.62-.15.71-.03.07-.04.15-.05.23-.02.08-.03.15-.03.21-.02.18-.03.36-.03.52,0,.04.01.08.03.11l.15.26c.07.2.21.34.38.4.2.09.4.1.6.02.18-.08.32-.21.41-.4l.07-.21c.06-.09.08-.18.08-.29h-.24s.24-.09.24-.09v-.07c0-.06.02-.16.05-.29.06-.18.16-.39.32-.67.1-.22.21-.43.34-.62.14-.23.3-.42.47-.59.07-.08.11-.16.12-.24.07-.2.07-.38,0-.52-.07-.15-.19-.26-.38-.33-.17-.06-.33-.07-.46-.02.15-.54.33-1.14.56-1.81.53-1.67,1.17-3.45,1.88-5.27.31-.78.65-1.62,1.04-2.56.09-.22.23-.55.4-.94.74-1.03,1.41-2.05,1.97-3.01.39-.66.71-1.21.96-1.7.15-.33.28-.63.4-.9.06-.18.12-.35.17-.51.06-.25.11-.47.13-.66v-.06c0-.18-.06-.36-.17-.53ZM276.89,121.06c-.1.25-.23.55-.38.86-.24.47-.55,1.02-.94,1.67-.55.95-1.21,1.95-1.97,3.02-.19.44-.34.77-.42.99-.4.94-.75,1.78-1.05,2.57-.72,1.83-1.35,3.61-1.89,5.29-.35,1.05-.61,1.93-.79,2.71-.02.15-.05.31-.09.47-.02.1.02.2.1.25.08.06.19.06.27,0,.02-.02.04-.03.05-.04.02-.03.05-.07.06-.12.16-.3.27-.53.33-.7.08-.2.15-.19.26-.15.03.02.09.05.11.08.02.04.01.11-.03.24-.19.19-.37.41-.52.66-.15.21-.27.44-.37.67-.17.28-.28.53-.35.75-.05.18-.07.31-.07.45v.15s-.01.02-.03.05c0,.03-.02.05-.03.07l-.05.15c-.04.08-.09.14-.17.17-.07.03-.13.03-.22-.02-.07-.02-.1-.05-.14-.15l-.13-.24v-.17s.06-.01.09-.02c.08-.04.13-.15.13-.25,0-.08-.05-.17-.12-.21l-.04-.02s.01-.06.03-.11c.02-.11.07-.35.16-.72.09-.4.22-.85.38-1.37.22-.77.48-1.65.81-2.68.49-1.54,1.11-3.33,1.84-5.3.03-.05.06-.12.09-.22.03-.07.06-.13.07-.17.04-.07.04-.16-.01-.23-.04-.07-.12-.11-.2-.11-.15,0-.24.13-.31.24-.05.08-.09.13-.13.18-.5.61-.91,1.09-1.21,1.44-.46.53-.89.98-1.29,1.37-.6.58-1.09,1-1.44,1.25-.15.1-.29.17-.45.21-.19.08-.36.1-.54.09-.07.02-.16-.03-.23-.06-.09-.06-.17-.13-.23-.21-.11-.14-.19-.33-.22-.54-.04-.28,0-.63.09-1.04.04-.17.1-.37.17-.57.14-.12.28-.25.41-.39l.53-.47c.22-.16.42-.3.58-.42-.31.45-.57.86-.79,1.23-.15.29-.29.56-.4.81-.12.31-.18.58-.18.81,0,.11.02.21.05.3.01.04.03.07.05.1l.08.08c.06.06.14.08.19.08.1.03.21.03.37-.01.14-.05.29-.1.43-.18.43-.23.91-.6,1.46-1.12.39-.38.83-.84,1.3-1.37.43-.53.82-1.03,1.15-1.5.3-.38.62-.83.95-1.32.03-.04.04-.15.04-.2,0-.33-.05-.63-.17-.91-.07-.11-.12-.2-.2-.3-.1-.11-.21-.16-.3-.17-.11-.05-.21-.05-.28,0-.03,0-.07.01-.07.01-.11.02-.22.07-.35.15-.21.12-.45.29-.69.52-.42.35-.86.78-1.31,1.28-.17.2-.34.41-.51.63-.07-.11-.15-.18-.25-.21-.09-.03-.21-.04-.37.05-.13.05-.26.12-.39.19.3-.4.63-.79.99-1.16.49-.54.97-.97,1.44-1.29.3-.23.59-.4.83-.5.19-.08.37-.13.54-.15.1-.02.2-.02.32,0h.01c.06,0,.15.02.26.08.18.07.31.19.42.36.1.16.16.32.2.49,0,.02.02.09.03.11,0,.13.11.24.24.24.1-.01.19-.08.22-.17.02-.04.07-.11.16-.25.34-.87.66-1.65.94-2.32.51-1.17.9-2.02,1.17-2.59.22-.46.43-.89.64-1.26.15-.24.28-.45.39-.62.08-.12.15-.22.25-.32.06-.07.09-.12.11-.14.04-.04.11-.1.21-.18.08-.07.16-.09.26-.08.1.01.18.06.25.14.06.08.09.17.09.25-.02.17-.06.37-.12.59-.04.15-.1.3-.16.47ZM268.49,140.31c.07.05.1.11.1.13h-.13s.01-.06.02-.09v-.04ZM264.69,132.2c-.11.11-.22.21-.34.31-.25.25-.44.42-.57.51-.13.11-.24.19-.3.24-.14.08-.26.14-.41.19h-.18s-.04,0-.04,0c-.03-.02-.07-.03-.09-.03l-.1-.05s-.08-.07-.13-.1c-.02-.03-.05-.06-.08-.1-.01-.03-.03-.07-.05-.13l-.05-.11c-.04-.1-.06-.24-.06-.41,0-.1.01-.25.03-.43.04-.31.13-.67.28-1.1.04-.11,0-.23-.1-.28-.1-.06-.22-.04-.3.04l-.56.63c-.69.81-1.17,1.36-1.42,1.64-.28.27-.54.53-.79.75-.32.3-.62.52-.88.65-.12.05-.21.1-.29.11-.13.04-.26.04-.35.01-.16-.05-.28-.14-.37-.26-.06-.09-.11-.2-.14-.32-.04-.17-.05-.38-.03-.61.02-.17.05-.36.09-.57.03-.14.07-.29.11-.45.03-.03.07-.06.1-.09.39-.42.69-.77.93-1.08.16-.23.31-.45.43-.66-.08.16-.15.33-.21.48-.33.69-.59,1.34-.77,1.95-.04.18-.07.34-.09.46-.04.15-.07.28-.07.39-.02.03-.02.06-.02.1,0,.13.13.23.27.24.06-.01.12-.02.24-.06.24-.1.53-.28.86-.55.25-.18.51-.41.78-.68.51-.49,1.01-1.01,1.48-1.56.46-.51.92-1.07,1.36-1.66.23-.3.43-.61.6-.92.09-.15.17-.28.27-.44.09-.19.14-.31.15-.33.02-.02.03-.04.05-.06l.05-.12c.06-.1.14-.17.24-.21.09-.03.17-.02.27.04.17.08.21.18.17.36l-.05.26c-.11.28-.31.72-.59,1.3-.3.59-.52,1.06-.64,1.38-.23.51-.39.95-.51,1.36-.02.09-.04.19-.06.3-.03.1-.04.2-.04.28v.04s-.01.06-.01.1c0,.13.12.23.25.23h.01c.09,0,.18-.02.39-.11.06-.04.15-.09.27-.15.21-.12.42-.27.63-.46.27-.23.59-.51.96-.85l-.19.19c-.1.11-.2.21-.29.3l-.1.1ZM252.33,135.21c-.18.01-.32.01-.43-.03-.1-.03-.19-.07-.26-.12-.08-.06-.16-.13-.22-.19-.09-.12-.15-.26-.2-.43-.08-.21-.11-.46-.11-.77,0-.23,0-.48.02-.73.04-.4.11-.87.22-1.39.35-.43.76-.97,1.21-1.59.03-.05.06-.1.08-.14-.07.21-.12.41-.17.6-.28.96-.48,1.83-.59,2.6-.03.23-.04.44-.04.62,0,.22.03.41.07.56,0,.07.03.13.06.19.04.09.12.14.21.14h.1c.1,0,.2-.01.32-.04.3-.07.68-.23,1.17-.49.4-.21.78-.44,1.14-.67.75-.52,1.48-1.08,2.15-1.66.12-.11.24-.22.35-.33-.03.08-.05.15-.08.22-.07.18-.13.36-.18.53-.61.62-1.26,1.18-1.93,1.67-.39.29-.78.56-1.15.78l-.63.35c-.26.11-.49.19-.7.26-.13.03-.27.05-.41.06ZM248.69,132.76c-.11-.03-.2-.08-.29-.17-.12-.12-.22-.31-.29-.52-.07-.34-.09-.72-.07-1.18v-.39c0-.11-.07-.2-.16-.23-.1-.03-.21.01-.27.09-.24.33-.44.6-.62.82-.35.46-.65.82-.93,1.1-.21.23-.39.41-.53.53-.16.13-.28.21-.36.25-.17.09-.34.15-.47.17l-.16-.03c-.09-.05-.18-.11-.25-.19-.08-.09-.15-.19-.19-.27-.06-.18-.09-.37-.09-.57.02-.26.09-.56.21-.89.09-.24.22-.51.36-.78.35-.17.62-.31.79-.41.24-.14.31-.39.17-.64-.05-.09-.11-.15-.17-.19.52-.7,1.1-1.35,1.73-1.93.46-.42.91-.76,1.32-.98.32-.17.62-.27.84-.31h.3s.02,0,.09.02c.01,0,.03,0,.04.01h.03s.08.03.12.03c.11.07.2.16.26.28.03.08.05.17.05.31.02.11.02.25,0,.42-.02.12-.05.27-.09.43-.06.23-.15.49-.25.77-.09.24-.19.49-.29.75-.06.14-.12.26-.2.39-.06.14-.12.26-.17.35-.06.09-.11.13-.21.1-.03-.05-.09-.09-.16-.1-.12-.01-.23.07-.26.18-.09.38-.15.69-.2.95-.02.21-.03.39-.03.55,0,.21.02.38.04.5.04.29.18.42.29.48.04.05.11.08.17.08h.15c.09,0,.18-.02.29-.08.05-.02.11-.05.19-.07.02,0,.04,0,.06-.02.14-.1.28-.2.4-.31.25-.18.53-.42.82-.72.09-.09.18-.19.27-.29-.02.09-.04.19-.06.29-.04.04-.07.07-.1.11-.27.32-.53.57-.78.76-.17.13-.33.25-.44.33-.12.05-.22.09-.28.13-.12.04-.23.07-.32.09-.11.01-.22.01-.3,0ZM260.12,117.44s.05.02.08.03c.08.01.15.05.25.14.08.07.14.14.19.24.05.13.08.29.08.46-.02.12-.05.26-.09.42-.02.12-.05.24-.09.35l-.13.33s-.01.03-.01.06c-.01.01-.02.06-.12.26-.06.16-.11.28-.13.33-.15.37-.35.79-.6,1.26-.82,1.47-1.88,3.01-3.15,4.57-.66.81-1.27,1.5-1.81,2.06-.36.36-.7.68-1,.94l-.53.44c-.11.07-.2.12-.27.17-.05.03-.08.07-.1.13-.01.04-.02.08-.03.12,0-.07,0-.13,0-.18-.01-.09-.07-.22-.23-.33-.13-.09-.26-.12-.39-.1-.02,0-.04,0-.05.01.16-.52.35-1.06.55-1.6.29-.75.64-1.6,1.07-2.58.45-.92.87-1.74,1.27-2.45.5-.9,1-1.7,1.48-2.38.32-.43.6-.79.87-1.1.37-.41.72-.74,1.04-.99.23-.16.45-.3.65-.4.26-.12.53-.21.75-.25h.23c.1,0,.17.02.22.04ZM251.68,130.19h0c.13-.18.28-.38.43-.59,0,0,.02.01.05.03v.06c-.19.27-.38.53-.56.77.03-.09.05-.18.08-.27ZM259.04,128.74c.19-.38.36-.7.48-.94.11-.18.21-.35.3-.51.04-.08.08-.15.11-.2l.12-.17.03-.06s.05-.03.07-.06c.07-.08.16-.13.27-.14.11-.02.19.01.27.08.09.08.13.17.14.28.01.11-.03.2-.11.29-.03.03-.05.07-.06.11l-.16.28c-.09.14-.19.28-.28.44-.19.36-.36.67-.49.93-.13.26-.26.51-.39.77.08-.18.05-.31.02-.39-.03-.08-.11-.19-.25-.24-.09-.05-.18-.08-.26-.08.06-.13.12-.26.19-.39ZM258.28,130.42c.06-.07.12-.14.18-.2.16-.21.29-.4.38-.56.01-.01.01-.02.01-.04.02.02.05.04.05.04-.12.36-.35.77-.68,1.22-.07.09-.15.19-.24.29.06-.15.12-.3.19-.45.03-.1.07-.2.11-.3ZM267.01,131.87c.26-.42.57-.9.97-1.46.37-.5.74-.97,1.1-1.4.43-.47.85-.89,1.26-1.23.23-.21.43-.37.61-.47.1-.05.17-.09.18-.1.05,0,.1,0,.14,0h.09c.04.07.09.15.14.22.08.19.12.42.12.7-.32.45-.62.87-.9,1.24,0,0-.01,0-.01.01-.32.45-.7.95-1.13,1.46-.45.52-.88.97-1.26,1.33-.51.49-.96.85-1.35,1.05-.12.06-.24.11-.33.14-.1.02-.13.01-.13.01h-.01v-.1c-.01-.17.04-.38.14-.62.1-.24.23-.5.37-.77ZM271.78,128.14l-.02-.02h.07s-.05.02-.05.02ZM267.12,130.02c-.15.11-.31.23-.51.37.21-.17.38-.31.53-.42.22-.16.44-.29.64-.37,0,0,.03.02.04.01.01.01.01.03.01.03t-.02.01c-.19.07-.41.19-.69.37ZM240.13,131.88c.01.21.01.4,0,.57-.02.3-.03.48-.03.51l-.19,1.01s0,.02-.03.12l-.04.13c-.01.05-.02.08-.05.15-.04.13-.14.42-.31.87-.06.09-.12.23-.22.47l-.09.18c-.04.1-.08.18-.12.24l-.24.4-.54.79c-.04.06-.09.13-.16.23-.03.04-.05.07-.07.09-.02.01-.04.03-.06.05-.73.93-1.62,1.82-2.66,2.65-.92.73-1.97,1.42-3.11,2.07-1.03.6-2.15,1.16-3.31,1.67-1.2.53-2.37.97-3.47,1.32-.63.18-1.24.35-1.85.5-.13.05-.26.08-.4.1-.19.04-.35.08-.48.11l-.56.1c-.1.01-.22.02-.36.04-.69.07-1.33.07-1.92,0-.36-.03-.67-.09-.94-.17-.35-.12-.65-.26-.9-.44-.15-.1-.28-.22-.37-.34-.12-.17-.2-.33-.25-.51-.04-.16-.06-.32-.05-.48.02-.05.03-.12.03-.19.02-.05.02-.09.03-.12l.06-.21c.21-.53.56-1.07,1.05-1.6.36-.4.83-.82,1.39-1.26.44-.35.94-.7,1.51-1.06.91-.58,1.99-1.2,3.2-1.83,1.8-.9,4.07-1.9,6.76-3,1.74-.72,3.86-1.54,6.31-2.44-2.64,1.01-4.66,1.8-6.3,2.47-1.13.48-2.27.98-3.37,1.49-1.21.55-2.33,1.09-3.32,1.61-1.22.64-2.29,1.26-3.18,1.85-.55.37-1.05.73-1.49,1.08-.53.42-.97.84-1.31,1.24-.19.21-.38.46-.55.75-.15.25-.27.52-.35.8-.22.75.13,1.16.45,1.38.21.14.48.25.79.31.31.07.59.12.87.13.56.04,1.16.03,1.79-.03.14-.02.27-.03.41-.06l.25-.03.19-.05c.13-.02.29-.05.47-.09l.43-.11c.64-.16,1.22-.33,1.77-.5,1.06-.35,2.21-.79,3.41-1.31,1.13-.49,2.24-1.04,3.27-1.63,1.12-.65,2.14-1.33,3.03-2.03.98-.79,1.83-1.64,2.52-2.53.06-.05.11-.11.16-.18.05-.08.1-.14.16-.21l.22-.35.17-.2.29-.53s.06-.08.09-.15c.02-.04.04-.08.05-.12.01-.02.02-.04.04-.09l.25-.49c.16-.46.26-.73.29-.82.02-.02.02-.03.02-.06s.02-.07.03-.14c.03-.1.05-.17.07-.25l.14-.65.06-.64v-.18c0-.08-.04-.15-.1-.19-.07-.05-.15-.06-.22-.03l-.39.13.49-.18c.11-.04.17-.14.16-.25-.04-.35-.13-.67-.27-.97-.12-.27-.25-.51-.41-.73-.19-.25-.38-.46-.57-.65-.36-.36-.82-.71-1.42-1.07-.83-.51-1.94-1.01-3.3-1.49-.78-.28-1.92-.63-3.5-1.09-1.77-.53-2.93-.89-3.54-1.1-.7-.25-1.28-.5-1.75-.75-.3-.16-.58-.34-.81-.51-.31-.26-.54-.53-.69-.81,0-.01-.01-.02-.01-.03-.02-.04-.05-.12-.09-.25-.06-.14-.06-.2-.07-.25-.03-.18-.04-.36-.02-.53.03-.31.13-.63.3-1,.23-.49.59-1.02,1.08-1.58.71-.77,1.66-1.6,2.82-2.47.95-.68,2-1.36,3.13-2.03.39-.23.78-.46,1.18-.68.68-.39,1.38-.76,2.08-1.1,1.1-.55,2.23-1.07,3.34-1.56,1.25-.51,2.43-.95,3.51-1.29,1.37-.42,2.6-.69,3.64-.79.78-.08,1.42-.06,1.89.04.19.05.36.11.51.17.17.08.3.18.41.31.12.16.19.33.22.52v.02c.04.15.04.3,0,.49-.03.25-.11.57-.25.93-.09.24-.21.53-.35.86-.19.4-.47.99-.64,1.35-.09.18-.14.3-.15.33-.28.67-.47,1.23-.58,1.71-.17.65-.2,1.24-.07,1.76.01.05.01.1-.04.19-.05.08-.12.13-.2.15-.04.01-.09,0-.13-.01-.04-.02-.08-.04-.12-.08-.04-.05-.06-.09-.07-.14,0-.01-.01-.03-.02-.05h0v-.02c-.05-.56.03-1.2.23-1.9.14-.49.37-1.08.7-1.76.02-.05.04-.11.07-.18.07-.17.17-.39.3-.66.19-.38.32-.67.38-.83.17-.35.29-.63.36-.84.14-.34.22-.63.23-.85.03-.16.02-.29,0-.42-.03-.1-.08-.21-.16-.31-.13-.16-.36-.26-.7-.33-.24-.06-.53-.09-.9-.08-.24.02-.52.04-.86.08-.58.08-1.18.2-1.77.37-.64.16-1.22.33-1.77.5-2.18.73-4.46,1.69-6.75,2.86-.36.18-.72.37-1.07.55-.74.39-1.46.79-2.15,1.19-1.16.7-2.17,1.37-3.07,2.02-1.12.83-2.03,1.63-2.71,2.39-.46.52-.78.99-.99,1.43-.14.27-.22.54-.24.82v.33s.01.08.03.11c0,.03.01.05.02.08l.03.06c.01.06.04.11.07.15.1.18.26.37.49.57.2.16.44.31.72.46.43.22.98.45,1.68.69.61.22,1.78.59,3.49,1.09,1.59.44,2.75.8,3.55,1.08,1.34.48,2.49,1,3.4,1.55.63.39,1.14.78,1.53,1.17.24.23.46.47.65.72.17.26.33.55.48.87.12.28.22.59.28.91.02.07.06.13.12.16.04.02.07.03.12.03-.1.04-.16.14-.15.24ZM238.35,135.62h-.03l-.23-.03-.3.54-.16.19-.21.34s-.1.12-.18.22c-.02.03-.04.06-.05.08-.02.01-.05.03-.06.05-.68.88-1.51,1.72-2.47,2.49-.88.68-1.88,1.35-2.98,1.99-1.02.58-2.1,1.12-3.22,1.61-1.18.51-2.32.95-3.37,1.29-.54.17-1.1.33-1.73.49l-.43.11c-.16.04-.3.06-.45.08l-.46.09c-.1.02-.21.03-.35.05-.6.05-1.18.07-1.71.03-.25-.01-.5-.05-.8-.13-.25-.05-.46-.12-.62-.24-.3-.19-.38-.46-.26-.85.06-.24.16-.47.3-.69.15-.26.32-.48.49-.68.33-.38.75-.78,1.25-1.17.44-.35.93-.71,1.46-1.06.88-.58,1.94-1.2,3.15-1.83.98-.52,2.08-1.05,3.29-1.6,1.1-.51,2.23-1,3.35-1.48,1.75-.71,3.93-1.57,6.85-2.68l.6-.21-.16,1.01c-.02.06-.05.14-.07.25-.03.09-.04.14-.05.17-.04.12-.14.38-.28.78l-.24.5s-.04.08-.05.11c0,.02-.02.05-.03.08l.19.09h.02ZM257.8,119.55c-.27.31-.54.66-.8,1.04-.46.66-.94,1.44-1.42,2.32-.83,1.54-1.58,3.2-2.23,4.92-.08.22-.17.43-.26.62-.04.1-.01.22.08.29.05.03.09.04.14.04.06,0,.12-.02.16-.06.29-.27.59-.58.9-.94.64-.73,1.22-1.45,1.75-2.16.47-.64.99-1.38,1.54-2.21.5-.8.96-1.59,1.35-2.36.23-.46.42-.88.57-1.25.02-.06.06-.15.12-.28.07-.17.11-.27.14-.34l.1-.3v-.06s.06-.21.06-.21c.03-.1.04-.2.04-.29,0-.07-.03-.14-.08-.18-.05-.05-.12-.07-.19-.06-.33.05-.67.23-1.06.54-.3.24-.61.55-.91.93ZM259.5,118.67v.03s-.01.03-.02.04l-.08.26s-.07.16-.13.33c-.07.15-.12.25-.14.31-.13.34-.32.75-.54,1.2-.39.75-.83,1.53-1.32,2.31-.55.82-1.07,1.55-1.53,2.19-.52.7-1.1,1.41-1.72,2.13l-.03.03c.59-1.53,1.27-2.99,2-4.36.48-.87.95-1.64,1.39-2.28.26-.37.52-.7.78-1.01.29-.35.57-.64.85-.86.17-.14.34-.25.49-.32ZM248.48,128.61c.05-.08.09-.11.23-.02.01.01.03.02.04.06.03.1.12.18.22.18.1.01.2-.06.23-.16.06-.17.13-.33.2-.51.07-.27.12-.51.17-.74.02-.13.04-.23.07-.37v-.2c0-.07-.03-.13-.09-.18-.05-.04-.12-.06-.19-.05-.18.02-.39.11-.63.25-.35.19-.73.5-1.17.93-.71.7-1.36,1.51-1.93,2.42-.32.5-.54.94-.67,1.32-.06.17-.1.31-.12.44-.08-.01-.16.01-.22.07-.05.05-.09.16-.08.23.01.09.09.19.18.21.05.02.11.03.17.03h.1s.09-.02.13-.04c.05-.01.09-.03.12-.05.19-.08.38-.21.6-.4.29-.28.59-.62.93-1.05.31-.35.6-.73.86-1.13.11-.15.25-.35.43-.6l.29-.45c.08-.11.13-.18.13-.19ZM246.4,130.69c-.32.4-.62.74-.89.99-.04.04-.09.08-.14.12.01-.03.02-.06.04-.1.12-.35.33-.76.62-1.23.55-.87,1.18-1.66,1.87-2.33.39-.4.75-.68,1.06-.85.06-.04.12-.07.17-.09-.01.04-.02.08-.03.13-.04.22-.09.45-.14.68-.02.04-.04.09-.06.14-.3-.16-.59-.1-.83.21-.01.04-.05.09-.11.18l-.29.44c-.17.24-.32.44-.43.6-.26.39-.54.76-.83,1.1h-.01ZM249.55,126.67s-.12-.06-.19-.05c-.18.02-.39.11-.63.25-.35.19-.73.5-1.17.93-.71.7-1.36,1.51-1.93,2.42-.32.5-.54.94-.67,1.32-.06.17-.1.31-.12.44-.08-.01-.16.01-.22.07-.05.05-.09.16-.08.23.01.09.09.19.18.21.05.02.11.03.17.03h.1s.09-.02.13-.04c.05-.01.09-.03.12-.05.19-.08.38-.21.6-.4.29-.28.59-.62.93-1.05.31-.35.6-.73.86-1.13.11-.15.25-.35.43-.6l.29-.45c.08-.11.13-.18.13-.19.05-.08.09-.11.23-.02.01.01.03.02.04.06.03.1.12.18.22.18.1.01.2-.06.23-.16.06-.17.13-.33.2-.51.07-.27.12-.51.17-.74.02-.13.04-.23.07-.37v-.2c0-.07-.03-.13-.09-.18ZM249.1,127.33c-.04.22-.09.45-.14.68-.02.04-.04.09-.06.14-.3-.16-.59-.1-.83.21-.01.04-.05.09-.11.18l-.29.44c-.17.24-.32.44-.43.6-.26.39-.54.76-.83,1.1h-.01c-.32.41-.62.75-.89,1-.04.04-.09.08-.14.12.01-.03.02-.06.04-.1.12-.35.33-.76.62-1.23.55-.87,1.18-1.66,1.87-2.33.39-.4.75-.68,1.06-.85.06-.04.12-.07.17-.09-.01.04-.02.08-.03.13ZM259.96,118.14s-.12-.07-.19-.06c-.33.05-.67.23-1.06.54-.3.24-.61.55-.91.93-.27.31-.54.66-.8,1.04-.46.66-.94,1.44-1.42,2.32-.83,1.54-1.58,3.2-2.23,4.92-.08.22-.17.43-.26.62-.04.1-.01.22.08.29.05.03.09.04.14.04.06,0,.12-.02.16-.06.29-.27.59-.58.9-.94.64-.73,1.22-1.45,1.75-2.16.47-.64.99-1.38,1.54-2.21.5-.8.96-1.59,1.35-2.36.23-.46.42-.88.57-1.25.02-.06.06-.15.12-.28.07-.17.11-.27.14-.34l.1-.3v-.06s.06-.21.06-.21c.03-.1.04-.2.04-.29,0-.07-.03-.14-.08-.18ZM259.49,118.7s0,.03-.01.04l-.08.26s-.07.16-.13.33c-.07.15-.12.25-.14.31-.13.34-.32.75-.54,1.2-.39.75-.83,1.53-1.32,2.31-.55.82-1.07,1.55-1.53,2.19-.52.7-1.1,1.41-1.72,2.13l-.03.03c.59-1.53,1.27-2.99,2-4.36.48-.87.95-1.64,1.39-2.28.26-.37.52-.7.78-1.01.29-.35.57-.64.85-.86.17-.14.34-.25.49-.32v.03ZM259.96,118.14s-.12-.07-.19-.06c-.33.05-.67.23-1.06.54-.3.24-.61.55-.91.93-.27.31-.54.66-.8,1.04-.46.66-.94,1.44-1.42,2.32-.83,1.54-1.58,3.2-2.23,4.92-.08.22-.17.43-.26.62-.04.1-.01.22.08.29.05.03.09.04.14.04.06,0,.12-.02.16-.06.29-.27.59-.58.9-.94.64-.73,1.22-1.45,1.75-2.16.47-.64.99-1.38,1.54-2.21.5-.8.96-1.59,1.35-2.36.23-.46.42-.88.57-1.25.02-.06.06-.15.12-.28.07-.17.11-.27.14-.34l.1-.3v-.06s.06-.21.06-.21c.03-.1.04-.2.04-.29,0-.07-.03-.14-.08-.18ZM259.49,118.7s0,.03-.01.04l-.08.26s-.07.16-.13.33c-.07.15-.12.25-.14.31-.13.34-.32.75-.54,1.2-.39.75-.83,1.53-1.32,2.31-.55.82-1.07,1.55-1.53,2.19-.52.7-1.1,1.41-1.72,2.13l-.03.03c.59-1.53,1.27-2.99,2-4.36.48-.87.95-1.64,1.39-2.28.26-.37.52-.7.78-1.01.29-.35.57-.64.85-.86.17-.14.34-.25.49-.32v.03ZM249.55,126.67s-.12-.06-.19-.05c-.18.02-.39.11-.63.25-.35.19-.73.5-1.17.93-.71.7-1.36,1.51-1.93,2.42-.32.5-.54.94-.67,1.32-.06.17-.1.31-.12.44-.08-.01-.16.01-.22.07-.05.05-.09.16-.08.23.01.09.09.19.18.21.05.02.11.03.17.03h.1s.09-.02.13-.04c.05-.01.09-.03.12-.05.19-.08.38-.21.6-.4.29-.28.59-.62.93-1.05.31-.35.6-.73.86-1.13.11-.15.25-.35.43-.6l.29-.45c.08-.11.13-.18.13-.19.05-.08.09-.11.23-.02.01.01.03.02.04.06.03.1.12.18.22.18.1.01.2-.06.23-.16.06-.17.13-.33.2-.51.07-.27.12-.51.17-.74.02-.13.04-.23.07-.37v-.2c0-.07-.03-.13-.09-.18ZM249.1,127.33c-.04.22-.09.45-.14.68-.02.04-.04.09-.06.14-.3-.16-.59-.1-.83.21-.01.04-.05.09-.11.18l-.29.44c-.17.24-.32.44-.43.6-.26.39-.54.76-.83,1.1h-.01c-.32.41-.62.75-.89,1-.04.04-.09.08-.14.12.01-.03.02-.06.04-.1.12-.35.33-.76.62-1.23.55-.87,1.18-1.66,1.87-2.33.39-.4.75-.68,1.06-.85.06-.04.12-.07.17-.09-.01.04-.02.08-.03.13Z"/>
    <path class="cls-1" d="M247.32,110.04c-.03-.24-.13-.45-.27-.63-.13-.17-.3-.29-.5-.38-.16-.08-.34-.14-.54-.19-.52-.11-1.17-.13-1.98-.05-1.07.11-2.3.38-3.69.8-.74.24-1.52.52-2.34.83-.11.04-.22.09-.34.13,0,0-.01.01-.02.01-.27.11-.54.22-.82.33-1.09.48-2.21,1-3.36,1.57-.84.41-1.66.84-2.45,1.31-.28.15-.56.32-.83.48-1.15.68-2.19,1.36-3.14,2.04-1.18.88-2.14,1.71-2.86,2.5-.51.58-.88,1.13-1.12,1.64-.18.39-.29.74-.32,1.07-.02.2-.01.4.02.6.01.08.03.18.09.3.05.19.09.29.11.3.16.31.41.6.74.88.24.18.52.36.85.54.48.26,1.07.51,1.78.76.62.22,1.81.59,3.56,1.11,1.52.43,2.68.79,3.48,1.08,1.35.47,2.44.96,3.26,1.47.57.34,1.03.69,1.37,1.04.19.18.37.39.55.62.15.2.28.43.39.68.13.28.21.58.25.91l-1.04.38c-2.73,1-5.03,1.88-6.89,2.65-2.71,1.11-4.97,2.11-6.77,3.01-1.24.64-2.32,1.26-3.22,1.84-.59.37-1.1.73-1.53,1.08-.59.45-1.06.88-1.42,1.28-.51.55-.87,1.11-1.09,1.68l-.08.25s-.01.06-.03.13c0,.08-.01.13-.03.17-.01.2.01.4.06.6.06.2.15.39.28.57.11.15.25.28.44.41.25.18.57.34.95.46.3.09.63.15.99.19.6.07,1.26.07,1.97-.01.18-.01.34-.03.47-.05l.24-.06.22-.03c.15-.03.31-.07.49-.11.15-.02.29-.05.44-.11.6-.15,1.21-.31,1.83-.5,1.11-.35,2.28-.79,3.5-1.32,1.16-.52,2.28-1.08,3.33-1.68,1.17-.66,2.21-1.36,3.14-2.09,1.06-.84,1.96-1.74,2.7-2.69.02,0,.06-.05.14-.15.07-.1.12-.18.16-.24l.27-.38.14-.19.13-.22.25-.41c.04-.06.08-.14.14-.26.05-.12.08-.18.08-.18.12-.29.2-.44.21-.44.19-.49.29-.8.33-.93.02-.04.03-.09.05-.15.02-.07.04-.12.06-.18.02-.06.02-.1.02-.14l.11-.49.06-.25.02-.24c0-.06.01-.23.03-.52.02-.18.02-.38,0-.6l1.45-.56c.71-.25,1.28-.47,1.72-.66.32-.13.62-.24.87-.33h.01c.38-.18.66-.33.84-.44.12-.07.15-.18.08-.31-.08-.14-.18-.16-.33-.07-.04.02-.08.04-.13.07h-.01c-.16.09-.38.19-.65.31-.24.11-.52.23-.85.36-.44.17-1.01.38-1.72.64l-1.37.52c-.07-.35-.17-.66-.3-.96-.15-.32-.31-.62-.5-.9-.2-.27-.43-.53-.68-.76-.41-.4-.93-.8-1.57-1.2-.93-.56-2.08-1.09-3.45-1.57-.82-.29-2.01-.65-3.56-1.09-1.72-.5-2.88-.86-3.48-1.08-.67-.24-1.22-.46-1.64-.68-.28-.14-.5-.29-.69-.43-.2-.19-.35-.36-.44-.52-.02-.02-.03-.05-.04-.08-.01-.04-.01-.06-.01-.06l-.03-.05s0-.07-.03-.09v-.32c.02-.22.09-.46.22-.72.2-.42.51-.87.95-1.37.67-.75,1.56-1.53,2.67-2.36.91-.66,1.93-1.33,3.06-2.01.83-.48,1.68-.95,2.55-1.39.22-.12.43-.23.65-.34,2.31-1.18,4.55-2.12,6.72-2.84.58-.19,1.16-.35,1.75-.5.6-.17,1.18-.29,1.75-.36.32-.04.61-.07.85-.09.32,0,.6.03.82.08.29.06.48.14.57.25.06.07.09.14.11.22.02.09.02.2,0,.32-.01.22-.09.49-.21.8-.08.22-.19.49-.36.82-.07.18-.2.46-.38.84-.15.31-.26.57-.34.76-.01.04-.03.07-.04.1-.32.68-.56,1.27-.7,1.78-.22.73-.3,1.4-.24,2v.02s.01.04.03.06c.01.09.06.17.12.25.06.07.14.12.22.14.08.03.17.04.26.02.15-.04.26-.12.34-.25.08-.13.1-.26.07-.38-.11-.48-.09-1.02.07-1.64.11-.48.3-1.04.57-1.68,0-.02.07-.16.19-.42.14-.28.33-.7.6-1.25.15-.34.26-.64.35-.87.15-.39.24-.72.27-.99.04-.2.04-.39,0-.57ZM238.31,132.61l.93-.33v.16c-.01.28-.02.41-.02.41l-.03.22-.05.22-.08.41c-.02.06-.04.13-.07.24-.03.1-.04.16-.04.17-.04.09-.14.37-.3.83l-.19.38s-.04.07-.05.11c-.02.04-.04.07-.04.09-.01.03-.03.05-.04.09-.01,0-.01.01-.01.01-.01.04-.03.06-.05.08l-.22.39-.11.19-.13.16-.25.39s-.08.1-.15.19c-.06.09-.1.14-.12.14-.69.89-1.53,1.73-2.51,2.52-.89.7-1.89,1.37-3,2.01-1.02.59-2.11,1.13-3.25,1.62-1.19.52-2.32.95-3.39,1.3-.58.19-1.17.35-1.75.5-.15.04-.29.07-.44.11-.16.04-.31.07-.44.09l-.21.05-.22.03c-.11.02-.25.04-.41.05-.62.06-1.21.07-1.75.04-.28-.02-.55-.06-.82-.14-.3-.05-.53-.14-.72-.27-.38-.25-.5-.63-.36-1.12.08-.25.19-.5.33-.74.16-.27.33-.51.52-.71.34-.4.77-.81,1.28-1.21.44-.35.93-.7,1.47-1.07.89-.59,1.95-1.2,3.17-1.85.98-.51,2.08-1.04,3.31-1.59,1.11-.52,2.23-1.01,3.36-1.49,1.85-.76,4.14-1.65,6.85-2.68ZM252.27,129.43c-.15-.1-.28-.08-.39.07-.16.21-.31.4-.45.58-.34.44-.65.8-.93,1.1-.28.28-.54.52-.78.69-.13.11-.26.21-.39.3-.09.02-.17.05-.23.08-.07.03-.13.05-.18.05h-.15s-.04-.04-.07-.06c-.08-.05-.14-.15-.16-.3-.02-.11-.04-.26-.04-.46,0-.15.01-.33.03-.52.05-.24.11-.55.2-.92v.03c.24.13.44.09.59-.13.06-.11.13-.25.2-.4.06-.11.12-.24.19-.39.11-.26.21-.52.29-.76.11-.28.2-.55.26-.79.05-.17.08-.33.1-.46.02-.19.02-.36,0-.49,0-.13-.02-.25-.07-.36-.09-.17-.21-.31-.36-.39-.04-.02-.09-.04-.13-.04l-.07-.03h-.03c-.07-.02-.12-.03-.16-.03h-.3c-.29.05-.6.16-.95.33-.44.24-.9.59-1.38,1.03-.77.71-1.46,1.52-2.06,2.41h-.01s-.05.08-.08.12c-.14.22-.26.43-.37.63h-.01c-.16.31-.3.6-.41.88-.13.35-.2.67-.22.95,0,.24.03.46.1.66.06.13.15.25.24.36.1.11.22.2.35.26l.2.03h.03c.2-.02.39-.08.59-.19.09-.05.22-.14.39-.27.16-.13.34-.32.56-.56.28-.28.6-.66.95-1.12.17-.22.38-.49.62-.82v.39c-.02.46,0,.87.07,1.22.09.28.21.5.36.65.11.11.24.19.4.23.13.02.26.02.39,0,.11-.02.23-.06.36-.1.09-.04.19-.09.3-.13.15-.11.31-.23.49-.36.26-.2.53-.47.82-.8.04-.05.09-.11.13-.16.36-.43.78-.97,1.24-1.61.11-.15.08-.29-.07-.4ZM244.76,132.22l.2.06h-.1s-.07,0-.1-.01c-.02-.02-.02-.03,0-.05ZM248.26,128.46c-.02.05-.06.11-.13.2l-.09.17-.2.29c-.18.24-.32.44-.43.59-.28.42-.56.79-.85,1.12-.32.42-.63.76-.91,1.02-.2.18-.37.3-.52.36-.05.03-.08.04-.1.04v-.03c0-.16.04-.35.13-.6.13-.37.34-.8.65-1.28.56-.9,1.2-1.69,1.89-2.37.42-.41.79-.71,1.12-.89.22-.13.4-.21.55-.23v.2c-.02.09-.04.19-.06.33-.04.22-.1.46-.16.72-.07.15-.13.32-.2.49-.02-.08-.06-.15-.13-.2-.22-.15-.4-.12-.56.07ZM260.83,117.75c-.06-.13-.15-.24-.26-.32-.11-.11-.23-.18-.36-.2-.09-.04-.2-.06-.33-.06h-.23c-.29.04-.57.13-.85.26-.22.11-.45.26-.69.43-.35.27-.71.61-1.08,1.02-.28.33-.58.71-.88,1.12-.51.7-1.01,1.5-1.51,2.4-.39.7-.81,1.53-1.27,2.47-.41.94-.77,1.81-1.07,2.6-.34.89-.63,1.77-.87,2.61,0,.02-.01.03-.01.05-.13.47-.23.91-.32,1.31-.12.55-.2,1.05-.23,1.48-.02.26-.03.51-.03.75,0,.33.05.61.14.86.04.17.12.34.23.49.08.08.17.16.26.23.09.06.2.12.33.16.15.04.33.05.52.03.16,0,.31-.02.46-.07.22-.06.46-.15.72-.26.2-.11.42-.23.66-.37.37-.21.76-.48,1.18-.79.69-.52,1.36-1.09,2-1.74l.13-.13c.37-.4.67-.75.91-1.06.35-.48.59-.91.72-1.28.07-.15.02-.26-.13-.33-.16-.08-.28-.05-.36.1v.03c-.09.16-.21.33-.36.53-.06.07-.12.14-.19.22-.08.09-.16.18-.24.27-.3.33-.62.64-.95.93-.65.57-1.36,1.12-2.12,1.64-.37.25-.75.47-1.12.67-.46.24-.83.39-1.11.46-.09.02-.18.03-.26.03h-.1s-.04-.09-.04-.13c-.04-.13-.06-.3-.06-.52-.01-.18.01-.38.03-.6.1-.74.3-1.59.58-2.56.06-.24.14-.5.23-.79.06-.04.15-.09.26-.16.13-.11.32-.26.56-.46.3-.26.64-.58,1.01-.96.54-.55,1.16-1.24,1.83-2.07,1.29-1.58,2.34-3.12,3.17-4.61.26-.48.47-.91.62-1.28.02-.06.06-.17.13-.33.08-.17.13-.28.13-.33l.13-.32c.04-.14.07-.27.1-.4.04-.15.07-.29.09-.43,0-.24-.03-.43-.1-.59ZM253.29,128.54c.08-.19.17-.4.26-.62.65-1.73,1.39-3.36,2.21-4.9.48-.87.95-1.64,1.4-2.3.27-.37.53-.71.79-1.02.3-.37.6-.67.88-.89.35-.28.67-.45.95-.49,0,.06-.01.14-.03.23-.02.08-.04.17-.06.26l-.1.29s-.07.16-.13.33c-.07.13-.11.23-.13.3-.13.33-.32.73-.56,1.21-.39.77-.83,1.55-1.33,2.34-.55.81-1.06,1.55-1.54,2.2-.52.71-1.1,1.42-1.73,2.14-.31.35-.6.66-.88.92ZM268.01,129.51c-.08-.17-.19-.22-.35-.13-.21.09-.44.22-.68.4-.18.13-.38.29-.62.49-.06.05-.12.1-.18.16-.12.1-.25.22-.38.34l-.56.52c-.43.4-.81.73-1.11.99-.2.18-.39.32-.59.43-.13.07-.23.12-.29.17-.11.04-.19.06-.23.06h-.04v-.13c0-.06.01-.14.03-.23.03-.11.05-.21.07-.29.11-.4.27-.84.49-1.32.13-.33.34-.79.63-1.38.3-.59.5-1.03.61-1.31l.06-.3c.07-.28-.03-.49-.3-.62-.15-.09-.3-.11-.46-.05-.15.06-.27.16-.36.31-.02.05-.04.09-.06.13-.02.03-.09.16-.2.4-.08.13-.17.27-.26.43-.17.3-.37.6-.59.89-.43.59-.88,1.14-1.34,1.64-.45.53-.94,1.04-1.47,1.55-.26.26-.51.48-.75.66-.33.26-.6.44-.82.52-.07.03-.11.04-.13.04-.02-.02-.03-.04-.03-.04,0-.1.02-.23.06-.39.02-.13.05-.28.1-.46.17-.59.42-1.22.75-1.9.26-.62.56-1.25.91-1.91.13-.26.29-.57.49-.92.08-.16.17-.3.26-.43l.13-.23.06-.1v-.03c.13-.13.19-.29.18-.46,0-.18-.08-.32-.21-.44s-.29-.17-.46-.15c-.18.02-.32.1-.43.23-.04.02-.06.03-.06.03l-.04.07-.03.07-.1.13c-.04.06-.08.14-.13.23-.08.15-.18.32-.29.49-.13.26-.29.58-.49.96-.29.59-.53,1.15-.74,1.66-.05.12-.1.23-.14.34-.15.35-.28.69-.39,1.02-.08.19-.14.38-.19.56-.06.18-.1.35-.13.52-.05.22-.08.42-.1.59-.02.27,0,.5.04.69.04.16.09.29.16.4.13.17.3.29.49.36.16.04.32.04.5-.01.08-.02.19-.06.32-.13.29-.13.6-.36.95-.69.24-.22.5-.47.79-.76.26-.28.74-.83,1.44-1.65l.55-.62c-.15.44-.25.82-.29,1.15-.02.2-.03.35-.03.46,0,.2.02.36.07.49l.03.07.03.06c.03.07.05.12.07.17.04.04.08.08.1.13.07.04.12.08.16.13.05.02.09.04.14.06.06.02.13.05.19.07h.26s.03-.01.07-.04c.13-.04.27-.11.42-.19.09-.07.2-.16.33-.27.13-.08.33-.26.59-.53.11-.08.23-.19.35-.31.11-.12.25-.25.39-.39.14-.15.25-.26.34-.35.03-.03.06-.05.09-.08.15-.13.29-.27.44-.41.19-.18.38-.34.55-.5.22-.15.42-.29.59-.43.24-.15.45-.26.62-.33h.04c.15-.06.19-.18.11-.36ZM277.25,119.6c-.11-.13-.25-.2-.41-.23-.17-.02-.32.03-.45.14-.11.08-.18.15-.22.19-.03.03-.07.08-.14.17-.08.09-.17.2-.26.33-.11.17-.24.38-.39.62-.19.35-.41.78-.65,1.29-.28.59-.67,1.45-1.17,2.59-.29.68-.6,1.46-.95,2.34-.11.15-.16.24-.16.26,0-.07-.01-.12-.03-.16-.05-.2-.13-.39-.24-.56-.13-.22-.3-.37-.52-.46-.13-.07-.25-.1-.36-.1-.11-.02-.23-.02-.36,0-.18.03-.38.08-.59.17-.27.11-.56.29-.89.53-.48.33-.97.77-1.47,1.31-.46.49-.87.99-1.24,1.52-.22.29-.41.59-.57.88-.16.28-.29.55-.41.83-.04.1-.08.19-.11.28-.1.24-.17.47-.22.67-.1.44-.14.81-.09,1.12.04.26.13.48.26.65.09.11.19.2.3.27.11.06.23.09.36.09.2.02.4-.01.62-.1.16-.04.32-.12.49-.23.38-.26.87-.69,1.48-1.28.41-.4.85-.86,1.31-1.39.3-.35.7-.83,1.2-1.44.05-.05.1-.11.15-.2.06-.09.09-.13.12-.13-.03.04-.05.1-.09.19-.03.09-.06.16-.08.2-.73,1.99-1.35,3.77-1.85,5.32-.32,1.01-.59,1.91-.81,2.7-.15.48-.28.94-.39,1.38-.09.37-.14.61-.16.72-.02.06-.03.13-.03.2-.03.06-.04.13-.04.19-.02.18-.03.34-.03.5l.17.29c.04.13.13.22.26.26.13.07.26.07.4.02.13-.06.22-.15.29-.28l.03-.07.04-.13c.04-.07.06-.12.06-.16v-.2c0-.09.02-.21.06-.36.07-.2.18-.43.33-.69.11-.24.23-.46.36-.66.15-.24.31-.45.49-.62.04-.05.06-.09.06-.14.11-.28.04-.47-.23-.57-.26-.1-.45,0-.56.28-.06.18-.17.41-.32.69,0,.02-.01.04-.02.05s-.01.02-.01.02c.04-.18.07-.34.09-.5.18-.76.44-1.65.78-2.66.54-1.71,1.17-3.47,1.89-5.29.3-.79.65-1.64,1.04-2.56.09-.22.23-.55.42-.99.74-1.03,1.4-2.02,1.96-2.99.37-.61.69-1.17.95-1.68.15-.33.28-.62.39-.88.06-.18.12-.34.16-.5.07-.24.11-.45.13-.62v-.03c0-.13-.04-.27-.13-.4ZM268.39,140.51s-.06.01-.06-.04v-.03l.06.03v.04ZM266.4,133.59s-.07-.01-.07-.04c-.02-.02-.04-.04-.06-.06-.02-.07-.04-.14-.04-.23,0-.2.06-.44.17-.72.1-.24.23-.51.39-.79.26-.44.58-.93.98-1.48.37-.51.74-.98,1.11-1.42.43-.48.86-.9,1.27-1.25.24-.22.46-.38.66-.49.11-.07.2-.11.29-.14.07,0,.11-.01.13-.03.03,0,.06.01.1.03.07,0,.13.04.2.1.04.07.1.16.16.26.09.22.14.49.14.79v.07c-.33.48-.64.92-.95,1.31-.33.46-.71.96-1.14,1.48-.46.53-.89.98-1.28,1.35-.52.51-.99.87-1.41,1.09-.13.07-.26.12-.39.17-.11.02-.2.02-.26,0Z"/>
    <path class="cls-1" d="M180.27,132.65c.61,0,1.15-.23,1.63-.67.48-.44.79-1.01.93-1.68.15-.67.08-1.23-.21-1.68-.29-.45-.73-.67-1.34-.67-.6,0-1.14.23-1.61.68-.48.45-.79,1.01-.94,1.68-.14.67-.07,1.23.21,1.67.28.44.73.66,1.34.66M184.43,126.4c.24,0,.43.08.55.24.12.16.16.36.11.62l-1.27,5.93c-.05.24-.18.45-.37.61-.2.16-.41.25-.66.25s-.42-.08-.55-.24c-.12-.16-.16-.36-.12-.6-.29.27-.66.5-1.09.7-.44.19-.88.29-1.32.29-.64,0-1.19-.16-1.64-.49-.45-.33-.76-.79-.94-1.38-.18-.59-.19-1.25-.03-2,.16-.75.45-1.42.88-2.01.43-.59.93-1.06,1.52-1.39.59-.33,1.2-.5,1.82-.5.45,0,.85.08,1.21.24.36.16.65.37.86.62v-.02c.05-.24.18-.45.37-.61.19-.16.41-.25.66-.25ZM171.97,132.67c.6,0,1.14-.23,1.62-.68.48-.45.79-1.01.93-1.68.14-.67.08-1.23-.21-1.67-.28-.44-.73-.66-1.34-.66s-1.15.23-1.63.67c-.48.44-.79,1-.94,1.68-.14.67-.07,1.23.22,1.68.29.45.73.67,1.34.67ZM173.52,126.44c.65,0,1.19.16,1.64.49.45.33.77.79.94,1.38.18.59.19,1.26.03,2-.16.75-.45,1.42-.88,2.01-.43.59-.94,1.06-1.52,1.39-.59.33-1.2.5-1.82.5-.45,0-.85-.09-1.21-.27-.36-.18-.64-.4-.85-.66l-.59,2.75c-.05.24-.17.45-.37.61-.2.17-.41.25-.66.25s-.43-.08-.55-.24c-.12-.16-.16-.36-.1-.62l1.84-8.6c.05-.24.17-.45.37-.61.19-.16.41-.25.65-.25s.43.08.55.24c.12.16.16.36.11.61v.06c.27-.28.64-.53,1.08-.74.45-.21.89-.32,1.33-.32ZM158.89,132.72c.61,0,1.15-.23,1.63-.67.48-.44.79-1.01.93-1.68.15-.67.08-1.23-.21-1.68-.29-.45-.74-.67-1.34-.67-.6,0-1.14.23-1.62.68-.48.45-.79,1.01-.94,1.68-.14.67-.07,1.23.21,1.67.28.44.73.66,1.34.66ZM163.05,126.47c.24,0,.43.08.55.24.12.16.16.36.11.62l-1.27,5.93c-.05.24-.18.45-.37.61-.2.16-.41.25-.66.25s-.42-.08-.54-.24c-.12-.16-.16-.36-.12-.6-.29.27-.66.5-1.09.7-.44.19-.88.29-1.32.29-.64,0-1.19-.16-1.64-.49-.45-.33-.76-.79-.94-1.38-.18-.59-.19-1.25-.03-2,.16-.75.45-1.42.88-2.01.43-.59.93-1.06,1.52-1.39.59-.33,1.2-.5,1.82-.5.45,0,.85.08,1.21.24.36.16.65.37.86.62v-.02c.05-.24.18-.45.37-.61.19-.16.41-.25.66-.25ZM153.67,132.6c.23,0,.4.07.51.22.12.14.15.33.11.55-.05.21-.16.4-.34.55-.18.15-.38.22-.61.23l-4.51.02c-.21,0-.38-.08-.49-.23-.11-.15-.15-.32-.11-.5.03-.16.08-.29.14-.4.06-.11.16-.23.29-.37l4.26-4.33h-2.72c-.22,0-.39-.07-.51-.21-.12-.15-.15-.34-.1-.56.05-.21.16-.4.34-.54.18-.15.38-.22.61-.22h4.31c.21-.02.36.06.48.2.11.14.15.32.1.54-.03.14-.07.26-.12.36-.05.1-.14.21-.27.34l-4.3,4.37h2.93ZM145.86,126.53c.95,0,1.55.28,1.79.84.24.56.26,1.35.04,2.35l-.77,3.59c-.05.24-.17.45-.37.61-.2.16-.41.25-.66.25s-.43-.08-.55-.24c-.12-.16-.16-.37-.11-.61l.77-3.59c.11-.51.09-.92-.06-1.21-.15-.29-.49-.44-1.01-.44s-1,.16-1.37.47c-.37.31-.62.71-.72,1.19l-.77,3.59c-.05.24-.17.45-.37.61-.2.16-.41.25-.66.25s-.43-.08-.55-.24c-.13-.16-.16-.37-.11-.61l1.24-5.79c.05-.24.17-.45.37-.61.19-.16.41-.25.65-.25s.43.08.55.24c.12.16.16.36.11.61l-.05.24c.32-.34.72-.63,1.18-.87.46-.24.93-.37,1.42-.37ZM135.03,132.8c.61,0,1.15-.23,1.63-.67.48-.44.79-1.01.93-1.68.15-.67.08-1.23-.21-1.68-.29-.45-.73-.67-1.34-.67-.6,0-1.14.23-1.61.68-.48.45-.79,1.01-.94,1.68-.14.67-.07,1.23.21,1.67.28.44.73.66,1.34.66ZM139.19,126.55c.24,0,.43.08.55.24.12.16.16.36.11.62l-1.27,5.93c-.05.24-.18.45-.37.61-.2.16-.41.25-.66.25s-.42-.08-.55-.24c-.12-.16-.16-.36-.12-.6-.29.27-.66.5-1.09.7-.44.19-.88.29-1.32.29-.64,0-1.19-.16-1.64-.49-.45-.33-.76-.79-.94-1.38-.18-.59-.19-1.25-.03-2,.16-.75.45-1.42.88-2.01.43-.59.93-1.06,1.52-1.39.59-.33,1.2-.5,1.82-.5.45,0,.85.08,1.21.24.36.16.65.37.86.62v-.02c.05-.24.18-.45.37-.61.19-.16.41-.25.66-.25ZM130.71,125.81c-.32,0-.53-.05-.64-.15-.11-.1-.13-.29-.08-.55l.06-.27c.06-.26.16-.44.33-.55.16-.1.4-.16.7-.16.33,0,.54.05.65.15.11.1.13.28.08.55l-.06.27c-.06.27-.16.46-.32.55-.16.1-.4.15-.73.15ZM129.95,133.36c-.05.24-.18.45-.37.61-.19.16-.41.25-.66.25s-.43-.08-.55-.24c-.12-.16-.16-.37-.11-.61l1.24-5.79c.05-.24.17-.45.37-.61.19-.16.41-.25.65-.25s.43.08.55.24c.12.16.16.36.11.61l-1.24,5.79ZM127.85,125.34c-.32,0-.56.09-.73.28-.17.18-.28.38-.32.6l-.14.66h1.27c.22,0,.39.07.51.21.12.14.15.33.11.55-.05.23-.16.41-.34.56-.18.14-.38.22-.61.22h-1.28s-1.06,4.97-1.06,4.97c-.05.24-.18.45-.37.61-.2.16-.41.25-.66.25s-.43-.08-.55-.24c-.13-.16-.16-.37-.11-.61l1.06-4.96h-.76c-.22,0-.4-.07-.51-.21-.12-.15-.15-.33-.11-.55.05-.22.16-.41.34-.55.18-.15.38-.22.61-.22h.76s.14-.65.14-.65c.15-.7.51-1.27,1.09-1.71.58-.44,1.32-.66,2.22-.67.35,0,.63.07.86.21.23.14.31.35.25.64-.05.22-.15.41-.31.55-.16.14-.33.21-.52.21-.05,0-.1,0-.15-.01-.05,0-.1-.02-.16-.03-.21-.05-.39-.08-.54-.08ZM119.63,126.62c.95,0,1.55.28,1.79.84.24.56.26,1.35.04,2.35l-.77,3.59c-.05.24-.17.45-.37.61-.2.16-.41.25-.66.25s-.43-.08-.55-.24c-.13-.16-.16-.37-.11-.61l.77-3.59c.11-.51.09-.92-.06-1.21-.15-.29-.49-.44-1.01-.44-.54,0-1,.16-1.37.47-.37.31-.62.71-.72,1.19l-.77,3.59c-.05.24-.17.45-.37.61-.2.16-.41.25-.66.25s-.43-.08-.55-.24c-.12-.16-.16-.37-.11-.61l1.24-5.79c.05-.24.17-.45.37-.61.19-.16.41-.25.65-.25s.43.08.55.24c.12.16.16.36.11.61l-.05.24c.32-.34.72-.63,1.17-.87.46-.24.93-.37,1.42-.37ZM111.71,130.54c.1-.46.09-.87-.02-1.22-.12-.36-.31-.64-.59-.83-.28-.2-.62-.29-1.01-.29s-.77.1-1.14.3c-.36.2-.68.48-.95.84-.27.36-.45.77-.55,1.23-.1.46-.09.87.03,1.22.12.35.31.63.59.82.28.2.62.29,1.01.29s.77-.1,1.13-.3c.36-.2.68-.47.95-.83.27-.36.45-.76.55-1.22ZM113.39,130.53c-.16.75-.47,1.42-.93,2.01-.46.59-1.02,1.06-1.68,1.39-.65.33-1.33.49-2.03.5-.71,0-1.32-.16-1.83-.48-.51-.32-.87-.78-1.08-1.38-.21-.59-.23-1.26-.07-2.01.16-.75.47-1.42.94-2.01.46-.59,1.02-1.06,1.67-1.39.65-.33,1.33-.5,2.04-.5s1.31.16,1.82.49c.51.33.87.79,1.08,1.38.21.59.23,1.26.07,2.01ZM103.08,126.67c.79,0,1.41.12,1.84.36.43.25.61.57.52.99-.04.21-.14.39-.3.54-.15.16-.33.23-.53.23-.15,0-.27-.02-.35-.06-.08-.04-.16-.1-.24-.17-.07-.07-.15-.13-.22-.17-.08-.05-.21-.09-.39-.13-.18-.04-.32-.05-.43-.05-.7,0-1.3.22-1.79.66-.49.44-.81,1-.96,1.7-.14.67-.06,1.23.24,1.67.31.44.77.66,1.4.66.46,0,.81-.06,1.06-.17.06-.03.15-.08.26-.15.11-.07.22-.13.31-.16.09-.04.2-.06.32-.06.23,0,.4.07.51.22.1.15.13.34.08.57-.05.22-.22.44-.53.63-.3.2-.69.35-1.14.47-.45.12-.92.18-1.41.18-.72,0-1.32-.16-1.79-.5-.47-.33-.8-.8-.97-1.39-.17-.59-.18-1.25-.02-1.98.16-.76.47-1.43.9-2.02.44-.59.97-1.05,1.61-1.39.63-.33,1.3-.5,2.01-.5ZM87.31,133.2c-.06-.11-.07-.25-.03-.42.05-.24.22-.45.5-.62.15-.08.29-.13.43-.13.2,0,.36.09.5.26.22.29.46.5.74.64.27.14.62.21,1.05.21.73-.03,1.16-.31,1.27-.83.06-.27-.02-.48-.24-.62-.22-.14-.57-.28-1.07-.42-.51-.15-.92-.29-1.23-.44-.31-.15-.56-.38-.74-.68-.18-.3-.22-.71-.11-1.22.1-.45.31-.84.64-1.17.33-.33.72-.59,1.17-.78.46-.18.92-.27,1.38-.28s.93.08,1.37.26c.44.18.76.43.95.78.09.15.11.32.07.51-.05.21-.17.39-.38.53-.15.1-.31.15-.48.16-.21,0-.36-.06-.46-.19-.12-.21-.31-.37-.55-.49-.24-.12-.53-.18-.87-.18-.71,0-1.12.26-1.23.77-.04.21-.01.37.09.5.11.13.25.22.43.29.19.07.45.15.79.26.47.14.86.28,1.17.43.31.15.54.38.71.68.17.31.2.71.09,1.22-.1.46-.32.86-.66,1.2-.34.34-.75.6-1.21.78-.46.18-.92.27-1.37.27-.62,0-1.17-.1-1.66-.3-.49-.2-.85-.54-1.09-.99ZM85.22,130.63c.1-.46.09-.87-.02-1.22-.12-.36-.31-.64-.59-.83-.28-.2-.62-.29-1.01-.29s-.77.1-1.14.3c-.36.2-.68.48-.95.84-.27.36-.45.77-.55,1.23-.1.46-.09.87.03,1.22.12.35.31.63.59.82.28.2.62.29,1.01.29s.77-.1,1.13-.3c.36-.2.68-.47.95-.83.27-.36.45-.76.55-1.22ZM86.9,130.62c-.16.75-.47,1.42-.93,2.01-.46.59-1.02,1.06-1.68,1.39-.65.33-1.33.49-2.03.5s-1.32-.16-1.83-.48c-.51-.32-.87-.78-1.08-1.38-.21-.59-.23-1.26-.07-2.01.16-.75.47-1.42.94-2.01.46-.59,1.02-1.06,1.67-1.39.65-.33,1.33-.5,2.04-.5.7,0,1.31.16,1.82.49.51.33.87.79,1.08,1.38.21.59.23,1.26.07,2.01ZM76.26,126.76c.92,0,1.5.28,1.74.84.24.56.24,1.35.03,2.35l-.77,3.59c-.05.24-.18.45-.37.61-.2.16-.41.25-.66.25s-.43-.08-.55-.24c-.13-.16-.16-.37-.11-.61l.77-3.59c.11-.51.1-.92-.04-1.21-.14-.29-.46-.44-.96-.44s-.96.16-1.33.47c-.36.31-.59.71-.7,1.19l-.77,3.59c-.05.24-.17.45-.37.61-.2.16-.41.25-.66.25s-.43-.08-.55-.24c-.12-.16-.16-.37-.11-.61l.77-3.59c.11-.51.1-.92-.04-1.21-.14-.29-.46-.44-.96-.44s-.96.16-1.32.47c-.36.31-.6.71-.7,1.19l-.77,3.59c-.05.24-.17.45-.37.61-.2.16-.41.25-.66.25s-.43-.08-.55-.24c-.13-.16-.16-.37-.11-.61l1.24-5.79c.05-.24.17-.45.37-.61.19-.16.41-.25.65-.25s.43.08.55.24c.12.16.16.36.11.61l-.05.23c.33-.34.71-.63,1.15-.87.44-.24.9-.36,1.37-.36,1.18,0,1.82.51,1.92,1.53.3-.39.7-.75,1.2-1.07.5-.32,1.03-.48,1.58-.48ZM60.79,133.05c.61,0,1.15-.23,1.63-.67.48-.44.79-1.01.93-1.68.15-.67.08-1.23-.21-1.68-.29-.45-.73-.67-1.34-.67-.6,0-1.14.23-1.61.68-.48.45-.79,1.01-.94,1.68-.14.67-.07,1.23.21,1.67.28.44.73.66,1.34.66ZM64.95,126.8c.24,0,.43.08.55.24.12.16.16.36.1.62l-1.27,5.93c-.05.24-.18.45-.37.61-.2.16-.41.25-.66.25s-.42-.08-.55-.24c-.12-.16-.16-.36-.12-.6-.29.27-.66.5-1.09.7-.44.19-.88.29-1.32.29-.64,0-1.19-.16-1.64-.49-.45-.33-.76-.79-.94-1.38-.18-.59-.19-1.25-.03-2,.16-.75.45-1.42.88-2.01.43-.59.93-1.06,1.52-1.39.59-.33,1.2-.5,1.82-.5.45,0,.85.08,1.21.24.36.16.65.37.86.62v-.02c.05-.24.18-.45.37-.61.19-.16.41-.25.66-.25ZM56.87,126.83c.28,0,.5.08.66.23.16.16.22.35.17.56-.06.29-.18.51-.36.65-.18.14-.37.22-.58.22-.14,0-.29-.03-.46-.1-.03,0-.09-.03-.18-.06-.09-.03-.19-.04-.31-.04-.24,0-.49.08-.75.23-.26.15-.49.38-.7.68-.21.31-.36.67-.45,1.09l-.71,3.32c-.05.24-.17.45-.37.61-.2.16-.41.25-.66.25s-.43-.08-.55-.24c-.13-.16-.16-.37-.11-.61l1.24-5.79c.05-.24.17-.45.37-.61.19-.16.41-.25.65-.25s.43.08.55.24c.12.16.16.36.11.61l-.04.18c.3-.38.67-.68,1.11-.88.45-.2.9-.3,1.35-.31ZM47.7,128.4c-1.08,0-1.83.51-2.25,1.53h3.67s.02-.11.02-.11c.05-.39-.07-.73-.36-1.01-.29-.28-.65-.42-1.09-.42ZM50.78,130.56c-.06.22-.19.41-.38.55-.2.14-.41.21-.63.21l-4.62.02c0,.55.16.98.49,1.29.34.31.75.47,1.26.46.38,0,.69-.04.92-.11.23-.07.42-.15.56-.23.14-.08.24-.13.29-.16.19-.08.36-.13.5-.13.2,0,.35.07.46.21.11.14.14.3.1.49-.06.25-.23.48-.54.69-.31.21-.7.4-1.17.55-.47.15-.93.23-1.38.23-.79,0-1.43-.16-1.95-.48-.51-.32-.87-.77-1.06-1.35-.19-.57-.21-1.22-.06-1.94.17-.8.49-1.51.96-2.12.47-.61,1.01-1.08,1.63-1.4.62-.32,1.24-.49,1.87-.49.62,0,1.16.16,1.63.5.48.33.82.79,1.02,1.36.2.57.24,1.19.09,1.85ZM40.51,126.88c.95,0,1.55.28,1.79.84.24.56.26,1.35.04,2.35l-.77,3.59c-.05.24-.17.45-.37.61-.2.16-.41.25-.66.25s-.43-.08-.55-.24c-.13-.16-.16-.37-.11-.61l.77-3.59c.11-.51.09-.92-.06-1.21-.15-.29-.49-.44-1.01-.44s-1,.16-1.37.47c-.37.31-.62.71-.72,1.19l-.77,3.59c-.05.24-.17.45-.37.61-.2.16-.41.25-.66.25s-.43-.08-.55-.24c-.13-.16-.16-.37-.11-.61l1.24-5.79c.05-.24.17-.45.37-.61.19-.16.41-.25.65-.25s.43.08.55.24c.12.16.16.36.11.61l-.05.24c.32-.34.72-.63,1.17-.87.46-.24.93-.37,1.42-.37ZM31.22,128.46c-1.08,0-1.83.51-2.25,1.53h3.67s.02-.11.02-.11c.05-.39-.07-.73-.36-1.01-.29-.28-.65-.42-1.09-.42ZM34.3,130.62c-.06.22-.19.41-.38.55-.2.14-.41.21-.63.21l-4.62.02c0,.55.16.98.49,1.29.34.31.75.47,1.26.46.38,0,.69-.04.92-.11.23-.07.42-.15.56-.23.14-.08.24-.13.29-.16.19-.08.36-.13.5-.13.2,0,.35.07.46.21.11.14.14.3.1.49-.06.25-.23.48-.54.69-.31.21-.7.4-1.17.55-.47.15-.93.23-1.38.23-.79,0-1.43-.16-1.95-.48-.51-.32-.87-.77-1.06-1.35-.19-.57-.21-1.22-.06-1.94.17-.8.49-1.51.96-2.12.47-.61,1.01-1.08,1.63-1.4.62-.32,1.24-.49,1.87-.49.62,0,1.16.16,1.63.5.48.33.82.79,1.02,1.36.2.57.24,1.19.09,1.85ZM25.49,129.27c.24,0,.43.08.55.25.13.16.16.36.11.61l-.64,2.97c-.07.33-.27.58-.6.76-1.04.57-2.1.86-3.2.87-.92,0-1.73-.22-2.42-.67-.69-.45-1.18-1.06-1.47-1.83-.29-.77-.34-1.61-.14-2.53.2-.92.61-1.76,1.23-2.53.62-.77,1.38-1.39,2.26-1.84.88-.46,1.79-.69,2.71-.69.93,0,1.69.18,2.29.55.12.07.21.17.25.29.05.12.05.25.02.39-.05.23-.17.44-.36.61-.19.17-.4.26-.62.26-.14,0-.29-.04-.44-.11-.46-.21-.96-.32-1.5-.32-.6,0-1.18.16-1.75.46-.57.31-1.06.71-1.46,1.23-.4.52-.67,1.08-.8,1.68-.13.61-.1,1.17.08,1.68.19.51.5.92.94,1.22.44.3.96.45,1.55.45.26,0,.55-.03.86-.07.31-.05.58-.11.82-.19l.39-1.82h-1.32c-.24,0-.43-.07-.56-.23-.13-.16-.17-.36-.12-.6.05-.24.18-.44.38-.6.2-.16.42-.24.66-.24h2.3Z"/>
    <path class="cls-1" d="M216.92,126.43c.24,0,.43.08.55.24.12.16.16.36.11.61l-.76,3.56c-.22,1.01-.66,1.8-1.34,2.37-.68.57-1.53.86-2.56.86-1.03,0-1.76-.28-2.18-.85-.43-.57-.53-1.36-.32-2.37l.76-3.56c.05-.24.17-.45.37-.61.19-.16.41-.25.65-.25s.43.08.55.24c.12.16.16.36.11.61l-.76,3.56c-.12.57-.09.99.11,1.27.2.27.54.41,1.05.41s.93-.14,1.24-.42c.31-.28.53-.7.65-1.27l.76-3.56c.05-.24.17-.45.37-.61.19-.16.41-.25.65-.25M207.97,132.37c.13,0,.24.06.32.19.08.13.1.29.06.5-.06.25-.24.47-.55.64-.31.17-.64.26-.99.26-.58,0-1.04-.12-1.38-.37-.35-.25-.43-.77-.26-1.58l.83-3.87h-.64c-.23,0-.4-.07-.51-.22-.12-.15-.15-.34-.1-.56.05-.21.16-.4.34-.54.18-.15.38-.22.61-.22h.64s.19-.9.19-.9c.05-.24.18-.45.38-.61.2-.16.42-.25.66-.25s.41.08.54.24c.12.16.16.37.11.61l-.19.9h1c.22,0,.39.07.51.22.12.15.15.34.11.56-.05.22-.16.4-.34.54-.18.14-.38.22-.61.22h-1s-.82,3.8-.82,3.8c-.04.2-.02.34.06.43.08.09.21.13.39.13.07,0,.18-.02.32-.06.12-.05.23-.07.34-.07ZM194.91,132.6c.61,0,1.15-.23,1.63-.67.48-.44.79-1.01.93-1.68.15-.67.08-1.23-.21-1.68-.29-.45-.73-.67-1.34-.67s-1.14.23-1.61.68c-.48.45-.79,1.01-.94,1.68-.14.67-.07,1.23.21,1.67.28.44.73.66,1.34.66ZM199.07,126.35c.24,0,.43.08.55.24.12.16.16.36.1.62l-1.27,5.93c-.05.24-.18.45-.37.61-.2.16-.41.25-.66.25s-.42-.08-.55-.24c-.12-.16-.16-.36-.12-.6-.29.27-.66.5-1.09.7-.44.19-.88.29-1.32.29-.64,0-1.19-.16-1.64-.49-.45-.33-.76-.79-.94-1.38-.18-.59-.19-1.25-.03-2,.16-.75.45-1.42.88-2.01.43-.59.93-1.06,1.52-1.39.59-.33,1.2-.5,1.82-.5.45,0,.85.08,1.21.24.36.16.65.37.86.62v-.02c.05-.24.18-.45.37-.61.19-.16.41-.25.66-.25ZM190.99,126.38c.28,0,.5.08.66.23.16.16.22.35.17.56-.06.29-.18.51-.37.65-.18.14-.37.22-.58.22-.14,0-.29-.03-.46-.1-.03,0-.09-.03-.18-.06-.09-.03-.19-.04-.31-.04-.24,0-.49.08-.75.23-.26.15-.49.38-.7.68-.21.31-.36.67-.45,1.09l-.71,3.32c-.05.24-.17.45-.37.61-.2.16-.41.25-.66.25s-.43-.08-.55-.24c-.13-.16-.16-.37-.11-.61l1.24-5.79c.05-.24.17-.45.37-.61.19-.16.41-.25.65-.25s.43.08.55.24c.12.16.16.36.11.61l-.04.18c.3-.38.67-.68,1.11-.88.45-.2.9-.3,1.35-.31Z"/>
  </g>
</svg>